<svg width="343" height="50" viewBox="0 0 343 50" fill="none" xmlns="http://www.w3.org/2000/svg">
<rect width="343" height="50" rx="25" fill="#0145FE"/>
<path d="M147.17 30.182C146.302 30.182 145.537 29.9767 144.874 29.566C144.221 29.1553 143.708 28.5767 143.334 27.83C142.97 27.074 142.788 26.1873 142.788 25.17C142.788 24.1433 142.97 23.2567 143.334 22.51C143.708 21.7633 144.221 21.1847 144.874 20.774C145.537 20.3633 146.302 20.158 147.17 20.158C147.87 20.158 148.5 20.2887 149.06 20.55C149.63 20.8113 150.106 21.1847 150.488 21.67C150.871 22.146 151.132 22.72 151.272 23.392L149.354 23.924C149.242 23.2987 148.995 22.818 148.612 22.482C148.239 22.146 147.754 21.978 147.156 21.978C146.438 21.978 145.859 22.258 145.42 22.818C144.982 23.378 144.762 24.162 144.762 25.17C144.762 26.1687 144.982 26.9527 145.42 27.522C145.859 28.082 146.438 28.362 147.156 28.362C147.772 28.362 148.272 28.194 148.654 27.858C149.037 27.5127 149.284 27.0227 149.396 26.388L151.314 26.92C151.165 27.6013 150.899 28.1847 150.516 28.67C150.134 29.1553 149.658 29.5287 149.088 29.79C148.528 30.0513 147.889 30.182 147.17 30.182ZM155.748 30.182C155.057 30.182 154.441 30.0187 153.9 29.692C153.368 29.3653 152.948 28.9127 152.64 28.334C152.341 27.7553 152.192 27.074 152.192 26.29C152.192 25.506 152.341 24.8247 152.64 24.246C152.948 23.658 153.368 23.2053 153.9 22.888C154.441 22.5613 155.057 22.398 155.748 22.398C156.457 22.398 157.078 22.5613 157.61 22.888C158.142 23.2053 158.557 23.658 158.856 24.246C159.164 24.8247 159.318 25.506 159.318 26.29C159.318 27.074 159.164 27.7553 158.856 28.334C158.557 28.9127 158.142 29.3653 157.61 29.692C157.078 30.0187 156.457 30.182 155.748 30.182ZM155.748 28.516C156.261 28.516 156.662 28.334 156.952 27.97C157.25 27.606 157.4 27.046 157.4 26.29C157.4 25.534 157.25 24.974 156.952 24.61C156.662 24.246 156.261 24.064 155.748 24.064C155.244 24.064 154.842 24.246 154.544 24.61C154.254 24.974 154.11 25.534 154.11 26.29C154.11 27.046 154.254 27.606 154.544 27.97C154.842 28.334 155.244 28.516 155.748 28.516ZM165.244 30V25.716C165.244 25.1653 165.109 24.75 164.838 24.47C164.567 24.19 164.231 24.05 163.83 24.05C163.429 24.05 163.093 24.19 162.822 24.47C162.551 24.75 162.416 25.1653 162.416 25.716H162.01C162.01 25.016 162.117 24.4187 162.332 23.924C162.556 23.4293 162.859 23.0513 163.242 22.79C163.634 22.5287 164.087 22.398 164.6 22.398C165.085 22.398 165.515 22.5193 165.888 22.762C166.271 22.9953 166.569 23.3313 166.784 23.77C166.999 24.1993 167.106 24.722 167.106 25.338V30H165.244ZM160.554 30V22.58H162.416V30H160.554ZM171.516 30.182C170.732 30.182 170.116 29.9627 169.668 29.524C169.22 29.076 168.996 28.4133 168.996 27.536V21.04L170.844 20.676V27.298C170.844 27.69 170.942 27.984 171.138 28.18C171.344 28.376 171.628 28.474 171.992 28.474C172.17 28.474 172.333 28.46 172.482 28.432C172.632 28.3947 172.786 28.3573 172.944 28.32V30C172.73 30.056 172.51 30.098 172.286 30.126C172.062 30.1633 171.806 30.182 171.516 30.182ZM168.03 24.134V22.58H172.874V24.134H168.03ZM173.98 30V22.58H175.842V30H173.98ZM174.918 21.698C174.628 21.698 174.39 21.6093 174.204 21.432C174.017 21.2453 173.924 21.0027 173.924 20.704C173.924 20.4053 174.017 20.1673 174.204 19.99C174.39 19.8127 174.628 19.724 174.918 19.724C175.198 19.724 175.431 19.8127 175.618 19.99C175.814 20.1673 175.912 20.4053 175.912 20.704C175.912 21.0027 175.814 21.2453 175.618 21.432C175.431 21.6093 175.198 21.698 174.918 21.698ZM182.129 30V25.716C182.129 25.1653 181.993 24.75 181.723 24.47C181.452 24.19 181.116 24.05 180.715 24.05C180.313 24.05 179.977 24.19 179.707 24.47C179.436 24.75 179.301 25.1653 179.301 25.716H178.895C178.895 25.016 179.002 24.4187 179.217 23.924C179.441 23.4293 179.744 23.0513 180.127 22.79C180.519 22.5287 180.971 22.398 181.485 22.398C181.97 22.398 182.399 22.5193 182.773 22.762C183.155 22.9953 183.454 23.3313 183.669 23.77C183.883 24.1993 183.991 24.722 183.991 25.338V30H182.129ZM177.439 30V22.58H179.301V30H177.439ZM188.093 30.182C187.356 30.182 186.754 29.9207 186.287 29.398C185.82 28.8753 185.587 28.1567 185.587 27.242V22.58H187.449V26.864C187.449 27.4053 187.58 27.8207 187.841 28.11C188.112 28.39 188.448 28.53 188.849 28.53C189.26 28.53 189.596 28.39 189.857 28.11C190.118 27.8207 190.249 27.4053 190.249 26.864H190.655C190.655 27.5547 190.548 28.152 190.333 28.656C190.118 29.1507 189.82 29.5287 189.437 29.79C189.054 30.0513 188.606 30.182 188.093 30.182ZM190.249 30V22.58H192.111V30H190.249ZM196.844 30.182C196.163 30.182 195.556 30.0187 195.024 29.692C194.492 29.3653 194.077 28.9127 193.778 28.334C193.489 27.746 193.344 27.0647 193.344 26.29C193.344 25.4967 193.493 24.8107 193.792 24.232C194.091 23.644 194.506 23.1913 195.038 22.874C195.57 22.5567 196.177 22.398 196.858 22.398C197.539 22.398 198.141 22.5567 198.664 22.874C199.187 23.1913 199.593 23.6393 199.882 24.218C200.181 24.7967 200.33 25.4873 200.33 26.29C200.33 26.3833 200.325 26.472 200.316 26.556C200.316 26.64 200.316 26.7333 200.316 26.836H194.506V25.534H198.944L198.426 26.29C198.426 25.4593 198.286 24.8667 198.006 24.512C197.735 24.148 197.353 23.966 196.858 23.966C196.382 23.966 195.995 24.148 195.696 24.512C195.407 24.8667 195.262 25.4593 195.262 26.29C195.262 27.0647 195.411 27.6387 195.71 28.012C196.009 28.376 196.415 28.558 196.928 28.558C197.273 28.558 197.572 28.4787 197.824 28.32C198.076 28.1613 198.263 27.914 198.384 27.578L200.134 28.082C199.938 28.7167 199.555 29.2253 198.986 29.608C198.426 29.9907 197.712 30.182 196.844 30.182Z" fill="white"/>
</svg>
