<svg width="34" height="35" viewBox="0 0 34 35" fill="none" xmlns="http://www.w3.org/2000/svg">
<rect width="34" height="34.85" rx="17" fill="#F1F5F9"/>
<path d="M8.55747 22.5V20.9768H11.0191C11.962 20.9768 12.6692 20.7093 13.1407 20.1744C13.6121 19.6304 13.8479 18.8416 13.8479 17.808C13.8479 16.7653 13.6121 15.9765 13.1407 15.4416C12.6692 14.9066 11.962 14.6392 11.0191 14.6392H8.55747V13.116H11.1551C12.0708 13.116 12.8596 13.3064 13.5215 13.6872C14.1833 14.068 14.6865 14.6074 15.0311 15.3056C15.3847 16.0037 15.5615 16.8378 15.5615 17.808C15.5615 18.769 15.3847 19.6032 15.0311 20.3104C14.6865 21.0085 14.1833 21.548 13.5215 21.9288C12.8596 22.3096 12.0708 22.5 11.1551 22.5H8.55747ZM7.79587 22.5V13.116H9.44147V22.5H7.79587ZM22.3563 22.5L17.8003 13.116H19.5275L24.0835 22.5H22.3563ZM17.0795 22.5V13.116H18.6435V22.5H17.0795ZM23.2403 22.5V13.116H24.8043V22.5H23.2403Z" fill="#01040F"/>
</svg>
