<svg width="335" height="50" viewBox="0 0 335 50" fill="none" xmlns="http://www.w3.org/2000/svg">
<rect y="-6.10352e-05" width="335" height="50" rx="25" fill="#0145FE"/>
<path d="M152.476 29.9999V28.1939H155.108C155.994 28.1939 156.662 27.9326 157.11 27.4099C157.567 26.8873 157.796 26.1406 157.796 25.1699C157.796 24.1899 157.567 23.4433 157.11 22.9299C156.662 22.4073 155.994 22.1459 155.108 22.1459H152.476V20.3399H155.248C156.209 20.3399 157.026 20.5359 157.698 20.9279C158.37 21.3199 158.883 21.8799 159.238 22.6079C159.592 23.3266 159.77 24.1806 159.77 25.1699C159.77 26.1593 159.592 27.0179 159.238 27.7459C158.883 28.4646 158.37 29.0199 157.698 29.4119C157.026 29.8039 156.209 29.9999 155.248 29.9999H152.476ZM151.608 29.9999V20.3399H153.554V29.9999H151.608ZM164.312 30.1819C163.622 30.1819 163.006 30.0186 162.464 29.6919C161.932 29.3653 161.512 28.9126 161.204 28.3339C160.906 27.7553 160.756 27.0739 160.756 26.2899C160.756 25.5059 160.906 24.8246 161.204 24.2459C161.512 23.6579 161.932 23.2053 162.464 22.8879C163.006 22.5613 163.622 22.3979 164.312 22.3979C165.022 22.3979 165.642 22.5613 166.174 22.8879C166.706 23.2053 167.122 23.6579 167.42 24.2459C167.728 24.8246 167.882 25.5059 167.882 26.2899C167.882 27.0739 167.728 27.7553 167.42 28.3339C167.122 28.9126 166.706 29.3653 166.174 29.6919C165.642 30.0186 165.022 30.1819 164.312 30.1819ZM164.312 28.5159C164.826 28.5159 165.227 28.3339 165.516 27.9699C165.815 27.6059 165.964 27.0459 165.964 26.2899C165.964 25.5339 165.815 24.9739 165.516 24.6099C165.227 24.2459 164.826 24.0639 164.312 24.0639C163.808 24.0639 163.407 24.2459 163.108 24.6099C162.819 24.9739 162.674 25.5339 162.674 26.2899C162.674 27.0459 162.819 27.6059 163.108 27.9699C163.407 28.3339 163.808 28.5159 164.312 28.5159ZM173.808 29.9999V25.7159C173.808 25.1653 173.673 24.7499 173.402 24.4699C173.132 24.1899 172.796 24.0499 172.394 24.0499C171.993 24.0499 171.657 24.1899 171.386 24.4699C171.116 24.7499 170.98 25.1653 170.98 25.7159H170.574C170.574 25.0159 170.682 24.4186 170.896 23.9239C171.12 23.4293 171.424 23.0513 171.806 22.7899C172.198 22.5286 172.651 22.3979 173.164 22.3979C173.65 22.3979 174.079 22.5193 174.452 22.7619C174.835 22.9953 175.134 23.3313 175.348 23.7699C175.563 24.1993 175.67 24.7219 175.67 25.3379V29.9999H173.808ZM169.118 29.9999V22.5799H170.98V29.9999H169.118ZM180.403 30.1819C179.721 30.1819 179.115 30.0186 178.583 29.6919C178.051 29.3653 177.635 28.9126 177.337 28.3339C177.047 27.7459 176.903 27.0646 176.903 26.2899C176.903 25.4966 177.052 24.8106 177.351 24.2319C177.649 23.6439 178.065 23.1913 178.597 22.8739C179.129 22.5566 179.735 22.3979 180.417 22.3979C181.098 22.3979 181.7 22.5566 182.223 22.8739C182.745 23.1913 183.151 23.6393 183.441 24.2179C183.739 24.7966 183.889 25.4873 183.889 26.2899C183.889 26.3833 183.884 26.4719 183.875 26.5559C183.875 26.6399 183.875 26.7333 183.875 26.8359H178.065V25.5339H182.503L181.985 26.2899C181.985 25.4593 181.845 24.8666 181.565 24.5119C181.294 24.1479 180.911 23.9659 180.417 23.9659C179.941 23.9659 179.553 24.1479 179.255 24.5119C178.965 24.8666 178.821 25.4593 178.821 26.2899C178.821 27.0646 178.97 27.6386 179.269 28.0119C179.567 28.3759 179.973 28.5579 180.487 28.5579C180.832 28.5579 181.131 28.4786 181.383 28.3199C181.635 28.1613 181.821 27.9139 181.943 27.5779L183.693 28.0819C183.497 28.7166 183.114 29.2253 182.545 29.6079C181.985 29.9906 181.271 30.1819 180.403 30.1819Z" fill="white"/>
</svg>
