<svg width="24" height="24" viewBox="0 0 24 24" fill="none" xmlns="http://www.w3.org/2000/svg">
<path d="M22.5015 12.2332C22.5015 11.3699 22.43 10.7399 22.2753 10.0865H12.2158V13.9832H18.1205C18.0015 14.9515 17.3587 16.4099 15.9301 17.3898L15.91 17.5203L19.0907 19.935L19.311 19.9565C21.3348 18.1249 22.5015 15.4298 22.5015 12.2332Z" fill="#4285F4"/>
<path d="M12.215 22.5C15.1078 22.5 17.5363 21.5666 19.3102 19.9566L15.9292 17.3899C15.0245 18.0082 13.8102 18.4399 12.215 18.4399C9.38167 18.4399 6.97693 16.6083 6.11971 14.0766L5.99406 14.087L2.68681 16.5954L2.64355 16.7132C4.40543 20.1432 8.02448 22.5 12.215 22.5Z" fill="#34A853"/>
<path d="M6.11997 14.0766C5.89379 13.4233 5.76289 12.7233 5.76289 12C5.76289 11.2766 5.89379 10.5766 6.10807 9.92329L6.10208 9.78415L2.75337 7.23552L2.64381 7.28659C1.91765 8.70994 1.50098 10.3083 1.50098 12C1.50098 13.6916 1.91765 15.2899 2.64381 16.7133L6.11997 14.0766Z" fill="#FBBC05"/>
<path d="M12.215 5.55997C14.2269 5.55997 15.584 6.41163 16.3579 7.12335L19.3817 4.23C17.5246 2.53834 15.1078 1.5 12.215 1.5C8.02451 1.5 4.40544 3.85665 2.64355 7.28662L6.10783 9.92332C6.97696 7.39166 9.38171 5.55997 12.215 5.55997Z" fill="#EB4335"/>
</svg>
