<svg width="343" height="50" viewBox="0 0 343 50" fill="none" xmlns="http://www.w3.org/2000/svg">
<rect width="343" height="50" rx="25" fill="#0145FE"/>
<path d="M110.326 30L107.148 20.34H109.206L112.258 30H110.326ZM111.39 30L114.372 20.34H116.388L113.21 30H111.39ZM119.926 30.182C119.245 30.182 118.638 30.0187 118.106 29.692C117.574 29.3653 117.159 28.9127 116.86 28.334C116.571 27.746 116.426 27.0647 116.426 26.29C116.426 25.4967 116.576 24.8107 116.874 24.232C117.173 23.644 117.588 23.1913 118.12 22.874C118.652 22.5567 119.259 22.398 119.94 22.398C120.622 22.398 121.224 22.5567 121.746 22.874C122.269 23.1913 122.675 23.6393 122.964 24.218C123.263 24.7967 123.412 25.4873 123.412 26.29C123.412 26.3833 123.408 26.472 123.398 26.556C123.398 26.64 123.398 26.7333 123.398 26.836H117.588V25.534H122.026L121.508 26.29C121.508 25.4593 121.368 24.8667 121.088 24.512C120.818 24.148 120.435 23.966 119.94 23.966C119.464 23.966 119.077 24.148 118.778 24.512C118.489 24.8667 118.344 25.4593 118.344 26.29C118.344 27.0647 118.494 27.6387 118.792 28.012C119.091 28.376 119.497 28.558 120.01 28.558C120.356 28.558 120.654 28.4787 120.906 28.32C121.158 28.1613 121.345 27.914 121.466 27.578L123.216 28.082C123.02 28.7167 122.638 29.2253 122.068 29.608C121.508 29.9907 120.794 30.182 119.926 30.182ZM124.638 30V22.58H126.5V30H124.638ZM126.164 26.472C126.164 25.6507 126.257 24.9367 126.444 24.33C126.631 23.714 126.92 23.238 127.312 22.902C127.704 22.566 128.203 22.398 128.81 22.398V24.512H127.998C127.531 24.512 127.163 24.6333 126.892 24.876C126.631 25.1093 126.5 25.52 126.5 26.108L126.164 26.472ZM129.806 30V22.58H131.668V30H129.806ZM130.744 21.698C130.454 21.698 130.216 21.6093 130.03 21.432C129.843 21.2453 129.75 21.0027 129.75 20.704C129.75 20.4053 129.843 20.1673 130.03 19.99C130.216 19.8127 130.454 19.724 130.744 19.724C131.024 19.724 131.257 19.8127 131.444 19.99C131.64 20.1673 131.738 20.4053 131.738 20.704C131.738 21.0027 131.64 21.2453 131.444 21.432C131.257 21.6093 131.024 21.698 130.744 21.698ZM133.559 30V22.426C133.559 21.5487 133.783 20.8953 134.231 20.466C134.688 20.0273 135.318 19.808 136.121 19.808C136.373 19.808 136.601 19.8267 136.807 19.864C137.012 19.892 137.217 19.934 137.423 19.99V21.558C137.264 21.5113 137.105 21.474 136.947 21.446C136.797 21.418 136.634 21.404 136.457 21.404C136.121 21.404 135.859 21.488 135.673 21.656C135.495 21.8147 135.407 22.048 135.407 22.356V30H133.559ZM132.593 24.134V22.58H137.339V24.134H132.593ZM139.503 32.632C139.232 32.632 138.98 32.6133 138.747 32.576C138.523 32.548 138.299 32.506 138.075 32.45V30.784C138.261 30.8307 138.462 30.8727 138.677 30.91C138.891 30.9567 139.111 30.98 139.335 30.98C139.764 30.98 140.095 30.9007 140.329 30.742C140.571 30.5927 140.739 30.3453 140.833 30L142.793 22.58H144.739L142.555 30C142.349 30.7 142.097 31.2413 141.799 31.624C141.509 32.0067 141.173 32.268 140.791 32.408C140.408 32.5573 139.979 32.632 139.503 32.632ZM139.657 30L137.473 22.58H139.461L141.491 30H139.657ZM151.495 30.182C150.813 30.182 150.207 30.0187 149.675 29.692C149.143 29.3653 148.727 28.9127 148.429 28.334C148.139 27.746 147.995 27.0647 147.995 26.29C147.995 25.4967 148.144 24.8107 148.443 24.232C148.741 23.644 149.157 23.1913 149.689 22.874C150.221 22.5567 150.827 22.398 151.509 22.398C152.19 22.398 152.792 22.5567 153.315 22.874C153.837 23.1913 154.243 23.6393 154.533 24.218C154.831 24.7967 154.981 25.4873 154.981 26.29C154.981 26.3833 154.976 26.472 154.967 26.556C154.967 26.64 154.967 26.7333 154.967 26.836H149.157V25.534H153.595L153.077 26.29C153.077 25.4593 152.937 24.8667 152.657 24.512C152.386 24.148 152.003 23.966 151.509 23.966C151.033 23.966 150.645 24.148 150.347 24.512C150.057 24.8667 149.913 25.4593 149.913 26.29C149.913 27.0647 150.062 27.6387 150.361 28.012C150.659 28.376 151.065 28.558 151.579 28.558C151.924 28.558 152.223 28.4787 152.475 28.32C152.727 28.1613 152.913 27.914 153.035 27.578L154.785 28.082C154.589 28.7167 154.206 29.2253 153.637 29.608C153.077 29.9907 152.363 30.182 151.495 30.182ZM164.9 30V25.604C164.9 25.0907 164.779 24.7033 164.536 24.442C164.303 24.1807 164.009 24.05 163.654 24.05C163.3 24.05 163.001 24.1807 162.758 24.442C162.525 24.7033 162.408 25.0907 162.408 25.604H161.862C161.862 24.932 161.965 24.358 162.17 23.882C162.385 23.406 162.684 23.042 163.066 22.79C163.449 22.5287 163.892 22.398 164.396 22.398C165.087 22.398 165.652 22.65 166.09 23.154C166.538 23.6487 166.762 24.3393 166.762 25.226V30H164.9ZM156.206 30V22.58H158.068V30H156.206ZM160.56 30V25.604C160.56 25.0907 160.439 24.7033 160.196 24.442C159.963 24.1807 159.669 24.05 159.314 24.05C158.96 24.05 158.661 24.1807 158.418 24.442C158.185 24.7033 158.068 25.0907 158.068 25.604H157.662C157.662 24.932 157.76 24.358 157.956 23.882C158.162 23.406 158.446 23.042 158.81 22.79C159.184 22.5287 159.608 22.398 160.084 22.398C160.766 22.398 161.321 22.65 161.75 23.154C162.189 23.6487 162.408 24.3393 162.408 25.226V30H160.56ZM172.729 30C172.673 29.7573 172.626 29.51 172.589 29.258C172.561 29.006 172.547 28.7587 172.547 28.516V25.38C172.547 24.8573 172.421 24.4887 172.169 24.274C171.917 24.05 171.613 23.938 171.258 23.938C170.923 23.938 170.633 24.0313 170.391 24.218C170.157 24.3953 169.994 24.6847 169.901 25.086L168.123 24.652C168.328 23.9147 168.715 23.3547 169.285 22.972C169.854 22.5893 170.549 22.398 171.371 22.398C172.313 22.398 173.055 22.65 173.597 23.154C174.138 23.6487 174.409 24.3347 174.409 25.212V28.348C174.409 28.8987 174.479 29.4493 174.619 30H172.729ZM170.195 30.182C169.495 30.182 168.953 29.9907 168.571 29.608C168.197 29.2253 168.011 28.7307 168.011 28.124C168.011 27.5733 168.193 27.088 168.557 26.668C168.93 26.248 169.509 25.9773 170.293 25.856L173.037 25.394V26.626L170.951 27.06C170.549 27.144 170.269 27.27 170.111 27.438C169.952 27.5967 169.873 27.774 169.873 27.97C169.873 28.166 169.938 28.334 170.069 28.474C170.209 28.6047 170.423 28.67 170.713 28.67C171.011 28.67 171.3 28.6047 171.581 28.474C171.861 28.334 172.089 28.1333 172.267 27.872C172.453 27.6013 172.547 27.2793 172.547 26.906H173.023C173.023 27.578 172.897 28.1613 172.645 28.656C172.393 29.1413 172.052 29.5193 171.623 29.79C171.203 30.0513 170.727 30.182 170.195 30.182ZM176.003 30V22.58H177.865V30H176.003ZM176.941 21.698C176.652 21.698 176.414 21.6093 176.227 21.432C176.04 21.2453 175.947 21.0027 175.947 20.704C175.947 20.4053 176.04 20.1673 176.227 19.99C176.414 19.8127 176.652 19.724 176.941 19.724C177.221 19.724 177.454 19.8127 177.641 19.99C177.837 20.1673 177.935 20.4053 177.935 20.704C177.935 21.0027 177.837 21.2453 177.641 21.432C177.454 21.6093 177.221 21.698 176.941 21.698ZM179.462 30V19.99H181.324V30H179.462ZM190.023 30C189.967 29.7573 189.921 29.51 189.883 29.258C189.855 29.006 189.841 28.7587 189.841 28.516V25.38C189.841 24.8573 189.715 24.4887 189.463 24.274C189.211 24.05 188.908 23.938 188.553 23.938C188.217 23.938 187.928 24.0313 187.685 24.218C187.452 24.3953 187.289 24.6847 187.195 25.086L185.417 24.652C185.623 23.9147 186.01 23.3547 186.579 22.972C187.149 22.5893 187.844 22.398 188.665 22.398C189.608 22.398 190.35 22.65 190.891 23.154C191.433 23.6487 191.703 24.3347 191.703 25.212V28.348C191.703 28.8987 191.773 29.4493 191.913 30H190.023ZM187.489 30.182C186.789 30.182 186.248 29.9907 185.865 29.608C185.492 29.2253 185.305 28.7307 185.305 28.124C185.305 27.5733 185.487 27.088 185.851 26.668C186.225 26.248 186.803 25.9773 187.587 25.856L190.331 25.394V26.626L188.245 27.06C187.844 27.144 187.564 27.27 187.405 27.438C187.247 27.5967 187.167 27.774 187.167 27.97C187.167 28.166 187.233 28.334 187.363 28.474C187.503 28.6047 187.718 28.67 188.007 28.67C188.306 28.67 188.595 28.6047 188.875 28.474C189.155 28.334 189.384 28.1333 189.561 27.872C189.748 27.6013 189.841 27.2793 189.841 26.906H190.317C190.317 27.578 190.191 28.1613 189.939 28.656C189.687 29.1413 189.347 29.5193 188.917 29.79C188.497 30.0513 188.021 30.182 187.489 30.182ZM195.846 30.182C195.277 30.182 194.773 30.028 194.334 29.72C193.905 29.4027 193.569 28.9547 193.326 28.376C193.093 27.7973 192.976 27.102 192.976 26.29C192.976 25.478 193.093 24.7827 193.326 24.204C193.569 23.6253 193.905 23.182 194.334 22.874C194.773 22.5567 195.277 22.398 195.846 22.398C196.602 22.398 197.209 22.6873 197.666 23.266C198.133 23.8353 198.366 24.652 198.366 25.716V26.864C198.366 27.9187 198.133 28.7353 197.666 29.314C197.209 29.8927 196.602 30.182 195.846 30.182ZM196.504 28.516C196.989 28.516 197.377 28.334 197.666 27.97C197.965 27.606 198.114 27.046 198.114 26.29C198.114 25.534 197.965 24.974 197.666 24.61C197.377 24.246 196.989 24.064 196.504 24.064C196.019 24.064 195.627 24.246 195.328 24.61C195.039 24.974 194.894 25.534 194.894 26.29C194.894 27.046 195.039 27.606 195.328 27.97C195.627 28.334 196.019 28.516 196.504 28.516ZM197.988 30V28.124L198.24 26.29L197.988 24.526V19.99H199.85V30H197.988ZM203.994 30.182C203.425 30.182 202.921 30.028 202.482 29.72C202.053 29.4027 201.717 28.9547 201.474 28.376C201.241 27.7973 201.124 27.102 201.124 26.29C201.124 25.478 201.241 24.7827 201.474 24.204C201.717 23.6253 202.053 23.182 202.482 22.874C202.921 22.5567 203.425 22.398 203.994 22.398C204.75 22.398 205.357 22.6873 205.814 23.266C206.281 23.8353 206.514 24.652 206.514 25.716V26.864C206.514 27.9187 206.281 28.7353 205.814 29.314C205.357 29.8927 204.75 30.182 203.994 30.182ZM204.652 28.516C205.138 28.516 205.525 28.334 205.814 27.97C206.113 27.606 206.262 27.046 206.262 26.29C206.262 25.534 206.113 24.974 205.814 24.61C205.525 24.246 205.138 24.064 204.652 24.064C204.167 24.064 203.775 24.246 203.476 24.61C203.187 24.974 203.042 25.534 203.042 26.29C203.042 27.046 203.187 27.606 203.476 27.97C203.775 28.334 204.167 28.516 204.652 28.516ZM206.136 30V28.124L206.388 26.29L206.136 24.526V19.99H207.998V30H206.136ZM209.595 30V22.58H211.457V30H209.595ZM211.121 26.472C211.121 25.6507 211.214 24.9367 211.401 24.33C211.588 23.714 211.877 23.238 212.269 22.902C212.661 22.566 213.16 22.398 213.767 22.398V24.512H212.955C212.488 24.512 212.12 24.6333 211.849 24.876C211.588 25.1093 211.457 25.52 211.457 26.108L211.121 26.472ZM217.899 30.182C217.218 30.182 216.611 30.0187 216.079 29.692C215.547 29.3653 215.132 28.9127 214.833 28.334C214.544 27.746 214.399 27.0647 214.399 26.29C214.399 25.4967 214.548 24.8107 214.847 24.232C215.146 23.644 215.561 23.1913 216.093 22.874C216.625 22.5567 217.232 22.398 217.913 22.398C218.594 22.398 219.196 22.5567 219.719 22.874C220.242 23.1913 220.648 23.6393 220.937 24.218C221.236 24.7967 221.385 25.4873 221.385 26.29C221.385 26.3833 221.38 26.472 221.371 26.556C221.371 26.64 221.371 26.7333 221.371 26.836H215.561V25.534H219.999L219.481 26.29C219.481 25.4593 219.341 24.8667 219.061 24.512C218.79 24.148 218.408 23.966 217.913 23.966C217.437 23.966 217.05 24.148 216.751 24.512C216.462 24.8667 216.317 25.4593 216.317 26.29C216.317 27.0647 216.466 27.6387 216.765 28.012C217.064 28.376 217.47 28.558 217.983 28.558C218.328 28.558 218.627 28.4787 218.879 28.32C219.131 28.1613 219.318 27.914 219.439 27.578L221.189 28.082C220.993 28.7167 220.61 29.2253 220.041 29.608C219.481 29.9907 218.767 30.182 217.899 30.182ZM225.327 30.182C224.431 30.182 223.712 30.0093 223.171 29.664C222.639 29.3093 222.293 28.7773 222.135 28.068L223.857 27.522C223.978 27.942 224.169 28.2453 224.431 28.432C224.701 28.6187 225.042 28.712 225.453 28.712C225.835 28.712 226.12 28.656 226.307 28.544C226.493 28.4227 226.587 28.25 226.587 28.026C226.587 27.7927 226.484 27.6107 226.279 27.48C226.083 27.3493 225.826 27.242 225.508 27.158C225.191 27.0647 224.851 26.9713 224.487 26.878C224.132 26.7753 223.796 26.6447 223.479 26.486C223.161 26.318 222.9 26.094 222.695 25.814C222.489 25.5247 222.387 25.1467 222.387 24.68C222.387 24.0173 222.643 23.4713 223.157 23.042C223.67 22.6127 224.393 22.398 225.327 22.398C226.139 22.398 226.792 22.566 227.287 22.902C227.791 23.238 228.145 23.728 228.351 24.372L226.671 24.904C226.54 24.5307 226.358 24.2647 226.125 24.106C225.901 23.938 225.597 23.854 225.215 23.854C224.86 23.854 224.599 23.9147 224.431 24.036C224.263 24.1573 224.179 24.302 224.179 24.47C224.179 24.666 224.281 24.8247 224.487 24.946C224.692 25.058 224.958 25.156 225.285 25.24C225.611 25.3147 225.957 25.4033 226.321 25.506C226.685 25.6087 227.03 25.7487 227.357 25.926C227.683 26.1033 227.949 26.346 228.155 26.654C228.36 26.9527 228.463 27.3493 228.463 27.844C228.463 28.5347 228.187 29.0993 227.637 29.538C227.095 29.9673 226.325 30.182 225.327 30.182ZM232.381 30.182C231.485 30.182 230.767 30.0093 230.225 29.664C229.693 29.3093 229.348 28.7773 229.189 28.068L230.911 27.522C231.033 27.942 231.224 28.2453 231.485 28.432C231.756 28.6187 232.097 28.712 232.507 28.712C232.89 28.712 233.175 28.656 233.361 28.544C233.548 28.4227 233.641 28.25 233.641 28.026C233.641 27.7927 233.539 27.6107 233.333 27.48C233.137 27.3493 232.881 27.242 232.563 27.158C232.246 27.0647 231.905 26.9713 231.541 26.878C231.187 26.7753 230.851 26.6447 230.533 26.486C230.216 26.318 229.955 26.094 229.749 25.814C229.544 25.5247 229.441 25.1467 229.441 24.68C229.441 24.0173 229.698 23.4713 230.211 23.042C230.725 22.6127 231.448 22.398 232.381 22.398C233.193 22.398 233.847 22.566 234.341 22.902C234.845 23.238 235.2 23.728 235.405 24.372L233.725 24.904C233.595 24.5307 233.413 24.2647 233.179 24.106C232.955 23.938 232.652 23.854 232.269 23.854C231.915 23.854 231.653 23.9147 231.485 24.036C231.317 24.1573 231.233 24.302 231.233 24.47C231.233 24.666 231.336 24.8247 231.541 24.946C231.747 25.058 232.013 25.156 232.339 25.24C232.666 25.3147 233.011 25.4033 233.375 25.506C233.739 25.6087 234.085 25.7487 234.411 25.926C234.738 26.1033 235.004 26.346 235.209 26.654C235.415 26.9527 235.517 27.3493 235.517 27.844C235.517 28.5347 235.242 29.0993 234.691 29.538C234.15 29.9673 233.38 30.182 232.381 30.182Z" fill="white"/>
</svg>
