<svg width="9" height="9" viewBox="0 0 9 9" fill="none" xmlns="http://www.w3.org/2000/svg">
<path d="M6.75125 2.685C6.72875 2.68125 6.7025 2.68125 6.68 2.685C6.1625 2.66625 5.75 2.2425 5.75 1.7175C5.75 1.18125 6.18125 0.75 6.7175 0.75C7.25375 0.75 7.685 1.185 7.685 1.7175C7.68125 2.2425 7.26875 2.66625 6.75125 2.685Z" stroke="#F1F5F9" stroke-width="0.5625" stroke-linecap="round" stroke-linejoin="round"/>
<path d="M6.36477 5.41506C6.87852 5.50131 7.44477 5.41131 7.84227 5.14506C8.37102 4.79256 8.37102 4.21506 7.84227 3.86256C7.44102 3.59631 6.86727 3.50631 6.35352 3.59631" stroke="#F1F5F9" stroke-width="0.5625" stroke-linecap="round" stroke-linejoin="round"/>
<path d="M2.23844 2.685C2.26094 2.68125 2.28719 2.68125 2.30969 2.685C2.82719 2.66625 3.23969 2.2425 3.23969 1.7175C3.23969 1.18125 2.80844 0.75 2.27219 0.75C1.73594 0.75 1.30469 1.185 1.30469 1.7175C1.30844 2.2425 1.72094 2.66625 2.23844 2.685Z" stroke="#F1F5F9" stroke-width="0.5625" stroke-linecap="round" stroke-linejoin="round"/>
<path d="M2.62602 5.41506C2.11227 5.50131 1.54602 5.41131 1.14852 5.14506C0.619766 4.79256 0.619766 4.21506 1.14852 3.86256C1.54977 3.59631 2.12351 3.50631 2.63726 3.59631" stroke="#F1F5F9" stroke-width="0.5625" stroke-linecap="round" stroke-linejoin="round"/>
<path d="M4.50125 5.48627C4.47875 5.48252 4.4525 5.48252 4.43 5.48627C3.9125 5.46752 3.5 5.04377 3.5 4.51877C3.5 3.98252 3.93125 3.55127 4.4675 3.55127C5.00375 3.55127 5.435 3.98627 5.435 4.51877C5.43125 5.04377 5.01875 5.47127 4.50125 5.48627Z" stroke="#F1F5F9" stroke-width="0.5625" stroke-linecap="round" stroke-linejoin="round"/>
<path d="M3.41023 6.66751C2.88148 7.02001 2.88148 7.59751 3.41023 7.95001C4.01023 8.35126 4.99273 8.35126 5.59273 7.95001C6.12148 7.59751 6.12148 7.02001 5.59273 6.66751C4.99648 6.27001 4.01023 6.27001 3.41023 6.66751Z" stroke="#F1F5F9" stroke-width="0.5625" stroke-linecap="round" stroke-linejoin="round"/>
</svg>
