<svg width="12" height="13" viewBox="0 0 12 13" fill="none" xmlns="http://www.w3.org/2000/svg">
<path d="M11.5024 10.9139C11.6565 11.068 11.7431 11.277 11.7431 11.4949C11.7431 11.7129 11.6565 11.9219 11.5024 12.076C11.3483 12.2301 11.1393 12.3167 10.9213 12.3167C10.7034 12.3167 10.4944 12.2301 10.3403 12.076L6.00015 7.73448L1.65865 12.0746C1.50454 12.2287 1.29553 12.3153 1.07759 12.3153C0.859657 12.3153 0.650646 12.2287 0.49654 12.0746C0.342435 11.9205 0.255859 11.7115 0.255859 11.4936C0.255859 11.2756 0.342435 11.0666 0.49654 10.9125L4.83804 6.57237L0.497907 2.23087C0.343802 2.07676 0.257227 1.86775 0.257227 1.64981C0.257227 1.43187 0.343802 1.22286 0.497907 1.06876C0.652012 0.914652 0.861024 0.828076 1.07896 0.828076C1.2969 0.828076 1.50591 0.914652 1.66002 1.06876L6.00015 5.41026L10.3417 1.06807C10.4958 0.913968 10.7048 0.827393 10.9227 0.827393C11.1407 0.827393 11.3497 0.913968 11.5038 1.06807C11.6579 1.22218 11.7444 1.43119 11.7444 1.64913C11.7444 1.86707 11.6579 2.07608 11.5038 2.23018L7.16226 6.57237L11.5024 10.9139Z" fill="#1E293B"/>
</svg>
