<svg width="343" height="50" viewBox="0 0 343 50" fill="none" xmlns="http://www.w3.org/2000/svg">
<rect width="343" height="50" rx="25" fill="#0145FE"/>
<path d="M150.479 30L147.441 20.34H149.359L152.537 30H150.479ZM143.297 30L146.475 20.34H148.281L145.313 30H143.297ZM145.341 27.634V25.912H150.493V27.634H145.341ZM155.815 30.182C155.245 30.182 154.741 30.028 154.303 29.72C153.873 29.4027 153.537 28.9547 153.295 28.376C153.061 27.7973 152.945 27.102 152.945 26.29C152.945 25.478 153.061 24.7827 153.295 24.204C153.537 23.6253 153.873 23.182 154.303 22.874C154.741 22.5567 155.245 22.398 155.815 22.398C156.571 22.398 157.177 22.6873 157.635 23.266C158.101 23.8353 158.335 24.652 158.335 25.716V26.864C158.335 27.9187 158.101 28.7353 157.635 29.314C157.177 29.8927 156.571 30.182 155.815 30.182ZM156.473 28.516C156.958 28.516 157.345 28.334 157.635 27.97C157.933 27.606 158.083 27.046 158.083 26.29C158.083 25.534 157.933 24.974 157.635 24.61C157.345 24.246 156.958 24.064 156.473 24.064C155.987 24.064 155.595 24.246 155.297 24.61C155.007 24.974 154.863 25.534 154.863 26.29C154.863 27.046 155.007 27.606 155.297 27.97C155.595 28.334 155.987 28.516 156.473 28.516ZM157.957 30V28.124L158.209 26.29L157.957 24.526V19.99H159.819V30H157.957ZM163.963 30.182C163.394 30.182 162.89 30.028 162.451 29.72C162.022 29.4027 161.686 28.9547 161.443 28.376C161.21 27.7973 161.093 27.102 161.093 26.29C161.093 25.478 161.21 24.7827 161.443 24.204C161.686 23.6253 162.022 23.182 162.451 22.874C162.89 22.5567 163.394 22.398 163.963 22.398C164.719 22.398 165.326 22.6873 165.783 23.266C166.25 23.8353 166.483 24.652 166.483 25.716V26.864C166.483 27.9187 166.25 28.7353 165.783 29.314C165.326 29.8927 164.719 30.182 163.963 30.182ZM164.621 28.516C165.107 28.516 165.494 28.334 165.783 27.97C166.082 27.606 166.231 27.046 166.231 26.29C166.231 25.534 166.082 24.974 165.783 24.61C165.494 24.246 165.107 24.064 164.621 24.064C164.136 24.064 163.744 24.246 163.445 24.61C163.156 24.974 163.011 25.534 163.011 26.29C163.011 27.046 163.156 27.606 163.445 27.97C163.744 28.334 164.136 28.516 164.621 28.516ZM166.105 30V28.124L166.357 26.29L166.105 24.526V19.99H167.967V30H166.105ZM173.67 30L171.626 20.34H173.614L175.532 30H173.67ZM174.958 30L176.806 20.34H178.57L176.708 30H174.958ZM179.802 30L177.94 20.34H179.746L181.636 30H179.802ZM181.062 30L182.938 20.34H184.884L182.84 30H181.062ZM185.655 30V22.58H187.517V30H185.655ZM186.593 21.698C186.304 21.698 186.066 21.6093 185.879 21.432C185.693 21.2453 185.599 21.0027 185.599 20.704C185.599 20.4053 185.693 20.1673 185.879 19.99C186.066 19.8127 186.304 19.724 186.593 19.724C186.873 19.724 187.107 19.8127 187.293 19.99C187.489 20.1673 187.587 20.4053 187.587 20.704C187.587 21.0027 187.489 21.2453 187.293 21.432C187.107 21.6093 186.873 21.698 186.593 21.698ZM189.24 30V20.34H191.186V30H189.24ZM190.108 26.22V24.498H195.47V26.22H190.108ZM190.108 22.146V20.34H196.044V22.146H190.108ZM197.112 30V22.58H198.974V30H197.112ZM198.05 21.698C197.761 21.698 197.523 21.6093 197.336 21.432C197.15 21.2453 197.056 21.0027 197.056 20.704C197.056 20.4053 197.15 20.1673 197.336 19.99C197.523 19.8127 197.761 19.724 198.05 19.724C198.33 19.724 198.564 19.8127 198.75 19.99C198.946 20.1673 199.044 20.4053 199.044 20.704C199.044 21.0027 198.946 21.2453 198.75 21.432C198.564 21.6093 198.33 21.698 198.05 21.698Z" fill="#F8FAFC"/>
</svg>
