<svg width="8" height="8" viewBox="0 0 8 8" fill="none" xmlns="http://www.w3.org/2000/svg">
<path fill-rule="evenodd" clip-rule="evenodd" d="M3.99958 3.27384L6.71733 0.556093C6.91785 0.35557 7.24296 0.35557 7.44348 0.556093C7.64401 0.756616 7.64401 1.08173 7.44348 1.28225L4.72573 4L7.44348 6.71775C7.64401 6.91828 7.64401 7.24339 7.44348 7.44391C7.24296 7.64443 6.91785 7.64443 6.71733 7.44391L3.99958 4.72616L1.28182 7.44391C1.0813 7.64443 0.756189 7.64443 0.555666 7.44391C0.355143 7.24339 0.355143 6.91828 0.555666 6.71775L3.27342 4L0.555666 1.28225C0.355143 1.08173 0.355143 0.756616 0.555666 0.556093C0.756189 0.35557 1.0813 0.35557 1.28182 0.556093L3.99958 3.27384Z" fill="white"/>
</svg>
