<svg width="167" height="50" viewBox="0 0 167 50" fill="none" xmlns="http://www.w3.org/2000/svg">
<rect width="166.5" height="50" rx="25" fill="#E6EBF0"/>
<path d="M42.8557 30.182C41.9877 30.182 41.2224 29.9767 40.5597 29.566C39.9064 29.1553 39.3931 28.5767 39.0197 27.83C38.6557 27.074 38.4737 26.1873 38.4737 25.17C38.4737 24.1433 38.6557 23.2567 39.0197 22.51C39.3931 21.7633 39.9064 21.1847 40.5597 20.774C41.2224 20.3633 41.9877 20.158 42.8557 20.158C43.5557 20.158 44.1857 20.2887 44.7457 20.55C45.3151 20.8113 45.7911 21.1847 46.1737 21.67C46.5564 22.146 46.8177 22.72 46.9577 23.392L45.0397 23.924C44.9277 23.2987 44.6804 22.818 44.2977 22.482C43.9244 22.146 43.4391 21.978 42.8417 21.978C42.1231 21.978 41.5444 22.258 41.1057 22.818C40.6671 23.378 40.4477 24.162 40.4477 25.17C40.4477 26.1687 40.6671 26.9527 41.1057 27.522C41.5444 28.082 42.1231 28.362 42.8417 28.362C43.4577 28.362 43.9571 28.194 44.3397 27.858C44.7224 27.5127 44.9697 27.0227 45.0817 26.388L46.9997 26.92C46.8504 27.6013 46.5844 28.1847 46.2017 28.67C45.8191 29.1553 45.3431 29.5287 44.7737 29.79C44.2137 30.0513 43.5744 30.182 42.8557 30.182ZM51.4334 30.182C50.7427 30.182 50.1267 30.0187 49.5854 29.692C49.0534 29.3653 48.6334 28.9127 48.3254 28.334C48.0267 27.7553 47.8774 27.074 47.8774 26.29C47.8774 25.506 48.0267 24.8247 48.3254 24.246C48.6334 23.658 49.0534 23.2053 49.5854 22.888C50.1267 22.5613 50.7427 22.398 51.4334 22.398C52.1427 22.398 52.7634 22.5613 53.2954 22.888C53.8274 23.2053 54.2427 23.658 54.5414 24.246C54.8494 24.8247 55.0034 25.506 55.0034 26.29C55.0034 27.074 54.8494 27.7553 54.5414 28.334C54.2427 28.9127 53.8274 29.3653 53.2954 29.692C52.7634 30.0187 52.1427 30.182 51.4334 30.182ZM51.4334 28.516C51.9467 28.516 52.348 28.334 52.6374 27.97C52.936 27.606 53.0854 27.046 53.0854 26.29C53.0854 25.534 52.936 24.974 52.6374 24.61C52.348 24.246 51.9467 24.064 51.4334 24.064C50.9294 24.064 50.528 24.246 50.2294 24.61C49.94 24.974 49.7954 25.534 49.7954 26.29C49.7954 27.046 49.94 27.606 50.2294 27.97C50.528 28.334 50.9294 28.516 51.4334 28.516ZM60.9294 30V25.716C60.9294 25.1653 60.7941 24.75 60.5234 24.47C60.2527 24.19 59.9167 24.05 59.5154 24.05C59.1141 24.05 58.7781 24.19 58.5074 24.47C58.2367 24.75 58.1014 25.1653 58.1014 25.716H57.6954C57.6954 25.016 57.8027 24.4187 58.0174 23.924C58.2414 23.4293 58.5447 23.0513 58.9274 22.79C59.3194 22.5287 59.7721 22.398 60.2854 22.398C60.7707 22.398 61.2001 22.5193 61.5734 22.762C61.9561 22.9953 62.2547 23.3313 62.4694 23.77C62.6841 24.1993 62.7914 24.722 62.7914 25.338V30H60.9294ZM56.2394 30V22.58H58.1014V30H56.2394ZM67.2018 30.182C66.4178 30.182 65.8018 29.9627 65.3538 29.524C64.9058 29.076 64.6818 28.4133 64.6818 27.536V21.04L66.5298 20.676V27.298C66.5298 27.69 66.6278 27.984 66.8238 28.18C67.0292 28.376 67.3138 28.474 67.6778 28.474C67.8552 28.474 68.0185 28.46 68.1678 28.432C68.3172 28.3947 68.4712 28.3573 68.6298 28.32V30C68.4152 30.056 68.1958 30.098 67.9718 30.126C67.7478 30.1633 67.4912 30.182 67.2018 30.182ZM63.7158 24.134V22.58H68.5598V24.134H63.7158ZM69.6652 30V22.58H71.5272V30H69.6652ZM70.6032 21.698C70.3139 21.698 70.0759 21.6093 69.8892 21.432C69.7025 21.2453 69.6092 21.0027 69.6092 20.704C69.6092 20.4053 69.7025 20.1673 69.8892 19.99C70.0759 19.8127 70.3139 19.724 70.6032 19.724C70.8832 19.724 71.1165 19.8127 71.3032 19.99C71.4992 20.1673 71.5972 20.4053 71.5972 20.704C71.5972 21.0027 71.4992 21.2453 71.3032 21.432C71.1165 21.6093 70.8832 21.698 70.6032 21.698ZM77.8142 30V25.716C77.8142 25.1653 77.6788 24.75 77.4082 24.47C77.1375 24.19 76.8015 24.05 76.4002 24.05C75.9988 24.05 75.6628 24.19 75.3922 24.47C75.1215 24.75 74.9862 25.1653 74.9862 25.716H74.5802C74.5802 25.016 74.6875 24.4187 74.9022 23.924C75.1262 23.4293 75.4295 23.0513 75.8122 22.79C76.2042 22.5287 76.6568 22.398 77.1702 22.398C77.6555 22.398 78.0848 22.5193 78.4582 22.762C78.8408 22.9953 79.1395 23.3313 79.3542 23.77C79.5688 24.1993 79.6762 24.722 79.6762 25.338V30H77.8142ZM73.1242 30V22.58H74.9862V30H73.1242ZM83.7786 30.182C83.0413 30.182 82.4393 29.9207 81.9726 29.398C81.5059 28.8753 81.2726 28.1567 81.2726 27.242V22.58H83.1346V26.864C83.1346 27.4053 83.2653 27.8207 83.5266 28.11C83.7973 28.39 84.1333 28.53 84.5346 28.53C84.9453 28.53 85.2813 28.39 85.5426 28.11C85.8039 27.8207 85.9346 27.4053 85.9346 26.864H86.3406C86.3406 27.5547 86.2333 28.152 86.0186 28.656C85.8039 29.1507 85.5053 29.5287 85.1226 29.79C84.7399 30.0513 84.2919 30.182 83.7786 30.182ZM85.9346 30V22.58H87.7966V30H85.9346ZM92.5297 30.182C91.8484 30.182 91.2417 30.0187 90.7097 29.692C90.1777 29.3653 89.7624 28.9127 89.4637 28.334C89.1744 27.746 89.0297 27.0647 89.0297 26.29C89.0297 25.4967 89.179 24.8107 89.4777 24.232C89.7764 23.644 90.1917 23.1913 90.7237 22.874C91.2557 22.5567 91.8624 22.398 92.5437 22.398C93.225 22.398 93.827 22.5567 94.3497 22.874C94.8724 23.1913 95.2784 23.6393 95.5677 24.218C95.8664 24.7967 96.0157 25.4873 96.0157 26.29C96.0157 26.3833 96.011 26.472 96.0017 26.556C96.0017 26.64 96.0017 26.7333 96.0017 26.836H90.1917V25.534H94.6297L94.1117 26.29C94.1117 25.4593 93.9717 24.8667 93.6917 24.512C93.421 24.148 93.0384 23.966 92.5437 23.966C92.0677 23.966 91.6804 24.148 91.3817 24.512C91.0924 24.8667 90.9477 25.4593 90.9477 26.29C90.9477 27.0647 91.097 27.6387 91.3957 28.012C91.6944 28.376 92.1004 28.558 92.6137 28.558C92.959 28.558 93.2577 28.4787 93.5097 28.32C93.7617 28.1613 93.9484 27.914 94.0697 27.578L95.8197 28.082C95.6237 28.7167 95.241 29.2253 94.6717 29.608C94.1117 29.9907 93.3977 30.182 92.5297 30.182ZM99.9757 30V19.99H101.838V30H99.9757ZM107.803 30C107.747 29.7573 107.7 29.51 107.663 29.258C107.635 29.006 107.621 28.7587 107.621 28.516V25.38C107.621 24.8573 107.495 24.4887 107.243 24.274C106.991 24.05 106.687 23.938 106.333 23.938C105.997 23.938 105.707 24.0313 105.465 24.218C105.231 24.3953 105.068 24.6847 104.975 25.086L103.197 24.652C103.402 23.9147 103.789 23.3547 104.359 22.972C104.928 22.5893 105.623 22.398 106.445 22.398C107.387 22.398 108.129 22.65 108.671 23.154C109.212 23.6487 109.483 24.3347 109.483 25.212V28.348C109.483 28.8987 109.553 29.4493 109.693 30H107.803ZM105.269 30.182C104.569 30.182 104.027 29.9907 103.645 29.608C103.271 29.2253 103.085 28.7307 103.085 28.124C103.085 27.5733 103.267 27.088 103.631 26.668C104.004 26.248 104.583 25.9773 105.367 25.856L108.111 25.394V26.626L106.025 27.06C105.623 27.144 105.343 27.27 105.185 27.438C105.026 27.5967 104.947 27.774 104.947 27.97C104.947 28.166 105.012 28.334 105.143 28.474C105.283 28.6047 105.497 28.67 105.787 28.67C106.085 28.67 106.375 28.6047 106.655 28.474C106.935 28.334 107.163 28.1333 107.341 27.872C107.527 27.6013 107.621 27.2793 107.621 26.906H108.097C108.097 27.578 107.971 28.1613 107.719 28.656C107.467 29.1413 107.126 29.5193 106.697 29.79C106.277 30.0513 105.801 30.182 105.269 30.182ZM113.891 30.182C113.107 30.182 112.491 29.9627 112.043 29.524C111.595 29.076 111.371 28.4133 111.371 27.536V21.04L113.219 20.676V27.298C113.219 27.69 113.317 27.984 113.513 28.18C113.719 28.376 114.003 28.474 114.367 28.474C114.545 28.474 114.708 28.46 114.857 28.432C115.007 28.3947 115.161 28.3573 115.319 28.32V30C115.105 30.056 114.885 30.098 114.661 30.126C114.437 30.1633 114.181 30.182 113.891 30.182ZM110.405 24.134V22.58H115.249V24.134H110.405ZM119.491 30.182C118.809 30.182 118.203 30.0187 117.671 29.692C117.139 29.3653 116.723 28.9127 116.425 28.334C116.135 27.746 115.991 27.0647 115.991 26.29C115.991 25.4967 116.14 24.8107 116.439 24.232C116.737 23.644 117.153 23.1913 117.685 22.874C118.217 22.5567 118.823 22.398 119.505 22.398C120.186 22.398 120.788 22.5567 121.311 22.874C121.833 23.1913 122.239 23.6393 122.529 24.218C122.827 24.7967 122.977 25.4873 122.977 26.29C122.977 26.3833 122.972 26.472 122.963 26.556C122.963 26.64 122.963 26.7333 122.963 26.836H117.153V25.534H121.591L121.073 26.29C121.073 25.4593 120.933 24.8667 120.653 24.512C120.382 24.148 119.999 23.966 119.505 23.966C119.029 23.966 118.641 24.148 118.343 24.512C118.053 24.8667 117.909 25.4593 117.909 26.29C117.909 27.0647 118.058 27.6387 118.357 28.012C118.655 28.376 119.061 28.558 119.575 28.558C119.92 28.558 120.219 28.4787 120.471 28.32C120.723 28.1613 120.909 27.914 121.031 27.578L122.781 28.082C122.585 28.7167 122.202 29.2253 121.633 29.608C121.073 29.9907 120.359 30.182 119.491 30.182ZM124.202 30V22.58H126.064V30H124.202ZM125.728 26.472C125.728 25.6507 125.822 24.9367 126.008 24.33C126.195 23.714 126.484 23.238 126.876 22.902C127.268 22.566 127.768 22.398 128.374 22.398V24.512H127.562C127.096 24.512 126.727 24.6333 126.456 24.876C126.195 25.1093 126.064 25.52 126.064 26.108L125.728 26.472Z" fill="#0F172A"/>
</svg>
