<svg width="335" height="50" viewBox="0 0 335 50" fill="none" xmlns="http://www.w3.org/2000/svg">
<rect width="335" height="50" rx="25" fill="#0145FE"/>
<path d="M152.476 30V28.194H155.108C155.994 28.194 156.662 27.9327 157.11 27.41C157.567 26.8873 157.796 26.1407 157.796 25.17C157.796 24.19 157.567 23.4433 157.11 22.93C156.662 22.4073 155.994 22.146 155.108 22.146H152.476V20.34H155.248C156.209 20.34 157.026 20.536 157.698 20.928C158.37 21.32 158.883 21.88 159.238 22.608C159.592 23.3267 159.77 24.1807 159.77 25.17C159.77 26.1593 159.592 27.018 159.238 27.746C158.883 28.4647 158.37 29.02 157.698 29.412C157.026 29.804 156.209 30 155.248 30H152.476ZM151.608 30V20.34H153.554V30H151.608ZM164.312 30.182C163.622 30.182 163.006 30.0187 162.464 29.692C161.932 29.3653 161.512 28.9127 161.204 28.334C160.906 27.7553 160.756 27.074 160.756 26.29C160.756 25.506 160.906 24.8247 161.204 24.246C161.512 23.658 161.932 23.2053 162.464 22.888C163.006 22.5613 163.622 22.398 164.312 22.398C165.022 22.398 165.642 22.5613 166.174 22.888C166.706 23.2053 167.122 23.658 167.42 24.246C167.728 24.8247 167.882 25.506 167.882 26.29C167.882 27.074 167.728 27.7553 167.42 28.334C167.122 28.9127 166.706 29.3653 166.174 29.692C165.642 30.0187 165.022 30.182 164.312 30.182ZM164.312 28.516C164.826 28.516 165.227 28.334 165.516 27.97C165.815 27.606 165.964 27.046 165.964 26.29C165.964 25.534 165.815 24.974 165.516 24.61C165.227 24.246 164.826 24.064 164.312 24.064C163.808 24.064 163.407 24.246 163.108 24.61C162.819 24.974 162.674 25.534 162.674 26.29C162.674 27.046 162.819 27.606 163.108 27.97C163.407 28.334 163.808 28.516 164.312 28.516ZM173.808 30V25.716C173.808 25.1653 173.673 24.75 173.402 24.47C173.132 24.19 172.796 24.05 172.394 24.05C171.993 24.05 171.657 24.19 171.386 24.47C171.116 24.75 170.98 25.1653 170.98 25.716H170.574C170.574 25.016 170.682 24.4187 170.896 23.924C171.12 23.4293 171.424 23.0513 171.806 22.79C172.198 22.5287 172.651 22.398 173.164 22.398C173.65 22.398 174.079 22.5193 174.452 22.762C174.835 22.9953 175.134 23.3313 175.348 23.77C175.563 24.1993 175.67 24.722 175.67 25.338V30H173.808ZM169.118 30V22.58H170.98V30H169.118ZM180.403 30.182C179.721 30.182 179.115 30.0187 178.583 29.692C178.051 29.3653 177.635 28.9127 177.337 28.334C177.047 27.746 176.903 27.0647 176.903 26.29C176.903 25.4967 177.052 24.8107 177.351 24.232C177.649 23.644 178.065 23.1913 178.597 22.874C179.129 22.5567 179.735 22.398 180.417 22.398C181.098 22.398 181.7 22.5567 182.223 22.874C182.745 23.1913 183.151 23.6393 183.441 24.218C183.739 24.7967 183.889 25.4873 183.889 26.29C183.889 26.3833 183.884 26.472 183.875 26.556C183.875 26.64 183.875 26.7333 183.875 26.836H178.065V25.534H182.503L181.985 26.29C181.985 25.4593 181.845 24.8667 181.565 24.512C181.294 24.148 180.911 23.966 180.417 23.966C179.941 23.966 179.553 24.148 179.255 24.512C178.965 24.8667 178.821 25.4593 178.821 26.29C178.821 27.0647 178.97 27.6387 179.269 28.012C179.567 28.376 179.973 28.558 180.487 28.558C180.832 28.558 181.131 28.4787 181.383 28.32C181.635 28.1613 181.821 27.914 181.943 27.578L183.693 28.082C183.497 28.7167 183.114 29.2253 182.545 29.608C181.985 29.9907 181.271 30.182 180.403 30.182Z" fill="white"/>
</svg>
