<svg width="343" height="99" viewBox="0 0 343 99" fill="none" xmlns="http://www.w3.org/2000/svg">
<rect x="0.5" y="0.5" width="342" height="98" rx="7.5" fill="#F1F5F9"/>
<rect x="0.5" y="0.5" width="342" height="98" rx="7.5" stroke="#94A3B8" stroke-dasharray="5 5"/>
<path d="M178.125 30.5C178.125 30.6243 178.076 30.7435 177.988 30.8315C177.9 30.9194 177.781 30.9687 177.656 30.9687H172.969V35.6562C172.969 35.7806 172.919 35.8998 172.831 35.9877C172.744 36.0756 172.624 36.125 172.5 36.125C172.376 36.125 172.256 36.0756 172.169 35.9877C172.081 35.8998 172.031 35.7806 172.031 35.6562V30.9687H167.344C167.219 30.9687 167.1 30.9194 167.012 30.8315C166.924 30.7435 166.875 30.6243 166.875 30.5C166.875 30.3757 166.924 30.2565 167.012 30.1685C167.1 30.0806 167.219 30.0312 167.344 30.0312H172.031V25.3437C172.031 25.2194 172.081 25.1002 172.169 25.0123C172.256 24.9244 172.376 24.875 172.5 24.875C172.624 24.875 172.744 24.9244 172.831 25.0123C172.919 25.1002 172.969 25.2194 172.969 25.3437V30.0312H177.656C177.781 30.0312 177.9 30.0806 177.988 30.1685C178.076 30.2565 178.125 30.3757 178.125 30.5Z" fill="#0F0B1C"/>
<path d="M127.195 58.1C126.649 58.1 126.175 57.99 125.775 57.77C125.375 57.55 125.065 57.2367 124.845 56.83C124.632 56.4167 124.525 55.9267 124.525 55.36V51.1H125.575V55.26C125.575 55.8733 125.712 56.34 125.985 56.66C126.265 56.9733 126.672 57.13 127.205 57.13C127.745 57.13 128.155 56.9733 128.435 56.66C128.715 56.34 128.855 55.8733 128.855 55.26V51.1H129.875V55.36C129.875 55.9267 129.765 56.4167 129.545 56.83C129.332 57.2367 129.025 57.55 128.625 57.77C128.225 57.99 127.749 58.1 127.195 58.1ZM133.803 58.1C133.243 58.1 132.793 57.9 132.453 57.5C132.113 57.0933 131.943 56.5233 131.943 55.79V54.91C131.943 54.1767 132.113 53.61 132.453 53.21C132.793 52.8033 133.243 52.6 133.803 52.6C134.217 52.6 134.58 52.71 134.893 52.93C135.213 53.15 135.463 53.4667 135.643 53.88C135.823 54.2867 135.913 54.7767 135.913 55.35C135.913 55.9233 135.823 56.4167 135.643 56.83C135.463 57.2367 135.213 57.55 134.893 57.77C134.58 57.99 134.217 58.1 133.803 58.1ZM131.223 59.75V52.7H132.223V53.93L132.073 55.35L132.223 56.78V59.75H131.223ZM133.523 57.22C133.923 57.22 134.247 57.0733 134.493 56.78C134.747 56.48 134.873 56.0033 134.873 55.35C134.873 54.6967 134.747 54.2233 134.493 53.93C134.247 53.63 133.923 53.48 133.523 53.48C133.123 53.48 132.797 53.63 132.543 53.93C132.297 54.2233 132.173 54.6967 132.173 55.35C132.173 56.0033 132.297 56.48 132.543 56.78C132.797 57.0733 133.123 57.22 133.523 57.22ZM136.946 58V50.85H137.946V58H136.946ZM141.401 58.1C140.927 58.1 140.507 57.9867 140.141 57.76C139.781 57.5333 139.497 57.2133 139.291 56.8C139.084 56.3867 138.981 55.9033 138.981 55.35C138.981 54.79 139.084 54.3067 139.291 53.9C139.497 53.4867 139.781 53.1667 140.141 52.94C140.507 52.7133 140.927 52.6 141.401 52.6C141.881 52.6 142.301 52.7133 142.661 52.94C143.027 53.1667 143.314 53.4867 143.521 53.9C143.727 54.3067 143.831 54.79 143.831 55.35C143.831 55.9033 143.727 56.3867 143.521 56.8C143.314 57.2133 143.027 57.5333 142.661 57.76C142.301 57.9867 141.881 58.1 141.401 58.1ZM141.401 57.2C141.821 57.2 142.157 57.0533 142.411 56.76C142.664 56.46 142.791 55.99 142.791 55.35C142.791 54.71 142.664 54.2433 142.411 53.95C142.157 53.65 141.821 53.5 141.401 53.5C140.987 53.5 140.654 53.65 140.401 53.95C140.147 54.2433 140.021 54.71 140.021 55.35C140.021 55.99 140.147 56.46 140.401 56.76C140.654 57.0533 140.987 57.2 141.401 57.2ZM148.056 58C148.016 57.8267 147.983 57.65 147.956 57.47C147.936 57.29 147.926 57.1133 147.926 56.94V54.7C147.926 54.2667 147.813 53.9567 147.586 53.77C147.366 53.5767 147.099 53.48 146.786 53.48C146.499 53.48 146.256 53.56 146.056 53.72C145.863 53.8733 145.723 54.1067 145.636 54.42L144.696 54.11C144.843 53.6233 145.106 53.25 145.486 52.99C145.873 52.73 146.326 52.6 146.846 52.6C147.506 52.6 148.016 52.7767 148.376 53.13C148.743 53.4833 148.926 53.9667 148.926 54.58V56.82C148.926 57.2133 148.976 57.6067 149.076 58H148.056ZM146.116 58.1C145.656 58.1 145.286 57.9667 145.006 57.7C144.733 57.4333 144.596 57.0967 144.596 56.69C144.596 56.29 144.729 55.9467 144.996 55.66C145.269 55.3667 145.689 55.17 146.256 55.07L148.126 54.75V55.52L146.586 55.83C146.233 55.8967 145.979 56 145.826 56.14C145.673 56.2733 145.596 56.4333 145.596 56.62C145.596 56.7733 145.659 56.9167 145.786 57.05C145.913 57.1767 146.116 57.24 146.396 57.24C146.643 57.24 146.883 57.1833 147.116 57.07C147.349 56.95 147.543 56.7833 147.696 56.57C147.849 56.35 147.926 56.09 147.926 55.79H148.256C148.256 56.2633 148.156 56.6733 147.956 57.02C147.763 57.3667 147.503 57.6333 147.176 57.82C146.856 58.0067 146.503 58.1 146.116 58.1ZM152.067 58.1C151.66 58.1 151.297 57.99 150.977 57.77C150.657 57.55 150.407 57.2367 150.227 56.83C150.047 56.4167 149.957 55.9233 149.957 55.35C149.957 54.7767 150.047 54.2867 150.227 53.88C150.407 53.4667 150.657 53.15 150.977 52.93C151.297 52.71 151.66 52.6 152.067 52.6C152.627 52.6 153.077 52.8033 153.417 53.21C153.757 53.61 153.927 54.1767 153.927 54.91V55.79C153.927 56.5233 153.757 57.0933 153.417 57.5C153.077 57.9 152.627 58.1 152.067 58.1ZM152.347 57.22C152.747 57.22 153.07 57.0733 153.317 56.78C153.57 56.48 153.697 56.0033 153.697 55.35C153.697 54.6967 153.57 54.2233 153.317 53.93C153.07 53.63 152.747 53.48 152.347 53.48C151.947 53.48 151.62 53.63 151.367 53.93C151.12 54.2233 150.997 54.6967 150.997 55.35C150.997 56.0033 151.12 56.48 151.367 56.78C151.62 57.0733 151.947 57.22 152.347 57.22ZM153.647 58V56.77L153.797 55.35L153.647 53.92V50.85H154.647V58H153.647ZM158.747 58V57.07H160.857C161.37 57.07 161.74 56.9733 161.967 56.78C162.194 56.58 162.307 56.3133 162.307 55.98C162.307 55.6267 162.194 55.3533 161.967 55.16C161.74 54.9667 161.37 54.87 160.857 54.87H158.747V54.19H160.957C161.73 54.19 162.327 54.3633 162.747 54.71C163.174 55.0567 163.387 55.51 163.387 56.07C163.387 56.6433 163.177 57.11 162.757 57.47C162.337 57.8233 161.757 58 161.017 58H158.747ZM158.247 58V51.1H159.297V58H158.247ZM158.747 54.56V54.01H160.807C161.24 54.01 161.56 53.9133 161.767 53.72C161.98 53.5267 162.087 53.2833 162.087 52.99C162.087 52.6967 161.98 52.4633 161.767 52.29C161.56 52.1167 161.24 52.03 160.807 52.03H158.747V51.1H160.957C161.397 51.1 161.78 51.1767 162.107 51.33C162.434 51.4833 162.687 51.6967 162.867 51.97C163.047 52.2367 163.137 52.5467 163.137 52.9C163.137 53.38 162.947 53.7767 162.567 54.09C162.194 54.4033 161.64 54.56 160.907 54.56H158.747ZM166.198 58.1C165.664 58.1 165.228 57.9133 164.888 57.54C164.548 57.1667 164.378 56.66 164.378 56.02V52.7H165.378V55.79C165.378 56.2567 165.494 56.6133 165.728 56.86C165.961 57.1 166.244 57.22 166.578 57.22C166.911 57.22 167.194 57.1 167.428 56.86C167.661 56.6133 167.778 56.2567 167.778 55.79H168.108C168.108 56.2633 168.024 56.6733 167.858 57.02C167.691 57.3667 167.464 57.6333 167.178 57.82C166.891 58.0067 166.564 58.1 166.198 58.1ZM167.778 58V52.7H168.778V58H167.778ZM171.911 58.1C171.311 58.1 170.831 57.98 170.471 57.74C170.111 57.4933 169.857 57.1333 169.711 56.66L170.651 56.36C170.764 56.6933 170.931 56.9333 171.151 57.08C171.371 57.22 171.647 57.29 171.981 57.29C172.281 57.29 172.521 57.2333 172.701 57.12C172.887 57 172.981 56.8333 172.981 56.62C172.981 56.4133 172.907 56.2533 172.761 56.14C172.614 56.02 172.424 55.9233 172.191 55.85C171.957 55.77 171.707 55.6933 171.441 55.62C171.181 55.54 170.934 55.4433 170.701 55.33C170.467 55.2167 170.277 55.0633 170.131 54.87C169.984 54.67 169.911 54.41 169.911 54.09C169.911 53.6767 170.081 53.3267 170.421 53.04C170.761 52.7467 171.247 52.6 171.881 52.6C172.427 52.6 172.867 52.72 173.201 52.96C173.534 53.2 173.774 53.55 173.921 54.01L173.011 54.32C172.891 53.9933 172.731 53.76 172.531 53.62C172.337 53.48 172.094 53.41 171.801 53.41C171.514 53.41 171.291 53.4667 171.131 53.58C170.977 53.6867 170.901 53.8267 170.901 54C170.901 54.18 170.974 54.3233 171.121 54.43C171.267 54.53 171.457 54.6167 171.691 54.69C171.924 54.7567 172.171 54.83 172.431 54.91C172.697 54.99 172.947 55.0933 173.181 55.22C173.414 55.34 173.604 55.5067 173.751 55.72C173.897 55.9333 173.971 56.21 173.971 56.55C173.971 56.9833 173.791 57.35 173.431 57.65C173.077 57.95 172.571 58.1 171.911 58.1ZM175.003 58V52.7H176.003V58H175.003ZM175.503 51.98C175.329 51.98 175.183 51.9233 175.063 51.81C174.943 51.6967 174.883 51.55 174.883 51.37C174.883 51.1833 174.943 51.0333 175.063 50.92C175.183 50.8067 175.329 50.75 175.503 50.75C175.676 50.75 175.823 50.8067 175.943 50.92C176.063 51.0333 176.123 51.1833 176.123 51.37C176.123 51.55 176.063 51.6967 175.943 51.81C175.823 51.9233 175.676 51.98 175.503 51.98ZM180.747 58V54.91C180.747 54.4367 180.627 54.08 180.387 53.84C180.147 53.6 179.861 53.48 179.527 53.48C179.194 53.48 178.907 53.6 178.667 53.84C178.427 54.08 178.307 54.4367 178.307 54.91H177.977C177.977 54.4367 178.061 54.0267 178.227 53.68C178.401 53.3333 178.634 53.0667 178.927 52.88C179.221 52.6933 179.547 52.6 179.907 52.6C180.267 52.6 180.584 52.6867 180.857 52.86C181.137 53.0267 181.354 53.2667 181.507 53.58C181.667 53.8867 181.747 54.2533 181.747 54.68V58H180.747ZM177.307 58V52.7H178.307V58H177.307ZM185.219 58.1C184.733 58.1 184.306 57.9867 183.939 57.76C183.573 57.5333 183.286 57.2133 183.079 56.8C182.879 56.3867 182.779 55.9033 182.779 55.35C182.779 54.77 182.883 54.2767 183.089 53.87C183.296 53.4567 183.579 53.1433 183.939 52.93C184.306 52.71 184.726 52.6 185.199 52.6C185.659 52.6 186.063 52.71 186.409 52.93C186.763 53.1433 187.036 53.4567 187.229 53.87C187.429 54.2767 187.529 54.77 187.529 55.35C187.529 55.4033 187.529 55.4533 187.529 55.5C187.529 55.5467 187.526 55.61 187.519 55.69H183.599V54.9H186.779L186.489 55.35C186.489 54.6833 186.373 54.2033 186.139 53.91C185.906 53.61 185.593 53.46 185.199 53.46C184.786 53.46 184.453 53.61 184.199 53.91C183.946 54.2033 183.819 54.6833 183.819 55.35C183.819 55.97 183.943 56.4267 184.189 56.72C184.443 57.0133 184.786 57.16 185.219 57.16C185.513 57.16 185.763 57.0967 185.969 56.97C186.183 56.8367 186.353 56.62 186.479 56.32L187.409 56.69C187.236 57.1367 186.956 57.4833 186.569 57.73C186.183 57.9767 185.733 58.1 185.219 58.1ZM190.387 58.1C189.787 58.1 189.307 57.98 188.947 57.74C188.587 57.4933 188.334 57.1333 188.187 56.66L189.127 56.36C189.241 56.6933 189.407 56.9333 189.627 57.08C189.847 57.22 190.124 57.29 190.457 57.29C190.757 57.29 190.997 57.2333 191.177 57.12C191.364 57 191.457 56.8333 191.457 56.62C191.457 56.4133 191.384 56.2533 191.237 56.14C191.091 56.02 190.901 55.9233 190.667 55.85C190.434 55.77 190.184 55.6933 189.917 55.62C189.657 55.54 189.411 55.4433 189.177 55.33C188.944 55.2167 188.754 55.0633 188.607 54.87C188.461 54.67 188.387 54.41 188.387 54.09C188.387 53.6767 188.557 53.3267 188.897 53.04C189.237 52.7467 189.724 52.6 190.357 52.6C190.904 52.6 191.344 52.72 191.677 52.96C192.011 53.2 192.251 53.55 192.397 54.01L191.487 54.32C191.367 53.9933 191.207 53.76 191.007 53.62C190.814 53.48 190.571 53.41 190.277 53.41C189.991 53.41 189.767 53.4667 189.607 53.58C189.454 53.6867 189.377 53.8267 189.377 54C189.377 54.18 189.451 54.3233 189.597 54.43C189.744 54.53 189.934 54.6167 190.167 54.69C190.401 54.7567 190.647 54.83 190.907 54.91C191.174 54.99 191.424 55.0933 191.657 55.22C191.891 55.34 192.081 55.5067 192.227 55.72C192.374 55.9333 192.447 56.21 192.447 56.55C192.447 56.9833 192.267 57.35 191.907 57.65C191.554 57.95 191.047 58.1 190.387 58.1ZM195.309 58.1C194.709 58.1 194.229 57.98 193.869 57.74C193.509 57.4933 193.256 57.1333 193.109 56.66L194.049 56.36C194.162 56.6933 194.329 56.9333 194.549 57.08C194.769 57.22 195.046 57.29 195.379 57.29C195.679 57.29 195.919 57.2333 196.099 57.12C196.286 57 196.379 56.8333 196.379 56.62C196.379 56.4133 196.306 56.2533 196.159 56.14C196.012 56.02 195.822 55.9233 195.589 55.85C195.356 55.77 195.106 55.6933 194.839 55.62C194.579 55.54 194.332 55.4433 194.099 55.33C193.866 55.2167 193.676 55.0633 193.529 54.87C193.382 54.67 193.309 54.41 193.309 54.09C193.309 53.6767 193.479 53.3267 193.819 53.04C194.159 52.7467 194.646 52.6 195.279 52.6C195.826 52.6 196.266 52.72 196.599 52.96C196.932 53.2 197.172 53.55 197.319 54.01L196.409 54.32C196.289 53.9933 196.129 53.76 195.929 53.62C195.736 53.48 195.492 53.41 195.199 53.41C194.912 53.41 194.689 53.4667 194.529 53.58C194.376 53.6867 194.299 53.8267 194.299 54C194.299 54.18 194.372 54.3233 194.519 54.43C194.666 54.53 194.856 54.6167 195.089 54.69C195.322 54.7567 195.569 54.83 195.829 54.91C196.096 54.99 196.346 55.0933 196.579 55.22C196.812 55.34 197.002 55.5067 197.149 55.72C197.296 55.9333 197.369 56.21 197.369 56.55C197.369 56.9833 197.189 57.35 196.829 57.65C196.476 57.95 195.969 58.1 195.309 58.1ZM200.698 58V51.1H201.748V58H200.698ZM201.198 58V57.04H205.048V58H201.198ZM208.041 58.1C207.568 58.1 207.148 57.9867 206.781 57.76C206.421 57.5333 206.138 57.2133 205.931 56.8C205.725 56.3867 205.621 55.9033 205.621 55.35C205.621 54.79 205.725 54.3067 205.931 53.9C206.138 53.4867 206.421 53.1667 206.781 52.94C207.148 52.7133 207.568 52.6 208.041 52.6C208.521 52.6 208.941 52.7133 209.301 52.94C209.668 53.1667 209.955 53.4867 210.161 53.9C210.368 54.3067 210.471 54.79 210.471 55.35C210.471 55.9033 210.368 56.3867 210.161 56.8C209.955 57.2133 209.668 57.5333 209.301 57.76C208.941 57.9867 208.521 58.1 208.041 58.1ZM208.041 57.2C208.461 57.2 208.798 57.0533 209.051 56.76C209.305 56.46 209.431 55.99 209.431 55.35C209.431 54.71 209.305 54.2433 209.051 53.95C208.798 53.65 208.461 53.5 208.041 53.5C207.628 53.5 207.295 53.65 207.041 53.95C206.788 54.2433 206.661 54.71 206.661 55.35C206.661 55.99 206.788 56.46 207.041 56.76C207.295 57.0533 207.628 57.2 208.041 57.2ZM213.517 59.85C212.963 59.85 212.503 59.7367 212.137 59.51C211.777 59.29 211.52 59 211.367 58.64L212.297 58.25C212.417 58.49 212.577 58.6667 212.777 58.78C212.977 58.8933 213.237 58.95 213.557 58.95C213.783 58.95 214 58.9033 214.207 58.81C214.413 58.7167 214.583 58.56 214.717 58.34C214.85 58.1267 214.917 57.8367 214.917 57.47V56.53L215.067 55.1L214.917 53.68V52.7H215.917V57.52C215.917 58.0667 215.807 58.51 215.587 58.85C215.367 59.1967 215.073 59.45 214.707 59.61C214.347 59.77 213.95 59.85 213.517 59.85ZM213.337 57.6C212.93 57.6 212.567 57.4967 212.247 57.29C211.927 57.0833 211.677 56.7933 211.497 56.42C211.317 56.0467 211.227 55.6067 211.227 55.1C211.227 54.5933 211.317 54.1533 211.497 53.78C211.677 53.4067 211.927 53.1167 212.247 52.91C212.567 52.7033 212.93 52.6 213.337 52.6C213.897 52.6 214.34 52.7867 214.667 53.16C214.993 53.5267 215.157 54.0267 215.157 54.66V55.54C215.157 56.1733 214.993 56.6767 214.667 57.05C214.34 57.4167 213.897 57.6 213.337 57.6ZM213.617 56.72C214.017 56.72 214.34 56.5867 214.587 56.32C214.84 56.0533 214.967 55.6467 214.967 55.1C214.967 54.5533 214.84 54.1467 214.587 53.88C214.34 53.6133 214.017 53.48 213.617 53.48C213.217 53.48 212.89 53.6133 212.637 53.88C212.39 54.1467 212.267 54.5533 212.267 55.1C212.267 55.6467 212.39 56.0533 212.637 56.32C212.89 56.5867 213.217 56.72 213.617 56.72ZM219.369 58.1C218.896 58.1 218.476 57.9867 218.109 57.76C217.749 57.5333 217.466 57.2133 217.259 56.8C217.053 56.3867 216.949 55.9033 216.949 55.35C216.949 54.79 217.053 54.3067 217.259 53.9C217.466 53.4867 217.749 53.1667 218.109 52.94C218.476 52.7133 218.896 52.6 219.369 52.6C219.849 52.6 220.269 52.7133 220.629 52.94C220.996 53.1667 221.283 53.4867 221.489 53.9C221.696 54.3067 221.799 54.79 221.799 55.35C221.799 55.9033 221.696 56.3867 221.489 56.8C221.283 57.2133 220.996 57.5333 220.629 57.76C220.269 57.9867 219.849 58.1 219.369 58.1ZM219.369 57.2C219.789 57.2 220.126 57.0533 220.379 56.76C220.633 56.46 220.759 55.99 220.759 55.35C220.759 54.71 220.633 54.2433 220.379 53.95C220.126 53.65 219.789 53.5 219.369 53.5C218.956 53.5 218.623 53.65 218.369 53.95C218.116 54.2433 217.989 54.71 217.989 55.35C217.989 55.99 218.116 56.46 218.369 56.76C218.623 57.0533 218.956 57.2 219.369 57.2ZM104.47 69.6V68.64H106.41C106.943 68.64 107.336 68.5333 107.59 68.32C107.843 68.1 107.97 67.7767 107.97 67.35C107.97 66.9167 107.843 66.5933 107.59 66.38C107.336 66.1667 106.943 66.06 106.41 66.06H104.47V65.1H106.51C107.023 65.1 107.47 65.19 107.85 65.37C108.236 65.55 108.533 65.81 108.74 66.15C108.953 66.4833 109.06 66.8833 109.06 67.35C109.06 67.8167 108.953 68.22 108.74 68.56C108.533 68.8933 108.236 69.15 107.85 69.33C107.47 69.51 107.023 69.6 106.51 69.6H104.47ZM103.97 72V65.1H105.02V72H103.97ZM114.233 72L110.413 65.1H111.523L115.343 72H114.233ZM110.103 72V65.1H111.103V72H110.103ZM114.653 72V65.1H115.653V72H114.653ZM119.753 72.1C119.193 72.1 118.693 71.9567 118.253 71.67C117.813 71.3833 117.467 70.9767 117.213 70.45C116.967 69.9167 116.843 69.2833 116.843 68.55C116.843 67.81 116.977 67.1767 117.243 66.65C117.517 66.1167 117.893 65.71 118.373 65.43C118.86 65.1433 119.42 65 120.053 65C120.527 65 120.95 65.0833 121.323 65.25C121.703 65.41 122.023 65.6467 122.283 65.96C122.55 66.2667 122.737 66.6367 122.843 67.07L121.803 67.35C121.703 66.9033 121.5 66.5633 121.193 66.33C120.893 66.09 120.503 65.97 120.023 65.97C119.397 65.97 118.89 66.1867 118.503 66.62C118.123 67.0467 117.933 67.69 117.933 68.55C117.933 69.3767 118.113 70.0133 118.473 70.46C118.833 70.9067 119.317 71.13 119.923 71.13C120.323 71.13 120.667 71.0467 120.953 70.88C121.24 70.7133 121.457 70.49 121.603 70.21C121.757 69.9233 121.833 69.6033 121.833 69.25H122.233C122.233 69.75 122.14 70.2167 121.953 70.65C121.767 71.0833 121.487 71.4333 121.113 71.7C120.747 71.9667 120.293 72.1 119.753 72.1ZM121.923 72L121.833 69.86V68.5H122.843V72H121.923ZM119.893 69.36V68.5H122.343V69.36H119.893ZM123.884 73.6V70.87H125.024L124.584 73.6H123.884ZM130.125 72.1C129.485 72.1 128.959 71.9133 128.545 71.54C128.132 71.16 127.875 70.6167 127.775 69.91L128.805 69.7C128.872 70.1667 129.015 70.5233 129.235 70.77C129.455 71.01 129.752 71.13 130.125 71.13C130.519 71.13 130.832 71 131.065 70.74C131.299 70.48 131.415 70.0867 131.415 69.56V65.1H132.465V69.63C132.465 70.13 132.369 70.5667 132.175 70.94C131.982 71.3067 131.709 71.5933 131.355 71.8C131.009 72 130.599 72.1 130.125 72.1ZM134.411 69.6V68.64H136.351C136.884 68.64 137.278 68.5333 137.531 68.32C137.784 68.1 137.911 67.7767 137.911 67.35C137.911 66.9167 137.784 66.5933 137.531 66.38C137.278 66.1667 136.884 66.06 136.351 66.06H134.411V65.1H136.451C136.964 65.1 137.411 65.19 137.791 65.37C138.178 65.55 138.474 65.81 138.681 66.15C138.894 66.4833 139.001 66.8833 139.001 67.35C139.001 67.8167 138.894 68.22 138.681 68.56C138.474 68.8933 138.178 69.15 137.791 69.33C137.411 69.51 136.964 69.6 136.451 69.6H134.411ZM133.911 72V65.1H134.961V72H133.911ZM140.044 72V65.1H141.094V72H140.044ZM140.544 72V71.04H144.944V72H140.544ZM140.544 68.94V67.98H144.294V68.94H140.544ZM140.544 66.06V65.1H144.894V66.06H140.544ZM148.757 72.1C148.197 72.1 147.697 71.9567 147.257 71.67C146.817 71.3833 146.471 70.9767 146.217 70.45C145.971 69.9167 145.847 69.2833 145.847 68.55C145.847 67.81 145.981 67.1767 146.247 66.65C146.521 66.1167 146.897 65.71 147.377 65.43C147.864 65.1433 148.424 65 149.057 65C149.531 65 149.954 65.0833 150.327 65.25C150.707 65.41 151.027 65.6467 151.287 65.96C151.554 66.2667 151.741 66.6367 151.847 67.07L150.807 67.35C150.707 66.9033 150.504 66.5633 150.197 66.33C149.897 66.09 149.507 65.97 149.027 65.97C148.401 65.97 147.894 66.1867 147.507 66.62C147.127 67.0467 146.937 67.69 146.937 68.55C146.937 69.3767 147.117 70.0133 147.477 70.46C147.837 70.9067 148.321 71.13 148.927 71.13C149.327 71.13 149.671 71.0467 149.957 70.88C150.244 70.7133 150.461 70.49 150.607 70.21C150.761 69.9233 150.837 69.6033 150.837 69.25H151.237C151.237 69.75 151.144 70.2167 150.957 70.65C150.771 71.0833 150.491 71.4333 150.117 71.7C149.751 71.9667 149.297 72.1 148.757 72.1ZM150.927 72L150.837 69.86V68.5H151.847V72H150.927ZM148.897 69.36V68.5H151.347V69.36H148.897ZM152.888 73.6V70.87H154.028L153.588 73.6H152.888ZM159.129 72.1C158.489 72.1 157.963 71.9133 157.549 71.54C157.136 71.16 156.879 70.6167 156.779 69.91L157.809 69.7C157.876 70.1667 158.019 70.5233 158.239 70.77C158.459 71.01 158.756 71.13 159.129 71.13C159.523 71.13 159.836 71 160.069 70.74C160.303 70.48 160.419 70.0867 160.419 69.56V65.1H161.469V69.63C161.469 70.13 161.373 70.5667 161.179 70.94C160.986 71.3067 160.713 71.5933 160.359 71.8C160.013 72 159.603 72.1 159.129 72.1ZM163.415 69.6V68.64H165.355C165.888 68.64 166.282 68.5333 166.535 68.32C166.788 68.1 166.915 67.7767 166.915 67.35C166.915 66.9167 166.788 66.5933 166.535 66.38C166.282 66.1667 165.888 66.06 165.355 66.06H163.415V65.1H165.455C165.968 65.1 166.415 65.19 166.795 65.37C167.182 65.55 167.478 65.81 167.685 66.15C167.898 66.4833 168.005 66.8833 168.005 67.35C168.005 67.8167 167.898 68.22 167.685 68.56C167.478 68.8933 167.182 69.15 166.795 69.33C166.415 69.51 165.968 69.6 165.455 69.6H163.415ZM162.915 72V65.1H163.965V72H162.915ZM171.648 72.1C171.088 72.1 170.588 71.9567 170.148 71.67C169.708 71.3833 169.361 70.9767 169.108 70.45C168.861 69.9167 168.738 69.2833 168.738 68.55C168.738 67.81 168.871 67.1767 169.138 66.65C169.411 66.1167 169.788 65.71 170.268 65.43C170.755 65.1433 171.315 65 171.948 65C172.421 65 172.845 65.0833 173.218 65.25C173.598 65.41 173.918 65.6467 174.178 65.96C174.445 66.2667 174.631 66.6367 174.738 67.07L173.698 67.35C173.598 66.9033 173.395 66.5633 173.088 66.33C172.788 66.09 172.398 65.97 171.918 65.97C171.291 65.97 170.785 66.1867 170.398 66.62C170.018 67.0467 169.828 67.69 169.828 68.55C169.828 69.3767 170.008 70.0133 170.368 70.46C170.728 70.9067 171.211 71.13 171.818 71.13C172.218 71.13 172.561 71.0467 172.848 70.88C173.135 70.7133 173.351 70.49 173.498 70.21C173.651 69.9233 173.728 69.6033 173.728 69.25H174.128C174.128 69.75 174.035 70.2167 173.848 70.65C173.661 71.0833 173.381 71.4333 173.008 71.7C172.641 71.9667 172.188 72.1 171.648 72.1ZM173.818 72L173.728 69.86V68.5H174.738V72H173.818ZM171.788 69.36V68.5H174.238V69.36H171.788ZM176.439 72.1C176.252 72.1 176.096 72.0367 175.969 71.91C175.849 71.7833 175.789 71.6267 175.789 71.44C175.789 71.2467 175.849 71.0867 175.969 70.96C176.096 70.8333 176.252 70.77 176.439 70.77C176.632 70.77 176.789 70.8333 176.909 70.96C177.029 71.0867 177.089 71.2467 177.089 71.44C177.089 71.6267 177.029 71.7833 176.909 71.91C176.789 72.0367 176.632 72.1 176.439 72.1ZM183.413 72L181.123 65.1H182.143L184.443 72H183.413ZM180.483 72V65.1H181.483V72H180.483ZM183.813 72L185.883 65.1H186.873L184.743 72H183.813ZM186.553 72V65.1H187.603V72H186.553ZM192.206 72C192.166 71.8267 192.133 71.65 192.106 71.47C192.086 71.29 192.076 71.1133 192.076 70.94V68.7C192.076 68.2667 191.963 67.9567 191.736 67.77C191.516 67.5767 191.25 67.48 190.936 67.48C190.65 67.48 190.406 67.56 190.206 67.72C190.013 67.8733 189.873 68.1067 189.786 68.42L188.846 68.11C188.993 67.6233 189.256 67.25 189.636 66.99C190.023 66.73 190.476 66.6 190.996 66.6C191.656 66.6 192.166 66.7767 192.526 67.13C192.893 67.4833 193.076 67.9667 193.076 68.58V70.82C193.076 71.2133 193.126 71.6067 193.226 72H192.206ZM190.266 72.1C189.806 72.1 189.436 71.9667 189.156 71.7C188.883 71.4333 188.746 71.0967 188.746 70.69C188.746 70.29 188.88 69.9467 189.146 69.66C189.42 69.3667 189.84 69.17 190.406 69.07L192.276 68.75V69.52L190.736 69.83C190.383 69.8967 190.13 70 189.976 70.14C189.823 70.2733 189.746 70.4333 189.746 70.62C189.746 70.7733 189.81 70.9167 189.936 71.05C190.063 71.1767 190.266 71.24 190.546 71.24C190.793 71.24 191.033 71.1833 191.266 71.07C191.5 70.95 191.693 70.7833 191.846 70.57C192 70.35 192.076 70.09 192.076 69.79H192.406C192.406 70.2633 192.306 70.6733 192.106 71.02C191.913 71.3667 191.653 71.6333 191.326 71.82C191.006 72.0067 190.653 72.1 190.266 72.1ZM197.478 72L193.978 66.7H195.138L198.638 72H197.478ZM193.878 72L195.828 69.08L196.178 68.72L197.428 66.7H198.538L196.688 69.47L196.338 69.82L194.988 72H193.878ZM203.783 72.1C203.31 72.1 202.89 71.9867 202.523 71.76C202.163 71.5333 201.88 71.2133 201.673 70.8C201.467 70.3867 201.363 69.9033 201.363 69.35C201.363 68.79 201.467 68.3067 201.673 67.9C201.88 67.4867 202.163 67.1667 202.523 66.94C202.89 66.7133 203.31 66.6 203.783 66.6C204.263 66.6 204.683 66.7133 205.043 66.94C205.41 67.1667 205.697 67.4867 205.903 67.9C206.11 68.3067 206.213 68.79 206.213 69.35C206.213 69.9033 206.11 70.3867 205.903 70.8C205.697 71.2133 205.41 71.5333 205.043 71.76C204.683 71.9867 204.263 72.1 203.783 72.1ZM203.783 71.2C204.203 71.2 204.54 71.0533 204.793 70.76C205.047 70.46 205.173 69.99 205.173 69.35C205.173 68.71 205.047 68.2433 204.793 67.95C204.54 67.65 204.203 67.5 203.783 67.5C203.37 67.5 203.037 67.65 202.783 67.95C202.53 68.2433 202.403 68.71 202.403 69.35C202.403 69.99 202.53 70.46 202.783 70.76C203.037 71.0533 203.37 71.2 203.783 71.2ZM207.439 72V66.5C207.439 65.9133 207.589 65.4767 207.889 65.19C208.189 64.8967 208.609 64.75 209.149 64.75C209.282 64.75 209.402 64.76 209.509 64.78C209.622 64.7933 209.742 64.8167 209.869 64.85V65.75C209.769 65.7167 209.669 65.69 209.569 65.67C209.469 65.65 209.362 65.64 209.249 65.64C208.982 65.64 208.779 65.71 208.639 65.85C208.506 65.99 208.439 66.1833 208.439 66.43V72H207.439ZM206.689 67.57V66.7H209.819V67.57H206.689ZM213.824 71.48L212.694 71.33L215.334 68.69C215.634 68.39 215.854 68.1067 215.994 67.84C216.134 67.5733 216.204 67.3167 216.204 67.07C216.204 66.7033 216.094 66.42 215.874 66.22C215.661 66.02 215.377 65.92 215.024 65.92C214.657 65.92 214.357 66.05 214.124 66.31C213.897 66.5633 213.754 66.95 213.694 67.47L212.664 67.27C212.724 66.77 212.864 66.3533 213.084 66.02C213.304 65.68 213.584 65.4267 213.924 65.26C214.264 65.0867 214.647 65 215.074 65C215.487 65 215.861 65.0833 216.194 65.25C216.534 65.4167 216.801 65.65 216.994 65.95C217.194 66.25 217.294 66.6033 217.294 67.01C217.294 67.33 217.244 67.6133 217.144 67.86C217.044 68.1 216.897 68.3367 216.704 68.57C216.511 68.7967 216.274 69.05 215.994 69.33L213.824 71.48ZM212.694 72V71.33L213.494 71H217.484V72H212.694ZM220.967 72.1C220.18 72.1 219.55 71.8 219.077 71.2C218.604 70.5933 218.367 69.71 218.367 68.55C218.367 67.3833 218.604 66.5 219.077 65.9C219.55 65.3 220.18 65 220.967 65C221.76 65 222.394 65.3 222.867 65.9C223.34 66.5 223.577 67.3833 223.577 68.55C223.577 69.71 223.34 70.5933 222.867 71.2C222.394 71.8 221.76 72.1 220.967 72.1ZM220.967 71.13C221.447 71.13 221.82 70.9267 222.087 70.52C222.354 70.1133 222.487 69.4567 222.487 68.55C222.487 67.6367 222.354 66.98 222.087 66.58C221.82 66.1733 221.447 65.97 220.967 65.97C220.494 65.97 220.124 66.1733 219.857 66.58C219.59 66.98 219.457 67.6367 219.457 68.55C219.457 69.4567 219.59 70.1133 219.857 70.52C220.124 70.9267 220.494 71.13 220.967 71.13ZM227.08 72.1C226.294 72.1 225.664 71.8 225.19 71.2C224.717 70.5933 224.48 69.71 224.48 68.55C224.48 67.3833 224.717 66.5 225.19 65.9C225.664 65.3 226.294 65 227.08 65C227.874 65 228.507 65.3 228.98 65.9C229.454 66.5 229.69 67.3833 229.69 68.55C229.69 69.71 229.454 70.5933 228.98 71.2C228.507 71.8 227.874 72.1 227.08 72.1ZM227.08 71.13C227.56 71.13 227.934 70.9267 228.2 70.52C228.467 70.1133 228.6 69.4567 228.6 68.55C228.6 67.6367 228.467 66.98 228.2 66.58C227.934 66.1733 227.56 65.97 227.08 65.97C226.607 65.97 226.237 66.1733 225.97 66.58C225.704 66.98 225.57 67.6367 225.57 68.55C225.57 69.4567 225.704 70.1133 225.97 70.52C226.237 70.9267 226.607 71.13 227.08 71.13ZM231.674 70.27V68.91L234.994 65.1H236.234L231.674 70.27ZM230.894 72V65.1H231.944V72H230.894ZM235.154 72L232.894 68.71L233.574 67.97L236.424 72H235.154ZM237.8 72V71.07H239.91C240.423 71.07 240.793 70.9733 241.02 70.78C241.246 70.58 241.36 70.3133 241.36 69.98C241.36 69.6267 241.246 69.3533 241.02 69.16C240.793 68.9667 240.423 68.87 239.91 68.87H237.8V68.19H240.01C240.783 68.19 241.38 68.3633 241.8 68.71C242.226 69.0567 242.44 69.51 242.44 70.07C242.44 70.6433 242.23 71.11 241.81 71.47C241.39 71.8233 240.81 72 240.07 72H237.8ZM237.3 72V65.1H238.35V72H237.3ZM237.8 68.56V68.01H239.86C240.293 68.01 240.613 67.9133 240.82 67.72C241.033 67.5267 241.14 67.2833 241.14 66.99C241.14 66.6967 241.033 66.4633 240.82 66.29C240.613 66.1167 240.293 66.03 239.86 66.03H237.8V65.1H240.01C240.45 65.1 240.833 65.1767 241.16 65.33C241.486 65.4833 241.74 65.6967 241.92 65.97C242.1 66.2367 242.19 66.5467 242.19 66.9C242.19 67.38 242 67.7767 241.62 68.09C241.246 68.4033 240.693 68.56 239.96 68.56H237.8Z" fill="#64748B"/>
</svg>
