<svg width="375" height="424" viewBox="0 0 375 424" fill="none" xmlns="http://www.w3.org/2000/svg">
<path d="M0 24.8009C0 11.5461 10.7452 0.800903 24 0.800903H351C364.255 0.800903 375 11.5461 375 24.8009V424H0V24.8009Z" fill="white"/>
<ellipse cx="256.182" cy="194.273" rx="2.92033" ry="2.74031" fill="#EBEEF2"/>
<rect x="325" y="30" width="30" height="30" rx="15" fill="#F1F5F9"/>
<path d="M345.502 49.3415C345.657 49.4956 345.743 49.7046 345.743 49.9226C345.743 50.1405 345.657 50.3495 345.502 50.5036C345.348 50.6577 345.139 50.7443 344.921 50.7443C344.703 50.7443 344.494 50.6577 344.34 50.5036L340 46.1621L335.659 50.5023C335.505 50.6564 335.296 50.7429 335.078 50.7429C334.86 50.7429 334.651 50.6564 334.497 50.5023C334.342 50.3482 334.256 50.1391 334.256 49.9212C334.256 49.7033 334.342 49.4943 334.497 49.3402L338.838 45L334.498 40.6585C334.344 40.5044 334.257 40.2954 334.257 40.0775C334.257 39.8595 334.344 39.6505 334.498 39.4964C334.652 39.3423 334.861 39.2557 335.079 39.2557C335.297 39.2557 335.506 39.3423 335.66 39.4964L340 43.8379L344.342 39.4957C344.496 39.3416 344.705 39.255 344.923 39.255C345.141 39.255 345.35 39.3416 345.504 39.4957C345.658 39.6498 345.744 39.8588 345.744 40.0768C345.744 40.2947 345.658 40.5037 345.504 40.6578L341.162 45L345.502 49.3415Z" fill="#1E293B"/>
</svg>
