<svg width="343" height="50" viewBox="0 0 343 50" fill="none" xmlns="http://www.w3.org/2000/svg">
<rect width="343" height="50" rx="25" fill="#0145FE"/>
<path d="M162.406 30L158.388 20.34H160.376L164.394 30H162.406ZM157.31 30V20.34H159.158V30H157.31ZM163.624 30V20.34H165.472V30H163.624ZM170.328 30.182C169.646 30.182 169.04 30.0187 168.508 29.692C167.976 29.3653 167.56 28.9127 167.262 28.334C166.972 27.746 166.828 27.0647 166.828 26.29C166.828 25.4967 166.977 24.8107 167.276 24.232C167.574 23.644 167.99 23.1913 168.522 22.874C169.054 22.5567 169.66 22.398 170.342 22.398C171.023 22.398 171.625 22.5567 172.148 22.874C172.67 23.1913 173.076 23.6393 173.366 24.218C173.664 24.7967 173.814 25.4873 173.814 26.29C173.814 26.3833 173.809 26.472 173.8 26.556C173.8 26.64 173.8 26.7333 173.8 26.836H167.99V25.534H172.428L171.91 26.29C171.91 25.4593 171.77 24.8667 171.49 24.512C171.219 24.148 170.836 23.966 170.342 23.966C169.866 23.966 169.478 24.148 169.18 24.512C168.89 24.8667 168.746 25.4593 168.746 26.29C168.746 27.0647 168.895 27.6387 169.194 28.012C169.492 28.376 169.898 28.558 170.412 28.558C170.757 28.558 171.056 28.4787 171.308 28.32C171.56 28.1613 171.746 27.914 171.868 27.578L173.618 28.082C173.422 28.7167 173.039 29.2253 172.47 29.608C171.91 29.9907 171.196 30.182 170.328 30.182ZM179.116 30L174.356 22.58H176.47L181.216 30H179.116ZM174.216 30L176.904 25.912L177.464 25.324L179.046 22.58H181.076L178.528 26.458L177.982 27.032L176.26 30H174.216ZM184.949 30.182C184.165 30.182 183.549 29.9627 183.101 29.524C182.653 29.076 182.429 28.4133 182.429 27.536V21.04L184.277 20.676V27.298C184.277 27.69 184.375 27.984 184.571 28.18C184.776 28.376 185.061 28.474 185.425 28.474C185.602 28.474 185.766 28.46 185.915 28.432C186.064 28.3947 186.218 28.3573 186.377 28.32V30C186.162 30.056 185.943 30.098 185.719 30.126C185.495 30.1633 185.238 30.182 184.949 30.182ZM181.463 24.134V22.58H186.307V24.134H181.463Z" fill="white"/>
</svg>
