<svg width="32" height="33" viewBox="0 0 32 33" fill="none" xmlns="http://www.w3.org/2000/svg">
<g clip-path="url(#clip0_266_17446)">
<path d="M18.7191 0.743744H6.96289C5.82539 0.749994 4.90664 1.66874 4.90039 2.80624V30.1938C4.90039 31.3313 5.82539 32.25 6.95664 32.25H27.6066C28.7441 32.25 29.6629 31.325 29.6691 30.1938L29.6129 9.85L18.7191 0.743744Z" fill="#EAEAEA"/>
<path d="M27.6062 32.5H6.9625C5.6875 32.5 4.65625 31.4688 4.65625 30.1938V2.80625C4.65625 1.53125 5.6875 0.5 6.9625 0.5H18.8125L29.8625 9.7375L29.9187 30.1938C29.9125 31.4688 28.8812 32.5 27.6062 32.5ZM6.9625 0.99375C5.9625 0.99375 5.15 1.80625 5.15 2.80625V30.1938C5.15 31.1938 5.9625 32.0063 6.9625 32.0063H27.6125C28.6125 32.0063 29.425 31.1938 29.425 30.1938L29.3687 9.96875L18.6312 0.99375H6.9625Z" fill="#1565C0"/>
<path d="M18.7188 0.743744L18.6875 9.63749C18.6875 9.63749 18.7188 9.84999 18.9063 9.84999H29.6125L18.7188 0.743744Z" fill="#1565C0"/>
<path d="M2.93789 15.9312H23.6879C24.1566 15.9312 24.5379 16.3125 24.5379 16.7812V26.0312C24.5379 26.5 24.1566 26.8812 23.6879 26.8812H2.93789C2.46914 26.8812 2.08789 26.5 2.08789 26.0312V16.7812C2.08789 16.3062 2.46914 15.9312 2.93789 15.9312Z" fill="#EF4444"/>
<path d="M6.71289 19.1562H9.08164C9.60039 19.1562 9.98164 19.2812 10.2379 19.525C10.4941 19.7687 10.6254 20.1188 10.6254 20.575C10.6254 21.0375 10.4879 21.4063 10.2066 21.6688C9.92539 21.9313 9.50039 22.0625 8.92539 22.0625H8.15039V23.775H6.71914V19.1562H6.71289ZM8.14414 21.1188H8.49414C8.76914 21.1188 8.96289 21.0688 9.07539 20.975C9.18164 20.8875 9.24414 20.75 9.24414 20.6063C9.24414 20.4688 9.19414 20.3375 9.10039 20.2375C9.00664 20.1375 8.82539 20.0875 8.55664 20.0875H8.15039L8.14414 21.1188Z" fill="white"/>
<path d="M11.3877 19.1562H13.5064C13.9252 19.1562 14.2627 19.2125 14.5189 19.325C14.7689 19.4313 14.9877 19.6 15.1564 19.8125C15.3252 20.0313 15.4502 20.2812 15.5189 20.55C15.5939 20.8437 15.6314 21.1438 15.6314 21.4438C15.6314 21.9375 15.5752 22.3188 15.4627 22.5875C15.3564 22.8438 15.2002 23.0813 14.9939 23.2688C14.8127 23.4438 14.5939 23.5688 14.3502 23.6375C14.0752 23.7188 13.7877 23.7563 13.5002 23.7625H11.3877V19.1562ZM12.8127 20.2V22.7188H13.1627C13.4627 22.7188 13.6689 22.6875 13.8002 22.6188C13.9377 22.5438 14.0377 22.4188 14.0939 22.275C14.1627 22.1125 14.2002 21.8438 14.2002 21.475C14.2002 20.9875 14.1189 20.65 13.9627 20.475C13.8064 20.2938 13.5377 20.2062 13.1689 20.2062L12.8127 20.2Z" fill="white"/>
<path d="M16.3881 19.1562H19.9068V20.1437H17.8131V20.95H19.6006V21.8813H17.8131V23.7625H16.3818V19.1562H16.3881Z" fill="white"/>
</g>
<defs>
<clipPath id="clip0_266_17446">
<rect width="32" height="32" fill="white" transform="translate(0 0.5)"/>
</clipPath>
</defs>
</svg>
