<svg width="167" height="50" viewBox="0 0 167 50" fill="none" xmlns="http://www.w3.org/2000/svg">
<g opacity="0.2">
<rect x="0.5" width="166.5" height="50" rx="25" fill="#0145FE"/>
<path d="M65.2098 30.182C64.2018 30.182 63.3618 29.9533 62.6898 29.496C62.0271 29.0387 61.5511 28.362 61.2618 27.466L63.1518 26.836C63.3385 27.396 63.6138 27.8067 63.9778 28.068C64.3418 28.32 64.7898 28.446 65.3218 28.446C65.8725 28.446 66.2878 28.3527 66.5678 28.166C66.8478 27.97 66.9878 27.718 66.9878 27.41C66.9878 27.1207 66.8898 26.8827 66.6938 26.696C66.4978 26.5093 66.2365 26.36 65.9098 26.248C65.5831 26.1267 65.2285 26.0147 64.8458 25.912C64.4631 25.8 64.0805 25.6787 63.6978 25.548C63.3151 25.4173 62.9605 25.2493 62.6338 25.044C62.3071 24.8293 62.0458 24.5587 61.8498 24.232C61.6631 23.896 61.5698 23.476 61.5698 22.972C61.5698 22.4307 61.7098 21.95 61.9898 21.53C62.2698 21.11 62.6805 20.7787 63.2218 20.536C63.7631 20.284 64.4118 20.158 65.1678 20.158C66.0825 20.158 66.8571 20.3773 67.4918 20.816C68.1358 21.2453 68.5885 21.8707 68.8498 22.692L67.0298 23.322C66.8618 22.818 66.6051 22.454 66.2598 22.23C65.9145 21.9967 65.4945 21.88 64.9998 21.88C64.4678 21.88 64.0851 21.978 63.8518 22.174C63.6278 22.3607 63.5158 22.5847 63.5158 22.846C63.5158 23.1073 63.6138 23.3173 63.8098 23.476C64.0058 23.6253 64.2625 23.756 64.5798 23.868C64.9065 23.98 65.2658 24.0873 65.6578 24.19C66.0498 24.2833 66.4371 24.4047 66.8198 24.554C67.2118 24.694 67.5665 24.8807 67.8838 25.114C68.2105 25.338 68.4718 25.6273 68.6678 25.982C68.8638 26.3367 68.9618 26.78 68.9618 27.312C68.9618 27.872 68.8078 28.3667 68.4998 28.796C68.2011 29.2253 67.7718 29.566 67.2118 29.818C66.6611 30.0607 65.9938 30.182 65.2098 30.182ZM72.7464 30.182C72.009 30.182 71.407 29.9207 70.9404 29.398C70.4737 28.8753 70.2404 28.1567 70.2404 27.242V22.58H72.1024V26.864C72.1024 27.4053 72.233 27.8207 72.4944 28.11C72.765 28.39 73.101 28.53 73.5024 28.53C73.913 28.53 74.249 28.39 74.5104 28.11C74.7717 27.8207 74.9024 27.4053 74.9024 26.864H75.3084C75.3084 27.5547 75.201 28.152 74.9864 28.656C74.7717 29.1507 74.473 29.5287 74.0904 29.79C73.7077 30.0513 73.2597 30.182 72.7464 30.182ZM74.9024 30V22.58H76.7644V30H74.9024ZM82.3655 30.182C81.6095 30.182 80.9981 29.8927 80.5315 29.314C80.0741 28.7353 79.8455 27.9187 79.8455 26.864V25.716C79.8455 24.652 80.0741 23.8353 80.5315 23.266C80.9981 22.6873 81.6095 22.398 82.3655 22.398C82.9441 22.398 83.4481 22.5567 83.8775 22.874C84.3068 23.182 84.6428 23.6253 84.8855 24.204C85.1281 24.7827 85.2495 25.478 85.2495 26.29C85.2495 27.102 85.1281 27.7973 84.8855 28.376C84.6428 28.9547 84.3068 29.4027 83.8775 29.72C83.4481 30.028 82.9441 30.182 82.3655 30.182ZM78.3615 30V19.99H80.2235V24.526L79.9715 26.29L80.2235 28.124V30H78.3615ZM81.7075 28.516C82.1928 28.516 82.5848 28.334 82.8835 27.97C83.1821 27.606 83.3315 27.046 83.3315 26.29C83.3315 25.534 83.1821 24.974 82.8835 24.61C82.5848 24.246 82.1928 24.064 81.7075 24.064C81.2315 24.064 80.8441 24.246 80.5455 24.61C80.2468 24.974 80.0975 25.534 80.0975 26.29C80.0975 27.046 80.2468 27.606 80.5455 27.97C80.8441 28.334 81.2315 28.516 81.7075 28.516ZM95.2176 30V25.604C95.2176 25.0907 95.0963 24.7033 94.8536 24.442C94.6203 24.1807 94.3263 24.05 93.9716 24.05C93.6169 24.05 93.3183 24.1807 93.0756 24.442C92.8423 24.7033 92.7256 25.0907 92.7256 25.604H92.1796C92.1796 24.932 92.2823 24.358 92.4876 23.882C92.7023 23.406 93.0009 23.042 93.3836 22.79C93.7663 22.5287 94.2096 22.398 94.7136 22.398C95.4043 22.398 95.9689 22.65 96.4076 23.154C96.8556 23.6487 97.0796 24.3393 97.0796 25.226V30H95.2176ZM86.5236 30V22.58H88.3856V30H86.5236ZM90.8776 30V25.604C90.8776 25.0907 90.7563 24.7033 90.5136 24.442C90.2803 24.1807 89.9863 24.05 89.6316 24.05C89.2769 24.05 88.9783 24.1807 88.7356 24.442C88.5023 24.7033 88.3856 25.0907 88.3856 25.604H87.9796C87.9796 24.932 88.0776 24.358 88.2736 23.882C88.4789 23.406 88.7636 23.042 89.1276 22.79C89.5009 22.5287 89.9256 22.398 90.4016 22.398C91.0829 22.398 91.6383 22.65 92.0676 23.154C92.5063 23.6487 92.7256 24.3393 92.7256 25.226V30H90.8776ZM98.6779 30V22.58H100.54V30H98.6779ZM99.6159 21.698C99.3265 21.698 99.0885 21.6093 98.9019 21.432C98.7152 21.2453 98.6219 21.0027 98.6219 20.704C98.6219 20.4053 98.7152 20.1673 98.9019 19.99C99.0885 19.8127 99.3265 19.724 99.6159 19.724C99.8959 19.724 100.129 19.8127 100.316 19.99C100.512 20.1673 100.61 20.4053 100.61 20.704C100.61 21.0027 100.512 21.2453 100.316 21.432C100.129 21.6093 99.8959 21.698 99.6159 21.698ZM104.951 30.182C104.167 30.182 103.551 29.9627 103.103 29.524C102.655 29.076 102.431 28.4133 102.431 27.536V21.04L104.279 20.676V27.298C104.279 27.69 104.377 27.984 104.573 28.18C104.778 28.376 105.063 28.474 105.427 28.474C105.604 28.474 105.768 28.46 105.917 28.432C106.066 28.3947 106.22 28.3573 106.379 28.32V30C106.164 30.056 105.945 30.098 105.721 30.126C105.497 30.1633 105.24 30.182 104.951 30.182ZM101.465 24.134V22.58H106.309V24.134H101.465Z" fill="#F8FAFC"/>
</g>
</svg>
