<svg width="343" height="50" viewBox="0 0 343 50" fill="none" xmlns="http://www.w3.org/2000/svg">
<rect width="343" height="50" rx="25" fill="#0145FE"/>
<path d="M152.96 30.182C151.952 30.182 151.112 29.9533 150.44 29.496C149.777 29.0387 149.301 28.362 149.012 27.466L150.902 26.836C151.088 27.396 151.364 27.8067 151.728 28.068C152.092 28.32 152.54 28.446 153.072 28.446C153.622 28.446 154.038 28.3527 154.318 28.166C154.598 27.97 154.738 27.718 154.738 27.41C154.738 27.1207 154.64 26.8827 154.444 26.696C154.248 26.5093 153.986 26.36 153.66 26.248C153.333 26.1267 152.978 26.0147 152.596 25.912C152.213 25.8 151.83 25.6787 151.448 25.548C151.065 25.4173 150.71 25.2493 150.384 25.044C150.057 24.8293 149.796 24.5587 149.6 24.232C149.413 23.896 149.32 23.476 149.32 22.972C149.32 22.4307 149.46 21.95 149.74 21.53C150.02 21.11 150.43 20.7787 150.972 20.536C151.513 20.284 152.162 20.158 152.918 20.158C153.832 20.158 154.607 20.3773 155.242 20.816C155.886 21.2453 156.338 21.8707 156.6 22.692L154.78 23.322C154.612 22.818 154.355 22.454 154.01 22.23C153.664 21.9967 153.244 21.88 152.75 21.88C152.218 21.88 151.835 21.978 151.602 22.174C151.378 22.3607 151.266 22.5847 151.266 22.846C151.266 23.1073 151.364 23.3173 151.56 23.476C151.756 23.6253 152.012 23.756 152.33 23.868C152.656 23.98 153.016 24.0873 153.408 24.19C153.8 24.2833 154.187 24.4047 154.57 24.554C154.962 24.694 155.316 24.8807 155.634 25.114C155.96 25.338 156.222 25.6273 156.418 25.982C156.614 26.3367 156.712 26.78 156.712 27.312C156.712 27.872 156.558 28.3667 156.25 28.796C155.951 29.2253 155.522 29.566 154.962 29.818C154.411 30.0607 153.744 30.182 152.96 30.182ZM160.496 30.182C159.759 30.182 159.157 29.9207 158.69 29.398C158.224 28.8753 157.99 28.1567 157.99 27.242V22.58H159.852V26.864C159.852 27.4053 159.983 27.8207 160.244 28.11C160.515 28.39 160.851 28.53 161.252 28.53C161.663 28.53 161.999 28.39 162.26 28.11C162.522 27.8207 162.652 27.4053 162.652 26.864H163.058C163.058 27.5547 162.951 28.152 162.736 28.656C162.522 29.1507 162.223 29.5287 161.84 29.79C161.458 30.0513 161.01 30.182 160.496 30.182ZM162.652 30V22.58H164.514V30H162.652ZM170.115 30.182C169.359 30.182 168.748 29.8927 168.281 29.314C167.824 28.7353 167.595 27.9187 167.595 26.864V25.716C167.595 24.652 167.824 23.8353 168.281 23.266C168.748 22.6873 169.359 22.398 170.115 22.398C170.694 22.398 171.198 22.5567 171.627 22.874C172.057 23.182 172.393 23.6253 172.635 24.204C172.878 24.7827 172.999 25.478 172.999 26.29C172.999 27.102 172.878 27.7973 172.635 28.376C172.393 28.9547 172.057 29.4027 171.627 29.72C171.198 30.028 170.694 30.182 170.115 30.182ZM166.111 30V19.99H167.973V24.526L167.721 26.29L167.973 28.124V30H166.111ZM169.457 28.516C169.943 28.516 170.335 28.334 170.633 27.97C170.932 27.606 171.081 27.046 171.081 26.29C171.081 25.534 170.932 24.974 170.633 24.61C170.335 24.246 169.943 24.064 169.457 24.064C168.981 24.064 168.594 24.246 168.295 24.61C167.997 24.974 167.847 25.534 167.847 26.29C167.847 27.046 167.997 27.606 168.295 27.97C168.594 28.334 168.981 28.516 169.457 28.516ZM182.968 30V25.604C182.968 25.0907 182.846 24.7033 182.604 24.442C182.37 24.1807 182.076 24.05 181.722 24.05C181.367 24.05 181.068 24.1807 180.826 24.442C180.592 24.7033 180.476 25.0907 180.476 25.604H179.93C179.93 24.932 180.032 24.358 180.238 23.882C180.452 23.406 180.751 23.042 181.134 22.79C181.516 22.5287 181.96 22.398 182.464 22.398C183.154 22.398 183.719 22.65 184.158 23.154C184.606 23.6487 184.83 24.3393 184.83 25.226V30H182.968ZM174.274 30V22.58H176.136V30H174.274ZM178.628 30V25.604C178.628 25.0907 178.506 24.7033 178.264 24.442C178.03 24.1807 177.736 24.05 177.382 24.05C177.027 24.05 176.728 24.1807 176.486 24.442C176.252 24.7033 176.136 25.0907 176.136 25.604H175.73C175.73 24.932 175.828 24.358 176.024 23.882C176.229 23.406 176.514 23.042 176.878 22.79C177.251 22.5287 177.676 22.398 178.152 22.398C178.833 22.398 179.388 22.65 179.818 23.154C180.256 23.6487 180.476 24.3393 180.476 25.226V30H178.628ZM186.428 30V22.58H188.29V30H186.428ZM187.366 21.698C187.077 21.698 186.839 21.6093 186.652 21.432C186.465 21.2453 186.372 21.0027 186.372 20.704C186.372 20.4053 186.465 20.1673 186.652 19.99C186.839 19.8127 187.077 19.724 187.366 19.724C187.646 19.724 187.879 19.8127 188.066 19.99C188.262 20.1673 188.36 20.4053 188.36 20.704C188.36 21.0027 188.262 21.2453 188.066 21.432C187.879 21.6093 187.646 21.698 187.366 21.698ZM192.701 30.182C191.917 30.182 191.301 29.9627 190.853 29.524C190.405 29.076 190.181 28.4133 190.181 27.536V21.04L192.029 20.676V27.298C192.029 27.69 192.127 27.984 192.323 28.18C192.528 28.376 192.813 28.474 193.177 28.474C193.354 28.474 193.518 28.46 193.667 28.432C193.816 28.3947 193.97 28.3573 194.129 28.32V30C193.914 30.056 193.695 30.098 193.471 30.126C193.247 30.1633 192.99 30.182 192.701 30.182ZM189.215 24.134V22.58H194.059V24.134H189.215Z" fill="white"/>
</svg>
