<svg width="13" height="13" viewBox="0 0 13 13" fill="none" xmlns="http://www.w3.org/2000/svg">
<path d="M12.125 6.5C12.125 6.62432 12.0756 6.74355 11.9877 6.83146C11.8998 6.91936 11.7806 6.96875 11.6562 6.96875H6.96875V11.6562C6.96875 11.7806 6.91936 11.8998 6.83146 11.9877C6.74355 12.0756 6.62432 12.125 6.5 12.125C6.37568 12.125 6.25645 12.0756 6.16854 11.9877C6.08064 11.8998 6.03125 11.7806 6.03125 11.6562V6.96875H1.34375C1.21943 6.96875 1.1002 6.91936 1.01229 6.83146C0.924386 6.74355 0.875 6.62432 0.875 6.5C0.875 6.37568 0.924386 6.25645 1.01229 6.16854C1.1002 6.08064 1.21943 6.03125 1.34375 6.03125H6.03125V1.34375C6.03125 1.21943 6.08064 1.1002 6.16854 1.01229C6.25645 0.924386 6.37568 0.875 6.5 0.875C6.62432 0.875 6.74355 0.924386 6.83146 1.01229C6.91936 1.1002 6.96875 1.21943 6.96875 1.34375V6.03125H11.6562C11.7806 6.03125 11.8998 6.08064 11.9877 6.16854C12.0756 6.25645 12.125 6.37568 12.125 6.5Z" fill="#0F0B1C"/>
</svg>
