<svg width="335" height="50" viewBox="0 0 335 50" fill="none" xmlns="http://www.w3.org/2000/svg">
<rect width="335" height="50" rx="25" fill="#0145FE"/>
<path d="M147.415 30.182C146.407 30.182 145.567 29.9533 144.895 29.496C144.232 29.0387 143.756 28.362 143.467 27.466L145.357 26.836C145.544 27.396 145.819 27.8067 146.183 28.068C146.547 28.32 146.995 28.446 147.527 28.446C148.078 28.446 148.493 28.3527 148.773 28.166C149.053 27.97 149.193 27.718 149.193 27.41C149.193 27.1207 149.095 26.8827 148.899 26.696C148.703 26.5093 148.442 26.36 148.115 26.248C147.788 26.1267 147.434 26.0147 147.051 25.912C146.668 25.8 146.286 25.6787 145.903 25.548C145.52 25.4173 145.166 25.2493 144.839 25.044C144.512 24.8293 144.251 24.5587 144.055 24.232C143.868 23.896 143.775 23.476 143.775 22.972C143.775 22.4307 143.915 21.95 144.195 21.53C144.475 21.11 144.886 20.7787 145.427 20.536C145.968 20.284 146.617 20.158 147.373 20.158C148.288 20.158 149.062 20.3773 149.697 20.816C150.341 21.2453 150.794 21.8707 151.055 22.692L149.235 23.322C149.067 22.818 148.81 22.454 148.465 22.23C148.12 21.9967 147.7 21.88 147.205 21.88C146.673 21.88 146.29 21.978 146.057 22.174C145.833 22.3607 145.721 22.5847 145.721 22.846C145.721 23.1073 145.819 23.3173 146.015 23.476C146.211 23.6253 146.468 23.756 146.785 23.868C147.112 23.98 147.471 24.0873 147.863 24.19C148.255 24.2833 148.642 24.4047 149.025 24.554C149.417 24.694 149.772 24.8807 150.089 25.114C150.416 25.338 150.677 25.6273 150.873 25.982C151.069 26.3367 151.167 26.78 151.167 27.312C151.167 27.872 151.013 28.3667 150.705 28.796C150.406 29.2253 149.977 29.566 149.417 29.818C148.866 30.0607 148.199 30.182 147.415 30.182ZM152.445 30V22.58H154.307V30H152.445ZM153.383 21.698C153.094 21.698 152.856 21.6093 152.669 21.432C152.483 21.2453 152.389 21.0027 152.389 20.704C152.389 20.4053 152.483 20.1673 152.669 19.99C152.856 19.8127 153.094 19.724 153.383 19.724C153.663 19.724 153.897 19.8127 154.083 19.99C154.279 20.1673 154.377 20.4053 154.377 20.704C154.377 21.0027 154.279 21.2453 154.083 21.432C153.897 21.6093 153.663 21.698 153.383 21.698ZM158.676 32.632C157.995 32.632 157.412 32.534 156.926 32.338C156.441 32.142 156.035 31.8807 155.708 31.554L156.674 30.224C156.936 30.4573 157.22 30.6347 157.528 30.756C157.846 30.8867 158.196 30.952 158.578 30.952C158.961 30.952 159.302 30.882 159.6 30.742C159.908 30.602 160.151 30.3873 160.328 30.098C160.506 29.818 160.594 29.454 160.594 29.006V27.662L160.846 25.898L160.594 24.316V22.58H162.456V28.964C162.456 29.7853 162.293 30.4667 161.966 31.008C161.64 31.5493 161.192 31.9553 160.622 32.226C160.053 32.4967 159.404 32.632 158.676 32.632ZM158.452 29.398C157.883 29.398 157.379 29.258 156.94 28.978C156.511 28.698 156.175 28.2967 155.932 27.774C155.699 27.242 155.582 26.6167 155.582 25.898C155.582 25.1793 155.699 24.5587 155.932 24.036C156.175 23.5133 156.511 23.112 156.94 22.832C157.379 22.5427 157.883 22.398 158.452 22.398C159.208 22.398 159.815 22.6547 160.272 23.168C160.73 23.6813 160.958 24.4 160.958 25.324V26.472C160.958 27.3867 160.73 28.1053 160.272 28.628C159.815 29.1413 159.208 29.398 158.452 29.398ZM159.11 27.732C159.596 27.732 159.983 27.578 160.272 27.27C160.571 26.962 160.72 26.5047 160.72 25.898C160.72 25.2913 160.571 24.834 160.272 24.526C159.983 24.218 159.596 24.064 159.11 24.064C158.625 24.064 158.233 24.218 157.934 24.526C157.645 24.834 157.5 25.2913 157.5 25.898C157.5 26.5047 157.645 26.962 157.934 27.27C158.233 27.578 158.625 27.732 159.11 27.732ZM168.743 30V25.716C168.743 25.1653 168.608 24.75 168.337 24.47C168.066 24.19 167.73 24.05 167.329 24.05C166.928 24.05 166.592 24.19 166.321 24.47C166.05 24.75 165.915 25.1653 165.915 25.716H165.509C165.509 25.016 165.616 24.4187 165.831 23.924C166.055 23.4293 166.358 23.0513 166.741 22.79C167.133 22.5287 167.586 22.398 168.099 22.398C168.584 22.398 169.014 22.5193 169.387 22.762C169.77 22.9953 170.068 23.3313 170.283 23.77C170.498 24.1993 170.605 24.722 170.605 25.338V30H168.743ZM164.053 30V22.58H165.915V30H164.053ZM178.94 30.182C178.109 30.182 177.395 30.0233 176.798 29.706C176.21 29.3887 175.757 28.9407 175.44 28.362C175.132 27.774 174.978 27.0833 174.978 26.29V20.34H176.91V26.178C176.91 26.878 177.082 27.4193 177.428 27.802C177.782 28.1753 178.291 28.362 178.954 28.362C179.626 28.362 180.139 28.1753 180.494 27.802C180.848 27.4193 181.026 26.878 181.026 26.178V20.34H182.916V26.29C182.916 27.0833 182.757 27.774 182.44 28.362C182.122 28.9407 181.67 29.3887 181.082 29.706C180.494 30.0233 179.78 30.182 178.94 30.182ZM188.551 30.182C187.795 30.182 187.184 29.8927 186.717 29.314C186.26 28.7353 186.031 27.9187 186.031 26.864V25.716C186.031 24.652 186.26 23.8353 186.717 23.266C187.184 22.6873 187.795 22.398 188.551 22.398C189.13 22.398 189.634 22.5567 190.063 22.874C190.492 23.182 190.828 23.6253 191.071 24.204C191.314 24.7827 191.435 25.478 191.435 26.29C191.435 27.102 191.314 27.7973 191.071 28.376C190.828 28.9547 190.492 29.4027 190.063 29.72C189.634 30.028 189.13 30.182 188.551 30.182ZM184.547 32.45V22.58H186.409V24.456L186.157 26.29L186.409 28.054V32.45H184.547ZM187.893 28.516C188.378 28.516 188.77 28.334 189.069 27.97C189.368 27.606 189.517 27.046 189.517 26.29C189.517 25.534 189.368 24.974 189.069 24.61C188.77 24.246 188.378 24.064 187.893 24.064C187.417 24.064 187.03 24.246 186.731 24.61C186.432 24.974 186.283 25.534 186.283 26.29C186.283 27.046 186.432 27.606 186.731 27.97C187.03 28.334 187.417 28.516 187.893 28.516Z" fill="white"/>
</svg>
