<svg width="86" height="85" viewBox="0 0 86 85" fill="none" xmlns="http://www.w3.org/2000/svg">
<path fill-rule="evenodd" clip-rule="evenodd" d="M4.92725 24.7916C4.92725 13.5446 14.0448 4.42706 25.2918 4.42706H60.7085C71.9556 4.42706 81.0731 13.5446 81.0731 24.7916V60.2083C81.0731 71.4554 71.9556 80.5729 60.7085 80.5729H25.2918C14.0448 80.5729 4.92725 71.4554 4.92725 60.2083V24.7916ZM25.2918 9.73956C16.9788 9.73956 10.2397 16.4786 10.2397 24.7916V60.2083C10.2397 68.5214 16.9788 75.2604 25.2918 75.2604H60.7085C69.0215 75.2604 75.7606 68.5214 75.7606 60.2083V24.7916C75.7606 16.4786 69.0215 9.73956 60.7085 9.73956H25.2918Z" fill="#E6ECFF"/>
<path fill-rule="evenodd" clip-rule="evenodd" d="M7.5835 24.7916C7.5835 15.0116 15.5118 7.08331 25.2918 7.08331H60.7085C70.4885 7.08331 78.4168 15.0116 78.4168 24.7916V60.2083C78.4168 62.7845 77.8667 65.2322 76.8776 67.4403L78.1372 58.6231C78.3109 57.4071 77.8421 56.1879 76.8984 55.4015L61.6391 42.6853C59.1061 40.5745 55.3815 40.7435 53.0501 43.0749L35.3802 60.7448C33.7205 62.4045 31.0295 62.4045 29.3698 60.7448L25.5687 56.9437C23.3651 54.7401 19.8914 54.4526 17.3555 56.2639L10.8373 60.9198C9.90655 61.5846 9.35417 62.658 9.35417 63.8018V67.3603C9.35417 67.6081 9.38012 67.8529 9.43033 68.091C8.24829 65.7171 7.5835 63.0403 7.5835 60.2083V24.7916ZM68.6345 75.4716L75.4564 70.0141C72.2826 74.7779 66.8621 77.9167 60.7085 77.9167H25.2918C19.1322 77.9167 13.7071 74.7717 10.5346 70C10.5829 70.0432 10.6325 70.0852 10.6834 70.1259L17.3341 75.4465C17.9031 75.9016 18.5985 76.1702 19.3257 76.2157L46.284 77.9006C46.4555 77.9113 46.6277 77.9095 46.799 77.8952L66.7161 76.2355C67.4172 76.177 68.0851 75.9111 68.6345 75.4716ZM28.8333 35.4167C24.9213 35.4167 21.75 32.2454 21.75 28.3333C21.75 24.4213 24.9213 21.25 28.8333 21.25C32.7454 21.25 35.9167 24.4213 35.9167 28.3333C35.9167 32.2454 32.7454 35.4167 28.8333 35.4167Z" fill="#E6ECFF"/>
</svg>
