<svg width="335" height="338" viewBox="0 0 335 338" fill="none" xmlns="http://www.w3.org/2000/svg">
<rect width="335" height="338" rx="15" fill="#F1F5F9"/>
<path fill-rule="evenodd" clip-rule="evenodd" d="M116.042 144.833C116.042 129.484 128.484 117.042 143.833 117.042H192.167C207.515 117.042 219.958 129.484 219.958 144.833V193.167C219.958 208.516 207.515 220.958 192.167 220.958H143.833C128.484 220.958 116.042 208.516 116.042 193.167V144.833ZM143.833 124.292C132.488 124.292 123.292 133.488 123.292 144.833V193.167C123.292 204.511 132.488 213.708 143.833 213.708H192.167C203.511 213.708 212.708 204.511 212.708 193.167V144.833C212.708 133.488 203.511 124.292 192.167 124.292H143.833Z" fill="#64748B"/>
<path fill-rule="evenodd" clip-rule="evenodd" d="M119.667 144.833C119.667 131.486 130.486 120.667 143.833 120.667H192.167C205.513 120.667 216.333 131.486 216.333 144.833V193.167C216.333 196.682 215.583 200.022 214.233 203.035L215.952 191.003C216.189 189.344 215.549 187.68 214.261 186.607L193.437 169.253C189.98 166.372 184.897 166.603 181.715 169.785L157.601 193.899C155.336 196.164 151.664 196.164 149.399 193.899L144.211 188.711C141.204 185.704 136.464 185.312 133.003 187.784L124.107 194.138C122.837 195.045 122.083 196.51 122.083 198.071V202.927C122.083 203.266 122.119 203.6 122.188 203.925C120.574 200.685 119.667 197.032 119.667 193.167V144.833ZM202.983 213.997L212.293 206.549C207.961 213.05 200.564 217.333 192.167 217.333H143.833C135.427 217.333 128.023 213.041 123.693 206.529C123.76 206.588 123.828 206.645 123.897 206.701L132.974 213.962C133.75 214.583 134.699 214.95 135.692 215.012L172.482 217.311C172.716 217.326 172.951 217.324 173.185 217.304L200.366 215.039C201.322 214.959 202.234 214.596 202.983 213.997ZM148.667 159.333C143.328 159.333 139 155.005 139 149.667C139 144.328 143.328 140 148.667 140C154.005 140 158.333 144.328 158.333 149.667C158.333 155.005 154.005 159.333 148.667 159.333Z" fill="#64748B"/>
</svg>
