<svg width="154" height="27" viewBox="0 0 154 27" fill="none" xmlns="http://www.w3.org/2000/svg">
<path d="M13.0021 1.34001C15.3541 1.34001 17.4061 1.79601 19.1581 2.70801C20.9341 3.62001 22.3021 4.96401 23.2621 6.74001C24.2461 8.51601 24.7381 10.688 24.7381 13.256C24.7381 14.888 24.4501 16.58 23.8741 18.332C23.2981 20.06 22.4581 21.596 21.3541 22.94C20.2021 24.02 18.8821 24.896 17.3941 25.568C15.9061 26.216 14.3221 26.54 12.6421 26.54C10.3141 26.54 8.26213 26.084 6.48613 25.172C4.73413 24.26 3.36613 22.916 2.38213 21.14C1.42213 19.364 0.942125 17.192 0.942125 14.624C0.942125 13.016 1.24213 11.336 1.84213 9.58401C2.44213 7.83201 3.29413 6.28401 4.39813 4.94001C5.52613 3.86001 6.82213 2.99601 8.28613 2.34801C9.77413 1.67601 11.3461 1.34001 13.0021 1.34001ZM7.35013 12.104C7.35013 14.888 7.71013 17.132 8.43013 18.836C9.15013 20.54 10.2421 21.8 11.7061 22.616C13.1701 23.408 15.0661 23.864 17.3941 23.984C17.6821 22.784 17.9101 21.38 18.0781 19.772C18.2701 18.14 18.3661 16.808 18.3661 15.776C18.3661 12.968 17.9941 10.712 17.2501 9.00801C16.5301 7.28001 15.4261 6.00801 13.9381 5.19201C12.4501 4.37601 10.5541 3.92001 8.25013 3.82401C7.98613 5.07201 7.77013 6.52401 7.60213 8.18001C7.43413 9.83601 7.35013 11.144 7.35013 12.104ZM44.0696 24.956V26H36.3656V24.956L37.6976 24.848V17.252C37.6976 16.196 37.3976 15.38 36.7976 14.804C36.2216 14.228 35.4176 13.928 34.3856 13.904L33.2336 15.092L33.0896 24.848L34.4216 24.956V26H26.6816V24.956L28.0136 24.848L27.9056 11.96L26.5376 12.284L26.1776 11.204L31.8656 9.44001L33.1256 13.472L36.1136 9.18801C38.3936 9.18801 40.0736 9.72801 41.1536 10.808C42.2336 11.888 42.7736 13.556 42.7736 15.812V24.848L44.0696 24.956ZM71.8042 1.88001V8.86401L70.4002 8.82801L70.3282 7.02801C67.8562 5.25201 65.8042 3.94401 64.1722 3.10401V24.704L67.0162 24.74V26H55.3522V24.74L58.1962 24.704V3.10401C56.5642 3.94401 54.5122 5.25201 52.0402 7.02801L51.9682 8.82801L50.5642 8.86401V1.88001H71.8042ZM90.0112 24.956V26H82.3072V24.956L83.6392 24.848V17.252C83.6392 16.196 83.3392 15.38 82.7392 14.804C82.1632 14.228 81.3592 13.928 80.3272 13.904L79.1392 15.092L79.0672 24.848L80.3992 24.956V26H72.6592V24.956L73.9912 24.848L73.8112 3.28401L72.4432 3.57201L72.0832 2.52801L78.7432 0.512007L79.2472 1.37601L79.1392 13.364L82.0552 9.18801C84.3352 9.18801 86.0152 9.72801 87.0952 10.808C88.1752 11.888 88.7152 13.556 88.7152 15.812V24.848L90.0112 24.956ZM99.3971 9.26001C101.509 9.26001 103.165 10.028 104.365 11.564C105.589 13.076 106.189 15.128 106.165 17.72L96.2291 18.044C96.3971 19.46 96.8891 20.54 97.7051 21.284C98.5211 22.028 99.6011 22.4 100.945 22.4C102.817 22.4 104.341 21.884 105.517 20.852L106.165 21.428C105.325 23.036 104.185 24.296 102.745 25.208C101.329 26.096 99.8171 26.54 98.2091 26.54C96.0251 26.54 94.2851 25.82 92.9891 24.38C91.7171 22.916 91.0811 20.948 91.0811 18.476C91.0811 17.012 91.3691 15.56 91.9451 14.12C92.5451 12.68 93.3011 11.48 94.2131 10.52C94.8371 10.16 95.6411 9.86001 96.6251 9.62001C97.6091 9.38001 98.5331 9.26001 99.3971 9.26001ZM100.837 16.532C100.813 14.852 100.573 13.52 100.117 12.536C99.6611 11.552 99.0131 10.964 98.1731 10.772C97.5731 11.396 97.0811 12.272 96.6971 13.4C96.3371 14.504 96.1571 15.644 96.1571 16.82V16.928L100.837 16.532ZM135.94 13.508V14.768L134.32 14.804V26H133.168L130.54 24.2C129.604 24.944 128.584 25.52 127.48 25.928C126.4 26.336 125.296 26.54 124.168 26.54C122.056 26.54 120.196 26.06 118.588 25.1C116.98 24.116 115.732 22.748 114.844 20.996C113.956 19.22 113.512 17.168 113.512 14.84C113.512 12.632 113.908 10.544 114.7 8.57601C115.516 6.60801 116.548 5.03601 117.796 3.86001C119.02 3.06801 120.328 2.46801 121.72 2.06001C123.136 1.62801 124.528 1.41201 125.896 1.41201C127.72 1.41201 129.388 1.80801 130.9 2.60001C132.436 3.36801 133.648 4.44801 134.536 5.84001L130.108 9.54801C128.788 7.31601 127.288 4.94001 125.608 2.42001C123.952 3.14001 122.596 4.47201 121.54 6.41601C120.484 8.36001 119.956 10.568 119.956 13.04C119.956 16.088 120.64 18.488 122.008 20.24C123.4 21.968 125.296 22.832 127.696 22.832C128.08 22.832 128.368 22.82 128.56 22.796V14.804L126.796 14.768V13.508H135.94ZM145.485 9.26001C147.885 9.26001 149.817 9.96801 151.281 11.384C152.745 12.8 153.477 14.816 153.477 17.432C153.477 18.56 153.273 19.724 152.865 20.924C152.481 22.124 151.905 23.18 151.137 24.092C150.369 24.836 149.469 25.436 148.437 25.892C147.429 26.324 146.361 26.54 145.233 26.54C142.833 26.54 140.901 25.832 139.437 24.416C137.973 23 137.241 20.984 137.241 18.368C137.241 17.264 137.445 16.112 137.853 14.912C138.261 13.712 138.849 12.656 139.617 11.744C140.385 11 141.273 10.4 142.281 9.94401C143.313 9.48801 144.381 9.26001 145.485 9.26001ZM142.425 16.64C142.425 18.92 142.869 20.624 143.757 21.752C144.669 22.88 146.001 23.552 147.753 23.768C147.921 23.048 148.053 22.244 148.149 21.356C148.245 20.468 148.293 19.736 148.293 19.16C148.293 16.856 147.837 15.152 146.925 14.048C146.037 12.92 144.729 12.248 143.001 12.032C142.833 12.776 142.689 13.592 142.569 14.48C142.473 15.368 142.425 16.088 142.425 16.64Z" fill="#F8FAFC"/>
</svg>
