<svg width="82" height="29" viewBox="0 0 82 29" fill="none" xmlns="http://www.w3.org/2000/svg">
<rect width="82" height="29" rx="14.5" fill="#E6ECFF"/>
<path d="M20.6922 18.5L18.2322 10.22H19.6722L22.0842 18.5H20.6922ZM17.2602 18.5V10.22H18.6402V18.5H17.2602ZM21.3402 18.5L23.5602 10.22H24.9522L22.6362 18.5H21.3402ZM24.5682 18.5V10.22H26.0322V18.5H24.5682ZM30.2688 18.632C29.6768 18.632 29.1568 18.496 28.7088 18.224C28.2688 17.952 27.9248 17.568 27.6768 17.072C27.4288 16.568 27.3048 15.984 27.3048 15.32C27.3048 14.632 27.4288 14.04 27.6768 13.544C27.9328 13.048 28.2808 12.668 28.7208 12.404C29.1688 12.14 29.6808 12.008 30.2568 12.008C30.8248 12.008 31.3248 12.14 31.7568 12.404C32.1888 12.668 32.5248 13.048 32.7648 13.544C33.0128 14.04 33.1368 14.632 33.1368 15.32C33.1368 15.392 33.1368 15.46 33.1368 15.524C33.1368 15.588 33.1328 15.668 33.1248 15.764H28.2888V14.732H32.0928L31.6968 15.32C31.6968 14.56 31.5688 14.016 31.3128 13.688C31.0568 13.36 30.7048 13.196 30.2568 13.196C29.8008 13.196 29.4328 13.364 29.1528 13.7C28.8808 14.028 28.7448 14.568 28.7448 15.32C28.7448 16.024 28.8808 16.544 29.1528 16.88C29.4328 17.208 29.8168 17.372 30.3048 17.372C30.6248 17.372 30.9008 17.3 31.1328 17.156C31.3648 17.012 31.5448 16.776 31.6728 16.448L32.9928 16.892C32.8008 17.436 32.4648 17.864 31.9848 18.176C31.5128 18.48 30.9408 18.632 30.2688 18.632ZM36.5527 18.632C35.8087 18.632 35.2127 18.484 34.7647 18.188C34.3167 17.892 34.0127 17.452 33.8527 16.868L35.1607 16.46C35.2807 16.836 35.4607 17.108 35.7007 17.276C35.9487 17.444 36.2647 17.528 36.6487 17.528C36.9927 17.528 37.2567 17.468 37.4407 17.348C37.6327 17.22 37.7287 17.048 37.7287 16.832C37.7287 16.6 37.6407 16.424 37.4647 16.304C37.2887 16.176 37.0607 16.072 36.7807 15.992C36.5087 15.904 36.2167 15.816 35.9047 15.728C35.5927 15.64 35.2967 15.528 35.0167 15.392C34.7447 15.248 34.5207 15.056 34.3447 14.816C34.1767 14.576 34.0927 14.26 34.0927 13.868C34.0927 13.34 34.3007 12.9 34.7167 12.548C35.1407 12.188 35.7447 12.008 36.5287 12.008C37.2007 12.008 37.7447 12.152 38.1607 12.44C38.5767 12.728 38.8727 13.144 39.0487 13.688L37.7767 14.108C37.6567 13.756 37.4887 13.504 37.2727 13.352C37.0567 13.192 36.7767 13.112 36.4327 13.112C36.1047 13.112 35.8567 13.172 35.6887 13.292C35.5287 13.404 35.4487 13.548 35.4487 13.724C35.4487 13.924 35.5367 14.08 35.7127 14.192C35.8887 14.296 36.1167 14.388 36.3967 14.468C36.6767 14.54 36.9727 14.624 37.2847 14.72C37.5967 14.808 37.8927 14.928 38.1727 15.08C38.4527 15.232 38.6807 15.44 38.8567 15.704C39.0327 15.96 39.1207 16.296 39.1207 16.712C39.1207 17.264 38.8967 17.724 38.4487 18.092C38.0007 18.452 37.3687 18.632 36.5527 18.632ZM42.5293 18.632C41.7853 18.632 41.1893 18.484 40.7413 18.188C40.2933 17.892 39.9893 17.452 39.8293 16.868L41.1373 16.46C41.2573 16.836 41.4373 17.108 41.6773 17.276C41.9253 17.444 42.2413 17.528 42.6253 17.528C42.9693 17.528 43.2333 17.468 43.4173 17.348C43.6093 17.22 43.7053 17.048 43.7053 16.832C43.7053 16.6 43.6173 16.424 43.4413 16.304C43.2653 16.176 43.0373 16.072 42.7573 15.992C42.4853 15.904 42.1933 15.816 41.8813 15.728C41.5693 15.64 41.2733 15.528 40.9933 15.392C40.7213 15.248 40.4973 15.056 40.3213 14.816C40.1533 14.576 40.0693 14.26 40.0693 13.868C40.0693 13.34 40.2773 12.9 40.6933 12.548C41.1173 12.188 41.7213 12.008 42.5053 12.008C43.1773 12.008 43.7213 12.152 44.1373 12.44C44.5533 12.728 44.8493 13.144 45.0253 13.688L43.7533 14.108C43.6333 13.756 43.4653 13.504 43.2493 13.352C43.0333 13.192 42.7533 13.112 42.4093 13.112C42.0813 13.112 41.8333 13.172 41.6653 13.292C41.5053 13.404 41.4253 13.548 41.4253 13.724C41.4253 13.924 41.5133 14.08 41.6893 14.192C41.8653 14.296 42.0933 14.388 42.3733 14.468C42.6533 14.54 42.9493 14.624 43.2613 14.72C43.5733 14.808 43.8693 14.928 44.1493 15.08C44.4293 15.232 44.6573 15.44 44.8333 15.704C45.0093 15.96 45.0973 16.296 45.0973 16.712C45.0973 17.264 44.8733 17.724 44.4253 18.092C43.9773 18.452 43.3453 18.632 42.5293 18.632ZM50.0299 18.5C49.9819 18.292 49.9419 18.08 49.9099 17.864C49.8859 17.648 49.8739 17.436 49.8739 17.228V14.54C49.8739 14.052 49.7499 13.704 49.5019 13.496C49.2619 13.288 48.9739 13.184 48.6379 13.184C48.3259 13.184 48.0579 13.272 47.8339 13.448C47.6179 13.624 47.4619 13.892 47.3659 14.252L46.0459 13.88C46.2139 13.264 46.5339 12.8 47.0059 12.488C47.4859 12.168 48.0579 12.008 48.7219 12.008C49.5219 12.008 50.1459 12.22 50.5939 12.644C51.0419 13.068 51.2659 13.652 51.2659 14.396V17.084C51.2659 17.556 51.3259 18.028 51.4459 18.5H50.0299ZM47.7859 18.632C47.2099 18.632 46.7539 18.472 46.4179 18.152C46.0899 17.832 45.9259 17.42 45.9259 16.916C45.9259 16.436 46.0859 16.02 46.4059 15.668C46.7339 15.316 47.2339 15.08 47.9059 14.96L50.2099 14.576V15.572L48.3859 15.944C48.0019 16.016 47.7299 16.128 47.5699 16.28C47.4099 16.432 47.3299 16.608 47.3299 16.808C47.3299 16.976 47.3979 17.132 47.5339 17.276C47.6699 17.412 47.8819 17.48 48.1699 17.48C48.4419 17.48 48.7059 17.416 48.9619 17.288C49.2259 17.16 49.4419 16.976 49.6099 16.736C49.7859 16.488 49.8739 16.192 49.8739 15.848H50.2699C50.2699 16.416 50.1579 16.912 49.9339 17.336C49.7099 17.752 49.4099 18.072 49.0339 18.296C48.6579 18.52 48.2419 18.632 47.7859 18.632ZM55.13 20.744C54.506 20.744 53.982 20.632 53.558 20.408C53.134 20.192 52.806 19.908 52.574 19.556L53.534 18.752C53.726 18.992 53.946 19.172 54.194 19.292C54.45 19.412 54.758 19.472 55.118 19.472C55.414 19.472 55.69 19.416 55.946 19.304C56.202 19.192 56.406 19.008 56.558 18.752C56.718 18.496 56.798 18.164 56.798 17.756V16.616L56.99 15.008L56.798 13.472V12.14H58.19V17.768C58.19 18.448 58.054 19.008 57.782 19.448C57.51 19.888 57.142 20.212 56.678 20.42C56.222 20.636 55.706 20.744 55.13 20.744ZM54.926 18.008C54.438 18.008 54.006 17.884 53.63 17.636C53.254 17.388 52.958 17.04 52.742 16.592C52.534 16.144 52.43 15.616 52.43 15.008C52.43 14.392 52.534 13.86 52.742 13.412C52.958 12.964 53.254 12.62 53.63 12.38C54.006 12.132 54.438 12.008 54.926 12.008C55.59 12.008 56.114 12.228 56.498 12.668C56.89 13.108 57.086 13.716 57.086 14.492V15.512C57.086 16.288 56.89 16.9 56.498 17.348C56.114 17.788 55.59 18.008 54.926 18.008ZM55.37 16.76C55.818 16.76 56.178 16.616 56.45 16.328C56.73 16.032 56.87 15.592 56.87 15.008C56.87 14.416 56.73 13.976 56.45 13.688C56.178 13.392 55.818 13.244 55.37 13.244C54.922 13.244 54.558 13.392 54.278 13.688C54.006 13.976 53.87 14.416 53.87 15.008C53.87 15.592 54.006 16.032 54.278 16.328C54.558 16.616 54.922 16.76 55.37 16.76ZM62.3078 18.632C61.7158 18.632 61.1958 18.496 60.7478 18.224C60.3078 17.952 59.9638 17.568 59.7158 17.072C59.4678 16.568 59.3438 15.984 59.3438 15.32C59.3438 14.632 59.4678 14.04 59.7158 13.544C59.9718 13.048 60.3198 12.668 60.7598 12.404C61.2078 12.14 61.7198 12.008 62.2958 12.008C62.8638 12.008 63.3638 12.14 63.7958 12.404C64.2278 12.668 64.5638 13.048 64.8038 13.544C65.0518 14.04 65.1758 14.632 65.1758 15.32C65.1758 15.392 65.1758 15.46 65.1758 15.524C65.1758 15.588 65.1718 15.668 65.1638 15.764H60.3278V14.732H64.1318L63.7358 15.32C63.7358 14.56 63.6078 14.016 63.3518 13.688C63.0958 13.36 62.7438 13.196 62.2958 13.196C61.8398 13.196 61.4718 13.364 61.1918 13.7C60.9198 14.028 60.7838 14.568 60.7838 15.32C60.7838 16.024 60.9198 16.544 61.1918 16.88C61.4718 17.208 61.8558 17.372 62.3438 17.372C62.6638 17.372 62.9398 17.3 63.1718 17.156C63.4038 17.012 63.5838 16.776 63.7118 16.448L65.0318 16.892C64.8398 17.436 64.5038 17.864 64.0238 18.176C63.5518 18.48 62.9798 18.632 62.3078 18.632Z" fill="#0145FE"/>
</svg>
