<svg width="344" height="50" viewBox="0 0 344 50" fill="none" xmlns="http://www.w3.org/2000/svg">
<rect width="344" height="50" rx="25" fill="#0145FE"/>
<path d="M129.732 30.182C128.724 30.182 127.884 29.9533 127.212 29.496C126.55 29.0387 126.074 28.362 125.784 27.466L127.674 26.836C127.861 27.396 128.136 27.8067 128.5 28.068C128.864 28.32 129.312 28.446 129.844 28.446C130.395 28.446 130.81 28.3527 131.09 28.166C131.37 27.97 131.51 27.718 131.51 27.41C131.51 27.1207 131.412 26.8827 131.216 26.696C131.02 26.5093 130.759 26.36 130.432 26.248C130.106 26.1267 129.751 26.0147 129.368 25.912C128.986 25.8 128.603 25.6787 128.22 25.548C127.838 25.4173 127.483 25.2493 127.156 25.044C126.83 24.8293 126.568 24.5587 126.372 24.232C126.186 23.896 126.092 23.476 126.092 22.972C126.092 22.4307 126.232 21.95 126.512 21.53C126.792 21.11 127.203 20.7787 127.744 20.536C128.286 20.284 128.934 20.158 129.69 20.158C130.605 20.158 131.38 20.3773 132.014 20.816C132.658 21.2453 133.111 21.8707 133.372 22.692L131.552 23.322C131.384 22.818 131.128 22.454 130.782 22.23C130.437 21.9967 130.017 21.88 129.522 21.88C128.99 21.88 128.608 21.978 128.374 22.174C128.15 22.3607 128.038 22.5847 128.038 22.846C128.038 23.1073 128.136 23.3173 128.332 23.476C128.528 23.6253 128.785 23.756 129.102 23.868C129.429 23.98 129.788 24.0873 130.18 24.19C130.572 24.2833 130.96 24.4047 131.342 24.554C131.734 24.694 132.089 24.8807 132.406 25.114C132.733 25.338 132.994 25.6273 133.19 25.982C133.386 26.3367 133.484 26.78 133.484 27.312C133.484 27.872 133.33 28.3667 133.022 28.796C132.724 29.2253 132.294 29.566 131.734 29.818C131.184 30.0607 130.516 30.182 129.732 30.182ZM137.899 30.182C137.218 30.182 136.611 30.0187 136.079 29.692C135.547 29.3653 135.132 28.9127 134.833 28.334C134.544 27.746 134.399 27.0647 134.399 26.29C134.399 25.4967 134.548 24.8107 134.847 24.232C135.146 23.644 135.561 23.1913 136.093 22.874C136.625 22.5567 137.232 22.398 137.913 22.398C138.594 22.398 139.196 22.5567 139.719 22.874C140.242 23.1913 140.648 23.6393 140.937 24.218C141.236 24.7967 141.385 25.4873 141.385 26.29C141.385 26.3833 141.38 26.472 141.371 26.556C141.371 26.64 141.371 26.7333 141.371 26.836H135.561V25.534H139.999L139.481 26.29C139.481 25.4593 139.341 24.8667 139.061 24.512C138.79 24.148 138.408 23.966 137.913 23.966C137.437 23.966 137.05 24.148 136.751 24.512C136.462 24.8667 136.317 25.4593 136.317 26.29C136.317 27.0647 136.466 27.6387 136.765 28.012C137.064 28.376 137.47 28.558 137.983 28.558C138.328 28.558 138.627 28.4787 138.879 28.32C139.131 28.1613 139.318 27.914 139.439 27.578L141.189 28.082C140.993 28.7167 140.61 29.2253 140.041 29.608C139.481 29.9907 138.767 30.182 137.899 30.182ZM147.301 30V25.716C147.301 25.1653 147.165 24.75 146.895 24.47C146.624 24.19 146.288 24.05 145.887 24.05C145.485 24.05 145.149 24.19 144.879 24.47C144.608 24.75 144.473 25.1653 144.473 25.716H144.067C144.067 25.016 144.174 24.4187 144.389 23.924C144.613 23.4293 144.916 23.0513 145.299 22.79C145.691 22.5287 146.143 22.398 146.657 22.398C147.142 22.398 147.571 22.5193 147.945 22.762C148.327 22.9953 148.626 23.3313 148.841 23.77C149.055 24.1993 149.163 24.722 149.163 25.338V30H147.301ZM142.611 30V22.58H144.473V30H142.611ZM153.307 30.182C152.738 30.182 152.234 30.028 151.795 29.72C151.366 29.4027 151.03 28.9547 150.787 28.376C150.554 27.7973 150.437 27.102 150.437 26.29C150.437 25.478 150.554 24.7827 150.787 24.204C151.03 23.6253 151.366 23.182 151.795 22.874C152.234 22.5567 152.738 22.398 153.307 22.398C154.063 22.398 154.67 22.6873 155.127 23.266C155.594 23.8353 155.827 24.652 155.827 25.716V26.864C155.827 27.9187 155.594 28.7353 155.127 29.314C154.67 29.8927 154.063 30.182 153.307 30.182ZM153.965 28.516C154.45 28.516 154.838 28.334 155.127 27.97C155.426 27.606 155.575 27.046 155.575 26.29C155.575 25.534 155.426 24.974 155.127 24.61C154.838 24.246 154.45 24.064 153.965 24.064C153.48 24.064 153.088 24.246 152.789 24.61C152.5 24.974 152.355 25.534 152.355 26.29C152.355 27.046 152.5 27.606 152.789 27.97C153.088 28.334 153.48 28.516 153.965 28.516ZM155.449 30V28.124L155.701 26.29L155.449 24.526V19.99H157.311V30H155.449ZM170.336 30V25.604C170.336 25.0907 170.214 24.7033 169.972 24.442C169.738 24.1807 169.444 24.05 169.09 24.05C168.735 24.05 168.436 24.1807 168.194 24.442C167.96 24.7033 167.844 25.0907 167.844 25.604H167.298C167.298 24.932 167.4 24.358 167.606 23.882C167.82 23.406 168.119 23.042 168.502 22.79C168.884 22.5287 169.328 22.398 169.832 22.398C170.522 22.398 171.087 22.65 171.526 23.154C171.974 23.6487 172.198 24.3393 172.198 25.226V30H170.336ZM161.642 30V22.58H163.504V30H161.642ZM165.996 30V25.604C165.996 25.0907 165.874 24.7033 165.632 24.442C165.398 24.1807 165.104 24.05 164.75 24.05C164.395 24.05 164.096 24.1807 163.854 24.442C163.62 24.7033 163.504 25.0907 163.504 25.604H163.098C163.098 24.932 163.196 24.358 163.392 23.882C163.597 23.406 163.882 23.042 164.246 22.79C164.619 22.5287 165.044 22.398 165.52 22.398C166.201 22.398 166.756 22.65 167.186 23.154C167.624 23.6487 167.844 24.3393 167.844 25.226V30H165.996ZM176.932 30.182C176.251 30.182 175.644 30.0187 175.112 29.692C174.58 29.3653 174.165 28.9127 173.866 28.334C173.577 27.746 173.432 27.0647 173.432 26.29C173.432 25.4967 173.581 24.8107 173.88 24.232C174.179 23.644 174.594 23.1913 175.126 22.874C175.658 22.5567 176.265 22.398 176.946 22.398C177.627 22.398 178.229 22.5567 178.752 22.874C179.275 23.1913 179.681 23.6393 179.97 24.218C180.269 24.7967 180.418 25.4873 180.418 26.29C180.418 26.3833 180.413 26.472 180.404 26.556C180.404 26.64 180.404 26.7333 180.404 26.836H174.594V25.534H179.032L178.514 26.29C178.514 25.4593 178.374 24.8667 178.094 24.512C177.823 24.148 177.441 23.966 176.946 23.966C176.47 23.966 176.083 24.148 175.784 24.512C175.495 24.8667 175.35 25.4593 175.35 26.29C175.35 27.0647 175.499 27.6387 175.798 28.012C176.097 28.376 176.503 28.558 177.016 28.558C177.361 28.558 177.66 28.4787 177.912 28.32C178.164 28.1613 178.351 27.914 178.472 27.578L180.222 28.082C180.026 28.7167 179.643 29.2253 179.074 29.608C178.514 29.9907 177.8 30.182 176.932 30.182ZM184.36 30.182C183.464 30.182 182.745 30.0093 182.204 29.664C181.672 29.3093 181.326 28.7773 181.168 28.068L182.89 27.522C183.011 27.942 183.202 28.2453 183.464 28.432C183.734 28.6187 184.075 28.712 184.486 28.712C184.868 28.712 185.153 28.656 185.34 28.544C185.526 28.4227 185.62 28.25 185.62 28.026C185.62 27.7927 185.517 27.6107 185.312 27.48C185.116 27.3493 184.859 27.242 184.542 27.158C184.224 27.0647 183.884 26.9713 183.52 26.878C183.165 26.7753 182.829 26.6447 182.512 26.486C182.194 26.318 181.933 26.094 181.728 25.814C181.522 25.5247 181.42 25.1467 181.42 24.68C181.42 24.0173 181.676 23.4713 182.19 23.042C182.703 22.6127 183.426 22.398 184.36 22.398C185.172 22.398 185.825 22.566 186.32 22.902C186.824 23.238 187.178 23.728 187.384 24.372L185.704 24.904C185.573 24.5307 185.391 24.2647 185.158 24.106C184.934 23.938 184.63 23.854 184.248 23.854C183.893 23.854 183.632 23.9147 183.464 24.036C183.296 24.1573 183.212 24.302 183.212 24.47C183.212 24.666 183.314 24.8247 183.52 24.946C183.725 25.058 183.991 25.156 184.318 25.24C184.644 25.3147 184.99 25.4033 185.354 25.506C185.718 25.6087 186.063 25.7487 186.39 25.926C186.716 26.1033 186.982 26.346 187.188 26.654C187.393 26.9527 187.496 27.3493 187.496 27.844C187.496 28.5347 187.22 29.0993 186.67 29.538C186.128 29.9673 185.358 30.182 184.36 30.182ZM191.414 30.182C190.518 30.182 189.8 30.0093 189.258 29.664C188.726 29.3093 188.381 28.7773 188.222 28.068L189.944 27.522C190.066 27.942 190.257 28.2453 190.518 28.432C190.789 28.6187 191.13 28.712 191.54 28.712C191.923 28.712 192.208 28.656 192.394 28.544C192.581 28.4227 192.674 28.25 192.674 28.026C192.674 27.7927 192.572 27.6107 192.366 27.48C192.17 27.3493 191.914 27.242 191.596 27.158C191.279 27.0647 190.938 26.9713 190.574 26.878C190.22 26.7753 189.884 26.6447 189.566 26.486C189.249 26.318 188.988 26.094 188.782 25.814C188.577 25.5247 188.474 25.1467 188.474 24.68C188.474 24.0173 188.731 23.4713 189.244 23.042C189.758 22.6127 190.481 22.398 191.414 22.398C192.226 22.398 192.88 22.566 193.374 22.902C193.878 23.238 194.233 23.728 194.438 24.372L192.758 24.904C192.628 24.5307 192.446 24.2647 192.212 24.106C191.988 23.938 191.685 23.854 191.302 23.854C190.948 23.854 190.686 23.9147 190.518 24.036C190.35 24.1573 190.266 24.302 190.266 24.47C190.266 24.666 190.369 24.8247 190.574 24.946C190.78 25.058 191.046 25.156 191.372 25.24C191.699 25.3147 192.044 25.4033 192.408 25.506C192.772 25.6087 193.118 25.7487 193.444 25.926C193.771 26.1033 194.037 26.346 194.242 26.654C194.448 26.9527 194.55 27.3493 194.55 27.844C194.55 28.5347 194.275 29.0993 193.724 29.538C193.183 29.9673 192.413 30.182 191.414 30.182ZM200.121 30C200.065 29.7573 200.018 29.51 199.981 29.258C199.953 29.006 199.939 28.7587 199.939 28.516V25.38C199.939 24.8573 199.813 24.4887 199.561 24.274C199.309 24.05 199.006 23.938 198.651 23.938C198.315 23.938 198.026 24.0313 197.783 24.218C197.55 24.3953 197.386 24.6847 197.293 25.086L195.515 24.652C195.72 23.9147 196.108 23.3547 196.677 22.972C197.246 22.5893 197.942 22.398 198.763 22.398C199.706 22.398 200.448 22.65 200.989 23.154C201.53 23.6487 201.801 24.3347 201.801 25.212V28.348C201.801 28.8987 201.871 29.4493 202.011 30H200.121ZM197.587 30.182C196.887 30.182 196.346 29.9907 195.963 29.608C195.59 29.2253 195.403 28.7307 195.403 28.124C195.403 27.5733 195.585 27.088 195.949 26.668C196.322 26.248 196.901 25.9773 197.685 25.856L200.429 25.394V26.626L198.343 27.06C197.942 27.144 197.662 27.27 197.503 27.438C197.344 27.5967 197.265 27.774 197.265 27.97C197.265 28.166 197.33 28.334 197.461 28.474C197.601 28.6047 197.816 28.67 198.105 28.67C198.404 28.67 198.693 28.6047 198.973 28.474C199.253 28.334 199.482 28.1333 199.659 27.872C199.846 27.6013 199.939 27.2793 199.939 26.906H200.415C200.415 27.578 200.289 28.1613 200.037 28.656C199.785 29.1413 199.444 29.5193 199.015 29.79C198.595 30.0513 198.119 30.182 197.587 30.182ZM206.168 32.632C205.486 32.632 204.903 32.534 204.418 32.338C203.932 32.142 203.526 31.8807 203.2 31.554L204.166 30.224C204.427 30.4573 204.712 30.6347 205.02 30.756C205.337 30.8867 205.687 30.952 206.07 30.952C206.452 30.952 206.793 30.882 207.092 30.742C207.4 30.602 207.642 30.3873 207.82 30.098C207.997 29.818 208.086 29.454 208.086 29.006V27.662L208.338 25.898L208.086 24.316V22.58H209.948V28.964C209.948 29.7853 209.784 30.4667 209.458 31.008C209.131 31.5493 208.683 31.9553 208.114 32.226C207.544 32.4967 206.896 32.632 206.168 32.632ZM205.944 29.398C205.374 29.398 204.87 29.258 204.432 28.978C204.002 28.698 203.666 28.2967 203.424 27.774C203.19 27.242 203.074 26.6167 203.074 25.898C203.074 25.1793 203.19 24.5587 203.424 24.036C203.666 23.5133 204.002 23.112 204.432 22.832C204.87 22.5427 205.374 22.398 205.944 22.398C206.7 22.398 207.306 22.6547 207.764 23.168C208.221 23.6813 208.45 24.4 208.45 25.324V26.472C208.45 27.3867 208.221 28.1053 207.764 28.628C207.306 29.1413 206.7 29.398 205.944 29.398ZM206.602 27.732C207.087 27.732 207.474 27.578 207.764 27.27C208.062 26.962 208.212 26.5047 208.212 25.898C208.212 25.2913 208.062 24.834 207.764 24.526C207.474 24.218 207.087 24.064 206.602 24.064C206.116 24.064 205.724 24.218 205.426 24.526C205.136 24.834 204.992 25.2913 204.992 25.898C204.992 26.5047 205.136 26.962 205.426 27.27C205.724 27.578 206.116 27.732 206.602 27.732ZM214.68 30.182C213.999 30.182 213.392 30.0187 212.86 29.692C212.328 29.3653 211.913 28.9127 211.614 28.334C211.325 27.746 211.18 27.0647 211.18 26.29C211.18 25.4967 211.329 24.8107 211.628 24.232C211.927 23.644 212.342 23.1913 212.874 22.874C213.406 22.5567 214.013 22.398 214.694 22.398C215.375 22.398 215.977 22.5567 216.5 22.874C217.023 23.1913 217.429 23.6393 217.718 24.218C218.017 24.7967 218.166 25.4873 218.166 26.29C218.166 26.3833 218.161 26.472 218.152 26.556C218.152 26.64 218.152 26.7333 218.152 26.836H212.342V25.534H216.78L216.262 26.29C216.262 25.4593 216.122 24.8667 215.842 24.512C215.571 24.148 215.189 23.966 214.694 23.966C214.218 23.966 213.831 24.148 213.532 24.512C213.243 24.8667 213.098 25.4593 213.098 26.29C213.098 27.0647 213.247 27.6387 213.546 28.012C213.845 28.376 214.251 28.558 214.764 28.558C215.109 28.558 215.408 28.4787 215.66 28.32C215.912 28.1613 216.099 27.914 216.22 27.578L217.97 28.082C217.774 28.7167 217.391 29.2253 216.822 29.608C216.262 29.9907 215.548 30.182 214.68 30.182Z" fill="white"/>
</svg>
