<svg width="97" height="36" viewBox="0 0 97 36" fill="none" xmlns="http://www.w3.org/2000/svg">
<rect width="97" height="36" rx="18" fill="#E6ECFF"/>
<path d="M26.1897 23.154C25.387 23.154 24.6964 23 24.1177 22.692C23.5484 22.3747 23.1097 21.9267 22.8017 21.348C22.4937 20.7693 22.3397 20.088 22.3397 19.304V13.34H24.0477V19.164C24.0477 19.948 24.2297 20.5453 24.5937 20.956C24.9577 21.3667 25.4944 21.572 26.2037 21.572C26.9224 21.572 27.4637 21.3667 27.8277 20.956C28.201 20.5453 28.3877 19.948 28.3877 19.164V13.34H30.0537V19.304C30.0537 20.088 29.8997 20.7693 29.5917 21.348C29.2837 21.9267 28.8404 22.3747 28.2617 22.692C27.683 23 26.9924 23.154 26.1897 23.154ZM35.621 23.154C34.8557 23.154 34.235 22.8693 33.759 22.3C33.2923 21.7307 33.059 20.9233 33.059 19.878V18.702C33.059 17.6567 33.2923 16.8493 33.759 16.28C34.235 15.7107 34.8557 15.426 35.621 15.426C36.1997 15.426 36.7083 15.58 37.147 15.888C37.5857 16.196 37.9263 16.6393 38.169 17.218C38.4117 17.7873 38.533 18.478 38.533 19.29C38.533 20.0927 38.4117 20.7833 38.169 21.362C37.9263 21.9407 37.5857 22.384 37.147 22.692C36.7083 23 36.1997 23.154 35.621 23.154ZM31.813 25.45V15.58H33.437V17.372L33.213 19.29L33.437 21.18V25.45H31.813ZM35.103 21.712C35.6257 21.712 36.0457 21.516 36.363 21.124C36.6897 20.732 36.853 20.1207 36.853 19.29C36.853 18.4593 36.6897 17.848 36.363 17.456C36.0457 17.064 35.6257 16.868 35.103 16.868C34.5803 16.868 34.1557 17.064 33.829 17.456C33.5117 17.848 33.353 18.4593 33.353 19.29C33.353 20.1207 33.5117 20.732 33.829 21.124C34.1557 21.516 34.5803 21.712 35.103 21.712ZM42.6931 25.618C41.9651 25.618 41.3537 25.4873 40.8591 25.226C40.3644 24.974 39.9817 24.6427 39.7111 24.232L40.8311 23.294C41.0551 23.574 41.3117 23.784 41.6011 23.924C41.8997 24.064 42.2591 24.134 42.6791 24.134C43.0244 24.134 43.3464 24.0687 43.6451 23.938C43.9437 23.8073 44.1817 23.5927 44.3591 23.294C44.5457 22.9953 44.6391 22.608 44.6391 22.132V20.802L44.8631 18.926L44.6391 17.134V15.58H46.2631V22.146C46.2631 22.9393 46.1044 23.5927 45.7871 24.106C45.4697 24.6193 45.0404 24.9973 44.4991 25.24C43.9671 25.492 43.3651 25.618 42.6931 25.618ZM42.4551 22.426C41.8857 22.426 41.3817 22.2813 40.9431 21.992C40.5044 21.7027 40.1591 21.2967 39.9071 20.774C39.6644 20.2513 39.5431 19.6353 39.5431 18.926C39.5431 18.2073 39.6644 17.5867 39.9071 17.064C40.1591 16.5413 40.5044 16.14 40.9431 15.86C41.3817 15.5707 41.8857 15.426 42.4551 15.426C43.2297 15.426 43.8411 15.6827 44.2891 16.196C44.7464 16.7093 44.9751 17.4187 44.9751 18.324V19.514C44.9751 20.4193 44.7464 21.1333 44.2891 21.656C43.8411 22.1693 43.2297 22.426 42.4551 22.426ZM42.9731 20.97C43.4957 20.97 43.9157 20.802 44.2331 20.466C44.5597 20.1207 44.7231 19.6073 44.7231 18.926C44.7231 18.2353 44.5597 17.722 44.2331 17.386C43.9157 17.0407 43.4957 16.868 42.9731 16.868C42.4504 16.868 42.0257 17.0407 41.6991 17.386C41.3817 17.722 41.2231 18.2353 41.2231 18.926C41.2231 19.6073 41.3817 20.1207 41.6991 20.466C42.0257 20.802 42.4504 20.97 42.9731 20.97ZM47.9731 23V15.58H49.5971V23H47.9731ZM49.2191 19.29C49.2191 18.4967 49.3218 17.8153 49.5271 17.246C49.7418 16.6673 50.0451 16.2193 50.4371 15.902C50.8385 15.5847 51.3285 15.426 51.9071 15.426V17.26H51.2771C50.7638 17.26 50.3531 17.3953 50.0451 17.666C49.7465 17.9273 49.5971 18.3753 49.5971 19.01L49.2191 19.29ZM57.4147 23C57.3587 22.7573 57.3121 22.51 57.2747 22.258C57.2467 22.006 57.2327 21.7587 57.2327 21.516V18.38C57.2327 17.8107 57.0881 17.4047 56.7987 17.162C56.5187 16.9193 56.1827 16.798 55.7907 16.798C55.4267 16.798 55.1141 16.9007 54.8527 17.106C54.6007 17.3113 54.4187 17.624 54.3067 18.044L52.7667 17.61C52.9627 16.8913 53.3361 16.35 53.8867 15.986C54.4467 15.6127 55.1141 15.426 55.8887 15.426C56.8221 15.426 57.5501 15.6733 58.0727 16.168C58.5954 16.6627 58.8567 17.344 58.8567 18.212V21.348C58.8567 21.8987 58.9267 22.4493 59.0667 23H57.4147ZM54.7967 23.154C54.1247 23.154 53.5927 22.9673 53.2007 22.594C52.8181 22.2207 52.6267 21.74 52.6267 21.152C52.6267 20.592 52.8134 20.1067 53.1867 19.696C53.5694 19.2853 54.1527 19.01 54.9367 18.87L57.6247 18.422V19.584L55.4967 20.018C55.0487 20.102 54.7314 20.2327 54.5447 20.41C54.3581 20.5873 54.2647 20.7927 54.2647 21.026C54.2647 21.222 54.3441 21.404 54.5027 21.572C54.6614 21.7307 54.9087 21.81 55.2447 21.81C55.5621 21.81 55.8701 21.7353 56.1687 21.586C56.4767 21.4367 56.7287 21.222 56.9247 20.942C57.1301 20.6527 57.2327 20.3073 57.2327 19.906H57.6947C57.6947 20.5687 57.5641 21.1473 57.3027 21.642C57.0414 22.1273 56.6914 22.5007 56.2527 22.762C55.8141 23.0233 55.3287 23.154 54.7967 23.154ZM63.1269 23.154C62.5576 23.154 62.0536 23 61.6149 22.692C61.1763 22.384 60.8309 21.9407 60.5789 21.362C60.3363 20.7833 60.2149 20.0927 60.2149 19.29C60.2149 18.478 60.3363 17.7873 60.5789 17.218C60.8309 16.6393 61.1763 16.196 61.6149 15.888C62.0536 15.58 62.5576 15.426 63.1269 15.426C63.9016 15.426 64.5223 15.7107 64.9889 16.28C65.4556 16.8493 65.6889 17.6567 65.6889 18.702V19.878C65.6889 20.9233 65.4556 21.7307 64.9889 22.3C64.5223 22.8693 63.9016 23.154 63.1269 23.154ZM63.6449 21.712C64.1676 21.712 64.5876 21.516 64.9049 21.124C65.2316 20.732 65.3949 20.1207 65.3949 19.29C65.3949 18.4593 65.2316 17.848 64.9049 17.456C64.5876 17.064 64.1676 16.868 63.6449 16.868C63.1223 16.868 62.6976 17.064 62.3709 17.456C62.0536 17.848 61.8949 18.4593 61.8949 19.29C61.8949 20.1207 62.0536 20.732 62.3709 21.124C62.6976 21.516 63.1223 21.712 63.6449 21.712ZM65.3109 23V21.208L65.5349 19.29L65.3109 17.4V12.99H66.9349V23H65.3109ZM71.739 23.154C71.0483 23.154 70.4417 22.9953 69.919 22.678C69.4057 22.3607 69.0043 21.9127 68.715 21.334C68.4257 20.746 68.281 20.0647 68.281 19.29C68.281 18.4873 68.4257 17.7967 68.715 17.218C69.0137 16.6393 69.4197 16.196 69.933 15.888C70.4557 15.58 71.053 15.426 71.725 15.426C72.3877 15.426 72.971 15.58 73.475 15.888C73.979 16.196 74.371 16.6393 74.651 17.218C74.9403 17.7967 75.085 18.4873 75.085 19.29C75.085 19.374 75.085 19.4533 75.085 19.528C75.085 19.6027 75.0803 19.696 75.071 19.808H69.429V18.604H73.867L73.405 19.29C73.405 18.4033 73.2557 17.7687 72.957 17.386C72.6583 17.0033 72.2477 16.812 71.725 16.812C71.193 16.812 70.7637 17.008 70.437 17.4C70.1197 17.7827 69.961 18.4127 69.961 19.29C69.961 20.1113 70.1197 20.718 70.437 21.11C70.7637 21.4927 71.2117 21.684 71.781 21.684C72.1543 21.684 72.4763 21.6 72.747 21.432C73.0177 21.264 73.2277 20.9887 73.377 20.606L74.917 21.124C74.693 21.7587 74.301 22.258 73.741 22.622C73.1903 22.9767 72.523 23.154 71.739 23.154Z" fill="#0145FE"/>
</svg>
