<svg width="344" height="50" viewBox="0 0 344 50" fill="none" xmlns="http://www.w3.org/2000/svg">
<rect width="344" height="50" rx="25" fill="#F1F5F9"/>
<path d="M149.438 30.182C148.607 30.182 147.893 30.0233 147.296 29.706C146.708 29.3887 146.255 28.9407 145.938 28.362C145.63 27.774 145.476 27.0833 145.476 26.29V20.34H147.408V26.178C147.408 26.878 147.58 27.4193 147.926 27.802C148.28 28.1753 148.789 28.362 149.452 28.362C150.124 28.362 150.637 28.1753 150.992 27.802C151.346 27.4193 151.524 26.878 151.524 26.178V20.34H153.414V26.29C153.414 27.0833 153.255 27.774 152.938 28.362C152.62 28.9407 152.168 29.3887 151.58 29.706C150.992 30.0233 150.278 30.182 149.438 30.182ZM159.049 30.182C158.293 30.182 157.682 29.8927 157.215 29.314C156.758 28.7353 156.529 27.9187 156.529 26.864V25.716C156.529 24.652 156.758 23.8353 157.215 23.266C157.682 22.6873 158.293 22.398 159.049 22.398C159.628 22.398 160.132 22.5567 160.561 22.874C160.99 23.182 161.326 23.6253 161.569 24.204C161.812 24.7827 161.933 25.478 161.933 26.29C161.933 27.102 161.812 27.7973 161.569 28.376C161.326 28.9547 160.99 29.4027 160.561 29.72C160.132 30.028 159.628 30.182 159.049 30.182ZM155.045 32.45V22.58H156.907V24.456L156.655 26.29L156.907 28.054V32.45H155.045ZM158.391 28.516C158.876 28.516 159.268 28.334 159.567 27.97C159.866 27.606 160.015 27.046 160.015 26.29C160.015 25.534 159.866 24.974 159.567 24.61C159.268 24.246 158.876 24.064 158.391 24.064C157.915 24.064 157.528 24.246 157.229 24.61C156.93 24.974 156.781 25.534 156.781 26.29C156.781 27.046 156.93 27.606 157.229 27.97C157.528 28.334 157.915 28.516 158.391 28.516ZM165.979 32.632C165.298 32.632 164.715 32.534 164.229 32.338C163.744 32.142 163.338 31.8807 163.011 31.554L163.977 30.224C164.239 30.4573 164.523 30.6347 164.831 30.756C165.149 30.8867 165.499 30.952 165.881 30.952C166.264 30.952 166.605 30.882 166.903 30.742C167.211 30.602 167.454 30.3873 167.631 30.098C167.809 29.818 167.897 29.454 167.897 29.006V27.662L168.149 25.898L167.897 24.316V22.58H169.759V28.964C169.759 29.7853 169.596 30.4667 169.269 31.008C168.943 31.5493 168.495 31.9553 167.925 32.226C167.356 32.4967 166.707 32.632 165.979 32.632ZM165.755 29.398C165.186 29.398 164.682 29.258 164.243 28.978C163.814 28.698 163.478 28.2967 163.235 27.774C163.002 27.242 162.885 26.6167 162.885 25.898C162.885 25.1793 163.002 24.5587 163.235 24.036C163.478 23.5133 163.814 23.112 164.243 22.832C164.682 22.5427 165.186 22.398 165.755 22.398C166.511 22.398 167.118 22.6547 167.575 23.168C168.033 23.6813 168.261 24.4 168.261 25.324V26.472C168.261 27.3867 168.033 28.1053 167.575 28.628C167.118 29.1413 166.511 29.398 165.755 29.398ZM166.413 27.732C166.899 27.732 167.286 27.578 167.575 27.27C167.874 26.962 168.023 26.5047 168.023 25.898C168.023 25.2913 167.874 24.834 167.575 24.526C167.286 24.218 166.899 24.064 166.413 24.064C165.928 24.064 165.536 24.218 165.237 24.526C164.948 24.834 164.803 25.2913 164.803 25.898C164.803 26.5047 164.948 26.962 165.237 27.27C165.536 27.578 165.928 27.732 166.413 27.732ZM171.356 30V22.58H173.218V30H171.356ZM172.882 26.472C172.882 25.6507 172.975 24.9367 173.162 24.33C173.348 23.714 173.638 23.238 174.03 22.902C174.422 22.566 174.921 22.398 175.528 22.398V24.512H174.716C174.249 24.512 173.88 24.6333 173.61 24.876C173.348 25.1093 173.218 25.52 173.218 26.108L172.882 26.472ZM180.892 30C180.836 29.7573 180.789 29.51 180.752 29.258C180.724 29.006 180.71 28.7587 180.71 28.516V25.38C180.71 24.8573 180.584 24.4887 180.332 24.274C180.08 24.05 179.776 23.938 179.422 23.938C179.086 23.938 178.796 24.0313 178.554 24.218C178.32 24.3953 178.157 24.6847 178.064 25.086L176.286 24.652C176.491 23.9147 176.878 23.3547 177.448 22.972C178.017 22.5893 178.712 22.398 179.534 22.398C180.476 22.398 181.218 22.65 181.76 23.154C182.301 23.6487 182.572 24.3347 182.572 25.212V28.348C182.572 28.8987 182.642 29.4493 182.782 30H180.892ZM178.358 30.182C177.658 30.182 177.116 29.9907 176.734 29.608C176.36 29.2253 176.174 28.7307 176.174 28.124C176.174 27.5733 176.356 27.088 176.72 26.668C177.093 26.248 177.672 25.9773 178.456 25.856L181.2 25.394V26.626L179.114 27.06C178.712 27.144 178.432 27.27 178.274 27.438C178.115 27.5967 178.036 27.774 178.036 27.97C178.036 28.166 178.101 28.334 178.232 28.474C178.372 28.6047 178.586 28.67 178.876 28.67C179.174 28.67 179.464 28.6047 179.744 28.474C180.024 28.334 180.252 28.1333 180.43 27.872C180.616 27.6013 180.71 27.2793 180.71 26.906H181.186C181.186 27.578 181.06 28.1613 180.808 28.656C180.556 29.1413 180.215 29.5193 179.786 29.79C179.366 30.0513 178.89 30.182 178.358 30.182ZM186.714 30.182C186.145 30.182 185.641 30.028 185.202 29.72C184.773 29.4027 184.437 28.9547 184.194 28.376C183.961 27.7973 183.844 27.102 183.844 26.29C183.844 25.478 183.961 24.7827 184.194 24.204C184.437 23.6253 184.773 23.182 185.202 22.874C185.641 22.5567 186.145 22.398 186.714 22.398C187.47 22.398 188.077 22.6873 188.534 23.266C189.001 23.8353 189.234 24.652 189.234 25.716V26.864C189.234 27.9187 189.001 28.7353 188.534 29.314C188.077 29.8927 187.47 30.182 186.714 30.182ZM187.372 28.516C187.857 28.516 188.245 28.334 188.534 27.97C188.833 27.606 188.982 27.046 188.982 26.29C188.982 25.534 188.833 24.974 188.534 24.61C188.245 24.246 187.857 24.064 187.372 24.064C186.887 24.064 186.495 24.246 186.196 24.61C185.907 24.974 185.762 25.534 185.762 26.29C185.762 27.046 185.907 27.606 186.196 27.97C186.495 28.334 186.887 28.516 187.372 28.516ZM188.856 30V28.124L189.108 26.29L188.856 24.526V19.99H190.718V30H188.856ZM195.451 30.182C194.769 30.182 194.163 30.0187 193.631 29.692C193.099 29.3653 192.683 28.9127 192.385 28.334C192.095 27.746 191.951 27.0647 191.951 26.29C191.951 25.4967 192.1 24.8107 192.399 24.232C192.697 23.644 193.113 23.1913 193.645 22.874C194.177 22.5567 194.783 22.398 195.465 22.398C196.146 22.398 196.748 22.5567 197.271 22.874C197.793 23.1913 198.199 23.6393 198.489 24.218C198.787 24.7967 198.937 25.4873 198.937 26.29C198.937 26.3833 198.932 26.472 198.923 26.556C198.923 26.64 198.923 26.7333 198.923 26.836H193.113V25.534H197.551L197.033 26.29C197.033 25.4593 196.893 24.8667 196.613 24.512C196.342 24.148 195.959 23.966 195.465 23.966C194.989 23.966 194.601 24.148 194.303 24.512C194.013 24.8667 193.869 25.4593 193.869 26.29C193.869 27.0647 194.018 27.6387 194.317 28.012C194.615 28.376 195.021 28.558 195.535 28.558C195.88 28.558 196.179 28.4787 196.431 28.32C196.683 28.1613 196.869 27.914 196.991 27.578L198.741 28.082C198.545 28.7167 198.162 29.2253 197.593 29.608C197.033 29.9907 196.319 30.182 195.451 30.182Z" fill="#01040F"/>
</svg>
