<svg width="16" height="16" viewBox="0 0 16 16" fill="none" xmlns="http://www.w3.org/2000/svg">
<path d="M1.49354 13.353L1.96497 13.5196L1.49354 13.353ZM2.51437 14.3738L2.34778 13.9024H2.34778L2.51437 14.3738ZM4.77284 13.8347L5.01528 13.3974L4.77284 13.8347ZM2.06812 11.0445L1.62346 11.2732L2.06812 11.0445ZM2.11231 11.6019L1.64088 11.4353L2.11231 11.6019ZM1.83398 8.00016C1.83398 4.59441 4.59489 1.8335 8.00065 1.8335V0.833496C4.04261 0.833496 0.833984 4.04212 0.833984 8.00016H1.83398ZM2.51278 10.8159C2.07903 9.97236 1.83398 9.01561 1.83398 8.00016H0.833984C0.833984 9.17835 1.11868 10.2915 1.62346 11.2732L2.51278 10.8159ZM1.96497 13.5196L2.58374 11.7684L1.64088 11.4353L1.02211 13.1864L1.96497 13.5196ZM2.34778 13.9024C2.11 13.9864 1.88095 13.7573 1.96497 13.5196L1.02211 13.1864C0.658006 14.2168 1.65056 15.2093 2.68095 14.8452L2.34778 13.9024ZM4.02939 13.3082L2.34778 13.9024L2.68095 14.8452L4.36255 14.251L4.02939 13.3082ZM8.00065 14.1668C6.91664 14.1668 5.89935 13.8876 5.01528 13.3974L4.5304 14.272C5.55905 14.8423 6.7427 15.1668 8.00065 15.1668V14.1668ZM14.1673 8.00016C14.1673 11.4059 11.4064 14.1668 8.00065 14.1668V15.1668C11.9587 15.1668 15.1673 11.9582 15.1673 8.00016H14.1673ZM8.00065 1.8335C11.4064 1.8335 14.1673 4.59441 14.1673 8.00016H15.1673C15.1673 4.04212 11.9587 0.833496 8.00065 0.833496V1.8335ZM4.36255 14.251C4.40622 14.2356 4.46746 14.2371 4.5304 14.272L5.01528 13.3974C4.72487 13.2364 4.36665 13.189 4.02939 13.3082L4.36255 14.251ZM1.62346 11.2732C1.65504 11.3346 1.65573 11.3932 1.64088 11.4353L2.58374 11.7684C2.69833 11.4442 2.65886 11.1 2.51278 10.8159L1.62346 11.2732Z" fill="#2B3F6C"/>
<circle cx="4.70052" cy="8.03328" r="0.833333" fill="#2B3F6C"/>
<circle cx="8.03353" cy="8.03328" r="0.833333" fill="#2B3F6C"/>
<circle cx="11.3675" cy="8.03328" r="0.833333" fill="#2B3F6C"/>
</svg>
