<svg width="55" height="24" viewBox="0 0 55 24" fill="none" xmlns="http://www.w3.org/2000/svg">
<path d="M20 6L4 6" stroke="#2B3F6C" stroke-width="1.5" stroke-linecap="round"/>
<path d="M20 12L4 12" stroke="#2B3F6C" stroke-width="1.5" stroke-linecap="round"/>
<path d="M20 18H4" stroke="#2B3F6C" stroke-width="1.5" stroke-linecap="round"/>
<path d="M31.4883 16L28.7403 7.72H29.9643L32.7243 16H31.4883ZM27.9723 16V7.72H29.1723V16H27.9723ZM31.9683 16L34.4523 7.72H35.6403L33.0843 16H31.9683ZM35.2563 16V7.72H36.5163V16H35.2563ZM40.7799 16.12C40.2119 16.12 39.7079 15.984 39.2679 15.712C38.8359 15.44 38.4959 15.056 38.2479 14.56C37.9999 14.064 37.8759 13.484 37.8759 12.82C37.8759 12.148 37.9999 11.568 38.2479 11.08C38.4959 10.584 38.8359 10.2 39.2679 9.928C39.7079 9.656 40.2119 9.52 40.7799 9.52C41.3559 9.52 41.8599 9.656 42.2919 9.928C42.7319 10.2 43.0759 10.584 43.3239 11.08C43.5719 11.568 43.6959 12.148 43.6959 12.82C43.6959 13.484 43.5719 14.064 43.3239 14.56C43.0759 15.056 42.7319 15.44 42.2919 15.712C41.8599 15.984 41.3559 16.12 40.7799 16.12ZM40.7799 15.04C41.2839 15.04 41.6879 14.864 41.9919 14.512C42.2959 14.152 42.4479 13.588 42.4479 12.82C42.4479 12.052 42.2959 11.492 41.9919 11.14C41.6879 10.78 41.2839 10.6 40.7799 10.6C40.2839 10.6 39.8839 10.78 39.5799 11.14C39.2759 11.492 39.1239 12.052 39.1239 12.82C39.1239 13.588 39.2759 14.152 39.5799 14.512C39.8839 14.864 40.2839 15.04 40.7799 15.04ZM44.9265 16V9.64H46.1265V16H44.9265ZM45.7545 12.652C45.7545 12.012 45.8505 11.46 46.0425 10.996C46.2425 10.524 46.5145 10.16 46.8585 9.904C47.2105 9.648 47.6185 9.52 48.0825 9.52V10.852H47.6985C47.2265 10.852 46.8465 10.98 46.5585 11.236C46.2705 11.492 46.1265 11.912 46.1265 12.496L45.7545 12.652ZM51.7024 16.12C51.1184 16.12 50.6064 15.984 50.1664 15.712C49.7264 15.44 49.3824 15.056 49.1344 14.56C48.8944 14.064 48.7744 13.484 48.7744 12.82C48.7744 12.124 48.8984 11.532 49.1464 11.044C49.3944 10.548 49.7344 10.172 50.1664 9.916C50.6064 9.652 51.1104 9.52 51.6784 9.52C52.2304 9.52 52.7144 9.652 53.1304 9.916C53.5544 10.172 53.8824 10.548 54.1144 11.044C54.3544 11.532 54.4744 12.124 54.4744 12.82C54.4744 12.884 54.4744 12.944 54.4744 13C54.4744 13.056 54.4704 13.132 54.4624 13.228H49.7584V12.28H53.5744L53.2264 12.82C53.2264 12.02 53.0864 11.444 52.8064 11.092C52.5264 10.732 52.1504 10.552 51.6784 10.552C51.1824 10.552 50.7824 10.732 50.4784 11.092C50.1744 11.444 50.0224 12.02 50.0224 12.82C50.0224 13.564 50.1704 14.112 50.4664 14.464C50.7704 14.816 51.1824 14.992 51.7024 14.992C52.0544 14.992 52.3544 14.916 52.6024 14.764C52.8584 14.604 53.0624 14.344 53.2144 13.984L54.3304 14.428C54.1224 14.964 53.7864 15.38 53.3224 15.676C52.8584 15.972 52.3184 16.12 51.7024 16.12Z" fill="#94A3B8"/>
</svg>
