<svg width="107" height="32" viewBox="0 0 107 32" fill="none" xmlns="http://www.w3.org/2000/svg">
<rect width="107" height="32" rx="16" fill="#E6ECFF"/>
<path d="M33.1922 20L30.7322 11.72H32.1722L34.5842 20H33.1922ZM29.7602 20V11.72H31.1402V20H29.7602ZM33.8402 20L36.0602 11.72H37.4522L35.1362 20H33.8402ZM37.0682 20V11.72H38.5322V20H37.0682ZM42.7688 20.132C42.1768 20.132 41.6568 19.996 41.2088 19.724C40.7688 19.452 40.4248 19.068 40.1768 18.572C39.9288 18.068 39.8048 17.484 39.8048 16.82C39.8048 16.132 39.9288 15.54 40.1768 15.044C40.4328 14.548 40.7808 14.168 41.2208 13.904C41.6688 13.64 42.1808 13.508 42.7568 13.508C43.3248 13.508 43.8248 13.64 44.2568 13.904C44.6888 14.168 45.0248 14.548 45.2648 15.044C45.5128 15.54 45.6368 16.132 45.6368 16.82C45.6368 16.892 45.6368 16.96 45.6368 17.024C45.6368 17.088 45.6328 17.168 45.6248 17.264H40.7888V16.232H44.5928L44.1968 16.82C44.1968 16.06 44.0688 15.516 43.8128 15.188C43.5568 14.86 43.2048 14.696 42.7568 14.696C42.3008 14.696 41.9328 14.864 41.6528 15.2C41.3808 15.528 41.2448 16.068 41.2448 16.82C41.2448 17.524 41.3808 18.044 41.6528 18.38C41.9328 18.708 42.3168 18.872 42.8048 18.872C43.1248 18.872 43.4008 18.8 43.6328 18.656C43.8648 18.512 44.0448 18.276 44.1728 17.948L45.4928 18.392C45.3008 18.936 44.9648 19.364 44.4848 19.676C44.0128 19.98 43.4408 20.132 42.7688 20.132ZM49.0527 20.132C48.3087 20.132 47.7127 19.984 47.2647 19.688C46.8167 19.392 46.5127 18.952 46.3527 18.368L47.6607 17.96C47.7807 18.336 47.9607 18.608 48.2007 18.776C48.4487 18.944 48.7647 19.028 49.1487 19.028C49.4927 19.028 49.7567 18.968 49.9407 18.848C50.1327 18.72 50.2287 18.548 50.2287 18.332C50.2287 18.1 50.1407 17.924 49.9647 17.804C49.7887 17.676 49.5607 17.572 49.2807 17.492C49.0087 17.404 48.7167 17.316 48.4047 17.228C48.0927 17.14 47.7967 17.028 47.5167 16.892C47.2447 16.748 47.0207 16.556 46.8447 16.316C46.6767 16.076 46.5927 15.76 46.5927 15.368C46.5927 14.84 46.8007 14.4 47.2167 14.048C47.6407 13.688 48.2447 13.508 49.0287 13.508C49.7007 13.508 50.2447 13.652 50.6607 13.94C51.0767 14.228 51.3727 14.644 51.5487 15.188L50.2767 15.608C50.1567 15.256 49.9887 15.004 49.7727 14.852C49.5567 14.692 49.2767 14.612 48.9327 14.612C48.6047 14.612 48.3567 14.672 48.1887 14.792C48.0287 14.904 47.9487 15.048 47.9487 15.224C47.9487 15.424 48.0367 15.58 48.2127 15.692C48.3887 15.796 48.6167 15.888 48.8967 15.968C49.1767 16.04 49.4727 16.124 49.7847 16.22C50.0967 16.308 50.3927 16.428 50.6727 16.58C50.9527 16.732 51.1807 16.94 51.3567 17.204C51.5327 17.46 51.6207 17.796 51.6207 18.212C51.6207 18.764 51.3967 19.224 50.9487 19.592C50.5007 19.952 49.8687 20.132 49.0527 20.132ZM55.0293 20.132C54.2853 20.132 53.6893 19.984 53.2413 19.688C52.7933 19.392 52.4893 18.952 52.3293 18.368L53.6373 17.96C53.7573 18.336 53.9373 18.608 54.1773 18.776C54.4253 18.944 54.7413 19.028 55.1253 19.028C55.4693 19.028 55.7333 18.968 55.9173 18.848C56.1093 18.72 56.2053 18.548 56.2053 18.332C56.2053 18.1 56.1173 17.924 55.9413 17.804C55.7653 17.676 55.5373 17.572 55.2573 17.492C54.9853 17.404 54.6933 17.316 54.3813 17.228C54.0693 17.14 53.7733 17.028 53.4933 16.892C53.2213 16.748 52.9973 16.556 52.8213 16.316C52.6533 16.076 52.5693 15.76 52.5693 15.368C52.5693 14.84 52.7773 14.4 53.1933 14.048C53.6173 13.688 54.2213 13.508 55.0053 13.508C55.6773 13.508 56.2213 13.652 56.6373 13.94C57.0533 14.228 57.3493 14.644 57.5253 15.188L56.2533 15.608C56.1333 15.256 55.9653 15.004 55.7493 14.852C55.5333 14.692 55.2533 14.612 54.9093 14.612C54.5813 14.612 54.3333 14.672 54.1653 14.792C54.0053 14.904 53.9253 15.048 53.9253 15.224C53.9253 15.424 54.0133 15.58 54.1893 15.692C54.3653 15.796 54.5933 15.888 54.8733 15.968C55.1533 16.04 55.4493 16.124 55.7613 16.22C56.0733 16.308 56.3693 16.428 56.6493 16.58C56.9293 16.732 57.1573 16.94 57.3333 17.204C57.5093 17.46 57.5973 17.796 57.5973 18.212C57.5973 18.764 57.3733 19.224 56.9253 19.592C56.4773 19.952 55.8453 20.132 55.0293 20.132ZM62.5299 20C62.4819 19.792 62.4419 19.58 62.4099 19.364C62.3859 19.148 62.3739 18.936 62.3739 18.728V16.04C62.3739 15.552 62.2499 15.204 62.0019 14.996C61.7619 14.788 61.4739 14.684 61.1379 14.684C60.8259 14.684 60.5579 14.772 60.3339 14.948C60.1179 15.124 59.9619 15.392 59.8659 15.752L58.5459 15.38C58.7139 14.764 59.0339 14.3 59.5059 13.988C59.9859 13.668 60.5579 13.508 61.2219 13.508C62.0219 13.508 62.6459 13.72 63.0939 14.144C63.5419 14.568 63.7659 15.152 63.7659 15.896V18.584C63.7659 19.056 63.8259 19.528 63.9459 20H62.5299ZM60.2859 20.132C59.7099 20.132 59.2539 19.972 58.9179 19.652C58.5899 19.332 58.4259 18.92 58.4259 18.416C58.4259 17.936 58.5859 17.52 58.9059 17.168C59.2339 16.816 59.7339 16.58 60.4059 16.46L62.7099 16.076V17.072L60.8859 17.444C60.5019 17.516 60.2299 17.628 60.0699 17.78C59.9099 17.932 59.8299 18.108 59.8299 18.308C59.8299 18.476 59.8979 18.632 60.0339 18.776C60.1699 18.912 60.3819 18.98 60.6699 18.98C60.9419 18.98 61.2059 18.916 61.4619 18.788C61.7259 18.66 61.9419 18.476 62.1099 18.236C62.2859 17.988 62.3739 17.692 62.3739 17.348H62.7699C62.7699 17.916 62.6579 18.412 62.4339 18.836C62.2099 19.252 61.9099 19.572 61.5339 19.796C61.1579 20.02 60.7419 20.132 60.2859 20.132ZM67.63 22.244C67.006 22.244 66.482 22.132 66.058 21.908C65.634 21.692 65.306 21.408 65.074 21.056L66.034 20.252C66.226 20.492 66.446 20.672 66.694 20.792C66.95 20.912 67.258 20.972 67.618 20.972C67.914 20.972 68.19 20.916 68.446 20.804C68.702 20.692 68.906 20.508 69.058 20.252C69.218 19.996 69.298 19.664 69.298 19.256V18.116L69.49 16.508L69.298 14.972V13.64H70.69V19.268C70.69 19.948 70.554 20.508 70.282 20.948C70.01 21.388 69.642 21.712 69.178 21.92C68.722 22.136 68.206 22.244 67.63 22.244ZM67.426 19.508C66.938 19.508 66.506 19.384 66.13 19.136C65.754 18.888 65.458 18.54 65.242 18.092C65.034 17.644 64.93 17.116 64.93 16.508C64.93 15.892 65.034 15.36 65.242 14.912C65.458 14.464 65.754 14.12 66.13 13.88C66.506 13.632 66.938 13.508 67.426 13.508C68.09 13.508 68.614 13.728 68.998 14.168C69.39 14.608 69.586 15.216 69.586 15.992V17.012C69.586 17.788 69.39 18.4 68.998 18.848C68.614 19.288 68.09 19.508 67.426 19.508ZM67.87 18.26C68.318 18.26 68.678 18.116 68.95 17.828C69.23 17.532 69.37 17.092 69.37 16.508C69.37 15.916 69.23 15.476 68.95 15.188C68.678 14.892 68.318 14.744 67.87 14.744C67.422 14.744 67.058 14.892 66.778 15.188C66.506 15.476 66.37 15.916 66.37 16.508C66.37 17.092 66.506 17.532 66.778 17.828C67.058 18.116 67.422 18.26 67.87 18.26ZM74.8078 20.132C74.2158 20.132 73.6958 19.996 73.2478 19.724C72.8078 19.452 72.4638 19.068 72.2158 18.572C71.9678 18.068 71.8438 17.484 71.8438 16.82C71.8438 16.132 71.9678 15.54 72.2158 15.044C72.4718 14.548 72.8198 14.168 73.2598 13.904C73.7078 13.64 74.2198 13.508 74.7958 13.508C75.3638 13.508 75.8638 13.64 76.2958 13.904C76.7278 14.168 77.0638 14.548 77.3038 15.044C77.5518 15.54 77.6758 16.132 77.6758 16.82C77.6758 16.892 77.6758 16.96 77.6758 17.024C77.6758 17.088 77.6718 17.168 77.6638 17.264H72.8278V16.232H76.6318L76.2358 16.82C76.2358 16.06 76.1078 15.516 75.8518 15.188C75.5958 14.86 75.2438 14.696 74.7958 14.696C74.3398 14.696 73.9718 14.864 73.6918 15.2C73.4198 15.528 73.2838 16.068 73.2838 16.82C73.2838 17.524 73.4198 18.044 73.6918 18.38C73.9718 18.708 74.3558 18.872 74.8438 18.872C75.1638 18.872 75.4398 18.8 75.6718 18.656C75.9038 18.512 76.0838 18.276 76.2118 17.948L77.5318 18.392C77.3398 18.936 77.0038 19.364 76.5238 19.676C76.0518 19.98 75.4798 20.132 74.8078 20.132Z" fill="#0145FE"/>
</svg>
