<svg width="30" height="30" viewBox="0 0 30 30" fill="none" xmlns="http://www.w3.org/2000/svg">
<path fill-rule="evenodd" clip-rule="evenodd" d="M0.667969 8.33332C0.667969 4.09914 4.10045 0.666656 8.33463 0.666656H21.668C25.9021 0.666656 29.3346 4.09914 29.3346 8.33332V21.6667C29.3346 25.9008 25.9021 29.3333 21.668 29.3333H8.33463C4.10045 29.3333 0.667969 25.9008 0.667969 21.6667V8.33332ZM8.33463 2.66666C5.20502 2.66666 2.66797 5.20371 2.66797 8.33332V21.6667C2.66797 24.7963 5.20502 27.3333 8.33463 27.3333H21.668C24.7976 27.3333 27.3346 24.7963 27.3346 21.6667V8.33332C27.3346 5.20371 24.7976 2.66666 21.668 2.66666H8.33463Z" fill="#64748B"/>
<path fill-rule="evenodd" clip-rule="evenodd" d="M1.66797 8.33332C1.66797 4.65142 4.65274 1.66666 8.33464 1.66666H21.668C25.3499 1.66666 28.3346 4.65142 28.3346 8.33332V21.6667C28.3346 22.6364 28.1276 23.5578 27.7552 24.3891L28.2294 21.0699C28.2948 20.6121 28.1183 20.1531 27.7631 19.857L22.0184 15.0698C21.0648 14.2751 19.6626 14.3387 18.7849 15.2164L12.1327 21.8686C11.5078 22.4935 10.4948 22.4935 9.86993 21.8686L8.43892 20.4376C7.60934 19.608 6.30158 19.4998 5.3469 20.1817L2.89298 21.9345C2.54259 22.1848 2.33464 22.5889 2.33464 23.0195V24.3592C2.33464 24.4525 2.34442 24.5447 2.36335 24.6345C1.91828 23.7407 1.66797 22.7329 1.66797 21.6667V8.33332ZM24.6519 27.4128L27.22 25.3583C26.0252 27.1517 23.9846 28.3333 21.668 28.3333H8.33464C6.01564 28.3333 3.9732 27.1493 2.77887 25.3528C2.7971 25.3691 2.81583 25.3849 2.83504 25.4003L5.33886 27.4034C5.55304 27.5747 5.81486 27.6758 6.08861 27.6929L16.2376 28.3273C16.3022 28.3313 16.367 28.3306 16.4315 28.3253L23.9297 27.7004C24.1937 27.6784 24.4451 27.5783 24.6519 27.4128ZM9.66797 12.3333C8.19521 12.3333 7.0013 11.1394 7.0013 9.66666C7.0013 8.1939 8.19521 6.99999 9.66797 6.99999C11.1407 6.99999 12.3346 8.1939 12.3346 9.66666C12.3346 11.1394 11.1407 12.3333 9.66797 12.3333Z" fill="#64748B"/>
</svg>
