<svg width="12" height="12" viewBox="0 0 12 12" fill="none" xmlns="http://www.w3.org/2000/svg">
<path d="M9.76947 5.62495L9.83074 5.54591C7.50464 3.74293 4.48929 3.74302 2.1583 5.54585L2.1583 5.54585L2.15791 5.54615C1.95408 5.7054 1.91736 6.00256 2.07477 6.21033L2.07476 6.21034L2.07567 6.21151C2.23492 6.41535 2.53209 6.45206 2.73986 6.29466L2.73987 6.29466L2.74057 6.29411C4.71947 4.76698 7.2741 4.76689 9.25306 6.29386C9.3413 6.36306 9.44312 6.39495 9.54448 6.39495C9.68649 6.39495 9.82862 6.33341 9.91508 6.20921C10.077 6.00085 10.0391 5.70374 9.82986 5.54524L9.76947 5.62495ZM9.76947 5.62495C9.93447 5.74995 9.96448 5.98495 9.83448 6.14995H2.15448C2.02948 5.98495 2.05948 5.74995 2.21948 5.62495C4.51448 3.84995 7.47948 3.84995 9.76947 5.62495Z" fill="#16A34A" stroke="#16A34A" stroke-width="0.2"/>
<path d="M1.29065 4.55467L1.29065 4.55468L1.29146 4.55405C4.15029 2.34204 7.84483 2.34189 10.7088 4.55386C10.7971 4.62308 10.8989 4.65495 11.0003 4.65495C11.1379 4.65495 11.2838 4.59312 11.3748 4.4706C11.5377 4.26242 11.5004 3.96479 11.2914 3.8058C8.0754 1.32302 3.92014 1.32297 0.709086 3.80584L0.709086 3.80584L0.708691 3.80615C0.504849 3.9654 0.468152 4.26258 0.625552 4.47035L0.625543 4.47035L0.626459 4.47152C0.785708 4.67536 1.08288 4.71207 1.29065 4.55467Z" fill="#16A34A" stroke="#16A34A" stroke-width="0.2"/>
<path d="M3.68518 8.1196L3.68518 8.1196L3.68588 8.11906C5.09487 7.03185 6.90946 7.03191 8.31332 8.11877C8.40157 8.18799 8.50342 8.21989 8.60479 8.21989C8.7439 8.21989 8.88419 8.15695 8.97433 8.03553C9.13744 7.82711 9.09986 7.52903 8.89018 7.37018L8.82979 7.44989L8.89096 7.37078C7.13494 6.01293 4.85965 6.01293 3.10362 7.37078L3.10362 7.37078L3.10323 7.37109C2.89939 7.53034 2.86268 7.82752 3.02008 8.03529L3.02007 8.03529L3.02099 8.03647C3.18024 8.24031 3.47741 8.277 3.68518 8.1196Z" fill="#16A34A" stroke="#16A34A" stroke-width="0.2"/>
<path d="M4.98596 9.9497L4.98597 9.9497L4.98693 9.94895C5.60077 9.47205 6.39514 9.472 7.00902 9.9488C7.09729 10.0181 7.19917 10.05 7.30058 10.05C7.44562 10.05 7.58568 9.98132 7.67039 9.86525C7.83318 9.65684 7.79552 9.35904 7.58596 9.20028L7.52557 9.27999L7.58679 9.20092C6.62075 8.45301 5.37039 8.45301 4.40435 9.20092L4.40435 9.20092L4.404 9.20119C4.20016 9.36044 4.16346 9.6576 4.32086 9.86537L4.32086 9.86538L4.32177 9.86655C4.48102 10.0704 4.77819 10.1071 4.98596 9.9497Z" fill="#16A34A" stroke="#16A34A" stroke-width="0.2"/>
</svg>
