<svg width="84" height="24" viewBox="0 0 84 24" fill="none" xmlns="http://www.w3.org/2000/svg">
<rect x="0.5" y="0.5" width="83" height="23" rx="11.5" fill="#FEFCE8"/>
<rect x="0.5" y="0.5" width="83" height="23" rx="11.5" stroke="#EAB308"/>
<path d="M10 17.84H22V5.84H10V17.84Z" fill="#CA8A04"/>
<path d="M32.8419 16L30.0699 7.72H31.2939L34.1619 16H32.8419ZM26.6019 16L29.4699 7.72H30.5979L27.8859 16H26.6019ZM28.1739 13.708V12.556H32.5899V13.708H28.1739ZM35.9186 16L34.3466 9.64H35.5586L37.0466 16H35.9186ZM36.5906 16L38.0906 9.64H39.1106L37.6226 16H36.5906ZM40.0466 16L38.5586 9.64H39.6386L41.1746 16H40.0466ZM40.7186 16L42.1586 9.64H43.3226L41.7506 16H40.7186ZM48.0575 16C48.0095 15.792 47.9695 15.58 47.9375 15.364C47.9135 15.148 47.9015 14.936 47.9015 14.728V12.04C47.9015 11.52 47.7655 11.148 47.4935 10.924C47.2295 10.692 46.9095 10.576 46.5335 10.576C46.1895 10.576 45.8975 10.672 45.6575 10.864C45.4255 11.048 45.2575 11.328 45.1535 11.704L44.0255 11.332C44.2015 10.748 44.5175 10.3 44.9735 9.988C45.4375 9.676 45.9815 9.52 46.6055 9.52C47.3975 9.52 48.0095 9.732 48.4415 10.156C48.8815 10.58 49.1015 11.16 49.1015 11.896V14.584C49.1015 15.056 49.1615 15.528 49.2815 16H48.0575ZM45.7295 16.12C45.1775 16.12 44.7335 15.96 44.3975 15.64C44.0695 15.32 43.9055 14.916 43.9055 14.428C43.9055 13.948 44.0655 13.536 44.3855 13.192C44.7135 12.84 45.2175 12.604 45.8975 12.484L48.1415 12.1V13.024L46.2935 13.396C45.8695 13.476 45.5655 13.6 45.3815 13.768C45.1975 13.928 45.1055 14.12 45.1055 14.344C45.1055 14.528 45.1815 14.7 45.3335 14.86C45.4855 15.012 45.7295 15.088 46.0655 15.088C46.3615 15.088 46.6495 15.02 46.9295 14.884C47.2095 14.74 47.4415 14.54 47.6255 14.284C47.8095 14.02 47.9015 13.708 47.9015 13.348H48.2975C48.2975 13.916 48.1775 14.408 47.9375 14.824C47.7055 15.24 47.3935 15.56 47.0015 15.784C46.6175 16.008 46.1935 16.12 45.7295 16.12ZM50.6628 16V9.64H51.8628V16H50.6628ZM51.2628 8.776C51.0548 8.776 50.8788 8.708 50.7348 8.572C50.5908 8.436 50.5188 8.26 50.5188 8.044C50.5188 7.82 50.5908 7.64 50.7348 7.504C50.8788 7.368 51.0548 7.3 51.2628 7.3C51.4708 7.3 51.6468 7.368 51.7908 7.504C51.9348 7.64 52.0068 7.82 52.0068 8.044C52.0068 8.26 51.9348 8.436 51.7908 8.572C51.6468 8.708 51.4708 8.776 51.2628 8.776ZM55.6484 16.12C55.0244 16.12 54.5364 15.956 54.1844 15.628C53.8404 15.292 53.6684 14.796 53.6684 14.14V8.32L54.8684 8.08V13.924C54.8684 14.292 54.9564 14.564 55.1324 14.74C55.3084 14.908 55.5644 14.992 55.9004 14.992C56.0604 14.992 56.2084 14.98 56.3444 14.956C56.4884 14.932 56.6284 14.904 56.7644 14.872V16C56.5964 16.04 56.4244 16.068 56.2484 16.084C56.0804 16.108 55.8804 16.12 55.6484 16.12ZM52.7684 10.684V9.64H56.7044V10.684H52.7684ZM57.8347 16V9.64H59.0347V16H57.8347ZM58.4347 8.776C58.2267 8.776 58.0507 8.708 57.9067 8.572C57.7627 8.436 57.6907 8.26 57.6907 8.044C57.6907 7.82 57.7627 7.64 57.9067 7.504C58.0507 7.368 58.2267 7.3 58.4347 7.3C58.6427 7.3 58.8187 7.368 58.9627 7.504C59.1067 7.64 59.1787 7.82 59.1787 8.044C59.1787 8.26 59.1067 8.436 58.9627 8.572C58.8187 8.708 58.6427 8.776 58.4347 8.776ZM64.7283 16V12.292C64.7283 11.724 64.5843 11.296 64.2963 11.008C64.0083 10.72 63.6643 10.576 63.2643 10.576C62.8643 10.576 62.5203 10.72 62.2323 11.008C61.9443 11.296 61.8003 11.724 61.8003 12.292H61.4043C61.4043 11.724 61.5043 11.232 61.7043 10.816C61.9123 10.4 62.1923 10.08 62.5443 9.856C62.8963 9.632 63.2883 9.52 63.7203 9.52C64.1523 9.52 64.5323 9.624 64.8603 9.832C65.1963 10.032 65.4563 10.32 65.6403 10.696C65.8323 11.064 65.9283 11.504 65.9283 12.016V16H64.7283ZM60.6003 16V9.64H61.8003V16H60.6003ZM69.9149 18.22C69.2509 18.22 68.6989 18.084 68.2589 17.812C67.8269 17.548 67.5189 17.2 67.3349 16.768L68.4509 16.3C68.5949 16.588 68.7869 16.8 69.0269 16.936C69.2669 17.072 69.5789 17.14 69.9629 17.14C70.2349 17.14 70.4949 17.084 70.7429 16.972C70.9909 16.86 71.1949 16.672 71.3549 16.408C71.5149 16.152 71.5949 15.804 71.5949 15.364V14.236L71.7749 12.52L71.5949 10.816V9.64H72.7949V15.424C72.7949 16.08 72.6629 16.612 72.3989 17.02C72.1349 17.436 71.7829 17.74 71.3429 17.932C70.9109 18.124 70.4349 18.22 69.9149 18.22ZM69.6989 15.52C69.2109 15.52 68.7749 15.396 68.3909 15.148C68.0069 14.9 67.7069 14.552 67.4909 14.104C67.2749 13.656 67.1669 13.128 67.1669 12.52C67.1669 11.912 67.2749 11.384 67.4909 10.936C67.7069 10.488 68.0069 10.14 68.3909 9.892C68.7749 9.644 69.2109 9.52 69.6989 9.52C70.3709 9.52 70.9029 9.744 71.2949 10.192C71.6869 10.632 71.8829 11.232 71.8829 11.992V13.048C71.8829 13.808 71.6869 14.412 71.2949 14.86C70.9029 15.3 70.3709 15.52 69.6989 15.52ZM70.0349 14.464C70.5149 14.464 70.9029 14.304 71.1989 13.984C71.5029 13.664 71.6549 13.176 71.6549 12.52C71.6549 11.864 71.5029 11.376 71.1989 11.056C70.9029 10.736 70.5149 10.576 70.0349 10.576C69.5549 10.576 69.1629 10.736 68.8589 11.056C68.5629 11.376 68.4149 11.864 68.4149 12.52C68.4149 13.176 68.5629 13.664 68.8589 13.984C69.1629 14.304 69.5549 14.464 70.0349 14.464Z" fill="#CA8A04"/>
</svg>
