<svg width="24" height="24" viewBox="0 0 24 24" fill="none" xmlns="http://www.w3.org/2000/svg">
<path d="M10.9999 12.77C11.2193 12.77 11.4023 12.6933 11.5489 12.54C11.6956 12.3867 11.7689 12.2067 11.7689 12C11.7689 11.7807 11.6956 11.5977 11.5489 11.451C11.4023 11.3043 11.2193 11.231 10.9999 11.231C10.7933 11.231 10.6133 11.3043 10.4599 11.451C10.3066 11.5977 10.2299 11.7807 10.2299 12C10.2299 12.2067 10.3066 12.3867 10.4599 12.54C10.6133 12.6933 10.7933 12.77 10.9999 12.77ZM6.99994 20V19L13.9999 18.308V6.452C13.9999 6.074 13.8766 5.74633 13.6299 5.469C13.3846 5.19233 13.0813 5.03733 12.7199 5.004L7.61494 4.5V3.5L12.8449 4.016C13.4629 4.08467 13.9763 4.34933 14.3849 4.81C14.7949 5.27 14.9999 5.809 14.9999 6.427V19.189L6.99994 20ZM4.46094 20V19H5.99994V5.116C5.99994 4.65133 6.15727 4.266 6.47194 3.96C6.7866 3.65333 7.16794 3.5 7.61594 3.5H16.3849C16.8489 3.5 17.2343 3.65333 17.5409 3.96C17.8476 4.26667 18.0006 4.652 17.9999 5.116V19H19.5389V20H4.46094ZM6.99994 19H16.9999V5.116C16.9999 4.936 16.9423 4.78833 16.8269 4.673C16.7116 4.55767 16.5643 4.5 16.3849 4.5H7.61494C7.4356 4.5 7.28827 4.55767 7.17294 4.673C7.0576 4.78833 6.99994 4.936 6.99994 5.116V19Z" fill="#DC2626"/>
</svg>
