<svg width="16" height="17" viewBox="0 0 16 17" fill="none" xmlns="http://www.w3.org/2000/svg">
<path d="M2.66602 14.5H13.3327M3.77668 9.29131C3.49243 9.5762 3.33275 9.9622 3.33268 10.3646V12.5H5.48135C5.88401 12.5 6.27001 12.34 6.55468 12.0546L12.888 5.71798C13.1722 5.43304 13.3317 5.04706 13.3317 4.64465C13.3317 4.24224 13.1722 3.85625 12.888 3.57131L12.2627 2.94465C12.1217 2.80355 11.9542 2.69163 11.7699 2.61529C11.5856 2.53895 11.388 2.49969 11.1885 2.49976C10.989 2.49982 10.7915 2.5392 10.6073 2.61565C10.423 2.6921 10.2556 2.80413 10.1147 2.94531L3.77668 9.29131Z" stroke="#64748B" stroke-linecap="round" stroke-linejoin="round"/>
</svg>
