<svg width="160" height="32" viewBox="0 0 160 32" fill="none" xmlns="http://www.w3.org/2000/svg">
<rect width="160" height="32" rx="16" fill="#E6ECFF"/>
<path d="M25.0825 20V11.72H26.5345V20H25.0825ZM25.7545 20V18.656H31.0825V20H25.7545ZM25.7545 16.424V15.104H30.3745V16.424H25.7545ZM25.7545 13.064V11.72H31.0225V13.064H25.7545ZM34.4007 20.132C33.9127 20.132 33.4807 20 33.1047 19.736C32.7287 19.472 32.4327 19.092 32.2167 18.596C32.0087 18.1 31.9047 17.508 31.9047 16.82C31.9047 16.124 32.0087 15.532 32.2167 15.044C32.4327 14.548 32.7287 14.168 33.1047 13.904C33.4807 13.64 33.9127 13.508 34.4007 13.508C35.0647 13.508 35.5967 13.752 35.9967 14.24C36.3967 14.728 36.5967 15.42 36.5967 16.316V17.324C36.5967 18.22 36.3967 18.912 35.9967 19.4C35.5967 19.888 35.0647 20.132 34.4007 20.132ZM34.8447 18.896C35.2927 18.896 35.6527 18.728 35.9247 18.392C36.2047 18.056 36.3447 17.532 36.3447 16.82C36.3447 16.108 36.2047 15.584 35.9247 15.248C35.6527 14.912 35.2927 14.744 34.8447 14.744C34.3967 14.744 34.0327 14.912 33.7527 15.248C33.4807 15.584 33.3447 16.108 33.3447 16.82C33.3447 17.532 33.4807 18.056 33.7527 18.392C34.0327 18.728 34.3967 18.896 34.8447 18.896ZM36.2727 20V18.464L36.4647 16.82L36.2727 15.2V11.42H37.6647V20H36.2727ZM39.1304 20V13.64H40.5224V20H39.1304ZM39.8264 12.836C39.6024 12.836 39.4104 12.764 39.2504 12.62C39.0984 12.468 39.0224 12.276 39.0224 12.044C39.0224 11.796 39.0984 11.604 39.2504 11.468C39.4104 11.324 39.6024 11.252 39.8264 11.252C40.0504 11.252 40.2384 11.324 40.3904 11.468C40.5504 11.604 40.6304 11.796 40.6304 12.044C40.6304 12.276 40.5504 12.468 40.3904 12.62C40.2384 12.764 40.0504 12.836 39.8264 12.836ZM44.3058 20.132C43.6578 20.132 43.1498 19.956 42.7818 19.604C42.4138 19.252 42.2298 18.724 42.2298 18.02V12.32L43.6338 12.044V17.804C43.6338 18.156 43.7178 18.416 43.8858 18.584C44.0618 18.752 44.3138 18.836 44.6418 18.836C44.7938 18.836 44.9378 18.824 45.0738 18.8C45.2098 18.776 45.3418 18.748 45.4698 18.716V20C45.3018 20.048 45.1258 20.08 44.9418 20.096C44.7578 20.12 44.5458 20.132 44.3058 20.132ZM41.3658 14.828V13.64H45.4098V14.828H41.3658ZM49.731 20V18.68H52.335C52.871 18.68 53.259 18.576 53.499 18.368C53.739 18.16 53.859 17.876 53.859 17.516C53.859 17.148 53.739 16.864 53.499 16.664C53.259 16.456 52.871 16.352 52.335 16.352H49.731V15.428H52.527C53.431 15.428 54.127 15.636 54.615 16.052C55.103 16.468 55.347 17.008 55.347 17.672C55.347 18.36 55.099 18.92 54.603 19.352C54.107 19.784 53.407 20 52.503 20H49.731ZM49.059 20V11.72H50.511V20H49.059ZM49.731 15.848V15.152H52.203C52.675 15.152 53.023 15.052 53.247 14.852C53.471 14.652 53.583 14.392 53.583 14.072C53.583 13.752 53.471 13.5 53.247 13.316C53.023 13.132 52.675 13.04 52.203 13.04H49.731V11.72H52.359C52.919 11.72 53.399 11.812 53.799 11.996C54.199 12.18 54.507 12.432 54.723 12.752C54.939 13.072 55.047 13.448 55.047 13.88C55.047 14.448 54.815 14.92 54.351 15.296C53.895 15.664 53.219 15.848 52.323 15.848H49.731ZM58.6342 20.132C58.0022 20.132 57.4822 19.912 57.0742 19.472C56.6742 19.024 56.4742 18.412 56.4742 17.636V13.64H57.8662V17.324C57.8662 17.844 57.9942 18.24 58.2502 18.512C58.5062 18.776 58.8222 18.908 59.1982 18.908C59.5662 18.908 59.8782 18.776 60.1342 18.512C60.3902 18.24 60.5182 17.844 60.5182 17.324H60.8902C60.8902 17.908 60.7942 18.412 60.6022 18.836C60.4102 19.252 60.1422 19.572 59.7982 19.796C59.4622 20.02 59.0742 20.132 58.6342 20.132ZM60.5182 20V13.64H61.9102V20H60.5182ZM65.6445 20.132C64.9005 20.132 64.3045 19.984 63.8565 19.688C63.4085 19.392 63.1045 18.952 62.9445 18.368L64.2525 17.96C64.3725 18.336 64.5525 18.608 64.7925 18.776C65.0405 18.944 65.3565 19.028 65.7405 19.028C66.0845 19.028 66.3485 18.968 66.5325 18.848C66.7245 18.72 66.8205 18.548 66.8205 18.332C66.8205 18.1 66.7325 17.924 66.5565 17.804C66.3805 17.676 66.1525 17.572 65.8725 17.492C65.6005 17.404 65.3085 17.316 64.9965 17.228C64.6845 17.14 64.3885 17.028 64.1085 16.892C63.8365 16.748 63.6125 16.556 63.4365 16.316C63.2685 16.076 63.1845 15.76 63.1845 15.368C63.1845 14.84 63.3925 14.4 63.8085 14.048C64.2325 13.688 64.8365 13.508 65.6205 13.508C66.2925 13.508 66.8365 13.652 67.2525 13.94C67.6685 14.228 67.9645 14.644 68.1405 15.188L66.8685 15.608C66.7485 15.256 66.5805 15.004 66.3645 14.852C66.1485 14.692 65.8685 14.612 65.5245 14.612C65.1965 14.612 64.9485 14.672 64.7805 14.792C64.6205 14.904 64.5405 15.048 64.5405 15.224C64.5405 15.424 64.6285 15.58 64.8045 15.692C64.9805 15.796 65.2085 15.888 65.4885 15.968C65.7685 16.04 66.0645 16.124 66.3765 16.22C66.6885 16.308 66.9845 16.428 67.2645 16.58C67.5445 16.732 67.7725 16.94 67.9485 17.204C68.1245 17.46 68.2125 17.796 68.2125 18.212C68.2125 18.764 67.9885 19.224 67.5405 19.592C67.0925 19.952 66.4605 20.132 65.6445 20.132ZM69.3531 20V13.64H70.7451V20H69.3531ZM70.0491 12.836C69.8251 12.836 69.6331 12.764 69.4731 12.62C69.3211 12.468 69.2451 12.276 69.2451 12.044C69.2451 11.796 69.3211 11.604 69.4731 11.468C69.6331 11.324 69.8251 11.252 70.0491 11.252C70.2731 11.252 70.4611 11.324 70.6131 11.468C70.7731 11.604 70.8531 11.796 70.8531 12.044C70.8531 12.276 70.7731 12.468 70.6131 12.62C70.4611 12.764 70.2731 12.836 70.0491 12.836ZM76.2925 20V16.316C76.2925 15.796 76.1605 15.404 75.8965 15.14C75.6405 14.868 75.3245 14.732 74.9485 14.732C74.5725 14.732 74.2525 14.868 73.9885 15.14C73.7325 15.404 73.6045 15.796 73.6045 16.316H73.2445C73.2445 15.732 73.3405 15.232 73.5325 14.816C73.7245 14.392 73.9925 14.068 74.3365 13.844C74.6805 13.62 75.0685 13.508 75.5005 13.508C75.9325 13.508 76.3125 13.608 76.6405 13.808C76.9685 14.008 77.2245 14.296 77.4085 14.672C77.5925 15.048 77.6845 15.492 77.6845 16.004V20H76.2925ZM72.2125 20V13.64H73.6045V20H72.2125ZM81.802 20.132C81.21 20.132 80.69 19.996 80.242 19.724C79.802 19.452 79.458 19.068 79.21 18.572C78.962 18.068 78.838 17.484 78.838 16.82C78.838 16.132 78.962 15.54 79.21 15.044C79.466 14.548 79.814 14.168 80.254 13.904C80.702 13.64 81.214 13.508 81.79 13.508C82.358 13.508 82.858 13.64 83.29 13.904C83.722 14.168 84.058 14.548 84.298 15.044C84.546 15.54 84.67 16.132 84.67 16.82C84.67 16.892 84.67 16.96 84.67 17.024C84.67 17.088 84.666 17.168 84.658 17.264H79.822V16.232H83.626L83.23 16.82C83.23 16.06 83.102 15.516 82.846 15.188C82.59 14.86 82.238 14.696 81.79 14.696C81.334 14.696 80.966 14.864 80.686 15.2C80.414 15.528 80.278 16.068 80.278 16.82C80.278 17.524 80.414 18.044 80.686 18.38C80.966 18.708 81.35 18.872 81.838 18.872C82.158 18.872 82.434 18.8 82.666 18.656C82.898 18.512 83.078 18.276 83.206 17.948L84.526 18.392C84.334 18.936 83.998 19.364 83.518 19.676C83.046 19.98 82.474 20.132 81.802 20.132ZM88.0859 20.132C87.3419 20.132 86.7459 19.984 86.2979 19.688C85.8499 19.392 85.5459 18.952 85.3859 18.368L86.6939 17.96C86.8139 18.336 86.9939 18.608 87.2339 18.776C87.4819 18.944 87.7979 19.028 88.1819 19.028C88.5259 19.028 88.7899 18.968 88.9739 18.848C89.1659 18.72 89.2619 18.548 89.2619 18.332C89.2619 18.1 89.1739 17.924 88.9979 17.804C88.8219 17.676 88.5939 17.572 88.3139 17.492C88.0419 17.404 87.7499 17.316 87.4379 17.228C87.1259 17.14 86.8299 17.028 86.5499 16.892C86.2779 16.748 86.0539 16.556 85.8779 16.316C85.7099 16.076 85.6259 15.76 85.6259 15.368C85.6259 14.84 85.8339 14.4 86.2499 14.048C86.6739 13.688 87.2779 13.508 88.0619 13.508C88.7339 13.508 89.2779 13.652 89.6939 13.94C90.1099 14.228 90.4059 14.644 90.5819 15.188L89.3099 15.608C89.1899 15.256 89.0219 15.004 88.8059 14.852C88.5899 14.692 88.3099 14.612 87.9659 14.612C87.6379 14.612 87.3899 14.672 87.2219 14.792C87.0619 14.904 86.9819 15.048 86.9819 15.224C86.9819 15.424 87.0699 15.58 87.2459 15.692C87.4219 15.796 87.6499 15.888 87.9299 15.968C88.2099 16.04 88.5059 16.124 88.8179 16.22C89.1299 16.308 89.4259 16.428 89.7059 16.58C89.9859 16.732 90.2139 16.94 90.3899 17.204C90.5659 17.46 90.6539 17.796 90.6539 18.212C90.6539 18.764 90.4299 19.224 89.9819 19.592C89.5339 19.952 88.9019 20.132 88.0859 20.132ZM94.0625 20.132C93.3185 20.132 92.7225 19.984 92.2745 19.688C91.8265 19.392 91.5225 18.952 91.3625 18.368L92.6705 17.96C92.7905 18.336 92.9705 18.608 93.2105 18.776C93.4585 18.944 93.7745 19.028 94.1585 19.028C94.5025 19.028 94.7665 18.968 94.9505 18.848C95.1425 18.72 95.2385 18.548 95.2385 18.332C95.2385 18.1 95.1505 17.924 94.9745 17.804C94.7985 17.676 94.5705 17.572 94.2905 17.492C94.0185 17.404 93.7265 17.316 93.4145 17.228C93.1025 17.14 92.8065 17.028 92.5265 16.892C92.2545 16.748 92.0305 16.556 91.8545 16.316C91.6865 16.076 91.6025 15.76 91.6025 15.368C91.6025 14.84 91.8105 14.4 92.2265 14.048C92.6505 13.688 93.2545 13.508 94.0385 13.508C94.7105 13.508 95.2545 13.652 95.6705 13.94C96.0865 14.228 96.3825 14.644 96.5585 15.188L95.2865 15.608C95.1665 15.256 94.9985 15.004 94.7825 14.852C94.5665 14.692 94.2865 14.612 93.9425 14.612C93.6145 14.612 93.3665 14.672 93.1985 14.792C93.0385 14.904 92.9585 15.048 92.9585 15.224C92.9585 15.424 93.0465 15.58 93.2225 15.692C93.3985 15.796 93.6265 15.888 93.9065 15.968C94.1865 16.04 94.4825 16.124 94.7945 16.22C95.1065 16.308 95.4025 16.428 95.6825 16.58C95.9625 16.732 96.1905 16.94 96.3665 17.204C96.5425 17.46 96.6305 17.796 96.6305 18.212C96.6305 18.764 96.4065 19.224 95.9585 19.592C95.5105 19.952 94.8785 20.132 94.0625 20.132ZM102.451 20.132C101.963 20.132 101.531 20 101.155 19.736C100.779 19.472 100.483 19.092 100.267 18.596C100.059 18.1 99.9554 17.508 99.9554 16.82C99.9554 16.124 100.059 15.532 100.267 15.044C100.483 14.548 100.779 14.168 101.155 13.904C101.531 13.64 101.963 13.508 102.451 13.508C103.115 13.508 103.647 13.752 104.047 14.24C104.447 14.728 104.647 15.42 104.647 16.316V17.324C104.647 18.22 104.447 18.912 104.047 19.4C103.647 19.888 103.115 20.132 102.451 20.132ZM102.895 18.896C103.343 18.896 103.703 18.728 103.975 18.392C104.255 18.056 104.395 17.532 104.395 16.82C104.395 16.108 104.255 15.584 103.975 15.248C103.703 14.912 103.343 14.744 102.895 14.744C102.447 14.744 102.083 14.912 101.803 15.248C101.531 15.584 101.395 16.108 101.395 16.82C101.395 17.532 101.531 18.056 101.803 18.392C102.083 18.728 102.447 18.896 102.895 18.896ZM104.323 20V18.464L104.515 16.82L104.323 15.2V11.42H105.715V20H104.323ZM109.833 20.132C109.241 20.132 108.721 19.996 108.273 19.724C107.833 19.452 107.489 19.068 107.241 18.572C106.993 18.068 106.869 17.484 106.869 16.82C106.869 16.132 106.993 15.54 107.241 15.044C107.497 14.548 107.845 14.168 108.285 13.904C108.733 13.64 109.245 13.508 109.821 13.508C110.389 13.508 110.889 13.64 111.321 13.904C111.753 14.168 112.089 14.548 112.329 15.044C112.577 15.54 112.701 16.132 112.701 16.82C112.701 16.892 112.701 16.96 112.701 17.024C112.701 17.088 112.697 17.168 112.689 17.264H107.853V16.232H111.657L111.261 16.82C111.261 16.06 111.133 15.516 110.877 15.188C110.621 14.86 110.269 14.696 109.821 14.696C109.365 14.696 108.997 14.864 108.717 15.2C108.445 15.528 108.309 16.068 108.309 16.82C108.309 17.524 108.445 18.044 108.717 18.38C108.997 18.708 109.381 18.872 109.869 18.872C110.189 18.872 110.465 18.8 110.697 18.656C110.929 18.512 111.109 18.276 111.237 17.948L112.557 18.392C112.365 18.936 112.029 19.364 111.549 19.676C111.077 19.98 110.505 20.132 109.833 20.132ZM116.165 20.132C115.517 20.132 115.009 19.956 114.641 19.604C114.273 19.252 114.089 18.724 114.089 18.02V12.32L115.493 12.044V17.804C115.493 18.156 115.577 18.416 115.745 18.584C115.921 18.752 116.173 18.836 116.501 18.836C116.653 18.836 116.797 18.824 116.933 18.8C117.069 18.776 117.201 18.748 117.329 18.716V20C117.161 20.048 116.985 20.08 116.801 20.096C116.617 20.12 116.405 20.132 116.165 20.132ZM113.225 14.828V13.64H117.269V14.828H113.225ZM122.106 20C122.058 19.792 122.018 19.58 121.986 19.364C121.962 19.148 121.95 18.936 121.95 18.728V16.04C121.95 15.552 121.826 15.204 121.578 14.996C121.338 14.788 121.05 14.684 120.714 14.684C120.402 14.684 120.134 14.772 119.91 14.948C119.694 15.124 119.538 15.392 119.442 15.752L118.122 15.38C118.29 14.764 118.61 14.3 119.082 13.988C119.562 13.668 120.134 13.508 120.798 13.508C121.598 13.508 122.222 13.72 122.67 14.144C123.118 14.568 123.342 15.152 123.342 15.896V18.584C123.342 19.056 123.402 19.528 123.522 20H122.106ZM119.862 20.132C119.286 20.132 118.83 19.972 118.494 19.652C118.166 19.332 118.002 18.92 118.002 18.416C118.002 17.936 118.162 17.52 118.482 17.168C118.81 16.816 119.31 16.58 119.982 16.46L122.286 16.076V17.072L120.462 17.444C120.078 17.516 119.806 17.628 119.646 17.78C119.486 17.932 119.406 18.108 119.406 18.308C119.406 18.476 119.474 18.632 119.61 18.776C119.746 18.912 119.958 18.98 120.246 18.98C120.518 18.98 120.782 18.916 121.038 18.788C121.302 18.66 121.518 18.476 121.686 18.236C121.862 17.988 121.95 17.692 121.95 17.348H122.346C122.346 17.916 122.234 18.412 122.01 18.836C121.786 19.252 121.486 19.572 121.11 19.796C120.734 20.02 120.318 20.132 119.862 20.132ZM124.806 20V13.64H126.198V20H124.806ZM125.502 12.836C125.278 12.836 125.086 12.764 124.926 12.62C124.774 12.468 124.698 12.276 124.698 12.044C124.698 11.796 124.774 11.604 124.926 11.468C125.086 11.324 125.278 11.252 125.502 11.252C125.726 11.252 125.914 11.324 126.066 11.468C126.226 11.604 126.306 11.796 126.306 12.044C126.306 12.276 126.226 12.468 126.066 12.62C125.914 12.764 125.726 12.836 125.502 12.836ZM127.666 20V11.42H129.058V20H127.666ZM132.793 20.132C132.049 20.132 131.453 19.984 131.005 19.688C130.557 19.392 130.253 18.952 130.093 18.368L131.401 17.96C131.521 18.336 131.701 18.608 131.941 18.776C132.189 18.944 132.505 19.028 132.889 19.028C133.233 19.028 133.497 18.968 133.681 18.848C133.873 18.72 133.969 18.548 133.969 18.332C133.969 18.1 133.881 17.924 133.705 17.804C133.529 17.676 133.301 17.572 133.021 17.492C132.749 17.404 132.457 17.316 132.145 17.228C131.833 17.14 131.537 17.028 131.257 16.892C130.985 16.748 130.761 16.556 130.585 16.316C130.417 16.076 130.333 15.76 130.333 15.368C130.333 14.84 130.541 14.4 130.957 14.048C131.381 13.688 131.985 13.508 132.769 13.508C133.441 13.508 133.985 13.652 134.401 13.94C134.817 14.228 135.113 14.644 135.289 15.188L134.017 15.608C133.897 15.256 133.729 15.004 133.513 14.852C133.297 14.692 133.017 14.612 132.673 14.612C132.345 14.612 132.097 14.672 131.929 14.792C131.769 14.904 131.689 15.048 131.689 15.224C131.689 15.424 131.777 15.58 131.953 15.692C132.129 15.796 132.357 15.888 132.637 15.968C132.917 16.04 133.213 16.124 133.525 16.22C133.837 16.308 134.133 16.428 134.413 16.58C134.693 16.732 134.921 16.94 135.097 17.204C135.273 17.46 135.361 17.796 135.361 18.212C135.361 18.764 135.137 19.224 134.689 19.592C134.241 19.952 133.609 20.132 132.793 20.132Z" fill="#0145FE"/>
</svg>
