<svg width="40" height="40" viewBox="0 0 40 40" fill="none" xmlns="http://www.w3.org/2000/svg">
<rect x="0.5" y="0.5" width="39" height="39" rx="19.5" stroke="#E6EBF0"/>
<path d="M31.9918 27.9223C32.0828 27.6765 21.6364 19.7886 21.6364 19.7886C20.3286 18.8235 19.6407 18.8083 18.3475 19.7886C18.3475 19.7886 7.91627 27.6701 8.00406 27.9126L8.00195 27.9144C8.00303 27.9165 8.00477 27.9179 8.00622 27.9198C8.09468 28.161 8.22336 28.3853 8.3868 28.5834C8.45584 28.6672 8.53905 28.7373 8.61906 28.8102L8.61517 28.8132C8.62155 28.8189 8.63003 28.8215 8.63641 28.8272C8.97555 29.1297 9.40323 29.3256 9.87836 29.3815C9.88581 29.3824 9.89181 29.3863 9.89927 29.3872H9.92795C10.0002 29.3941 10.0689 29.4114 10.1428 29.4114H29.8641C30.8352 29.4114 31.658 28.8008 31.9848 27.9447C31.9887 27.9383 31.9947 27.9337 31.9982 27.9272L31.9918 27.9223Z" fill="#96A9B2"/>
<path d="M20.0059 18.8833L8.05664 27.8452V15.1492C8.05664 13.9117 9.05963 12.9087 10.2971 12.9087H29.7146C30.9521 12.9087 31.9551 13.9117 31.9551 15.1492V27.8452L20.0059 18.8833Z" fill="#B9C5C6"/>
<path d="M8.19629 14.3701L18.3984 22.3834C19.6861 23.3336 20.3633 23.3486 21.6367 22.3834L31.8227 14.3828C31.646 14.0625 31.3815 13.8094 31.0789 13.6076L31.219 13.4978C30.877 13.1865 30.4399 12.9847 29.9547 12.9326L10.0584 12.9333C9.57455 12.9847 9.13674 13.1872 8.79549 13.4978L8.93457 13.6063C8.63551 13.8052 8.37338 14.054 8.19629 14.3701Z" fill="#EDECE6"/>
<path d="M8.1928 14.3871C8.10323 14.6292 18.3887 22.3955 18.3887 22.3955C19.6763 23.3457 20.3536 23.3607 21.6269 22.3955C21.6269 22.3955 31.8974 14.6355 31.8109 14.3967L31.813 14.395C31.812 14.3929 31.8103 14.3915 31.8089 14.3896C31.7218 14.1522 31.5951 13.9312 31.4341 13.7362C31.3662 13.6537 31.2842 13.5847 31.2055 13.5129L31.2093 13.51C31.203 13.5044 31.1947 13.5018 31.1884 13.4962C30.8545 13.1984 30.4334 13.0054 29.9656 12.9503C29.9583 12.9494 29.9524 12.9456 29.9451 12.9448H29.9168C29.8457 12.938 29.7781 12.9209 29.7052 12.9209H10.2877C9.33159 12.9209 8.52149 13.5222 8.19979 14.3651C8.19595 14.3714 8.19004 14.3759 8.18652 14.3823L8.1928 14.3871Z" fill="#DCE2E2"/>
<path d="M21.6593 15.2488H19.8484C19.7719 15.2488 19.6985 15.2792 19.6444 15.3333C19.5903 15.3874 19.5599 15.4608 19.5599 15.5373V16.5555C19.5599 16.6321 19.5903 16.7054 19.6444 16.7595C19.6985 16.8137 19.7719 16.8441 19.8484 16.8441H21.321C21.3975 16.8441 21.4709 16.8744 21.525 16.9286C21.5791 16.9827 21.6095 17.056 21.6095 17.1326V17.6771C21.6095 17.7536 21.5791 17.827 21.525 17.8811C21.4709 17.9352 21.3975 17.9656 21.321 17.9656H19.8484C19.7719 17.9656 19.6985 17.996 19.6444 18.0501C19.5903 18.1042 19.5599 18.1776 19.5599 18.2541V19.3593C19.5599 19.4358 19.5903 19.5092 19.6444 19.5633C19.6985 19.6174 19.7719 19.6478 19.8484 19.6478H21.7851C21.8616 19.6478 21.935 19.6782 21.9891 19.7323C22.0432 19.7864 22.0736 19.8598 22.0736 19.9363V20.5195C22.0736 20.596 22.0432 20.6694 21.9891 20.7235C21.935 20.7776 21.8616 20.808 21.7851 20.808H18.2338C18.1573 20.808 18.0839 20.7776 18.0298 20.7235C17.9757 20.6694 17.9453 20.596 17.9453 20.5195V14.3964C17.9453 14.3199 17.9757 14.2465 18.0298 14.1924C18.0839 14.1383 18.1573 14.1079 18.2338 14.1079H21.7405C21.9163 14.1079 22.0512 14.2636 22.0261 14.4376L21.9449 15.0014C21.935 15.0701 21.9007 15.1329 21.8482 15.1783C21.7957 15.2238 21.7287 15.2488 21.6593 15.2488Z" fill="#597B91"/>
</svg>
