<svg width="26" height="26" viewBox="0 0 26 26" fill="none" xmlns="http://www.w3.org/2000/svg">
<path fill-rule="evenodd" clip-rule="evenodd" d="M1.32812 7.4375C1.32812 4.06339 4.06339 1.32812 7.4375 1.32812H18.0625C21.4366 1.32812 24.1719 4.06339 24.1719 7.4375V18.0625C24.1719 21.4366 21.4366 24.1719 18.0625 24.1719H7.4375C4.06339 24.1719 1.32812 21.4366 1.32812 18.0625V7.4375ZM7.4375 2.92188C4.94359 2.92188 2.92188 4.94359 2.92188 7.4375V18.0625C2.92188 20.5564 4.94359 22.5781 7.4375 22.5781H18.0625C20.5564 22.5781 22.5781 20.5564 22.5781 18.0625V7.4375C22.5781 4.94359 20.5564 2.92188 18.0625 2.92188H7.4375Z" fill="#64748B"/>
<path fill-rule="evenodd" clip-rule="evenodd" d="M2.125 7.4375C2.125 4.50349 4.50349 2.125 7.4375 2.125H18.0625C20.9965 2.125 23.375 4.50349 23.375 7.4375V18.0625C23.375 18.8353 23.21 19.5695 22.9133 20.2319L23.2912 17.5869C23.3433 17.2221 23.2026 16.8564 22.9195 16.6204L18.3417 12.8056C17.5818 12.1724 16.4645 12.223 15.765 12.9225L10.4641 18.2234C9.96614 18.7214 9.15886 18.7214 8.66094 18.2234L7.52061 17.0831C6.85953 16.422 5.81741 16.3358 5.05665 16.8792L3.10118 18.2759C2.82196 18.4754 2.65625 18.7974 2.65625 19.1405V20.2081C2.65625 20.2825 2.66405 20.356 2.67914 20.4275C2.32447 19.7153 2.125 18.9122 2.125 18.0625V7.4375ZM20.4403 22.6415L22.4868 21.0043C21.5347 22.4334 19.9085 23.375 18.0625 23.375H7.4375C5.58955 23.375 3.96198 22.4315 3.01025 20.9999C3.02478 21.0129 3.0397 21.0255 3.05501 21.0378L5.05024 22.6339C5.22092 22.7705 5.42955 22.8511 5.6477 22.8647L13.7352 23.3702C13.7867 23.3734 13.8383 23.3729 13.8897 23.3686L19.8648 22.8706C20.0752 22.8531 20.2755 22.7733 20.4403 22.6415ZM8.5 10.625C7.3264 10.625 6.375 9.6736 6.375 8.5C6.375 7.3264 7.3264 6.375 8.5 6.375C9.6736 6.375 10.625 7.3264 10.625 8.5C10.625 9.6736 9.6736 10.625 8.5 10.625Z" fill="#64748B"/>
</svg>
