<svg width="41" height="40" viewBox="0 0 41 40" fill="none" xmlns="http://www.w3.org/2000/svg">
<rect x="1" y="0.5" width="39" height="39" rx="19.5" stroke="#E6EBF0"/>
<rect x="10" y="9.5" width="21" height="21" rx="6" fill="url(#paint0_radial_373_9355)"/>
<rect x="10" y="9.5" width="21" height="21" rx="6" fill="url(#paint1_radial_373_9355)"/>
<rect x="10" y="9.5" width="21" height="21" rx="6" fill="url(#paint2_radial_373_9355)"/>
<path d="M25.75 15.875C25.75 16.4963 25.2463 17 24.625 17C24.0037 17 23.5 16.4963 23.5 15.875C23.5 15.2537 24.0037 14.75 24.625 14.75C25.2463 14.75 25.75 15.2537 25.75 15.875Z" fill="white"/>
<path fill-rule="evenodd" clip-rule="evenodd" d="M20.5 23.75C22.5711 23.75 24.25 22.0711 24.25 20C24.25 17.9289 22.5711 16.25 20.5 16.25C18.4289 16.25 16.75 17.9289 16.75 20C16.75 22.0711 18.4289 23.75 20.5 23.75ZM20.5 22.25C21.7426 22.25 22.75 21.2426 22.75 20C22.75 18.7574 21.7426 17.75 20.5 17.75C19.2574 17.75 18.25 18.7574 18.25 20C18.25 21.2426 19.2574 22.25 20.5 22.25Z" fill="white"/>
<path fill-rule="evenodd" clip-rule="evenodd" d="M13 19.7C13 17.1798 13 15.9196 13.4905 14.957C13.9219 14.1103 14.6103 13.4219 15.457 12.9905C16.4196 12.5 17.6798 12.5 20.2 12.5H20.8C23.3202 12.5 24.5804 12.5 25.543 12.9905C26.3897 13.4219 27.0781 14.1103 27.5095 14.957C28 15.9196 28 17.1798 28 19.7V20.3C28 22.8202 28 24.0804 27.5095 25.043C27.0781 25.8897 26.3897 26.5781 25.543 27.0095C24.5804 27.5 23.3202 27.5 20.8 27.5H20.2C17.6798 27.5 16.4196 27.5 15.457 27.0095C14.6103 26.5781 13.9219 25.8897 13.4905 25.043C13 24.0804 13 22.8202 13 20.3V19.7ZM20.2 14H20.8C22.0849 14 22.9583 14.0012 23.6334 14.0563C24.2911 14.1101 24.6274 14.2074 24.862 14.327C25.4265 14.6146 25.8854 15.0735 26.173 15.638C26.2926 15.8726 26.3899 16.2089 26.4437 16.8666C26.4988 17.5417 26.5 18.4151 26.5 19.7V20.3C26.5 21.5849 26.4988 22.4583 26.4437 23.1334C26.3899 23.7911 26.2926 24.1274 26.173 24.362C25.8854 24.9265 25.4265 25.3854 24.862 25.673C24.6274 25.7926 24.2911 25.8899 23.6334 25.9437C22.9583 25.9988 22.0849 26 20.8 26H20.2C18.9151 26 18.0417 25.9988 17.3666 25.9437C16.7089 25.8899 16.3726 25.7926 16.138 25.673C15.5735 25.3854 15.1146 24.9265 14.827 24.362C14.7074 24.1274 14.6101 23.7911 14.5563 23.1334C14.5012 22.4583 14.5 21.5849 14.5 20.3V19.7C14.5 18.4151 14.5012 17.5417 14.5563 16.8666C14.6101 16.2089 14.7074 15.8726 14.827 15.638C15.1146 15.0735 15.5735 14.6146 16.138 14.327C16.3726 14.2074 16.7089 14.1101 17.3666 14.0563C18.0417 14.0012 18.9151 14 20.2 14Z" fill="white"/>
<defs>
<radialGradient id="paint0_radial_373_9355" cx="0" cy="0" r="1" gradientUnits="userSpaceOnUse" gradientTransform="translate(17.5 25.25) rotate(-55.3758) scale(19.1397)">
<stop stop-color="#B13589"/>
<stop offset="0.79309" stop-color="#C62F94"/>
<stop offset="1" stop-color="#8A3AC8"/>
</radialGradient>
<radialGradient id="paint1_radial_373_9355" cx="0" cy="0" r="1" gradientUnits="userSpaceOnUse" gradientTransform="translate(16.75 31.25) rotate(-65.1363) scale(16.9457)">
<stop stop-color="#E0E8B7"/>
<stop offset="0.444662" stop-color="#FB8A2E"/>
<stop offset="0.71474" stop-color="#E2425C"/>
<stop offset="1" stop-color="#E2425C" stop-opacity="0"/>
</radialGradient>
<radialGradient id="paint2_radial_373_9355" cx="0" cy="0" r="1" gradientUnits="userSpaceOnUse" gradientTransform="translate(8.875 10.25) rotate(-8.1301) scale(29.1682 6.23877)">
<stop offset="0.156701" stop-color="#406ADC"/>
<stop offset="0.467799" stop-color="#6A45BE"/>
<stop offset="1" stop-color="#6A45BE" stop-opacity="0"/>
</radialGradient>
</defs>
</svg>
