<svg width="343" height="50" viewBox="0 0 343 50" fill="none" xmlns="http://www.w3.org/2000/svg">
<rect width="343" height="50" rx="25" fill="#0145FE"/>
<path d="M131.413 30.182C130.405 30.182 129.565 29.9533 128.893 29.496C128.23 29.0387 127.754 28.362 127.465 27.466L129.355 26.836C129.542 27.396 129.817 27.8067 130.181 28.068C130.545 28.32 130.993 28.446 131.525 28.446C132.076 28.446 132.491 28.3527 132.771 28.166C133.051 27.97 133.191 27.718 133.191 27.41C133.191 27.1207 133.093 26.8827 132.897 26.696C132.701 26.5093 132.44 26.36 132.113 26.248C131.786 26.1267 131.432 26.0147 131.049 25.912C130.666 25.8 130.284 25.6787 129.901 25.548C129.518 25.4173 129.164 25.2493 128.837 25.044C128.51 24.8293 128.249 24.5587 128.053 24.232C127.866 23.896 127.773 23.476 127.773 22.972C127.773 22.4307 127.913 21.95 128.193 21.53C128.473 21.11 128.884 20.7787 129.425 20.536C129.966 20.284 130.615 20.158 131.371 20.158C132.286 20.158 133.06 20.3773 133.695 20.816C134.339 21.2453 134.792 21.8707 135.053 22.692L133.233 23.322C133.065 22.818 132.808 22.454 132.463 22.23C132.118 21.9967 131.698 21.88 131.203 21.88C130.671 21.88 130.288 21.978 130.055 22.174C129.831 22.3607 129.719 22.5847 129.719 22.846C129.719 23.1073 129.817 23.3173 130.013 23.476C130.209 23.6253 130.466 23.756 130.783 23.868C131.11 23.98 131.469 24.0873 131.861 24.19C132.253 24.2833 132.64 24.4047 133.023 24.554C133.415 24.694 133.77 24.8807 134.087 25.114C134.414 25.338 134.675 25.6273 134.871 25.982C135.067 26.3367 135.165 26.78 135.165 27.312C135.165 27.872 135.011 28.3667 134.703 28.796C134.404 29.2253 133.975 29.566 133.415 29.818C132.864 30.0607 132.197 30.182 131.413 30.182ZM140.812 30C140.756 29.7573 140.709 29.51 140.672 29.258C140.644 29.006 140.63 28.7587 140.63 28.516V25.38C140.63 24.8573 140.504 24.4887 140.252 24.274C140 24.05 139.696 23.938 139.342 23.938C139.006 23.938 138.716 24.0313 138.474 24.218C138.24 24.3953 138.077 24.6847 137.984 25.086L136.206 24.652C136.411 23.9147 136.798 23.3547 137.368 22.972C137.937 22.5893 138.632 22.398 139.454 22.398C140.396 22.398 141.138 22.65 141.68 23.154C142.221 23.6487 142.492 24.3347 142.492 25.212V28.348C142.492 28.8987 142.562 29.4493 142.702 30H140.812ZM138.278 30.182C137.578 30.182 137.036 29.9907 136.654 29.608C136.28 29.2253 136.094 28.7307 136.094 28.124C136.094 27.5733 136.276 27.088 136.64 26.668C137.013 26.248 137.592 25.9773 138.376 25.856L141.12 25.394V26.626L139.034 27.06C138.632 27.144 138.352 27.27 138.194 27.438C138.035 27.5967 137.956 27.774 137.956 27.97C137.956 28.166 138.021 28.334 138.152 28.474C138.292 28.6047 138.506 28.67 138.796 28.67C139.094 28.67 139.384 28.6047 139.664 28.474C139.944 28.334 140.172 28.1333 140.35 27.872C140.536 27.6013 140.63 27.2793 140.63 26.906H141.106C141.106 27.578 140.98 28.1613 140.728 28.656C140.476 29.1413 140.135 29.5193 139.706 29.79C139.286 30.0513 138.81 30.182 138.278 30.182ZM145.556 30L143.372 22.58H145.36L147.39 30H145.556ZM146.746 30L148.692 22.58H150.638L148.454 30H146.746ZM154.66 30.182C153.978 30.182 153.372 30.0187 152.84 29.692C152.308 29.3653 151.892 28.9127 151.594 28.334C151.304 27.746 151.16 27.0647 151.16 26.29C151.16 25.4967 151.309 24.8107 151.608 24.232C151.906 23.644 152.322 23.1913 152.854 22.874C153.386 22.5567 153.992 22.398 154.674 22.398C155.355 22.398 155.957 22.5567 156.48 22.874C157.002 23.1913 157.408 23.6393 157.698 24.218C157.996 24.7967 158.146 25.4873 158.146 26.29C158.146 26.3833 158.141 26.472 158.132 26.556C158.132 26.64 158.132 26.7333 158.132 26.836H152.322V25.534H156.76L156.242 26.29C156.242 25.4593 156.102 24.8667 155.822 24.512C155.551 24.148 155.168 23.966 154.674 23.966C154.198 23.966 153.81 24.148 153.512 24.512C153.222 24.8667 153.078 25.4593 153.078 26.29C153.078 27.0647 153.227 27.6387 153.526 28.012C153.824 28.376 154.23 28.558 154.744 28.558C155.089 28.558 155.388 28.4787 155.64 28.32C155.892 28.1613 156.078 27.914 156.2 27.578L157.95 28.082C157.754 28.7167 157.371 29.2253 156.802 29.608C156.242 29.9907 155.528 30.182 154.66 30.182ZM165.27 30.182C164.579 30.182 163.968 30.0187 163.436 29.692C162.904 29.3653 162.488 28.9127 162.19 28.334C161.891 27.746 161.742 27.0647 161.742 26.29C161.742 25.506 161.891 24.8247 162.19 24.246C162.488 23.6673 162.904 23.2147 163.436 22.888C163.968 22.5613 164.579 22.398 165.27 22.398C166.1 22.398 166.8 22.6173 167.37 23.056C167.948 23.4947 168.331 24.106 168.518 24.89L166.698 25.352C166.604 24.9133 166.436 24.5913 166.194 24.386C165.951 24.1713 165.634 24.064 165.242 24.064C164.775 24.064 164.392 24.2507 164.094 24.624C163.804 24.988 163.66 25.5433 163.66 26.29C163.66 27.0367 163.804 27.5967 164.094 27.97C164.392 28.334 164.775 28.516 165.242 28.516C165.634 28.516 165.956 28.4133 166.208 28.208C166.46 27.9933 166.628 27.6713 166.712 27.242L168.546 27.662C168.359 28.4553 167.972 29.076 167.384 29.524C166.805 29.9627 166.1 30.182 165.27 30.182ZM174.411 30V25.716C174.411 25.1653 174.276 24.75 174.005 24.47C173.734 24.19 173.398 24.05 172.997 24.05C172.596 24.05 172.26 24.19 171.989 24.47C171.718 24.75 171.583 25.1653 171.583 25.716H171.177C171.177 25.016 171.284 24.4187 171.499 23.924C171.723 23.4293 172.026 23.0513 172.409 22.79C172.801 22.5287 173.254 22.398 173.767 22.398C174.252 22.398 174.682 22.5193 175.055 22.762C175.438 22.9953 175.736 23.3313 175.951 23.77C176.166 24.1993 176.273 24.722 176.273 25.338V30H174.411ZM169.721 30V19.99H171.583V30H169.721ZM182.237 30C182.181 29.7573 182.135 29.51 182.097 29.258C182.069 29.006 182.055 28.7587 182.055 28.516V25.38C182.055 24.8573 181.929 24.4887 181.677 24.274C181.425 24.05 181.122 23.938 180.767 23.938C180.431 23.938 180.142 24.0313 179.899 24.218C179.666 24.3953 179.503 24.6847 179.409 25.086L177.631 24.652C177.837 23.9147 178.224 23.3547 178.793 22.972C179.363 22.5893 180.058 22.398 180.879 22.398C181.822 22.398 182.564 22.65 183.105 23.154C183.647 23.6487 183.917 24.3347 183.917 25.212V28.348C183.917 28.8987 183.987 29.4493 184.127 30H182.237ZM179.703 30.182C179.003 30.182 178.462 29.9907 178.079 29.608C177.706 29.2253 177.519 28.7307 177.519 28.124C177.519 27.5733 177.701 27.088 178.065 26.668C178.439 26.248 179.017 25.9773 179.801 25.856L182.545 25.394V26.626L180.459 27.06C180.058 27.144 179.778 27.27 179.619 27.438C179.461 27.5967 179.381 27.774 179.381 27.97C179.381 28.166 179.447 28.334 179.577 28.474C179.717 28.6047 179.932 28.67 180.221 28.67C180.52 28.67 180.809 28.6047 181.089 28.474C181.369 28.334 181.598 28.1333 181.775 27.872C181.962 27.6013 182.055 27.2793 182.055 26.906H182.531C182.531 27.578 182.405 28.1613 182.153 28.656C181.901 29.1413 181.561 29.5193 181.131 29.79C180.711 30.0513 180.235 30.182 179.703 30.182ZM190.202 30V25.716C190.202 25.1653 190.067 24.75 189.796 24.47C189.525 24.19 189.189 24.05 188.788 24.05C188.387 24.05 188.051 24.19 187.78 24.47C187.509 24.75 187.374 25.1653 187.374 25.716H186.968C186.968 25.016 187.075 24.4187 187.29 23.924C187.514 23.4293 187.817 23.0513 188.2 22.79C188.592 22.5287 189.045 22.398 189.558 22.398C190.043 22.398 190.473 22.5193 190.846 22.762C191.229 22.9953 191.527 23.3313 191.742 23.77C191.957 24.1993 192.064 24.722 192.064 25.338V30H190.202ZM185.512 30V22.58H187.374V30H185.512ZM196.432 32.632C195.751 32.632 195.168 32.534 194.682 32.338C194.197 32.142 193.791 31.8807 193.464 31.554L194.43 30.224C194.692 30.4573 194.976 30.6347 195.284 30.756C195.602 30.8867 195.952 30.952 196.334 30.952C196.717 30.952 197.058 30.882 197.356 30.742C197.664 30.602 197.907 30.3873 198.084 30.098C198.262 29.818 198.35 29.454 198.35 29.006V27.662L198.602 25.898L198.35 24.316V22.58H200.212V28.964C200.212 29.7853 200.049 30.4667 199.722 31.008C199.396 31.5493 198.948 31.9553 198.378 32.226C197.809 32.4967 197.16 32.632 196.432 32.632ZM196.208 29.398C195.639 29.398 195.135 29.258 194.696 28.978C194.267 28.698 193.931 28.2967 193.688 27.774C193.455 27.242 193.338 26.6167 193.338 25.898C193.338 25.1793 193.455 24.5587 193.688 24.036C193.931 23.5133 194.267 23.112 194.696 22.832C195.135 22.5427 195.639 22.398 196.208 22.398C196.964 22.398 197.571 22.6547 198.028 23.168C198.486 23.6813 198.714 24.4 198.714 25.324V26.472C198.714 27.3867 198.486 28.1053 198.028 28.628C197.571 29.1413 196.964 29.398 196.208 29.398ZM196.866 27.732C197.352 27.732 197.739 27.578 198.028 27.27C198.327 26.962 198.476 26.5047 198.476 25.898C198.476 25.2913 198.327 24.834 198.028 24.526C197.739 24.218 197.352 24.064 196.866 24.064C196.381 24.064 195.989 24.218 195.69 24.526C195.401 24.834 195.256 25.2913 195.256 25.898C195.256 26.5047 195.401 26.962 195.69 27.27C195.989 27.578 196.381 27.732 196.866 27.732ZM204.945 30.182C204.263 30.182 203.657 30.0187 203.125 29.692C202.593 29.3653 202.177 28.9127 201.879 28.334C201.589 27.746 201.445 27.0647 201.445 26.29C201.445 25.4967 201.594 24.8107 201.893 24.232C202.191 23.644 202.607 23.1913 203.139 22.874C203.671 22.5567 204.277 22.398 204.959 22.398C205.64 22.398 206.242 22.5567 206.765 22.874C207.287 23.1913 207.693 23.6393 207.983 24.218C208.281 24.7967 208.431 25.4873 208.431 26.29C208.431 26.3833 208.426 26.472 208.417 26.556C208.417 26.64 208.417 26.7333 208.417 26.836H202.607V25.534H207.045L206.527 26.29C206.527 25.4593 206.387 24.8667 206.107 24.512C205.836 24.148 205.453 23.966 204.959 23.966C204.483 23.966 204.095 24.148 203.797 24.512C203.507 24.8667 203.363 25.4593 203.363 26.29C203.363 27.0647 203.512 27.6387 203.811 28.012C204.109 28.376 204.515 28.558 205.029 28.558C205.374 28.558 205.673 28.4787 205.925 28.32C206.177 28.1613 206.363 27.914 206.485 27.578L208.235 28.082C208.039 28.7167 207.656 29.2253 207.087 29.608C206.527 29.9907 205.813 30.182 204.945 30.182ZM212.372 30.182C211.476 30.182 210.758 30.0093 210.216 29.664C209.684 29.3093 209.339 28.7773 209.18 28.068L210.902 27.522C211.024 27.942 211.215 28.2453 211.476 28.432C211.747 28.6187 212.088 28.712 212.498 28.712C212.881 28.712 213.166 28.656 213.352 28.544C213.539 28.4227 213.632 28.25 213.632 28.026C213.632 27.7927 213.53 27.6107 213.324 27.48C213.128 27.3493 212.872 27.242 212.554 27.158C212.237 27.0647 211.896 26.9713 211.532 26.878C211.178 26.7753 210.842 26.6447 210.524 26.486C210.207 26.318 209.946 26.094 209.74 25.814C209.535 25.5247 209.432 25.1467 209.432 24.68C209.432 24.0173 209.689 23.4713 210.202 23.042C210.716 22.6127 211.439 22.398 212.372 22.398C213.184 22.398 213.838 22.566 214.332 22.902C214.836 23.238 215.191 23.728 215.396 24.372L213.716 24.904C213.586 24.5307 213.404 24.2647 213.17 24.106C212.946 23.938 212.643 23.854 212.26 23.854C211.906 23.854 211.644 23.9147 211.476 24.036C211.308 24.1573 211.224 24.302 211.224 24.47C211.224 24.666 211.327 24.8247 211.532 24.946C211.738 25.058 212.004 25.156 212.33 25.24C212.657 25.3147 213.002 25.4033 213.366 25.506C213.73 25.6087 214.076 25.7487 214.402 25.926C214.729 26.1033 214.995 26.346 215.2 26.654C215.406 26.9527 215.508 27.3493 215.508 27.844C215.508 28.5347 215.233 29.0993 214.682 29.538C214.141 29.9673 213.371 30.182 212.372 30.182Z" fill="white"/>
</svg>
