<svg width="40" height="40" viewBox="0 0 40 40" fill="none" xmlns="http://www.w3.org/2000/svg">
<rect x="0.5" y="0.5" width="39" height="39" rx="19.5" stroke="#E6EBF0"/>
<path d="M9.5 16.7C9.5 14.1798 9.5 12.9196 9.99047 11.957C10.4219 11.1103 11.1103 10.4219 11.957 9.99047C12.9196 9.5 14.1798 9.5 16.7 9.5H23.3C25.8202 9.5 27.0804 9.5 28.043 9.99047C28.8897 10.4219 29.5781 11.1103 30.0095 11.957C30.5 12.9196 30.5 14.1798 30.5 16.7V23.3C30.5 25.8202 30.5 27.0804 30.0095 28.043C29.5781 28.8897 28.8897 29.5781 28.043 30.0095C27.0804 30.5 25.8202 30.5 23.3 30.5H16.7C14.1798 30.5 12.9196 30.5 11.957 30.0095C11.1103 29.5781 10.4219 28.8897 9.99047 28.043C9.5 27.0804 9.5 25.8202 9.5 23.3V16.7Z" fill="url(#paint0_linear_373_9386)"/>
<path d="M20 25.25C23.7279 25.25 26.75 22.7316 26.75 19.625C26.75 16.5184 23.7279 14 20 14C16.2721 14 13.25 16.5184 13.25 19.625C13.25 21.5941 14.4642 23.3269 16.3026 24.3319C16.2411 24.832 16.0561 25.4995 15.5 26C16.5516 25.8107 17.3909 25.4303 18.0178 25.0036C18.6446 25.1638 19.3102 25.25 20 25.25Z" fill="white"/>
<defs>
<linearGradient id="paint0_linear_373_9386" x1="20" y1="9.5" x2="20" y2="30.5" gradientUnits="userSpaceOnUse">
<stop stop-color="#5AF575"/>
<stop offset="1" stop-color="#13BD2C"/>
</linearGradient>
</defs>
</svg>
