<svg width="78" height="24" viewBox="0 0 78 24" fill="none" xmlns="http://www.w3.org/2000/svg">
<rect x="0.5" y="0.5" width="77" height="23" rx="11.5" fill="#F0FDF4"/>
<rect x="0.5" y="0.5" width="77" height="23" rx="11.5" stroke="#22C55E"/>
<path d="M10 17.84H22V5.84H10V17.84Z" fill="#16A34A"/>
<path d="M29.3351 16L26.4671 7.72H27.7871L30.5711 16H29.3351ZM30.0191 16L32.7431 7.72H34.0271L31.1591 16H30.0191ZM37.2297 16.12C36.6457 16.12 36.1337 15.984 35.6937 15.712C35.2537 15.44 34.9097 15.056 34.6617 14.56C34.4217 14.064 34.3017 13.484 34.3017 12.82C34.3017 12.124 34.4257 11.532 34.6737 11.044C34.9217 10.548 35.2617 10.172 35.6937 9.916C36.1337 9.652 36.6377 9.52 37.2057 9.52C37.7577 9.52 38.2417 9.652 38.6577 9.916C39.0817 10.172 39.4097 10.548 39.6417 11.044C39.8817 11.532 40.0017 12.124 40.0017 12.82C40.0017 12.884 40.0017 12.944 40.0017 13C40.0017 13.056 39.9977 13.132 39.9897 13.228H35.2857V12.28H39.1017L38.7537 12.82C38.7537 12.02 38.6137 11.444 38.3337 11.092C38.0537 10.732 37.6777 10.552 37.2057 10.552C36.7097 10.552 36.3097 10.732 36.0057 11.092C35.7017 11.444 35.5497 12.02 35.5497 12.82C35.5497 13.564 35.6977 14.112 35.9937 14.464C36.2977 14.816 36.7097 14.992 37.2297 14.992C37.5817 14.992 37.8817 14.916 38.1297 14.764C38.3857 14.604 38.5897 14.344 38.7417 13.984L39.8577 14.428C39.6497 14.964 39.3137 15.38 38.8497 15.676C38.3857 15.972 37.8457 16.12 37.2297 16.12ZM41.2351 16V9.64H42.4351V16H41.2351ZM42.0631 12.652C42.0631 12.012 42.1591 11.46 42.3511 10.996C42.5511 10.524 42.8231 10.16 43.1671 9.904C43.5191 9.648 43.9271 9.52 44.3911 9.52V10.852H44.0071C43.5351 10.852 43.1551 10.98 42.8671 11.236C42.5791 11.492 42.4351 11.912 42.4351 12.496L42.0631 12.652ZM45.407 16V9.64H46.607V16H45.407ZM46.007 8.776C45.799 8.776 45.623 8.708 45.479 8.572C45.335 8.436 45.263 8.26 45.263 8.044C45.263 7.82 45.335 7.64 45.479 7.504C45.623 7.368 45.799 7.3 46.007 7.3C46.215 7.3 46.391 7.368 46.535 7.504C46.679 7.64 46.751 7.82 46.751 8.044C46.751 8.26 46.679 8.436 46.535 8.572C46.391 8.708 46.215 8.776 46.007 8.776ZM48.4126 16V9.4C48.4126 8.696 48.5926 8.172 48.9526 7.828C49.3126 7.476 49.8166 7.3 50.4646 7.3C50.6246 7.3 50.7686 7.312 50.8966 7.336C51.0326 7.352 51.1766 7.38 51.3286 7.42V8.5C51.2086 8.46 51.0886 8.428 50.9686 8.404C50.8486 8.38 50.7206 8.368 50.5846 8.368C50.2646 8.368 50.0206 8.452 49.8526 8.62C49.6926 8.788 49.6126 9.02 49.6126 9.316V16H48.4126ZM47.5126 10.684V9.64H52.8286V10.684H47.5126ZM52.2526 16V9.64H53.4526V16H52.2526ZM52.8526 8.776C52.6446 8.776 52.4686 8.708 52.3246 8.572C52.1806 8.436 52.1086 8.26 52.1086 8.044C52.1086 7.82 52.1806 7.64 52.3246 7.504C52.4686 7.368 52.6446 7.3 52.8526 7.3C53.0606 7.3 53.2366 7.368 53.3806 7.504C53.5246 7.64 53.5966 7.82 53.5966 8.044C53.5966 8.26 53.5246 8.436 53.3806 8.572C53.2366 8.708 53.0606 8.776 52.8526 8.776ZM57.6203 16.12C57.0363 16.12 56.5243 15.984 56.0843 15.712C55.6443 15.44 55.3003 15.056 55.0523 14.56C54.8123 14.064 54.6923 13.484 54.6923 12.82C54.6923 12.124 54.8163 11.532 55.0643 11.044C55.3123 10.548 55.6523 10.172 56.0843 9.916C56.5243 9.652 57.0283 9.52 57.5963 9.52C58.1483 9.52 58.6323 9.652 59.0483 9.916C59.4723 10.172 59.8003 10.548 60.0323 11.044C60.2723 11.532 60.3923 12.124 60.3923 12.82C60.3923 12.884 60.3923 12.944 60.3923 13C60.3923 13.056 60.3883 13.132 60.3803 13.228H55.6763V12.28H59.4923L59.1443 12.82C59.1443 12.02 59.0043 11.444 58.7243 11.092C58.4443 10.732 58.0683 10.552 57.5963 10.552C57.1003 10.552 56.7003 10.732 56.3963 11.092C56.0923 11.444 55.9403 12.02 55.9403 12.82C55.9403 13.564 56.0883 14.112 56.3843 14.464C56.6883 14.816 57.1003 14.992 57.6203 14.992C57.9723 14.992 58.2723 14.916 58.5203 14.764C58.7763 14.604 58.9803 14.344 59.1323 13.984L60.2483 14.428C60.0403 14.964 59.7043 15.38 59.2403 15.676C58.7763 15.972 58.2363 16.12 57.6203 16.12ZM63.8337 16.12C63.3457 16.12 62.9097 15.988 62.5257 15.724C62.1417 15.46 61.8417 15.084 61.6257 14.596C61.4097 14.1 61.3017 13.508 61.3017 12.82C61.3017 12.132 61.4097 11.544 61.6257 11.056C61.8417 10.56 62.1417 10.18 62.5257 9.916C62.9097 9.652 63.3457 9.52 63.8337 9.52C64.5057 9.52 65.0457 9.764 65.4537 10.252C65.8617 10.732 66.0657 11.412 66.0657 12.292V13.348C66.0657 14.228 65.8617 14.912 65.4537 15.4C65.0457 15.88 64.5057 16.12 63.8337 16.12ZM64.1697 15.064C64.6497 15.064 65.0377 14.888 65.3337 14.536C65.6377 14.176 65.7897 13.604 65.7897 12.82C65.7897 12.036 65.6377 11.468 65.3337 11.116C65.0377 10.756 64.6497 10.576 64.1697 10.576C63.6897 10.576 63.2977 10.756 62.9937 11.116C62.6977 11.468 62.5497 12.036 62.5497 12.82C62.5497 13.604 62.6977 14.176 62.9937 14.536C63.2977 14.888 63.6897 15.064 64.1697 15.064ZM65.7297 16V14.524L65.9097 12.82L65.7297 11.104V7.42H66.9297V16H65.7297Z" fill="#16A34A"/>
</svg>
