<svg width="24" height="24" viewBox="0 0 24 24" fill="none" xmlns="http://www.w3.org/2000/svg">
<circle cx="3.40426" cy="3.40426" r="3.40426" transform="matrix(-1 0 0 1 15.6172 5)" stroke="#94A3B8" stroke-width="1.5"/>
<path d="M6.25586 16.8594C6.25586 16.1272 6.71616 15.474 7.40572 15.2277V15.2277C10.5146 14.1174 13.912 14.1174 17.0209 15.2277V15.2277C17.7105 15.474 18.1708 16.1272 18.1708 16.8594V17.979C18.1708 18.9896 17.2757 19.7659 16.2753 19.6229L15.9417 19.5753C13.4687 19.222 10.958 19.222 8.48491 19.5753L8.15136 19.6229C7.15093 19.7659 6.25586 18.9896 6.25586 17.979V16.8594Z" stroke="#94A3B8" stroke-width="1.5"/>
<path d="M17.3174 11.9028C18.7947 11.9028 19.9922 10.7052 19.9922 9.22799C19.9922 7.75076 18.7947 6.55322 17.3174 6.55322" stroke="#94A3B8" stroke-width="1.5" stroke-linecap="round"/>
<path d="M20.2471 18.0051L20.5092 18.0425C21.2952 18.1548 21.9985 17.5448 21.9985 16.7508V15.8711C21.9985 15.2958 21.6368 14.7826 21.095 14.5891C20.5546 14.3961 20.003 14.2458 19.4453 14.1382" stroke="#94A3B8" stroke-width="1.5" stroke-linecap="round"/>
<path d="M6.68258 11.9028C5.20535 11.9028 4.00781 10.7052 4.00781 9.22799C4.00781 7.75076 5.20535 6.55322 6.68258 6.55322" stroke="#94A3B8" stroke-width="1.5" stroke-linecap="round"/>
<path d="M3.75289 18.0051L3.49082 18.0425C2.70476 18.1548 2.0015 17.5448 2.0015 16.7508V15.8711C2.0015 15.2958 2.36316 14.7826 2.90496 14.5891C3.44541 14.3961 3.99696 14.2458 4.55469 14.1382" stroke="#94A3B8" stroke-width="1.5" stroke-linecap="round"/>
</svg>
