<svg width="16" height="17" viewBox="0 0 16 17" fill="none" xmlns="http://www.w3.org/2000/svg">
<path d="M6.99994 9.77C7.21927 9.77 7.40227 9.69333 7.54894 9.54C7.6956 9.38667 7.76894 9.20667 7.76894 9C7.76894 8.78067 7.6956 8.59767 7.54894 8.451C7.40227 8.30433 7.21927 8.231 6.99994 8.231C6.79327 8.231 6.61327 8.30433 6.45994 8.451C6.3066 8.59767 6.22994 8.78067 6.22994 9C6.22994 9.20667 6.3066 9.38667 6.45994 9.54C6.61327 9.69333 6.79327 9.77 6.99994 9.77ZM2.99994 17V16L9.99994 15.308V3.452C9.99994 3.074 9.87661 2.74633 9.62994 2.469C9.3846 2.19233 9.08127 2.03733 8.71994 2.004L3.61494 1.5V0.5L8.84494 1.016C9.46294 1.08467 9.97627 1.34933 10.3849 1.81C10.7949 2.27 10.9999 2.809 10.9999 3.427V16.189L2.99994 17ZM0.460938 17V16H1.99994V2.116C1.99994 1.65133 2.15727 1.266 2.47194 0.96C2.7866 0.653333 3.16794 0.5 3.61594 0.5H12.3849C12.8489 0.5 13.2343 0.653333 13.5409 0.96C13.8476 1.26667 14.0006 1.652 13.9999 2.116V16H15.5389V17H0.460938ZM2.99994 16H12.9999V2.116C12.9999 1.936 12.9423 1.78833 12.8269 1.673C12.7116 1.55767 12.5643 1.5 12.3849 1.5H3.61494C3.4356 1.5 3.28827 1.55767 3.17294 1.673C3.0576 1.78833 2.99994 1.936 2.99994 2.116V16Z" fill="#DC2626"/>
</svg>
