<svg width="41" height="40" viewBox="0 0 41 40" fill="none" xmlns="http://www.w3.org/2000/svg">
<rect x="1" y="0.5" width="39" height="39" rx="19.5" stroke="#E6EBF0"/>
<path fill-rule="evenodd" clip-rule="evenodd" d="M20.5 31.25C26.299 31.25 31 26.549 31 20.75C31 14.951 26.299 10.25 20.5 10.25C14.701 10.25 10 14.951 10 20.75C10 22.6332 10.4957 24.4005 11.3639 25.9287L10 31.25L15.4861 29.9778C16.976 30.7891 18.6842 31.25 20.5 31.25ZM20.5 29.6346C25.4068 29.6346 29.3846 25.6568 29.3846 20.75C29.3846 15.8432 25.4068 11.8654 20.5 11.8654C15.5932 11.8654 11.6154 15.8432 11.6154 20.75C11.6154 22.6445 12.2084 24.4006 13.2189 25.8427L12.4231 28.8269L15.4599 28.0677C16.892 29.0559 18.6284 29.6346 20.5 29.6346Z" fill="#BFC8D0"/>
<path d="M29.5 20C29.5 24.9706 25.4706 29 20.5 29C18.6041 29 16.8452 28.4138 15.3945 27.4127L12.3182 28.1818L13.1243 25.1588C12.1007 23.698 11.5 21.9192 11.5 20C11.5 15.0294 15.5294 11 20.5 11C25.4706 11 29.5 15.0294 29.5 20Z" fill="url(#paint0_linear_373_9394)"/>
<path fill-rule="evenodd" clip-rule="evenodd" d="M20.5 30.5C26.299 30.5 31 25.799 31 20C31 14.201 26.299 9.5 20.5 9.5C14.701 9.5 10 14.201 10 20C10 21.8832 10.4957 23.6505 11.3639 25.1787L10 30.5L15.4861 29.2278C16.976 30.0391 18.6842 30.5 20.5 30.5ZM20.5 28.8846C25.4068 28.8846 29.3846 24.9068 29.3846 20C29.3846 15.0932 25.4068 11.1154 20.5 11.1154C15.5932 11.1154 11.6154 15.0932 11.6154 20C11.6154 21.8945 12.2084 23.6506 13.2189 25.0927L12.4231 28.0769L15.4599 27.3177C16.892 28.3059 18.6284 28.8846 20.5 28.8846Z" fill="white"/>
<path d="M17.875 15.125C17.6254 14.6236 17.2424 14.668 16.8555 14.668C16.1641 14.668 15.0859 15.4962 15.0859 17.0376C15.0859 18.3008 15.6426 19.6836 17.5183 21.7522C19.3285 23.7485 21.707 24.7812 23.6817 24.7461C25.6563 24.7109 26.0625 23.0117 26.0625 22.4379C26.0625 22.1835 25.9047 22.0566 25.796 22.0221C25.1231 21.6992 23.882 21.0975 23.5996 20.9844C23.3172 20.8714 23.1698 21.0243 23.0781 21.1075C22.8221 21.3515 22.3144 22.0707 22.1406 22.2325C21.9668 22.3942 21.7077 22.3124 21.5999 22.2512C21.2031 22.092 20.1272 21.6134 19.2696 20.7821C18.209 19.754 18.1467 19.4002 17.9469 19.0854C17.7871 18.8335 17.9044 18.6789 17.9629 18.6114C18.1914 18.3477 18.507 17.9406 18.6485 17.7383C18.79 17.536 18.6776 17.2289 18.6102 17.0376C18.3203 16.2149 18.0747 15.5262 17.875 15.125Z" fill="white"/>
<defs>
<linearGradient id="paint0_linear_373_9394" x1="28.375" y1="13.25" x2="11.5" y2="29" gradientUnits="userSpaceOnUse">
<stop stop-color="#5BD066"/>
<stop offset="1" stop-color="#27B43E"/>
</linearGradient>
</defs>
</svg>
