<svg width="24" height="24" viewBox="0 0 24 24" fill="none" xmlns="http://www.w3.org/2000/svg">
<path d="M5.42032 12.5098L5.42032 12.5099L5.42103 12.5093C9.41492 9.42717 14.5746 9.42708 18.5685 12.5091C18.7268 12.6333 18.9086 12.6901 19.0899 12.6901C19.3469 12.6901 19.5991 12.5786 19.7505 12.3594C20.0423 11.9862 19.9746 11.4544 19.6007 11.1708C14.9847 7.59313 9.0046 7.59332 4.37876 11.171L4.37837 11.1713C4.01453 11.4556 3.94782 11.9877 4.23022 12.3605L4.23021 12.3605L4.23113 12.3617C4.51538 12.7255 5.04755 12.7923 5.42032 12.5098Z" fill="#1E293B" stroke="#1E293B" stroke-width="0.2"/>
<path d="M2.51994 9.02988L2.51993 9.02988C2.14716 9.31228 1.61499 9.24557 1.33074 8.88173L1.32983 8.88056L1.32984 8.88055C1.04744 8.50778 1.11413 7.9756 1.47797 7.69134L1.47836 7.69104C7.86428 2.75326 16.1243 2.75322 22.5203 7.69068M2.51994 9.02988L22.4595 7.77015M2.51994 9.02988L2.52074 9.02926C8.27455 4.57726 15.714 4.5771 21.478 9.02901M2.51994 9.02988L21.478 9.02901M22.5203 7.69068C22.5204 7.69079 22.5205 7.69089 22.5207 7.69099L22.4595 7.77015M22.5203 7.69068C22.5202 7.6906 22.52 7.69052 22.5199 7.69044L22.4595 7.77015M22.5203 7.69068C22.8946 7.9746 22.9621 8.50748 22.6691 8.88079M22.4595 7.77015C22.7895 8.02015 22.8495 8.49017 22.5895 8.82017M22.6691 8.88079C22.6694 8.88035 22.6697 8.87992 22.67 8.87948L22.5895 8.82017M22.6691 8.88079C22.5081 9.09833 22.2472 9.21014 21.9995 9.21014C21.8182 9.21014 21.6363 9.15327 21.478 9.02901M22.6691 8.88079C22.6688 8.88121 22.6684 8.88163 22.6681 8.88205L22.5895 8.82017M22.5895 8.82017L21.478 9.02901" fill="#1E293B" stroke="#1E293B" stroke-width="0.2"/>
<path d="M7.31094 16.1597L7.31095 16.1597L7.31165 16.1592C10.1656 13.957 13.8452 13.957 16.6891 16.1589C16.8473 16.2831 17.0292 16.34 17.2106 16.34C17.4597 16.34 17.7099 16.2271 17.8701 16.0107C18.1631 15.6374 18.0957 15.1045 17.7213 14.8206C14.2454 12.1331 9.74528 12.1332 6.26939 14.8209L6.26939 14.8209L6.269 14.8212C5.90516 15.1055 5.83844 15.6377 6.12085 16.0104L6.12084 16.0104L6.12175 16.0116C6.40601 16.3755 6.93818 16.4421 7.31094 16.1597Z" fill="#1E293B" stroke="#1E293B" stroke-width="0.2"/>
<path d="M9.91056 19.8197L9.91056 19.8197L9.91153 19.8189C11.1754 18.837 12.8147 18.837 14.0786 19.8188C14.2369 19.9431 14.4188 20 14.6002 20C14.8602 20 15.1103 19.8763 15.26 19.6702C15.5527 19.297 15.4852 18.7644 15.111 18.4806C13.215 17.013 10.7649 17.0131 8.86894 18.4809L8.86894 18.4809L8.8686 18.4812C8.50475 18.7654 8.43806 19.2976 8.72046 19.6704L8.72045 19.6704L8.72137 19.6715C9.00562 20.0354 9.53779 20.1021 9.91056 19.8197Z" fill="#1E293B" stroke="#1E293B" stroke-width="0.2"/>
</svg>
