<svg width="12" height="12" viewBox="0 0 12 12" fill="none" xmlns="http://www.w3.org/2000/svg">
<path d="M6 6H7.5C8.29565 6 9.05871 5.68393 9.62132 5.12132C10.1839 4.55871 10.5 3.79565 10.5 3V2.5H9C8.20435 2.5 7.44129 2.81607 6.87868 3.37868C6.31607 3.94129 6 4.70435 6 5.5H4.5C3.70435 5.5 2.94129 5.18393 2.37868 4.62132C1.81607 4.05871 1.5 3.29565 1.5 2.5V1.5H3C3.79565 1.5 4.55871 1.81607 5.12132 2.37868C5.68393 2.94129 6 3.70435 6 4.5V7.5M3.5 7.5H8.5V9.5C8.5 9.76522 8.39464 10.0196 8.20711 10.2071C8.01957 10.3946 7.76522 10.5 7.5 10.5H4.5C4.23478 10.5 3.98043 10.3946 3.79289 10.2071C3.60536 10.0196 3.5 9.76522 3.5 9.5V7.5Z" stroke="#60646B" stroke-linecap="round" stroke-linejoin="round"/>
</svg>
