<svg width="12" height="12" viewBox="0 0 12 12" fill="none" xmlns="http://www.w3.org/2000/svg">
<path d="M8 5.5H9.25C9.58152 5.5 9.89946 5.6317 10.1339 5.86612C10.3683 6.10054 10.5 6.41848 10.5 6.75C10.5 7.08152 10.3683 7.39946 10.1339 7.63388C9.89946 7.8683 9.58152 8 9.25 8H8.5" stroke="url(#paint0_linear_239_18053)" stroke-width="1.125" stroke-linecap="round" stroke-linejoin="round"/>
<path d="M6 4.5C6 4 6.357 3.5 7.0715 3.5C7.45036 3.5 7.81371 3.3495 8.0816 3.0816C8.3495 2.81371 8.5 2.45036 8.5 2.0715V1.75M4 4.5V4.25C4 3.85218 4.15804 3.47064 4.43934 3.18934C4.72064 2.90804 5.10218 2.75 5.5 2.75C5.76522 2.75 6.01957 2.64464 6.20711 2.45711C6.39464 2.26957 6.5 2.01522 6.5 1.75V1.5M8.5 5.8V7.5C8.5 8.29565 8.18393 9.05871 7.62132 9.62132C7.05871 10.1839 6.29565 10.5 5.5 10.5H4.5C3.70435 10.5 2.94129 10.1839 2.37868 9.62132C1.81607 9.05871 1.5 8.29565 1.5 7.5V5.8C1.5 5.72044 1.53161 5.64413 1.58787 5.58787C1.64413 5.53161 1.72044 5.5 1.8 5.5H8.2C8.27957 5.5 8.35587 5.53161 8.41213 5.58787C8.46839 5.64413 8.5 5.72044 8.5 5.8Z" stroke="url(#paint1_linear_239_18053)" stroke-width="1.125" stroke-linecap="round" stroke-linejoin="round"/>
<defs>
<linearGradient id="paint0_linear_239_18053" x1="9.75003" y1="4.35001" x2="9.75003" y2="8.85001" gradientUnits="userSpaceOnUse">
<stop stop-color="#EDF0F5"/>
<stop offset="1" stop-color="#60646B"/>
</linearGradient>
<linearGradient id="paint1_linear_239_18053" x1="5.25" y1="1.72504" x2="5" y2="10.5" gradientUnits="userSpaceOnUse">
<stop stop-color="#EDF0F5"/>
<stop offset="1" stop-color="#60646B"/>
</linearGradient>
</defs>
</svg>
