<svg width="55" height="25" viewBox="0 0 55 25" fill="none" xmlns="http://www.w3.org/2000/svg">
<rect y="0.681641" width="55" height="24" rx="12" fill="#E6ECFF" fill-opacity="0.5"/>
<path d="M10.9 16.6816V8.40164H12.16V16.6816H10.9ZM11.5 13.2496V12.0976H16V13.2496H11.5ZM11.5 9.55364V8.40164H16.48V9.55364H11.5ZM20.0397 16.8016C19.4717 16.8016 18.9677 16.6656 18.5277 16.3936C18.0957 16.1216 17.7557 15.7376 17.5077 15.2416C17.2597 14.7456 17.1357 14.1656 17.1357 13.5016C17.1357 12.8296 17.2597 12.2496 17.5077 11.7616C17.7557 11.2656 18.0957 10.8816 18.5277 10.6096C18.9677 10.3376 19.4717 10.2016 20.0397 10.2016C20.6157 10.2016 21.1197 10.3376 21.5517 10.6096C21.9917 10.8816 22.3357 11.2656 22.5837 11.7616C22.8317 12.2496 22.9557 12.8296 22.9557 13.5016C22.9557 14.1656 22.8317 14.7456 22.5837 15.2416C22.3357 15.7376 21.9917 16.1216 21.5517 16.3936C21.1197 16.6656 20.6157 16.8016 20.0397 16.8016ZM20.0397 15.7216C20.5437 15.7216 20.9477 15.5456 21.2517 15.1936C21.5557 14.8336 21.7077 14.2696 21.7077 13.5016C21.7077 12.7336 21.5557 12.1736 21.2517 11.8216C20.9477 11.4616 20.5437 11.2816 20.0397 11.2816C19.5437 11.2816 19.1437 11.4616 18.8397 11.8216C18.5357 12.1736 18.3837 12.7336 18.3837 13.5016C18.3837 14.2696 18.5357 14.8336 18.8397 15.1936C19.1437 15.5456 19.5437 15.7216 20.0397 15.7216ZM24.1863 16.6816V8.10164H25.3863V16.6816H24.1863ZM26.9519 16.6816V8.10164H28.1519V16.6816H26.9519ZM32.2975 16.8016C31.7295 16.8016 31.2255 16.6656 30.7855 16.3936C30.3535 16.1216 30.0135 15.7376 29.7655 15.2416C29.5175 14.7456 29.3935 14.1656 29.3935 13.5016C29.3935 12.8296 29.5175 12.2496 29.7655 11.7616C30.0135 11.2656 30.3535 10.8816 30.7855 10.6096C31.2255 10.3376 31.7295 10.2016 32.2975 10.2016C32.8735 10.2016 33.3775 10.3376 33.8095 10.6096C34.2495 10.8816 34.5935 11.2656 34.8415 11.7616C35.0895 12.2496 35.2135 12.8296 35.2135 13.5016C35.2135 14.1656 35.0895 14.7456 34.8415 15.2416C34.5935 15.7376 34.2495 16.1216 33.8095 16.3936C33.3775 16.6656 32.8735 16.8016 32.2975 16.8016ZM32.2975 15.7216C32.8015 15.7216 33.2055 15.5456 33.5095 15.1936C33.8135 14.8336 33.9655 14.2696 33.9655 13.5016C33.9655 12.7336 33.8135 12.1736 33.5095 11.8216C33.2055 11.4616 32.8015 11.2816 32.2975 11.2816C31.8015 11.2816 31.4015 11.4616 31.0975 11.8216C30.7935 12.1736 30.6415 12.7336 30.6415 13.5016C30.6415 14.2696 30.7935 14.8336 31.0975 15.1936C31.4015 15.5456 31.8015 15.7216 32.2975 15.7216ZM37.3561 16.6816L35.7841 10.3216H36.9961L38.4841 16.6816H37.3561ZM38.0281 16.6816L39.5281 10.3216H40.5481L39.0601 16.6816H38.0281ZM41.4841 16.6816L39.9961 10.3216H41.0761L42.6121 16.6816H41.4841ZM42.1561 16.6816L43.5961 10.3216H44.7601L43.1881 16.6816H42.1561Z" fill="#0145FE"/>
</svg>
