<svg width="14" height="14" viewBox="0 0 14 14" fill="none" xmlns="http://www.w3.org/2000/svg">
<path fill-rule="evenodd" clip-rule="evenodd" d="M7 2.5C4.51472 2.5 2.5 4.51472 2.5 7C2.5 9.48528 4.51472 11.5 7 11.5C9.48528 11.5 11.5 9.48528 11.5 7C11.5 4.51472 9.48528 2.5 7 2.5ZM1 7C1 3.68629 3.68629 1 7 1C10.3137 1 13 3.68629 13 7C13 10.3137 10.3137 13 7 13C3.68629 13 1 10.3137 1 7ZM7 5.66667C7.41421 5.66667 7.75 6.00245 7.75 6.41667V9.33333C7.75 9.74755 7.41421 10.0833 7 10.0833C6.58579 10.0833 6.25 9.74755 6.25 9.33333V6.41667C6.25 6.00245 6.58579 5.66667 7 5.66667ZM7 5.25C7.32217 5.25 7.58333 4.98883 7.58333 4.66667C7.58333 4.3445 7.32217 4.08333 7 4.08333C6.67783 4.08333 6.41667 4.3445 6.41667 4.66667C6.41667 4.98883 6.67783 5.25 7 5.25Z" fill="#EF4444"/>
</svg>
