<svg width="168" height="50" viewBox="0 0 168 50" fill="none" xmlns="http://www.w3.org/2000/svg">
<rect width="168" height="50" rx="25" fill="#0145FE"/>
<path d="M71.3135 26.892V25.086H74.1135C74.7668 25.086 75.2382 24.9647 75.5275 24.722C75.8262 24.47 75.9755 24.1013 75.9755 23.616C75.9755 23.1307 75.8262 22.7667 75.5275 22.524C75.2382 22.272 74.7668 22.146 74.1135 22.146H71.3135V20.34H74.2395C75.0328 20.34 75.7048 20.4753 76.2555 20.746C76.8155 21.0073 77.2402 21.3853 77.5295 21.88C77.8188 22.3653 77.9635 22.944 77.9635 23.616C77.9635 24.2787 77.8188 24.8573 77.5295 25.352C77.2402 25.8467 76.8155 26.2293 76.2555 26.5C75.7048 26.7613 75.0328 26.892 74.2395 26.892H71.3135ZM70.4455 30V20.34H72.3915V30H70.4455ZM82.1384 30.182C81.4478 30.182 80.8318 30.0187 80.2904 29.692C79.7584 29.3653 79.3384 28.9127 79.0304 28.334C78.7318 27.7553 78.5824 27.074 78.5824 26.29C78.5824 25.506 78.7318 24.8247 79.0304 24.246C79.3384 23.658 79.7584 23.2053 80.2904 22.888C80.8318 22.5613 81.4478 22.398 82.1384 22.398C82.8478 22.398 83.4684 22.5613 84.0004 22.888C84.5324 23.2053 84.9478 23.658 85.2464 24.246C85.5544 24.8247 85.7084 25.506 85.7084 26.29C85.7084 27.074 85.5544 27.7553 85.2464 28.334C84.9478 28.9127 84.5324 29.3653 84.0004 29.692C83.4684 30.0187 82.8478 30.182 82.1384 30.182ZM82.1384 28.516C82.6518 28.516 83.0531 28.334 83.3424 27.97C83.6411 27.606 83.7904 27.046 83.7904 26.29C83.7904 25.534 83.6411 24.974 83.3424 24.61C83.0531 24.246 82.6518 24.064 82.1384 24.064C81.6344 24.064 81.2331 24.246 80.9344 24.61C80.6451 24.974 80.5004 25.534 80.5004 26.29C80.5004 27.046 80.6451 27.606 80.9344 27.97C81.2331 28.334 81.6344 28.516 82.1384 28.516ZM89.6605 30.182C88.7645 30.182 88.0458 30.0093 87.5045 29.664C86.9725 29.3093 86.6272 28.7773 86.4685 28.068L88.1905 27.522C88.3118 27.942 88.5032 28.2453 88.7645 28.432C89.0352 28.6187 89.3758 28.712 89.7865 28.712C90.1692 28.712 90.4538 28.656 90.6405 28.544C90.8272 28.4227 90.9205 28.25 90.9205 28.026C90.9205 27.7927 90.8178 27.6107 90.6125 27.48C90.4165 27.3493 90.1598 27.242 89.8425 27.158C89.5252 27.0647 89.1845 26.9713 88.8205 26.878C88.4658 26.7753 88.1298 26.6447 87.8125 26.486C87.4952 26.318 87.2338 26.094 87.0285 25.814C86.8232 25.5247 86.7205 25.1467 86.7205 24.68C86.7205 24.0173 86.9772 23.4713 87.4905 23.042C88.0038 22.6127 88.7272 22.398 89.6605 22.398C90.4725 22.398 91.1258 22.566 91.6205 22.902C92.1245 23.238 92.4792 23.728 92.6845 24.372L91.0045 24.904C90.8738 24.5307 90.6918 24.2647 90.4585 24.106C90.2345 23.938 89.9312 23.854 89.5485 23.854C89.1938 23.854 88.9325 23.9147 88.7645 24.036C88.5965 24.1573 88.5125 24.302 88.5125 24.47C88.5125 24.666 88.6152 24.8247 88.8205 24.946C89.0258 25.058 89.2918 25.156 89.6185 25.24C89.9452 25.3147 90.2905 25.4033 90.6545 25.506C91.0185 25.6087 91.3638 25.7487 91.6905 25.926C92.0172 26.1033 92.2832 26.346 92.4885 26.654C92.6938 26.9527 92.7965 27.3493 92.7965 27.844C92.7965 28.5347 92.5212 29.0993 91.9705 29.538C91.4292 29.9673 90.6592 30.182 89.6605 30.182ZM96.8132 30.182C96.0292 30.182 95.4132 29.9627 94.9652 29.524C94.5172 29.076 94.2932 28.4133 94.2932 27.536V21.04L96.1412 20.676V27.298C96.1412 27.69 96.2392 27.984 96.4352 28.18C96.6405 28.376 96.9252 28.474 97.2892 28.474C97.4665 28.474 97.6298 28.46 97.7792 28.432C97.9285 28.3947 98.0825 28.3573 98.2412 28.32V30C98.0265 30.056 97.8072 30.098 97.5832 30.126C97.3592 30.1633 97.1025 30.182 96.8132 30.182ZM93.3272 24.134V22.58H98.1712V24.134H93.3272Z" fill="white"/>
</svg>
