<svg width="302" height="50" viewBox="0 0 302 50" fill="none" xmlns="http://www.w3.org/2000/svg">
<rect width="302" height="50" rx="25" fill="#F1F5F9"/>
<path d="M107.969 26.612V24.806H110.797C111.385 24.806 111.814 24.694 112.085 24.47C112.355 24.246 112.491 23.9147 112.491 23.476C112.491 23.028 112.355 22.6967 112.085 22.482C111.814 22.258 111.385 22.146 110.797 22.146H107.969V20.34H110.937C112.057 20.34 112.925 20.6247 113.541 21.194C114.166 21.754 114.479 22.5147 114.479 23.476C114.479 24.428 114.166 25.1887 113.541 25.758C112.925 26.3273 112.057 26.612 110.937 26.612H107.969ZM107.101 30V20.34H109.047V30H107.101ZM112.519 30L109.957 25.814H111.987L114.717 30H112.519ZM118.847 30.182C118.166 30.182 117.559 30.0187 117.027 29.692C116.495 29.3653 116.08 28.9127 115.781 28.334C115.492 27.746 115.347 27.0647 115.347 26.29C115.347 25.4967 115.496 24.8107 115.795 24.232C116.094 23.644 116.509 23.1913 117.041 22.874C117.573 22.5567 118.18 22.398 118.861 22.398C119.542 22.398 120.144 22.5567 120.667 22.874C121.19 23.1913 121.596 23.6393 121.885 24.218C122.184 24.7967 122.333 25.4873 122.333 26.29C122.333 26.3833 122.328 26.472 122.319 26.556C122.319 26.64 122.319 26.7333 122.319 26.836H116.509V25.534H120.947L120.429 26.29C120.429 25.4593 120.289 24.8667 120.009 24.512C119.738 24.148 119.356 23.966 118.861 23.966C118.385 23.966 117.998 24.148 117.699 24.512C117.41 24.8667 117.265 25.4593 117.265 26.29C117.265 27.0647 117.414 27.6387 117.713 28.012C118.012 28.376 118.418 28.558 118.931 28.558C119.276 28.558 119.575 28.4787 119.827 28.32C120.079 28.1613 120.266 27.914 120.387 27.578L122.137 28.082C121.941 28.7167 121.558 29.2253 120.989 29.608C120.429 29.9907 119.715 30.182 118.847 30.182ZM132.253 30V25.604C132.253 25.0907 132.131 24.7033 131.889 24.442C131.655 24.1807 131.361 24.05 131.007 24.05C130.652 24.05 130.353 24.1807 130.111 24.442C129.877 24.7033 129.761 25.0907 129.761 25.604H129.215C129.215 24.932 129.317 24.358 129.523 23.882C129.737 23.406 130.036 23.042 130.419 22.79C130.801 22.5287 131.245 22.398 131.749 22.398C132.439 22.398 133.004 22.65 133.443 23.154C133.891 23.6487 134.115 24.3393 134.115 25.226V30H132.253ZM123.559 30V22.58H125.421V30H123.559ZM127.913 30V25.604C127.913 25.0907 127.791 24.7033 127.549 24.442C127.315 24.1807 127.021 24.05 126.667 24.05C126.312 24.05 126.013 24.1807 125.771 24.442C125.537 24.7033 125.421 25.0907 125.421 25.604H125.015C125.015 24.932 125.113 24.358 125.309 23.882C125.514 23.406 125.799 23.042 126.163 22.79C126.536 22.5287 126.961 22.398 127.437 22.398C128.118 22.398 128.673 22.65 129.103 23.154C129.541 23.6487 129.761 24.3393 129.761 25.226V30H127.913ZM138.905 30.182C138.214 30.182 137.598 30.0187 137.057 29.692C136.525 29.3653 136.105 28.9127 135.797 28.334C135.498 27.7553 135.349 27.074 135.349 26.29C135.349 25.506 135.498 24.8247 135.797 24.246C136.105 23.658 136.525 23.2053 137.057 22.888C137.598 22.5613 138.214 22.398 138.905 22.398C139.614 22.398 140.235 22.5613 140.767 22.888C141.299 23.2053 141.714 23.658 142.013 24.246C142.321 24.8247 142.475 25.506 142.475 26.29C142.475 27.074 142.321 27.7553 142.013 28.334C141.714 28.9127 141.299 29.3653 140.767 29.692C140.235 30.0187 139.614 30.182 138.905 30.182ZM138.905 28.516C139.418 28.516 139.82 28.334 140.109 27.97C140.408 27.606 140.557 27.046 140.557 26.29C140.557 25.534 140.408 24.974 140.109 24.61C139.82 24.246 139.418 24.064 138.905 24.064C138.401 24.064 138 24.246 137.701 24.61C137.412 24.974 137.267 25.534 137.267 26.29C137.267 27.046 137.412 27.606 137.701 27.97C138 28.334 138.401 28.516 138.905 28.516ZM145.181 30L142.997 22.58H144.985L147.015 30H145.181ZM146.371 30L148.317 22.58H150.263L148.079 30H146.371ZM154.285 30.182C153.603 30.182 152.997 30.0187 152.465 29.692C151.933 29.3653 151.517 28.9127 151.219 28.334C150.929 27.746 150.785 27.0647 150.785 26.29C150.785 25.4967 150.934 24.8107 151.233 24.232C151.531 23.644 151.947 23.1913 152.479 22.874C153.011 22.5567 153.617 22.398 154.299 22.398C154.98 22.398 155.582 22.5567 156.105 22.874C156.627 23.1913 157.033 23.6393 157.323 24.218C157.621 24.7967 157.771 25.4873 157.771 26.29C157.771 26.3833 157.766 26.472 157.757 26.556C157.757 26.64 157.757 26.7333 157.757 26.836H151.947V25.534H156.385L155.867 26.29C155.867 25.4593 155.727 24.8667 155.447 24.512C155.176 24.148 154.793 23.966 154.299 23.966C153.823 23.966 153.435 24.148 153.137 24.512C152.847 24.8667 152.703 25.4593 152.703 26.29C152.703 27.0647 152.852 27.6387 153.151 28.012C153.449 28.376 153.855 28.558 154.369 28.558C154.714 28.558 155.013 28.4787 155.265 28.32C155.517 28.1613 155.703 27.914 155.825 27.578L157.575 28.082C157.379 28.7167 156.996 29.2253 156.427 29.608C155.867 29.9907 155.153 30.182 154.285 30.182ZM163.201 30L161.017 22.58H163.005L165.035 30H163.201ZM164.391 30L166.337 22.58H168.283L166.099 30H164.391ZM169.168 30V22.58H171.03V30H169.168ZM170.106 21.698C169.817 21.698 169.579 21.6093 169.392 21.432C169.205 21.2453 169.112 21.0027 169.112 20.704C169.112 20.4053 169.205 20.1673 169.392 19.99C169.579 19.8127 169.817 19.724 170.106 19.724C170.386 19.724 170.619 19.8127 170.806 19.99C171.002 20.1673 171.1 20.4053 171.1 20.704C171.1 21.0027 171.002 21.2453 170.806 21.432C170.619 21.6093 170.386 21.698 170.106 21.698ZM175.175 30.182C174.606 30.182 174.102 30.028 173.663 29.72C173.234 29.4027 172.898 28.9547 172.655 28.376C172.422 27.7973 172.305 27.102 172.305 26.29C172.305 25.478 172.422 24.7827 172.655 24.204C172.898 23.6253 173.234 23.182 173.663 22.874C174.102 22.5567 174.606 22.398 175.175 22.398C175.931 22.398 176.538 22.6873 176.995 23.266C177.462 23.8353 177.695 24.652 177.695 25.716V26.864C177.695 27.9187 177.462 28.7353 176.995 29.314C176.538 29.8927 175.931 30.182 175.175 30.182ZM175.833 28.516C176.318 28.516 176.706 28.334 176.995 27.97C177.294 27.606 177.443 27.046 177.443 26.29C177.443 25.534 177.294 24.974 176.995 24.61C176.706 24.246 176.318 24.064 175.833 24.064C175.348 24.064 174.956 24.246 174.657 24.61C174.368 24.974 174.223 25.534 174.223 26.29C174.223 27.046 174.368 27.606 174.657 27.97C174.956 28.334 175.348 28.516 175.833 28.516ZM177.317 30V28.124L177.569 26.29L177.317 24.526V19.99H179.179V30H177.317ZM183.912 30.182C183.23 30.182 182.624 30.0187 182.092 29.692C181.56 29.3653 181.144 28.9127 180.846 28.334C180.556 27.746 180.412 27.0647 180.412 26.29C180.412 25.4967 180.561 24.8107 180.86 24.232C181.158 23.644 181.574 23.1913 182.106 22.874C182.638 22.5567 183.244 22.398 183.926 22.398C184.607 22.398 185.209 22.5567 185.732 22.874C186.254 23.1913 186.66 23.6393 186.95 24.218C187.248 24.7967 187.398 25.4873 187.398 26.29C187.398 26.3833 187.393 26.472 187.384 26.556C187.384 26.64 187.384 26.7333 187.384 26.836H181.574V25.534H186.012L185.494 26.29C185.494 25.4593 185.354 24.8667 185.074 24.512C184.803 24.148 184.42 23.966 183.926 23.966C183.45 23.966 183.062 24.148 182.764 24.512C182.474 24.8667 182.33 25.4593 182.33 26.29C182.33 27.0647 182.479 27.6387 182.778 28.012C183.076 28.376 183.482 28.558 183.996 28.558C184.341 28.558 184.64 28.4787 184.892 28.32C185.144 28.1613 185.33 27.914 185.452 27.578L187.202 28.082C187.006 28.7167 186.623 29.2253 186.054 29.608C185.494 29.9907 184.78 30.182 183.912 30.182ZM191.815 30.182C191.125 30.182 190.509 30.0187 189.967 29.692C189.435 29.3653 189.015 28.9127 188.707 28.334C188.409 27.7553 188.259 27.074 188.259 26.29C188.259 25.506 188.409 24.8247 188.707 24.246C189.015 23.658 189.435 23.2053 189.967 22.888C190.509 22.5613 191.125 22.398 191.815 22.398C192.525 22.398 193.145 22.5613 193.677 22.888C194.209 23.2053 194.625 23.658 194.923 24.246C195.231 24.8247 195.385 25.506 195.385 26.29C195.385 27.074 195.231 27.7553 194.923 28.334C194.625 28.9127 194.209 29.3653 193.677 29.692C193.145 30.0187 192.525 30.182 191.815 30.182ZM191.815 28.516C192.329 28.516 192.73 28.334 193.019 27.97C193.318 27.606 193.467 27.046 193.467 26.29C193.467 25.534 193.318 24.974 193.019 24.61C192.73 24.246 192.329 24.064 191.815 24.064C191.311 24.064 190.91 24.246 190.611 24.61C190.322 24.974 190.177 25.534 190.177 26.29C190.177 27.046 190.322 27.606 190.611 27.97C190.91 28.334 191.311 28.516 191.815 28.516Z" fill="#01040F"/>
</svg>
