<svg width="17" height="17" viewBox="0 0 17 17" fill="none" xmlns="http://www.w3.org/2000/svg">
<rect x="0.463867" y="0.87561" width="15.5658" height="15.5658" rx="7.78291" fill="#EBEDF1"/>
<path fill-rule="evenodd" clip-rule="evenodd" d="M8.24665 8.13475L10.2083 6.17313C10.353 6.02839 10.5877 6.02839 10.7324 6.17313C10.8771 6.31786 10.8771 6.55252 10.7324 6.69725L8.77077 8.65888L10.7324 10.6205C10.8771 10.7652 10.8771 10.9999 10.7324 11.1446C10.5877 11.2894 10.353 11.2894 10.2083 11.1446L8.24665 9.183L6.28502 11.1446C6.14029 11.2894 5.90563 11.2894 5.76089 11.1446C5.61616 10.9999 5.61616 10.7652 5.76089 10.6205L7.72252 8.65888L5.76089 6.69725C5.61616 6.55252 5.61616 6.31786 5.76089 6.17313C5.90563 6.02839 6.14029 6.02839 6.28502 6.17313L8.24665 8.13475Z" fill="#676E7E"/>
</svg>
