<svg width="302" height="50" viewBox="0 0 302 50" fill="none" xmlns="http://www.w3.org/2000/svg">
<rect width="302" height="50" rx="25" fill="#0145FE"/>
<path d="M108.324 26.612V24.806H111.152C111.74 24.806 112.17 24.694 112.44 24.47C112.711 24.246 112.846 23.9147 112.846 23.476C112.846 23.028 112.711 22.6967 112.44 22.482C112.17 22.258 111.74 22.146 111.152 22.146H108.324V20.34H111.292C112.412 20.34 113.28 20.6247 113.896 21.194C114.522 21.754 114.834 22.5147 114.834 23.476C114.834 24.428 114.522 25.1887 113.896 25.758C113.28 26.3273 112.412 26.612 111.292 26.612H108.324ZM107.456 30V20.34H109.402V30H107.456ZM112.874 30L110.312 25.814H112.342L115.072 30H112.874ZM119.203 30.182C118.521 30.182 117.915 30.0187 117.383 29.692C116.851 29.3653 116.435 28.9127 116.137 28.334C115.847 27.746 115.703 27.0647 115.703 26.29C115.703 25.4967 115.852 24.8107 116.151 24.232C116.449 23.644 116.865 23.1913 117.397 22.874C117.929 22.5567 118.535 22.398 119.217 22.398C119.898 22.398 120.5 22.5567 121.023 22.874C121.545 23.1913 121.951 23.6393 122.241 24.218C122.539 24.7967 122.689 25.4873 122.689 26.29C122.689 26.3833 122.684 26.472 122.675 26.556C122.675 26.64 122.675 26.7333 122.675 26.836H116.865V25.534H121.303L120.785 26.29C120.785 25.4593 120.645 24.8667 120.365 24.512C120.094 24.148 119.711 23.966 119.217 23.966C118.741 23.966 118.353 24.148 118.055 24.512C117.765 24.8667 117.621 25.4593 117.621 26.29C117.621 27.0647 117.77 27.6387 118.069 28.012C118.367 28.376 118.773 28.558 119.287 28.558C119.632 28.558 119.931 28.4787 120.183 28.32C120.435 28.1613 120.621 27.914 120.743 27.578L122.493 28.082C122.297 28.7167 121.914 29.2253 121.345 29.608C120.785 29.9907 120.071 30.182 119.203 30.182ZM127.918 30.182C127.162 30.182 126.551 29.8927 126.084 29.314C125.627 28.7353 125.398 27.9187 125.398 26.864V25.716C125.398 24.652 125.627 23.8353 126.084 23.266C126.551 22.6873 127.162 22.398 127.918 22.398C128.497 22.398 129.001 22.5567 129.43 22.874C129.86 23.182 130.196 23.6253 130.438 24.204C130.681 24.7827 130.802 25.478 130.802 26.29C130.802 27.102 130.681 27.7973 130.438 28.376C130.196 28.9547 129.86 29.4027 129.43 29.72C129.001 30.028 128.497 30.182 127.918 30.182ZM123.914 32.45V22.58H125.776V24.456L125.524 26.29L125.776 28.054V32.45H123.914ZM127.26 28.516C127.746 28.516 128.138 28.334 128.436 27.97C128.735 27.606 128.884 27.046 128.884 26.29C128.884 25.534 128.735 24.974 128.436 24.61C128.138 24.246 127.746 24.064 127.26 24.064C126.784 24.064 126.397 24.246 126.098 24.61C125.8 24.974 125.65 25.534 125.65 26.29C125.65 27.046 125.8 27.606 126.098 27.97C126.397 28.334 126.784 28.516 127.26 28.516ZM132.076 30V19.99H133.938V30H132.076ZM139.903 30C139.847 29.7573 139.801 29.51 139.763 29.258C139.735 29.006 139.721 28.7587 139.721 28.516V25.38C139.721 24.8573 139.595 24.4887 139.343 24.274C139.091 24.05 138.788 23.938 138.433 23.938C138.097 23.938 137.808 24.0313 137.565 24.218C137.332 24.3953 137.169 24.6847 137.075 25.086L135.297 24.652C135.503 23.9147 135.89 23.3547 136.459 22.972C137.029 22.5893 137.724 22.398 138.545 22.398C139.488 22.398 140.23 22.65 140.771 23.154C141.313 23.6487 141.583 24.3347 141.583 25.212V28.348C141.583 28.8987 141.653 29.4493 141.793 30H139.903ZM137.369 30.182C136.669 30.182 136.128 29.9907 135.745 29.608C135.372 29.2253 135.185 28.7307 135.185 28.124C135.185 27.5733 135.367 27.088 135.731 26.668C136.105 26.248 136.683 25.9773 137.467 25.856L140.211 25.394V26.626L138.125 27.06C137.724 27.144 137.444 27.27 137.285 27.438C137.127 27.5967 137.047 27.774 137.047 27.97C137.047 28.166 137.113 28.334 137.243 28.474C137.383 28.6047 137.598 28.67 137.887 28.67C138.186 28.67 138.475 28.6047 138.755 28.474C139.035 28.334 139.264 28.1333 139.441 27.872C139.628 27.6013 139.721 27.2793 139.721 26.906H140.197C140.197 27.578 140.071 28.1613 139.819 28.656C139.567 29.1413 139.227 29.5193 138.797 29.79C138.377 30.0513 137.901 30.182 137.369 30.182ZM146.342 30.182C145.651 30.182 145.04 30.0187 144.508 29.692C143.976 29.3653 143.561 28.9127 143.262 28.334C142.963 27.746 142.814 27.0647 142.814 26.29C142.814 25.506 142.963 24.8247 143.262 24.246C143.561 23.6673 143.976 23.2147 144.508 22.888C145.04 22.5613 145.651 22.398 146.342 22.398C147.173 22.398 147.873 22.6173 148.442 23.056C149.021 23.4947 149.403 24.106 149.59 24.89L147.77 25.352C147.677 24.9133 147.509 24.5913 147.266 24.386C147.023 24.1713 146.706 24.064 146.314 24.064C145.847 24.064 145.465 24.2507 145.166 24.624C144.877 24.988 144.732 25.5433 144.732 26.29C144.732 27.0367 144.877 27.5967 145.166 27.97C145.465 28.334 145.847 28.516 146.314 28.516C146.706 28.516 147.028 28.4133 147.28 28.208C147.532 27.9933 147.7 27.6713 147.784 27.242L149.618 27.662C149.431 28.4553 149.044 29.076 148.456 29.524C147.877 29.9627 147.173 30.182 146.342 30.182ZM153.929 30.182C153.248 30.182 152.641 30.0187 152.109 29.692C151.577 29.3653 151.162 28.9127 150.863 28.334C150.574 27.746 150.429 27.0647 150.429 26.29C150.429 25.4967 150.578 24.8107 150.877 24.232C151.176 23.644 151.591 23.1913 152.123 22.874C152.655 22.5567 153.262 22.398 153.943 22.398C154.624 22.398 155.226 22.5567 155.749 22.874C156.272 23.1913 156.678 23.6393 156.967 24.218C157.266 24.7967 157.415 25.4873 157.415 26.29C157.415 26.3833 157.41 26.472 157.401 26.556C157.401 26.64 157.401 26.7333 157.401 26.836H151.591V25.534H156.029L155.511 26.29C155.511 25.4593 155.371 24.8667 155.091 24.512C154.82 24.148 154.438 23.966 153.943 23.966C153.467 23.966 153.08 24.148 152.781 24.512C152.492 24.8667 152.347 25.4593 152.347 26.29C152.347 27.0647 152.496 27.6387 152.795 28.012C153.094 28.376 153.5 28.558 154.013 28.558C154.358 28.558 154.657 28.4787 154.909 28.32C155.161 28.1613 155.348 27.914 155.469 27.578L157.219 28.082C157.023 28.7167 156.64 29.2253 156.071 29.608C155.511 29.9907 154.797 30.182 153.929 30.182ZM162.845 30L160.661 22.58H162.649L164.679 30H162.845ZM164.035 30L165.981 22.58H167.927L165.743 30H164.035ZM168.813 30V22.58H170.675V30H168.813ZM169.751 21.698C169.461 21.698 169.223 21.6093 169.037 21.432C168.85 21.2453 168.757 21.0027 168.757 20.704C168.757 20.4053 168.85 20.1673 169.037 19.99C169.223 19.8127 169.461 19.724 169.751 19.724C170.031 19.724 170.264 19.8127 170.451 19.99C170.647 20.1673 170.745 20.4053 170.745 20.704C170.745 21.0027 170.647 21.2453 170.451 21.432C170.264 21.6093 170.031 21.698 169.751 21.698ZM174.82 30.182C174.25 30.182 173.746 30.028 173.308 29.72C172.878 29.4027 172.542 28.9547 172.3 28.376C172.066 27.7973 171.95 27.102 171.95 26.29C171.95 25.478 172.066 24.7827 172.3 24.204C172.542 23.6253 172.878 23.182 173.308 22.874C173.746 22.5567 174.25 22.398 174.82 22.398C175.576 22.398 176.182 22.6873 176.64 23.266C177.106 23.8353 177.34 24.652 177.34 25.716V26.864C177.34 27.9187 177.106 28.7353 176.64 29.314C176.182 29.8927 175.576 30.182 174.82 30.182ZM175.478 28.516C175.963 28.516 176.35 28.334 176.64 27.97C176.938 27.606 177.088 27.046 177.088 26.29C177.088 25.534 176.938 24.974 176.64 24.61C176.35 24.246 175.963 24.064 175.478 24.064C174.992 24.064 174.6 24.246 174.302 24.61C174.012 24.974 173.868 25.534 173.868 26.29C173.868 27.046 174.012 27.606 174.302 27.97C174.6 28.334 174.992 28.516 175.478 28.516ZM176.962 30V28.124L177.214 26.29L176.962 24.526V19.99H178.824V30H176.962ZM183.556 30.182C182.875 30.182 182.268 30.0187 181.736 29.692C181.204 29.3653 180.789 28.9127 180.49 28.334C180.201 27.746 180.056 27.0647 180.056 26.29C180.056 25.4967 180.205 24.8107 180.504 24.232C180.803 23.644 181.218 23.1913 181.75 22.874C182.282 22.5567 182.889 22.398 183.57 22.398C184.251 22.398 184.853 22.5567 185.376 22.874C185.899 23.1913 186.305 23.6393 186.594 24.218C186.893 24.7967 187.042 25.4873 187.042 26.29C187.042 26.3833 187.037 26.472 187.028 26.556C187.028 26.64 187.028 26.7333 187.028 26.836H181.218V25.534H185.656L185.138 26.29C185.138 25.4593 184.998 24.8667 184.718 24.512C184.447 24.148 184.065 23.966 183.57 23.966C183.094 23.966 182.707 24.148 182.408 24.512C182.119 24.8667 181.974 25.4593 181.974 26.29C181.974 27.0647 182.123 27.6387 182.422 28.012C182.721 28.376 183.127 28.558 183.64 28.558C183.985 28.558 184.284 28.4787 184.536 28.32C184.788 28.1613 184.975 27.914 185.096 27.578L186.846 28.082C186.65 28.7167 186.267 29.2253 185.698 29.608C185.138 29.9907 184.424 30.182 183.556 30.182ZM191.46 30.182C190.769 30.182 190.153 30.0187 189.612 29.692C189.08 29.3653 188.66 28.9127 188.352 28.334C188.053 27.7553 187.904 27.074 187.904 26.29C187.904 25.506 188.053 24.8247 188.352 24.246C188.66 23.658 189.08 23.2053 189.612 22.888C190.153 22.5613 190.769 22.398 191.46 22.398C192.169 22.398 192.79 22.5613 193.322 22.888C193.854 23.2053 194.269 23.658 194.568 24.246C194.876 24.8247 195.03 25.506 195.03 26.29C195.03 27.074 194.876 27.7553 194.568 28.334C194.269 28.9127 193.854 29.3653 193.322 29.692C192.79 30.0187 192.169 30.182 191.46 30.182ZM191.46 28.516C191.973 28.516 192.374 28.334 192.664 27.97C192.962 27.606 193.112 27.046 193.112 26.29C193.112 25.534 192.962 24.974 192.664 24.61C192.374 24.246 191.973 24.064 191.46 24.064C190.956 24.064 190.554 24.246 190.256 24.61C189.966 24.974 189.822 25.534 189.822 26.29C189.822 27.046 189.966 27.606 190.256 27.97C190.554 28.334 190.956 28.516 191.46 28.516Z" fill="white"/>
</svg>
