<svg width="168" height="50" viewBox="0 0 168 50" fill="none" xmlns="http://www.w3.org/2000/svg">
<rect width="168" height="50" rx="25" fill="#F1F5F9"/>
<path d="M55.6365 30.182C54.6285 30.182 53.7885 29.9533 53.1165 29.496C52.4539 29.0387 51.9779 28.362 51.6885 27.466L53.5785 26.836C53.7652 27.396 54.0405 27.8067 54.4045 28.068C54.7685 28.32 55.2165 28.446 55.7485 28.446C56.2992 28.446 56.7145 28.3527 56.9945 28.166C57.2745 27.97 57.4145 27.718 57.4145 27.41C57.4145 27.1207 57.3165 26.8827 57.1205 26.696C56.9245 26.5093 56.6632 26.36 56.3365 26.248C56.0099 26.1267 55.6552 26.0147 55.2725 25.912C54.8899 25.8 54.5072 25.6787 54.1245 25.548C53.7419 25.4173 53.3872 25.2493 53.0605 25.044C52.7339 24.8293 52.4725 24.5587 52.2765 24.232C52.0899 23.896 51.9965 23.476 51.9965 22.972C51.9965 22.4307 52.1365 21.95 52.4165 21.53C52.6965 21.11 53.1072 20.7787 53.6485 20.536C54.1899 20.284 54.8385 20.158 55.5945 20.158C56.5092 20.158 57.2839 20.3773 57.9185 20.816C58.5625 21.2453 59.0152 21.8707 59.2765 22.692L57.4565 23.322C57.2885 22.818 57.0319 22.454 56.6865 22.23C56.3412 21.9967 55.9212 21.88 55.4265 21.88C54.8945 21.88 54.5119 21.978 54.2785 22.174C54.0545 22.3607 53.9425 22.5847 53.9425 22.846C53.9425 23.1073 54.0405 23.3173 54.2365 23.476C54.4325 23.6253 54.6892 23.756 55.0065 23.868C55.3332 23.98 55.6925 24.0873 56.0845 24.19C56.4765 24.2833 56.8639 24.4047 57.2465 24.554C57.6385 24.694 57.9932 24.8807 58.3105 25.114C58.6372 25.338 58.8985 25.6273 59.0945 25.982C59.2905 26.3367 59.3885 26.78 59.3885 27.312C59.3885 27.872 59.2345 28.3667 58.9265 28.796C58.6279 29.2253 58.1985 29.566 57.6385 29.818C57.0879 30.0607 56.4205 30.182 55.6365 30.182ZM65.0351 30C64.9791 29.7573 64.9325 29.51 64.8951 29.258C64.8671 29.006 64.8531 28.7587 64.8531 28.516V25.38C64.8531 24.8573 64.7271 24.4887 64.4751 24.274C64.2231 24.05 63.9198 23.938 63.5651 23.938C63.2291 23.938 62.9398 24.0313 62.6971 24.218C62.4638 24.3953 62.3005 24.6847 62.2071 25.086L60.4291 24.652C60.6345 23.9147 61.0218 23.3547 61.5911 22.972C62.1605 22.5893 62.8558 22.398 63.6771 22.398C64.6198 22.398 65.3618 22.65 65.9031 23.154C66.4445 23.6487 66.7151 24.3347 66.7151 25.212V28.348C66.7151 28.8987 66.7851 29.4493 66.9251 30H65.0351ZM62.5011 30.182C61.8011 30.182 61.2598 29.9907 60.8771 29.608C60.5038 29.2253 60.3171 28.7307 60.3171 28.124C60.3171 27.5733 60.4991 27.088 60.8631 26.668C61.2365 26.248 61.8151 25.9773 62.5991 25.856L65.3431 25.394V26.626L63.2571 27.06C62.8558 27.144 62.5758 27.27 62.4171 27.438C62.2585 27.5967 62.1791 27.774 62.1791 27.97C62.1791 28.166 62.2445 28.334 62.3751 28.474C62.5151 28.6047 62.7298 28.67 63.0191 28.67C63.3178 28.67 63.6071 28.6047 63.8871 28.474C64.1671 28.334 64.3958 28.1333 64.5731 27.872C64.7598 27.6013 64.8531 27.2793 64.8531 26.906H65.3291C65.3291 27.578 65.2031 28.1613 64.9511 28.656C64.6991 29.1413 64.3585 29.5193 63.9291 29.79C63.5091 30.0513 63.0331 30.182 62.5011 30.182ZM69.7797 30L67.5957 22.58H69.5837L71.6137 30H69.7797ZM70.9697 30L72.9157 22.58H74.8617L72.6777 30H70.9697ZM78.8832 30.182C78.2019 30.182 77.5952 30.0187 77.0632 29.692C76.5312 29.3653 76.1159 28.9127 75.8172 28.334C75.5279 27.746 75.3832 27.0647 75.3832 26.29C75.3832 25.4967 75.5326 24.8107 75.8312 24.232C76.1299 23.644 76.5452 23.1913 77.0772 22.874C77.6092 22.5567 78.2159 22.398 78.8972 22.398C79.5786 22.398 80.1806 22.5567 80.7032 22.874C81.2259 23.1913 81.6319 23.6393 81.9212 24.218C82.2199 24.7967 82.3692 25.4873 82.3692 26.29C82.3692 26.3833 82.3646 26.472 82.3552 26.556C82.3552 26.64 82.3552 26.7333 82.3552 26.836H76.5452V25.534H80.9832L80.4652 26.29C80.4652 25.4593 80.3252 24.8667 80.0452 24.512C79.7746 24.148 79.3919 23.966 78.8972 23.966C78.4212 23.966 78.0339 24.148 77.7352 24.512C77.4459 24.8667 77.3012 25.4593 77.3012 26.29C77.3012 27.0647 77.4506 27.6387 77.7492 28.012C78.0479 28.376 78.4539 28.558 78.9672 28.558C79.3126 28.558 79.6112 28.4787 79.8632 28.32C80.1152 28.1613 80.3019 27.914 80.4232 27.578L82.1732 28.082C81.9772 28.7167 81.5946 29.2253 81.0252 29.608C80.4652 29.9907 79.7512 30.182 78.8832 30.182ZM88.8773 30.182C88.3079 30.182 87.8039 30.028 87.3653 29.72C86.9359 29.4027 86.5999 28.9547 86.3573 28.376C86.1239 27.7973 86.0073 27.102 86.0073 26.29C86.0073 25.478 86.1239 24.7827 86.3573 24.204C86.5999 23.6253 86.9359 23.182 87.3653 22.874C87.8039 22.5567 88.3079 22.398 88.8773 22.398C89.6333 22.398 90.2399 22.6873 90.6973 23.266C91.1639 23.8353 91.3973 24.652 91.3973 25.716V26.864C91.3973 27.9187 91.1639 28.7353 90.6973 29.314C90.2399 29.8927 89.6333 30.182 88.8773 30.182ZM89.5353 28.516C90.0206 28.516 90.4079 28.334 90.6973 27.97C90.9959 27.606 91.1453 27.046 91.1453 26.29C91.1453 25.534 90.9959 24.974 90.6973 24.61C90.4079 24.246 90.0206 24.064 89.5353 24.064C89.0499 24.064 88.6579 24.246 88.3593 24.61C88.0699 24.974 87.9253 25.534 87.9253 26.29C87.9253 27.046 88.0699 27.606 88.3593 27.97C88.6579 28.334 89.0499 28.516 89.5353 28.516ZM91.0193 30V28.124L91.2713 26.29L91.0193 24.526V19.99H92.8813V30H91.0193ZM94.4777 30V22.58H96.3397V30H94.4777ZM96.0037 26.472C96.0037 25.6507 96.097 24.9367 96.2837 24.33C96.4704 23.714 96.7597 23.238 97.1517 22.902C97.5437 22.566 98.043 22.398 98.6497 22.398V24.512H97.8377C97.371 24.512 97.0024 24.6333 96.7317 24.876C96.4704 25.1093 96.3397 25.52 96.3397 26.108L96.0037 26.472ZM104.014 30C103.958 29.7573 103.911 29.51 103.874 29.258C103.846 29.006 103.832 28.7587 103.832 28.516V25.38C103.832 24.8573 103.706 24.4887 103.454 24.274C103.202 24.05 102.898 23.938 102.544 23.938C102.208 23.938 101.918 24.0313 101.676 24.218C101.442 24.3953 101.279 24.6847 101.186 25.086L99.4077 24.652C99.613 23.9147 100 23.3547 100.57 22.972C101.139 22.5893 101.834 22.398 102.656 22.398C103.598 22.398 104.34 22.65 104.882 23.154C105.423 23.6487 105.694 24.3347 105.694 25.212V28.348C105.694 28.8987 105.764 29.4493 105.904 30H104.014ZM101.48 30.182C100.78 30.182 100.238 29.9907 99.8557 29.608C99.4823 29.2253 99.2957 28.7307 99.2957 28.124C99.2957 27.5733 99.4777 27.088 99.8417 26.668C100.215 26.248 100.794 25.9773 101.578 25.856L104.322 25.394V26.626L102.236 27.06C101.834 27.144 101.554 27.27 101.396 27.438C101.237 27.5967 101.158 27.774 101.158 27.97C101.158 28.166 101.223 28.334 101.354 28.474C101.494 28.6047 101.708 28.67 101.998 28.67C102.296 28.67 102.586 28.6047 102.866 28.474C103.146 28.334 103.374 28.1333 103.552 27.872C103.738 27.6013 103.832 27.2793 103.832 26.906H104.308C104.308 27.578 104.182 28.1613 103.93 28.656C103.678 29.1413 103.337 29.5193 102.908 29.79C102.488 30.0513 102.012 30.182 101.48 30.182ZM107.582 30V22.426C107.582 21.5487 107.806 20.8953 108.254 20.466C108.712 20.0273 109.342 19.808 110.144 19.808C110.396 19.808 110.625 19.8267 110.83 19.864C111.036 19.892 111.241 19.934 111.446 19.99V21.558C111.288 21.5113 111.129 21.474 110.97 21.446C110.821 21.418 110.658 21.404 110.48 21.404C110.144 21.404 109.883 21.488 109.696 21.656C109.519 21.8147 109.43 22.048 109.43 22.356V30H107.582ZM106.616 24.134V22.58H111.362V24.134H106.616ZM115.024 30.182C114.24 30.182 113.624 29.9627 113.176 29.524C112.728 29.076 112.504 28.4133 112.504 27.536V21.04L114.352 20.676V27.298C114.352 27.69 114.45 27.984 114.646 28.18C114.851 28.376 115.136 28.474 115.5 28.474C115.677 28.474 115.841 28.46 115.99 28.432C116.139 28.3947 116.293 28.3573 116.452 28.32V30C116.237 30.056 116.018 30.098 115.794 30.126C115.57 30.1633 115.313 30.182 115.024 30.182ZM111.538 24.134V22.58H116.382V24.134H111.538Z" fill="#01040F"/>
</svg>
