<svg width="14" height="14" viewBox="0 0 14 14" fill="none" xmlns="http://www.w3.org/2000/svg">
<path d="M12.9763 5.35221C12.9295 5.20397 12.8391 5.07324 12.717 4.97699C12.5949 4.88074 12.4467 4.82341 12.2917 4.81244L8.99673 4.54611L7.72689 1.47268C7.66764 1.32862 7.56692 1.20541 7.43751 1.11871C7.30811 1.03201 7.15586 0.985718 7.00009 0.985718C6.84432 0.985718 6.69207 1.03201 6.56266 1.11871C6.43326 1.20541 6.33254 1.32862 6.27329 1.47268L5.00345 4.54502L1.70853 4.81244C1.55331 4.82349 1.40501 4.88098 1.2829 4.97744C1.16079 5.0739 1.07052 5.20486 1.02384 5.3533C0.975174 5.50135 0.971432 5.66049 1.01309 5.81066C1.05474 5.96083 1.13993 6.09531 1.2579 6.19713L3.77353 8.3633L3.0079 11.6035C2.97198 11.7552 2.98185 11.9141 3.03626 12.0601C3.09068 12.2061 3.1872 12.3327 3.3136 12.4238C3.43844 12.5163 3.58831 12.569 3.74357 12.5748C3.89883 12.5807 4.05223 12.5395 4.18368 12.4567L7.00009 10.7253L9.82087 12.4594C9.95232 12.5422 10.1057 12.5834 10.261 12.5775C10.4162 12.5717 10.5661 12.5191 10.6909 12.4266C10.8174 12.3354 10.9139 12.2088 10.9683 12.0628C11.0227 11.9168 11.0326 11.7579 10.9967 11.6063L10.231 8.36604L12.7423 6.19713C12.8605 6.09522 12.9458 5.96056 12.9874 5.81017C13.0291 5.65977 13.0252 5.5004 12.9763 5.35221ZM12.3124 5.70057L9.6497 7.99744C9.60427 8.03665 9.57045 8.08756 9.55194 8.14464C9.53343 8.20172 9.53092 8.26279 9.5447 8.32119L10.3584 11.755C10.3656 11.7809 10.3644 11.8084 10.3551 11.8336C10.3458 11.8589 10.3288 11.8805 10.3065 11.8956C10.2863 11.9112 10.2618 11.9201 10.2363 11.9211C10.2108 11.922 10.1856 11.915 10.1643 11.901L7.17181 10.0624C7.12015 10.0307 7.06071 10.0139 7.00009 10.0139C6.93947 10.0139 6.88003 10.0307 6.82837 10.0624L3.83587 11.9005C3.81455 11.9145 3.78939 11.9215 3.7639 11.9205C3.73841 11.9195 3.71386 11.9106 3.69368 11.895C3.67092 11.8803 3.65338 11.8589 3.64356 11.8336C3.63373 11.8084 3.63214 11.7807 3.639 11.7545L4.45274 8.32065C4.46652 8.26224 4.46402 8.20117 4.4455 8.14409C4.42699 8.08701 4.39318 8.0361 4.34775 7.9969L1.68501 5.70002C1.66412 5.68301 1.64905 5.65991 1.64189 5.63394C1.63474 5.60796 1.63586 5.58041 1.64509 5.5551C1.65222 5.53015 1.66696 5.50805 1.68725 5.49187C1.70755 5.4757 1.73238 5.46625 1.75829 5.46486L5.25392 5.18268C5.31415 5.17778 5.37186 5.15635 5.42069 5.12075C5.46952 5.08514 5.50757 5.03674 5.53064 4.98088L6.87759 1.72151C6.88698 1.69738 6.90344 1.67665 6.92481 1.66203C6.94618 1.64742 6.97146 1.6396 6.99735 1.6396C7.02324 1.6396 7.04853 1.64742 7.0699 1.66203C7.09127 1.67665 7.10773 1.69738 7.11712 1.72151L8.46407 4.98088C8.48714 5.03674 8.52519 5.08514 8.57402 5.12075C8.62284 5.15635 8.68056 5.17778 8.74079 5.18268L12.2364 5.46486C12.2623 5.46625 12.2872 5.4757 12.3075 5.49187C12.3277 5.50805 12.3425 5.53015 12.3496 5.5551C12.3593 5.58021 12.3609 5.6077 12.3542 5.63377C12.3476 5.65983 12.333 5.68318 12.3124 5.70057Z" fill="black"/>
</svg>
