<svg width="12" height="12" viewBox="0 0 12 12" fill="none" xmlns="http://www.w3.org/2000/svg">
<path d="M9.54448 6.29507C9.46448 6.29507 9.38448 6.27007 9.31448 6.21507C7.29948 4.66007 4.69448 4.66007 2.67948 6.21507C2.51448 6.34007 2.27948 6.31007 2.15448 6.15007C2.02948 5.98507 2.05948 5.75007 2.21948 5.62507C4.51448 3.85007 7.47948 3.85007 9.76947 5.62507C9.93447 5.75007 9.96448 5.98507 9.83448 6.15007C9.76948 6.24507 9.65948 6.29507 9.54448 6.29507Z" fill="#292D32"/>
<path d="M11.0003 4.55507C10.9203 4.55507 10.8403 4.53009 10.7703 4.47509C7.87026 2.23508 4.12526 2.23508 1.23026 4.47509C1.06526 4.60009 0.830261 4.57008 0.705261 4.41008C0.580261 4.24508 0.610256 4.01007 0.770256 3.88507C3.94526 1.43007 8.05026 1.43007 11.2303 3.88507C11.3953 4.01007 11.4253 4.24508 11.2953 4.41008C11.2253 4.50508 11.1103 4.55507 11.0003 4.55507Z" fill="#292D32"/>
<path d="M8.6048 8.12001C8.5248 8.12001 8.44479 8.09501 8.37479 8.04001C6.93479 6.92501 5.06979 6.92501 3.62479 8.04001C3.45979 8.16501 3.22479 8.13502 3.09979 7.97502C2.97479 7.81002 3.00479 7.57501 3.16479 7.45001C4.88479 6.12001 7.10979 6.12001 8.82979 7.45001C8.99479 7.57501 9.02479 7.81002 8.89479 7.97502C8.82479 8.07002 8.7148 8.12001 8.6048 8.12001Z" fill="#292D32"/>
<path d="M7.30058 9.94999C7.22058 9.94999 7.14057 9.92499 7.07057 9.86999C6.42057 9.36499 5.57558 9.36499 4.92558 9.86999C4.76058 9.99499 4.52557 9.96498 4.40057 9.80498C4.27557 9.63998 4.30557 9.40499 4.46557 9.27999C5.39557 8.55999 6.59557 8.55999 7.52557 9.27999C7.69057 9.40499 7.72057 9.63998 7.59057 9.80498C7.52557 9.89498 7.41558 9.94999 7.30058 9.94999Z" fill="#292D32"/>
</svg>
