<svg width="60" height="12" viewBox="0 0 60 12" fill="none" xmlns="http://www.w3.org/2000/svg">
<path d="M10.9823 5.38355L8.87294 7.2037L9.5156 9.92574C9.55105 10.0735 9.54192 10.2285 9.48936 10.371C9.43679 10.5136 9.34315 10.6374 9.22025 10.7268C9.09736 10.8162 8.95074 10.8672 8.7989 10.8732C8.64706 10.8793 8.49682 10.8403 8.36716 10.761L5.99997 9.30417L3.63138 10.761C3.50173 10.8398 3.35168 10.8785 3.2001 10.8722C3.04852 10.8659 2.9022 10.8148 2.77957 10.7255C2.65693 10.6362 2.56346 10.5126 2.51093 10.3703C2.45839 10.228 2.44914 10.0733 2.48435 9.92574L3.12935 7.2037L1.01997 5.38355C0.905267 5.28441 0.822311 5.15368 0.781463 5.00768C0.740615 4.86168 0.743685 4.70688 0.79029 4.56261C0.836896 4.41834 0.924971 4.29101 1.04352 4.1965C1.16206 4.10199 1.30582 4.0445 1.45685 4.0312L4.22247 3.80808L5.28935 1.2262C5.34709 1.08549 5.44538 0.965133 5.57171 0.880425C5.69804 0.795717 5.8467 0.750488 5.9988 0.750488C6.1509 0.750488 6.29956 0.795717 6.42589 0.880425C6.55222 0.965133 6.65051 1.08549 6.70825 1.2262L7.77466 3.80808L10.5403 4.0312C10.6916 4.044 10.8358 4.10117 10.9548 4.19555C11.0737 4.28993 11.1622 4.41732 11.2091 4.56176C11.256 4.7062 11.2592 4.86127 11.2184 5.00754C11.1775 5.15381 11.0944 5.28477 10.9795 5.38402L10.9823 5.38355Z" fill="#EAB308"/>
<path d="M22.9823 5.38355L20.8729 7.2037L21.5156 9.92574C21.5511 10.0735 21.5419 10.2285 21.4894 10.371C21.4368 10.5136 21.3431 10.6374 21.2203 10.7268C21.0974 10.8162 20.9507 10.8672 20.7989 10.8732C20.6471 10.8793 20.4968 10.8403 20.3672 10.761L18 9.30417L15.6314 10.761C15.5017 10.8398 15.3517 10.8785 15.2001 10.8722C15.0485 10.8659 14.9022 10.8148 14.7796 10.7255C14.6569 10.6362 14.5635 10.5126 14.5109 10.3703C14.4584 10.228 14.4491 10.0733 14.4843 9.92574L15.1293 7.2037L13.02 5.38355C12.9053 5.28441 12.8223 5.15368 12.7815 5.00768C12.7406 4.86168 12.7437 4.70688 12.7903 4.56261C12.8369 4.41834 12.925 4.29101 13.0435 4.1965C13.1621 4.10199 13.3058 4.0445 13.4568 4.0312L16.2225 3.80808L17.2893 1.2262C17.3471 1.08549 17.4454 0.965133 17.5717 0.880425C17.698 0.795717 17.8467 0.750488 17.9988 0.750488C18.1509 0.750488 18.2996 0.795717 18.4259 0.880425C18.5522 0.965133 18.6505 1.08549 18.7083 1.2262L19.7747 3.80808L22.5403 4.0312C22.6916 4.044 22.8358 4.10117 22.9548 4.19555C23.0737 4.28993 23.1622 4.41732 23.2091 4.56176C23.256 4.7062 23.2592 4.86127 23.2184 5.00754C23.1775 5.15381 23.0944 5.28477 22.9795 5.38402L22.9823 5.38355Z" fill="#EAB308"/>
<path d="M34.9823 5.38355L32.8729 7.2037L33.5156 9.92574C33.5511 10.0735 33.5419 10.2285 33.4894 10.371C33.4368 10.5136 33.3431 10.6374 33.2203 10.7268C33.0974 10.8162 32.9507 10.8672 32.7989 10.8732C32.6471 10.8793 32.4968 10.8403 32.3672 10.761L30 9.30417L27.6314 10.761C27.5017 10.8398 27.3517 10.8785 27.2001 10.8722C27.0485 10.8659 26.9022 10.8148 26.7796 10.7255C26.6569 10.6362 26.5635 10.5126 26.5109 10.3703C26.4584 10.228 26.4491 10.0733 26.4843 9.92574L27.1293 7.2037L25.02 5.38355C24.9053 5.28441 24.8223 5.15368 24.7815 5.00768C24.7406 4.86168 24.7437 4.70688 24.7903 4.56261C24.8369 4.41834 24.925 4.29101 25.0435 4.1965C25.1621 4.10199 25.3058 4.0445 25.4568 4.0312L28.2225 3.80808L29.2893 1.2262C29.3471 1.08549 29.4454 0.965133 29.5717 0.880425C29.698 0.795717 29.8467 0.750488 29.9988 0.750488C30.1509 0.750488 30.2996 0.795717 30.4259 0.880425C30.5522 0.965133 30.6505 1.08549 30.7083 1.2262L31.7747 3.80808L34.5403 4.0312C34.6916 4.044 34.8358 4.10117 34.9548 4.19555C35.0737 4.28993 35.1622 4.41732 35.2091 4.56176C35.256 4.7062 35.2592 4.86127 35.2184 5.00754C35.1775 5.15381 35.0944 5.28477 34.9795 5.38402L34.9823 5.38355Z" fill="#EAB308"/>
<path d="M46.9823 5.38355L44.8729 7.2037L45.5156 9.92574C45.5511 10.0735 45.5419 10.2285 45.4894 10.371C45.4368 10.5136 45.3431 10.6374 45.2203 10.7268C45.0974 10.8162 44.9507 10.8672 44.7989 10.8732C44.6471 10.8793 44.4968 10.8403 44.3672 10.761L42 9.30417L39.6314 10.761C39.5017 10.8398 39.3517 10.8785 39.2001 10.8722C39.0485 10.8659 38.9022 10.8148 38.7796 10.7255C38.6569 10.6362 38.5635 10.5126 38.5109 10.3703C38.4584 10.228 38.4491 10.0733 38.4843 9.92574L39.1293 7.2037L37.02 5.38355C36.9053 5.28441 36.8223 5.15368 36.7815 5.00768C36.7406 4.86168 36.7437 4.70688 36.7903 4.56261C36.8369 4.41834 36.925 4.29101 37.0435 4.1965C37.1621 4.10199 37.3058 4.0445 37.4568 4.0312L40.2225 3.80808L41.2893 1.2262C41.3471 1.08549 41.4454 0.965133 41.5717 0.880425C41.698 0.795717 41.8467 0.750488 41.9988 0.750488C42.1509 0.750488 42.2996 0.795717 42.4259 0.880425C42.5522 0.965133 42.6505 1.08549 42.7083 1.2262L43.7747 3.80808L46.5403 4.0312C46.6916 4.044 46.8358 4.10117 46.9548 4.19555C47.0737 4.28993 47.1622 4.41732 47.2091 4.56176C47.256 4.7062 47.2592 4.86127 47.2184 5.00754C47.1775 5.15381 47.0944 5.28477 46.9795 5.38402L46.9823 5.38355Z" fill="#EAB308"/>
<path d="M59.2117 4.559C59.1648 4.41487 59.0763 4.28784 58.9574 4.19391C58.8384 4.09999 58.6944 4.04337 58.5433 4.03118L55.7777 3.80806L54.7098 1.22572C54.6521 1.08501 54.5538 0.964645 54.4275 0.879937C54.3012 0.795229 54.1525 0.75 54.0004 0.75C53.8483 0.75 53.6996 0.795229 53.5733 0.879937C53.447 0.964645 53.3487 1.08501 53.2909 1.22572L52.2241 3.80759L49.457 4.03118C49.3057 4.04398 49.1615 4.10115 49.0425 4.19553C48.9236 4.28991 48.8351 4.4173 48.7882 4.56174C48.7413 4.70618 48.7381 4.86125 48.7789 5.00752C48.8198 5.15379 48.9029 5.28475 49.0178 5.384L51.1272 7.20415L50.4845 9.92572C50.4491 10.0735 50.4582 10.2284 50.5108 10.371C50.5633 10.5136 50.657 10.6374 50.7799 10.7268C50.9028 10.8162 51.0494 10.8671 51.2012 10.8732C51.3531 10.8793 51.5033 10.8403 51.633 10.761L54.0002 9.30415L56.3687 10.761C56.4984 10.8398 56.6484 10.8785 56.8 10.8722C56.9516 10.8659 57.0979 10.8148 57.2206 10.7255C57.3432 10.6362 57.4367 10.5126 57.4892 10.3703C57.5417 10.228 57.551 10.0733 57.5158 9.92572L56.8708 7.20368L58.9802 5.38353C59.096 5.28445 59.1799 5.1532 59.2211 5.00642C59.2623 4.85964 59.2591 4.70392 59.2117 4.559ZM58.4927 4.8154L56.2098 6.78415C56.1578 6.82903 56.1191 6.88734 56.0979 6.95273C56.0767 7.01812 56.0739 7.08807 56.0898 7.15493L56.7873 10.0987C56.7891 10.1027 56.7893 10.1073 56.7878 10.1115C56.7864 10.1157 56.7833 10.1192 56.7794 10.1212C56.7709 10.1277 56.7686 10.1263 56.7616 10.1212L54.1966 8.54384C54.1374 8.50777 54.0694 8.48879 54.0002 8.489V1.49993C54.0114 1.49993 54.0128 1.50368 54.0166 1.51212L55.172 4.30587C55.1984 4.36973 55.2419 4.42506 55.2977 4.46576C55.3536 4.50645 55.4196 4.53093 55.4884 4.5365L58.4842 4.77837C58.4917 4.77837 58.4959 4.77837 58.5002 4.79197C58.5044 4.80556 58.5002 4.81072 58.4927 4.8154Z" fill="#EAB308"/>
</svg>
