<svg width="25" height="24" viewBox="0 0 25 24" fill="none" xmlns="http://www.w3.org/2000/svg">
<circle cx="3.40426" cy="3.40426" r="3.40426" transform="matrix(-1 0 0 1 16.1172 5)" stroke="#0145FE" stroke-width="1.5"/>
<path d="M6.75586 16.8594C6.75586 16.1272 7.21616 15.474 7.90572 15.2277V15.2277C11.0146 14.1174 14.412 14.1174 17.5209 15.2277V15.2277C18.2105 15.474 18.6708 16.1272 18.6708 16.8594V17.979C18.6708 18.9896 17.7757 19.7659 16.7753 19.6229L16.4417 19.5753C13.9687 19.222 11.458 19.222 8.98491 19.5753L8.65136 19.6229C7.65093 19.7659 6.75586 18.9896 6.75586 17.979V16.8594Z" stroke="#0145FE" stroke-width="1.5"/>
<path d="M17.8174 11.9026C19.2947 11.9026 20.4922 10.7051 20.4922 9.22787C20.4922 7.75064 19.2947 6.5531 17.8174 6.5531" stroke="#0145FE" stroke-width="1.5" stroke-linecap="round"/>
<path d="M20.7471 18.0051L21.0092 18.0425C21.7952 18.1548 22.4985 17.5448 22.4985 16.7508V15.8711C22.4985 15.2958 22.1368 14.7826 21.595 14.5891C21.0546 14.3961 20.503 14.2458 19.9453 14.1382" stroke="#0145FE" stroke-width="1.5" stroke-linecap="round"/>
<path d="M7.18258 11.9026C5.70535 11.9026 4.50781 10.7051 4.50781 9.22787C4.50781 7.75064 5.70535 6.5531 7.18258 6.5531" stroke="#0145FE" stroke-width="1.5" stroke-linecap="round"/>
<path d="M4.25289 18.0051L3.99082 18.0425C3.20476 18.1548 2.5015 17.5448 2.5015 16.7508V15.8711C2.5015 15.2958 2.86316 14.7826 3.40496 14.5891C3.94541 14.3961 4.49696 14.2458 5.05469 14.1382" stroke="#0145FE" stroke-width="1.5" stroke-linecap="round"/>
</svg>
