<svg width="25" height="24" viewBox="0 0 25 24" fill="none" xmlns="http://www.w3.org/2000/svg">
<path d="M2.73903 20.0292L2.03188 19.7793H2.03188L2.73903 20.0292ZM4.27027 21.5605L4.52015 22.2676H4.52015L4.27027 21.5605ZM7.65817 20.7518L7.29451 21.4077L7.65817 20.7518ZM3.60104 16.5662L4.26804 16.2233L3.60104 16.5662ZM3.66731 17.4022L4.37446 17.6521L3.66731 17.4022ZM3.25 12C3.25 6.89137 7.39137 2.75 12.5 2.75V1.25C6.56294 1.25 1.75 6.06294 1.75 12H3.25ZM4.26804 16.2233C3.61751 14.9581 3.25 13.523 3.25 12H1.75C1.75 13.7671 2.17697 15.4367 2.93404 16.9092L4.26804 16.2233ZM3.44618 20.2791L4.37446 17.6521L2.96016 17.1523L2.03188 19.7793L3.44618 20.2791ZM4.02039 20.8533C3.66372 20.9793 3.32014 20.6358 3.44618 20.2791L2.03188 19.7793C1.48573 21.3249 2.97455 22.8138 4.52015 22.2676L4.02039 20.8533ZM6.54298 19.9619L4.02039 20.8533L4.52015 22.2676L7.04274 21.3762L6.54298 19.9619ZM12.5 21.25C10.8739 21.25 9.34798 20.8311 8.02184 20.0958L7.29451 21.4077C8.83751 22.2632 10.613 22.75 12.5 22.75V21.25ZM21.75 12C21.75 17.1086 17.6086 21.25 12.5 21.25V22.75C18.4371 22.75 23.25 17.9371 23.25 12H21.75ZM12.5 2.75C17.6086 2.75 21.75 6.89137 21.75 12H23.25C23.25 6.06294 18.4371 1.25 12.5 1.25V2.75ZM7.04274 21.3762C7.10823 21.3531 7.2001 21.3554 7.29451 21.4077L8.02184 20.0958C7.58623 19.8543 7.04889 19.7832 6.54298 19.9619L7.04274 21.3762ZM2.93404 16.9092C2.9814 17.0013 2.98243 17.0893 2.96016 17.1523L4.37446 17.6521C4.54633 17.1657 4.48714 16.6494 4.26804 16.2233L2.93404 16.9092Z" fill="#0145FE"/>
<circle cx="7.5498" cy="12.0498" r="1.25" fill="#0145FE"/>
<circle cx="12.5498" cy="12.0498" r="1.25" fill="#0145FE"/>
<circle cx="17.5498" cy="12.0498" r="1.25" fill="#0145FE"/>
</svg>
