<svg width="10" height="10" viewBox="0 0 10 10" fill="none" xmlns="http://www.w3.org/2000/svg">
<path d="M5 5H6.5C7.29565 5 8.05871 4.68393 8.62132 4.12132C9.18393 3.55871 9.5 2.79565 9.5 2V1.5H8C7.20435 1.5 6.44129 1.81607 5.87868 2.37868C5.31607 2.94129 5 3.70435 5 4.5H3.5C2.70435 4.5 1.94129 4.18393 1.37868 3.62132C0.816071 3.05871 0.5 2.29565 0.5 1.5V0.5H2C2.79565 0.5 3.55871 0.816071 4.12132 1.37868C4.68393 1.94129 5 2.70435 5 3.5V6.5M2.5 6.5H7.5V8.5C7.5 8.76522 7.39464 9.01957 7.20711 9.20711C7.01957 9.39464 6.76522 9.5 6.5 9.5H3.5C3.23478 9.5 2.98043 9.39464 2.79289 9.20711C2.60536 9.01957 2.5 8.76522 2.5 8.5V6.5Z" stroke="#EAB308" stroke-linecap="round" stroke-linejoin="round"/>
</svg>
