<svg width="41" height="41" viewBox="0 0 41 41" fill="none" xmlns="http://www.w3.org/2000/svg">
<rect width="41" height="41" rx="20.5" fill="#F1F5F9"/>
<path d="M13.0459 23.1884H12.347H13.0459ZM15.5925 26.1686L15.6885 25.4764H15.6885L15.5925 26.1686ZM25.0843 26.1686L25.1803 26.8608L25.0843 26.1686ZM13.4806 21.6062L12.8803 21.2483L13.4806 21.6062ZM15.3653 16.8537C15.3653 14.1071 17.5918 11.8806 20.3383 11.8806V10.4829C16.8199 10.4829 13.9675 13.3352 13.9675 16.8537H15.3653ZM15.3653 18.8036V16.8537H13.9675V18.8036H15.3653ZM13.7448 23.1884C13.7448 22.7397 13.8675 22.3219 14.0808 21.9642L12.8803 21.2483C12.5415 21.8164 12.347 22.4808 12.347 23.1884H13.7448ZM15.6885 25.4764C14.5706 25.3214 13.7448 24.3495 13.7448 23.1884H12.347C12.347 25.0144 13.6554 26.6055 15.4965 26.8608L15.6885 25.4764ZM20.3384 25.8784C18.9481 25.8784 17.152 25.6793 15.6885 25.4764L15.4965 26.8608C16.9713 27.0653 18.8468 27.2761 20.3384 27.2761V25.8784ZM24.9883 25.4764C23.5248 25.6793 21.7286 25.8784 20.3384 25.8784V27.2761C21.83 27.2761 23.7054 27.0653 25.1803 26.8608L24.9883 25.4764ZM26.932 23.1884C26.932 24.3495 26.1062 25.3214 24.9883 25.4764L25.1803 26.8608C27.0214 26.6055 28.3297 25.0144 28.3297 23.1884H26.932ZM26.596 21.9642C26.8093 22.3219 26.932 22.7397 26.932 23.1884H28.3297C28.3297 22.4807 28.1353 21.8164 27.7964 21.2483L26.596 21.9642ZM25.3114 16.8537V18.8035H26.7091V16.8537H25.3114ZM20.3383 11.8806C23.0849 11.8806 25.3114 14.1071 25.3114 16.8537H26.7091C26.7091 13.3352 23.8568 10.4829 20.3383 10.4829V11.8806ZM27.7964 21.2483C27.5086 20.7656 27.2472 20.3789 27.0316 19.947C26.8252 19.5335 26.7091 19.1646 26.7091 18.8035H25.3114C25.3114 19.4678 25.5258 20.0599 25.781 20.5713C26.0271 21.0643 26.3586 21.5662 26.596 21.9642L27.7964 21.2483ZM13.9675 18.8036C13.9675 19.1647 13.8515 19.5336 13.6451 19.9471C13.4296 20.3789 13.1681 20.7657 12.8803 21.2483L14.0808 21.9642C14.3181 21.5662 14.6496 21.0643 14.8957 20.5713C15.1509 20.06 15.3653 19.4678 15.3653 18.8036H13.9675Z" fill="#64748B"/>
<path d="M22.3638 28.7316C21.9283 29.3865 21.1836 29.8182 20.3381 29.8182C19.4926 29.8182 18.7479 29.3865 18.3124 28.7316" stroke="#64748B" stroke-width="1.39773" stroke-linecap="round"/>
</svg>
