<svg width="12" height="12" viewBox="0 0 12 12" fill="none" xmlns="http://www.w3.org/2000/svg">
<mask id="path-1-outside-1_267_20591" maskUnits="userSpaceOnUse" x="0" y="1" width="12" height="10" fill="black">
<rect fill="white" y="1" width="12" height="10"/>
<path d="M11 2.808V9.1925C11 9.4145 10.9208 9.6045 10.7625 9.7625C10.6042 9.9205 10.4142 9.99967 10.1925 10H8.25C8.179 10 8.11967 9.976 8.072 9.928C8.02433 9.88 8.00033 9.8205 8 9.7495C7.99967 9.6785 8.02367 9.61917 8.072 9.5715C8.12033 9.52383 8.17967 9.5 8.25 9.5H10.1925C10.2822 9.5 10.3558 9.47117 10.4135 9.4135C10.4712 9.35583 10.5 9.28217 10.5 9.1925V2.8075C10.5 2.71783 10.4712 2.64417 10.4135 2.5865C10.3558 2.52883 10.2822 2.5 10.1925 2.5H6C5.91 2.5 5.83633 2.52883 5.779 2.5865C5.72133 2.64417 5.6925 2.718 5.6925 2.808V3.3945C5.6925 3.46517 5.6685 3.5245 5.6205 3.5725C5.5725 3.6205 5.513 3.6445 5.442 3.6445C5.371 3.6445 5.31167 3.6205 5.264 3.5725C5.21633 3.5245 5.19233 3.46517 5.192 3.3945V2.802C5.192 2.58267 5.271 2.39417 5.429 2.2365C5.58633 2.07883 5.77467 2 5.994 2H10.1925C10.4145 2 10.6045 2.07917 10.7625 2.2375C10.9205 2.39583 10.9997 2.58583 11 2.8075M1 6.167C1 6.03867 1.0295 5.915 1.0885 5.796C1.1475 5.67667 1.23083 5.58083 1.3385 5.5085L3.531 3.9515C3.60567 3.8985 3.682 3.8605 3.76 3.8375C3.838 3.81417 3.91767 3.8025 3.999 3.8025C4.08033 3.8025 4.16033 3.81417 4.239 3.8375C4.31767 3.86083 4.39433 3.89883 4.469 3.9515L6.6615 5.5085C6.76917 5.58083 6.8525 5.67667 6.9115 5.796C6.9705 5.915 7 6.03867 7 6.167V9.193C7 9.415 6.92083 9.605 6.7625 9.763C6.60417 9.921 6.41417 10.0002 6.1925 10.0005H5.4425C5.22017 10.0005 5.03 9.92133 4.872 9.763C4.714 9.60467 4.63483 9.41467 4.6345 9.193V7.75H3.3655V9.1925C3.3655 9.4145 3.28633 9.6045 3.128 9.7625C2.96967 9.9205 2.77967 9.99967 2.558 10H1.808C1.58567 10 1.3955 9.92083 1.2375 9.7625C1.0795 9.60417 1.00033 9.41433 1 9.193V6.167ZM1.5 6.164V9.193C1.5 9.28267 1.52883 9.35633 1.5865 9.414C1.64417 9.47167 1.718 9.5005 1.808 9.5005H2.558C2.64767 9.5005 2.72133 9.47167 2.779 9.414C2.83667 9.35633 2.8655 9.28267 2.8655 9.193V7.7695C2.8655 7.62283 2.91533 7.49967 3.015 7.4C3.11467 7.30033 3.238 7.2505 3.385 7.2505H4.615C4.762 7.2505 4.88533 7.30033 4.985 7.4C5.08467 7.49967 5.13467 7.623 5.135 7.77V9.1925C5.135 9.2825 5.16367 9.35633 5.221 9.414C5.27867 9.47167 5.35233 9.5005 5.442 9.5005H6.192C6.282 9.5005 6.35583 9.47167 6.4135 9.414C6.47117 9.35633 6.5 9.2825 6.5 9.1925V6.164C6.5 6.11267 6.48883 6.0645 6.4665 6.0195C6.44417 5.9745 6.4105 5.93617 6.3655 5.9045L4.173 4.3695C4.12167 4.33117 4.064 4.312 4 4.312C3.936 4.312 3.87833 4.33133 3.827 4.37L1.6345 5.9045C1.58983 5.9365 1.55617 5.97483 1.5335 6.0195C1.51117 6.0645 1.5 6.11267 1.5 6.164ZM8.8175 4.385H9.1825C9.2365 4.385 9.28367 4.36467 9.324 4.324C9.36434 4.28367 9.3845 4.2365 9.3845 4.1825V3.8175C9.3845 3.7635 9.36434 3.71633 9.324 3.676C9.28367 3.63567 9.2365 3.6155 9.1825 3.6155H8.8175C8.7635 3.6155 8.71633 3.63567 8.676 3.676C8.63567 3.71633 8.6155 3.76333 8.6155 3.817V4.1825C8.6155 4.2365 8.63567 4.28367 8.676 4.324C8.71633 4.36433 8.7635 4.3845 8.8175 4.3845M8.8175 6.3845H9.1825C9.2365 6.3845 9.28367 6.36433 9.324 6.324C9.36434 6.28367 9.3845 6.2365 9.3845 6.1825V5.8175C9.3845 5.7635 9.36434 5.71633 9.324 5.676C9.28367 5.63567 9.2365 5.6155 9.1825 5.6155H8.8175C8.7635 5.6155 8.71633 5.63567 8.676 5.676C8.63567 5.71633 8.6155 5.76333 8.6155 5.817V6.1825C8.6155 6.2365 8.63567 6.28367 8.676 6.324C8.71633 6.36433 8.7635 6.3845 8.8175 6.3845ZM8.8175 8.3845H9.1825C9.2365 8.3845 9.28367 8.36433 9.324 8.324C9.36434 8.28367 9.3845 8.2365 9.3845 8.1825V7.8175C9.3845 7.7635 9.36434 7.71633 9.324 7.676C9.28367 7.63567 9.2365 7.6155 9.1825 7.6155H8.8175C8.7635 7.6155 8.71633 7.63567 8.676 7.676C8.63567 7.71633 8.6155 7.7635 8.6155 7.8175V8.1825C8.6155 8.2365 8.63567 8.28367 8.676 8.324C8.71633 8.36433 8.7635 8.3845 8.8175 8.3845Z"/>
</mask>
<path d="M11 2.808V9.1925C11 9.4145 10.9208 9.6045 10.7625 9.7625C10.6042 9.9205 10.4142 9.99967 10.1925 10H8.25C8.179 10 8.11967 9.976 8.072 9.928C8.02433 9.88 8.00033 9.8205 8 9.7495C7.99967 9.6785 8.02367 9.61917 8.072 9.5715C8.12033 9.52383 8.17967 9.5 8.25 9.5H10.1925C10.2822 9.5 10.3558 9.47117 10.4135 9.4135C10.4712 9.35583 10.5 9.28217 10.5 9.1925V2.8075C10.5 2.71783 10.4712 2.64417 10.4135 2.5865C10.3558 2.52883 10.2822 2.5 10.1925 2.5H6C5.91 2.5 5.83633 2.52883 5.779 2.5865C5.72133 2.64417 5.6925 2.718 5.6925 2.808V3.3945C5.6925 3.46517 5.6685 3.5245 5.6205 3.5725C5.5725 3.6205 5.513 3.6445 5.442 3.6445C5.371 3.6445 5.31167 3.6205 5.264 3.5725C5.21633 3.5245 5.19233 3.46517 5.192 3.3945V2.802C5.192 2.58267 5.271 2.39417 5.429 2.2365C5.58633 2.07883 5.77467 2 5.994 2H10.1925C10.4145 2 10.6045 2.07917 10.7625 2.2375C10.9205 2.39583 10.9997 2.58583 11 2.8075M1 6.167C1 6.03867 1.0295 5.915 1.0885 5.796C1.1475 5.67667 1.23083 5.58083 1.3385 5.5085L3.531 3.9515C3.60567 3.8985 3.682 3.8605 3.76 3.8375C3.838 3.81417 3.91767 3.8025 3.999 3.8025C4.08033 3.8025 4.16033 3.81417 4.239 3.8375C4.31767 3.86083 4.39433 3.89883 4.469 3.9515L6.6615 5.5085C6.76917 5.58083 6.8525 5.67667 6.9115 5.796C6.9705 5.915 7 6.03867 7 6.167V9.193C7 9.415 6.92083 9.605 6.7625 9.763C6.60417 9.921 6.41417 10.0002 6.1925 10.0005H5.4425C5.22017 10.0005 5.03 9.92133 4.872 9.763C4.714 9.60467 4.63483 9.41467 4.6345 9.193V7.75H3.3655V9.1925C3.3655 9.4145 3.28633 9.6045 3.128 9.7625C2.96967 9.9205 2.77967 9.99967 2.558 10H1.808C1.58567 10 1.3955 9.92083 1.2375 9.7625C1.0795 9.60417 1.00033 9.41433 1 9.193V6.167ZM1.5 6.164V9.193C1.5 9.28267 1.52883 9.35633 1.5865 9.414C1.64417 9.47167 1.718 9.5005 1.808 9.5005H2.558C2.64767 9.5005 2.72133 9.47167 2.779 9.414C2.83667 9.35633 2.8655 9.28267 2.8655 9.193V7.7695C2.8655 7.62283 2.91533 7.49967 3.015 7.4C3.11467 7.30033 3.238 7.2505 3.385 7.2505H4.615C4.762 7.2505 4.88533 7.30033 4.985 7.4C5.08467 7.49967 5.13467 7.623 5.135 7.77V9.1925C5.135 9.2825 5.16367 9.35633 5.221 9.414C5.27867 9.47167 5.35233 9.5005 5.442 9.5005H6.192C6.282 9.5005 6.35583 9.47167 6.4135 9.414C6.47117 9.35633 6.5 9.2825 6.5 9.1925V6.164C6.5 6.11267 6.48883 6.0645 6.4665 6.0195C6.44417 5.9745 6.4105 5.93617 6.3655 5.9045L4.173 4.3695C4.12167 4.33117 4.064 4.312 4 4.312C3.936 4.312 3.87833 4.33133 3.827 4.37L1.6345 5.9045C1.58983 5.9365 1.55617 5.97483 1.5335 6.0195C1.51117 6.0645 1.5 6.11267 1.5 6.164ZM8.8175 4.385H9.1825C9.2365 4.385 9.28367 4.36467 9.324 4.324C9.36434 4.28367 9.3845 4.2365 9.3845 4.1825V3.8175C9.3845 3.7635 9.36434 3.71633 9.324 3.676C9.28367 3.63567 9.2365 3.6155 9.1825 3.6155H8.8175C8.7635 3.6155 8.71633 3.63567 8.676 3.676C8.63567 3.71633 8.6155 3.76333 8.6155 3.817V4.1825C8.6155 4.2365 8.63567 4.28367 8.676 4.324C8.71633 4.36433 8.7635 4.3845 8.8175 4.3845M8.8175 6.3845H9.1825C9.2365 6.3845 9.28367 6.36433 9.324 6.324C9.36434 6.28367 9.3845 6.2365 9.3845 6.1825V5.8175C9.3845 5.7635 9.36434 5.71633 9.324 5.676C9.28367 5.63567 9.2365 5.6155 9.1825 5.6155H8.8175C8.7635 5.6155 8.71633 5.63567 8.676 5.676C8.63567 5.71633 8.6155 5.76333 8.6155 5.817V6.1825C8.6155 6.2365 8.63567 6.28367 8.676 6.324C8.71633 6.36433 8.7635 6.3845 8.8175 6.3845ZM8.8175 8.3845H9.1825C9.2365 8.3845 9.28367 8.36433 9.324 8.324C9.36434 8.28367 9.3845 8.2365 9.3845 8.1825V7.8175C9.3845 7.7635 9.36434 7.71633 9.324 7.676C9.28367 7.63567 9.2365 7.6155 9.1825 7.6155H8.8175C8.7635 7.6155 8.71633 7.63567 8.676 7.676C8.63567 7.71633 8.6155 7.7635 8.6155 7.8175V8.1825C8.6155 8.2365 8.63567 8.28367 8.676 8.324C8.71633 8.36433 8.7635 8.3845 8.8175 8.3845Z" fill="#16A34A"/>
<path d="M5.135 7.25H5.235V7.15H5.135V7.25ZM2.865 7.25V7.15H2.765V7.25H2.865ZM5.235 9.5V7.25H5.035V9.5H5.235ZM5.135 7.15H2.865V7.35H5.135V7.15ZM2.765 7.25V9.5H2.965V7.25H2.765ZM10.1925 10V10.2H10.1928L10.1925 10ZM10.5 9.1925H10.3H10.5ZM5.779 2.5865L5.92042 2.72792L5.92083 2.72751L5.779 2.5865ZM5.192 3.3945H4.992L4.992 3.39544L5.192 3.3945ZM5.429 2.2365L5.57027 2.37807L5.57057 2.37777L5.429 2.2365ZM1.0885 5.796L1.26769 5.88484L1.26778 5.88464L1.0885 5.796ZM1.3385 5.5085L1.45007 5.67457L1.4543 5.67157L1.3385 5.5085ZM3.531 3.9515L3.41524 3.78841L3.4152 3.78843L3.531 3.9515ZM3.76 3.8375L3.81657 4.02934L3.81732 4.02911L3.76 3.8375ZM4.469 3.9515L4.5848 3.78843L4.58428 3.78807L4.469 3.9515ZM6.6615 5.5085L6.54566 5.67162L6.54997 5.67451L6.6615 5.5085ZM6.9115 5.796L6.73222 5.88464L6.73232 5.88484L6.9115 5.796ZM6.1925 10.0005V10.2005H6.1928L6.1925 10.0005ZM4.6345 9.193H4.4345L4.4345 9.1933L4.6345 9.193ZM4.6345 7.75H4.8345V7.55H4.6345V7.75ZM3.3655 7.75V7.55H3.1655V7.75H3.3655ZM2.558 10V10.2H2.5583L2.558 10ZM1 9.193H0.8L0.8 9.1933L1 9.193ZM1.808 9.5005V9.3005V9.5005ZM3.385 7.2505V7.4505V7.2505ZM5.135 7.77H5.335L5.335 7.76955L5.135 7.77ZM5.221 9.414L5.07917 9.55501L5.07958 9.55542L5.221 9.414ZM6.3655 5.9045L6.4806 5.74094L6.48021 5.74066L6.3655 5.9045ZM4.173 4.3695L4.05328 4.52982L4.0583 4.53334L4.173 4.3695ZM3.827 4.37L3.94175 4.53396L3.94733 4.52975L3.827 4.37ZM1.6345 5.9045L1.51981 5.74064L1.51802 5.74192L1.6345 5.9045ZM1.5335 6.0195L1.35514 5.92899L1.35435 5.93059L1.5335 6.0195ZM9.324 4.324L9.18258 4.18258L9.182 4.18316L9.324 4.324ZM9.1825 3.6155V3.8155V3.6155ZM8.6155 3.817H8.8155H8.6155ZM8.8175 6.3845V6.5845V6.3845ZM9.3845 6.1825H9.1845H9.3845ZM9.1825 5.6155V5.4155V5.6155ZM8.6155 5.817H8.8155H8.6155ZM8.8175 8.3845V8.1845V8.3845ZM9.3845 8.1825H9.1845H9.3845ZM9.1825 7.6155V7.4155V7.6155ZM8.6155 7.8175H8.8155H8.6155ZM10.8 2.808V9.1925H11.2V2.808H10.8ZM10.8 9.1925C10.8 9.36093 10.7423 9.50013 10.6212 9.62093L10.9038 9.90407C11.0994 9.70887 11.2 9.46807 11.2 9.1925H10.8ZM10.6212 9.62093C10.4999 9.74197 10.3605 9.79975 10.1922 9.8L10.1928 10.2C10.4679 10.1996 10.7084 10.099 10.9038 9.90407L10.6212 9.62093ZM10.1925 9.8H8.25V10.2H10.1925V9.8ZM8.25 9.8C8.22934 9.8 8.22201 9.79523 8.21391 9.78707L7.93009 10.0689C8.01733 10.1568 8.12866 10.2 8.25 10.2V9.8ZM8.21391 9.78707C8.20521 9.77831 8.2001 9.76998 8.2 9.74856L7.8 9.75044C7.80057 9.87103 7.84346 9.98169 7.93009 10.0689L8.21391 9.78707ZM8.2 9.74856C8.1999 9.72865 8.20437 9.72186 8.21244 9.7139L7.93156 9.4291C7.84296 9.51648 7.79943 9.62836 7.8 9.75044L8.2 9.74856ZM8.21244 9.7139C8.22187 9.7046 8.23012 9.7 8.25 9.7V9.3C8.12922 9.3 8.0188 9.34307 7.93156 9.4291L8.21244 9.7139ZM8.25 9.7H10.1925V9.3H8.25V9.7ZM10.1925 9.7C10.3294 9.7 10.4558 9.65401 10.5549 9.55492L10.2721 9.27208C10.2558 9.28833 10.2349 9.3 10.1925 9.3V9.7ZM10.5549 9.55492C10.654 9.45584 10.7 9.32941 10.7 9.1925H10.3C10.3 9.23492 10.2883 9.25583 10.2721 9.27208L10.5549 9.55492ZM10.7 9.1925V2.8075H10.3V9.1925H10.7ZM10.7 2.8075C10.7 2.67059 10.654 2.54416 10.5549 2.44508L10.2721 2.72792C10.2883 2.74417 10.3 2.76508 10.3 2.8075H10.7ZM10.5549 2.44508C10.4558 2.34599 10.3294 2.3 10.1925 2.3V2.7C10.2349 2.7 10.2558 2.71167 10.2721 2.72792L10.5549 2.44508ZM10.1925 2.3H6V2.7H10.1925V2.3ZM6 2.3C5.863 2.3 5.73623 2.34586 5.63717 2.44549L5.92083 2.72751C5.93644 2.71181 5.957 2.7 6 2.7V2.3ZM5.63758 2.44508C5.53835 2.54431 5.4925 2.67099 5.4925 2.808H5.8925C5.8925 2.76501 5.90432 2.74402 5.92042 2.72792L5.63758 2.44508ZM5.4925 2.808V3.3945H5.8925V2.808H5.4925ZM5.4925 3.3945C5.4925 3.41455 5.48789 3.42227 5.47908 3.43108L5.76192 3.71392C5.84911 3.62673 5.8925 3.51578 5.8925 3.3945H5.4925ZM5.47908 3.43108C5.47046 3.4397 5.46267 3.4445 5.442 3.4445V3.8445C5.56333 3.8445 5.67454 3.80131 5.76192 3.71392L5.47908 3.43108ZM5.442 3.4445C5.42134 3.4445 5.41401 3.43973 5.40591 3.43157L5.12209 3.71343C5.20932 3.80128 5.32066 3.8445 5.442 3.8445V3.4445ZM5.40591 3.43157C5.39702 3.42261 5.3921 3.41435 5.392 3.39356L4.992 3.39544C4.99257 3.51598 5.03565 3.62639 5.12209 3.71343L5.40591 3.43157ZM5.392 3.3945V2.802H4.992V3.3945H5.392ZM5.392 2.802C5.392 2.63683 5.44913 2.49896 5.57027 2.37807L5.28773 2.09493C5.09288 2.28937 4.992 2.52851 4.992 2.802H5.392ZM5.57057 2.37777C5.69104 2.25705 5.8287 2.2 5.994 2.2V1.8C5.72063 1.8 5.48163 1.90062 5.28743 2.09523L5.57057 2.37777ZM5.994 2.2H10.1925V1.8H5.994V2.2ZM10.1925 2.2C10.3609 2.2 10.5001 2.25772 10.6209 2.37877L10.9041 2.09623C10.7089 1.90062 10.4681 1.8 10.1925 1.8V2.2ZM10.6209 2.37877C10.742 2.50007 10.7997 2.63954 10.8 2.8078L11.2 2.8072C11.1996 2.53213 11.099 2.2916 10.9041 2.09623L10.6209 2.37877ZM1.2 6.167C1.2 6.07058 1.22188 5.97722 1.26769 5.88484L0.909314 5.70716C0.837118 5.85278 0.8 6.00675 0.8 6.167H1.2ZM1.26778 5.88464C1.31176 5.7957 1.37209 5.72688 1.45003 5.67451L1.22697 5.34249C1.08957 5.43479 0.983244 5.55763 0.909216 5.70736L1.26778 5.88464ZM1.4543 5.67157L3.6468 4.11457L3.4152 3.78843L1.2227 5.34544L1.4543 5.67157ZM3.64677 4.11459C3.70566 4.07278 3.76224 4.04535 3.81657 4.02933L3.70343 3.64567C3.60176 3.67565 3.50567 3.72422 3.41524 3.78841L3.64677 4.11459ZM3.81732 4.02911C3.87674 4.01134 3.9371 4.0025 3.999 4.0025V3.6025C3.89823 3.6025 3.79926 3.617 3.70268 3.64589L3.81732 4.02911ZM3.999 4.0025C4.0609 4.0025 4.12176 4.01134 4.18213 4.02924L4.29587 3.64576C4.19891 3.617 4.09976 3.6025 3.999 3.6025V4.0025ZM4.18213 4.02924C4.23769 4.04572 4.29485 4.07341 4.35372 4.11493L4.58428 3.78807C4.49382 3.72426 4.39765 3.67594 4.29587 3.64576L4.18213 4.02924ZM4.3532 4.11457L6.5457 5.67157L6.7773 5.34544L4.5848 3.78843L4.3532 4.11457ZM6.54997 5.67451C6.62791 5.72688 6.68824 5.7957 6.73222 5.88464L7.09079 5.70736C7.01676 5.55763 6.91043 5.43479 6.77303 5.34249L6.54997 5.67451ZM6.73232 5.88484C6.77812 5.97722 6.8 6.07058 6.8 6.167H7.2C7.2 6.00675 7.16288 5.85278 7.09069 5.70716L6.73232 5.88484ZM6.8 6.167V9.193H7.2V6.167H6.8ZM6.8 9.193C6.8 9.36143 6.74228 9.50063 6.62123 9.62143L6.90377 9.90457C7.09938 9.70937 7.2 9.46857 7.2 9.193H6.8ZM6.62123 9.62143C6.49993 9.74247 6.36046 9.80025 6.1922 9.8005L6.1928 10.2005C6.46787 10.2001 6.7084 10.0995 6.90377 9.90457L6.62123 9.62143ZM6.1925 9.8005H5.4425V10.2005H6.1925V9.8005ZM5.4425 9.8005C5.27365 9.8005 5.13431 9.74272 5.01357 9.62173L4.73043 9.90427C4.92569 10.0999 5.16669 10.2005 5.4425 10.2005V9.8005ZM5.01357 9.62173C4.89253 9.50043 4.83475 9.36096 4.8345 9.1927L4.4345 9.1933C4.43491 9.46837 4.53547 9.7089 4.73043 9.90427L5.01357 9.62173ZM4.8345 9.193V7.75H4.4345V9.193H4.8345ZM4.6345 7.55H3.3655V7.95H4.6345V7.55ZM3.1655 7.75V9.1925H3.5655V7.75H3.1655ZM3.1655 9.1925C3.1655 9.36093 3.10778 9.50013 2.98673 9.62093L3.26927 9.90407C3.46488 9.70887 3.5655 9.46807 3.5655 9.1925H3.1655ZM2.98673 9.62093C2.86543 9.74197 2.72596 9.79975 2.5577 9.8L2.5583 10.2C2.83337 10.1996 3.0739 10.099 3.26927 9.90407L2.98673 9.62093ZM2.558 9.8H1.808V10.2H2.558V9.8ZM1.808 9.8C1.63914 9.8 1.49981 9.74222 1.37907 9.62123L1.09593 9.90377C1.29119 10.0994 1.53219 10.2 1.808 10.2V9.8ZM1.37907 9.62123C1.25797 9.49987 1.20025 9.36054 1.2 9.1927L0.8 9.1933C0.800414 9.46813 0.901032 9.70846 1.09593 9.90377L1.37907 9.62123ZM1.2 9.193V6.167H0.8V9.193H1.2ZM1.3 6.164V9.193H1.7V6.164H1.3ZM1.3 9.193C1.3 9.32991 1.34599 9.45634 1.44508 9.55542L1.72792 9.27258C1.71167 9.25633 1.7 9.23542 1.7 9.193H1.3ZM1.44508 9.55542C1.54431 9.65465 1.67099 9.7005 1.808 9.7005V9.3005C1.76501 9.3005 1.74402 9.28868 1.72792 9.27258L1.44508 9.55542ZM1.808 9.7005H2.558V9.3005H1.808V9.7005ZM2.558 9.7005C2.69491 9.7005 2.82134 9.65451 2.92042 9.55542L2.63758 9.27258C2.62133 9.28883 2.60042 9.3005 2.558 9.3005V9.7005ZM2.92042 9.55542C3.01951 9.45634 3.0655 9.32991 3.0655 9.193H2.6655C2.6655 9.23542 2.65383 9.25633 2.63758 9.27258L2.92042 9.55542ZM3.0655 9.193V7.7695H2.6655V9.193H3.0655ZM3.0655 7.7695C3.0655 7.67348 3.09593 7.60192 3.15642 7.54142L2.87358 7.25858C2.73474 7.39742 2.6655 7.57219 2.6655 7.7695H3.0655ZM3.15642 7.54142C3.21682 7.48102 3.28851 7.4505 3.385 7.4505V7.0505C3.1875 7.0505 3.01251 7.11965 2.87358 7.25858L3.15642 7.54142ZM3.385 7.4505H4.615V7.0505H3.385V7.4505ZM4.615 7.4505C4.7115 7.4505 4.78318 7.48102 4.84358 7.54142L5.12642 7.25858C4.98749 7.11965 4.81251 7.0505 4.615 7.0505V7.4505ZM4.84358 7.54142C4.9041 7.60194 4.93478 7.67381 4.935 7.77045L5.335 7.76955C5.33455 7.57219 5.26524 7.39739 5.12642 7.25858L4.84358 7.54142ZM4.935 7.77V9.1925H5.335V7.77H4.935ZM4.935 9.1925C4.935 9.32916 4.98044 9.4557 5.07917 9.55501L5.36283 9.27299C5.3469 9.25696 5.335 9.23584 5.335 9.1925H4.935ZM5.07958 9.55542C5.17866 9.65451 5.30509 9.7005 5.442 9.7005V9.3005C5.39958 9.3005 5.37867 9.28883 5.36242 9.27258L5.07958 9.55542ZM5.442 9.7005H6.192V9.3005H5.442V9.7005ZM6.192 9.7005C6.32901 9.7005 6.45569 9.65465 6.55492 9.55542L6.27208 9.27258C6.25598 9.28868 6.23499 9.3005 6.192 9.3005V9.7005ZM6.55492 9.55542C6.65415 9.45619 6.7 9.32951 6.7 9.1925H6.3C6.3 9.23549 6.28818 9.25648 6.27208 9.27258L6.55492 9.55542ZM6.7 9.1925V6.164H6.3V9.1925H6.7ZM6.7 6.164C6.7 6.08252 6.682 6.00384 6.64565 5.93059L6.28735 6.10841C6.29566 6.12516 6.3 6.14282 6.3 6.164H6.7ZM6.64565 5.93059C6.60713 5.85298 6.55018 5.7899 6.4806 5.74094L6.2504 6.06806C6.27083 6.08243 6.2812 6.09602 6.28735 6.10841L6.64565 5.93059ZM6.48021 5.74066L4.28771 4.20566L4.0583 4.53334L6.2508 6.06834L6.48021 5.74066ZM4.29267 4.20925C4.20681 4.14514 4.10718 4.112 4 4.112V4.512C4.02082 4.512 4.03652 4.51719 4.05333 4.52975L4.29267 4.20925ZM4 4.112C3.89239 4.112 3.79252 4.14558 3.70667 4.21025L3.94733 4.52975C3.96414 4.51709 3.97961 4.512 4 4.512V4.112ZM3.71232 4.20615L1.51982 5.74065L1.74918 6.06836L3.94168 4.53386L3.71232 4.20615ZM1.51802 5.74192C1.44982 5.79078 1.39373 5.85298 1.35515 5.92899L1.71185 6.11001C1.71861 6.09669 1.72984 6.08222 1.75098 6.06708L1.51802 5.74192ZM1.35435 5.93059C1.318 6.00384 1.3 6.08252 1.3 6.164H1.7C1.7 6.14282 1.70434 6.12516 1.71265 6.10841L1.35435 5.93059ZM8.8175 4.585H9.1825V4.185H8.8175V4.585ZM9.1825 4.585C9.29332 4.585 9.39065 4.54082 9.466 4.46484L9.182 4.18316C9.17777 4.18742 9.17674 4.18715 9.1792 4.18609C9.18025 4.18564 9.18137 4.1853 9.18231 4.18511C9.18323 4.18492 9.18338 4.185 9.1825 4.185V4.585ZM9.46542 4.46542C9.54092 4.38993 9.5845 4.29277 9.5845 4.1825H9.1845C9.1845 4.18392 9.18438 4.18232 9.18548 4.17975C9.18649 4.1774 9.18673 4.17843 9.18258 4.18258L9.46542 4.46542ZM9.5845 4.1825V3.8175H9.1845V4.1825H9.5845ZM9.5845 3.8175C9.5845 3.70723 9.54092 3.61008 9.46542 3.53458L9.18258 3.81742C9.18673 3.82157 9.18649 3.8226 9.18548 3.82025C9.18438 3.81768 9.1845 3.81608 9.1845 3.8175H9.5845ZM9.46542 3.53458C9.38993 3.45908 9.29277 3.4155 9.1825 3.4155V3.8155C9.18392 3.8155 9.18232 3.81562 9.17975 3.81452C9.1774 3.81352 9.17843 3.81327 9.18258 3.81742L9.46542 3.53458ZM9.1825 3.4155H8.8175V3.8155H9.1825V3.4155ZM8.8175 3.4155C8.70723 3.4155 8.61007 3.45908 8.53458 3.53458L8.81742 3.81742C8.82157 3.81327 8.8226 3.81352 8.82025 3.81452C8.81769 3.81562 8.81608 3.8155 8.8175 3.8155V3.4155ZM8.53458 3.53458C8.45935 3.60981 8.4155 3.7067 8.4155 3.817H8.8155C8.8155 3.81592 8.81555 3.81772 8.81442 3.82036C8.81339 3.82276 8.81316 3.82168 8.81742 3.81742L8.53458 3.53458ZM8.4155 3.817V4.1825H8.8155V3.817H8.4155ZM8.4155 4.1825C8.4155 4.29277 8.45908 4.38993 8.53458 4.46542L8.81742 4.18258C8.81327 4.17843 8.81352 4.1774 8.81452 4.17975C8.81562 4.18232 8.8155 4.18392 8.8155 4.1825H8.4155ZM8.53458 4.46542C8.61007 4.54092 8.70723 4.5845 8.8175 4.5845V4.1845C8.81608 4.1845 8.81769 4.18438 8.82025 4.18548C8.8226 4.18648 8.82157 4.18673 8.81742 4.18258L8.53458 4.46542ZM8.8175 6.5845H9.1825V6.1845H8.8175V6.5845ZM9.1825 6.5845C9.29277 6.5845 9.38993 6.54092 9.46542 6.46542L9.18258 6.18258C9.17843 6.18673 9.1774 6.18648 9.17975 6.18548C9.18232 6.18438 9.18392 6.1845 9.1825 6.1845V6.5845ZM9.46542 6.46542C9.54092 6.38993 9.5845 6.29277 9.5845 6.1825H9.1845C9.1845 6.18392 9.18438 6.18232 9.18548 6.17975C9.18649 6.1774 9.18673 6.17843 9.18258 6.18258L9.46542 6.46542ZM9.5845 6.1825V5.8175H9.1845V6.1825H9.5845ZM9.5845 5.8175C9.5845 5.70723 9.54092 5.61008 9.46542 5.53458L9.18258 5.81742C9.18673 5.82157 9.18649 5.8226 9.18548 5.82025C9.18438 5.81768 9.1845 5.81608 9.1845 5.8175H9.5845ZM9.46542 5.53458C9.38993 5.45908 9.29277 5.4155 9.1825 5.4155V5.8155C9.18392 5.8155 9.18232 5.81562 9.17975 5.81452C9.1774 5.81352 9.17843 5.81327 9.18258 5.81742L9.46542 5.53458ZM9.1825 5.4155H8.8175V5.8155H9.1825V5.4155ZM8.8175 5.4155C8.70723 5.4155 8.61007 5.45908 8.53458 5.53458L8.81742 5.81742C8.82157 5.81327 8.8226 5.81352 8.82025 5.81452C8.81769 5.81562 8.81608 5.8155 8.8175 5.8155V5.4155ZM8.53458 5.53458C8.45935 5.60981 8.4155 5.70671 8.4155 5.817H8.8155C8.8155 5.81592 8.81555 5.81772 8.81442 5.82036C8.81339 5.82276 8.81316 5.82168 8.81742 5.81742L8.53458 5.53458ZM8.4155 5.817V6.1825H8.8155V5.817H8.4155ZM8.4155 6.1825C8.4155 6.29277 8.45908 6.38993 8.53458 6.46542L8.81742 6.18258C8.81327 6.17843 8.81352 6.1774 8.81452 6.17975C8.81562 6.18232 8.8155 6.18392 8.8155 6.1825H8.4155ZM8.53458 6.46542C8.61007 6.54092 8.70723 6.5845 8.8175 6.5845V6.1845C8.81608 6.1845 8.81769 6.18438 8.82025 6.18548C8.8226 6.18648 8.82157 6.18673 8.81742 6.18258L8.53458 6.46542ZM8.8175 8.5845H9.1825V8.1845H8.8175V8.5845ZM9.1825 8.5845C9.29277 8.5845 9.38993 8.54092 9.46542 8.46542L9.18258 8.18258C9.17843 8.18673 9.1774 8.18648 9.17975 8.18548C9.18232 8.18438 9.18392 8.1845 9.1825 8.1845V8.5845ZM9.46542 8.46542C9.54092 8.38993 9.5845 8.29277 9.5845 8.1825H9.1845C9.1845 8.18392 9.18438 8.18232 9.18548 8.17975C9.18648 8.1774 9.18673 8.17843 9.18258 8.18258L9.46542 8.46542ZM9.5845 8.1825V7.8175H9.1845V8.1825H9.5845ZM9.5845 7.8175C9.5845 7.70723 9.54092 7.61008 9.46542 7.53458L9.18258 7.81742C9.18673 7.82157 9.18649 7.8226 9.18548 7.82025C9.18438 7.81768 9.1845 7.81608 9.1845 7.8175H9.5845ZM9.46542 7.53458C9.38993 7.45908 9.29277 7.4155 9.1825 7.4155V7.8155C9.18392 7.8155 9.18232 7.81562 9.17975 7.81452C9.1774 7.81352 9.17843 7.81327 9.18258 7.81742L9.46542 7.53458ZM9.1825 7.4155H8.8175V7.8155H9.1825V7.4155ZM8.8175 7.4155C8.70723 7.4155 8.61007 7.45908 8.53458 7.53458L8.81742 7.81742C8.82157 7.81327 8.8226 7.81352 8.82025 7.81452C8.81769 7.81562 8.81608 7.8155 8.8175 7.8155V7.4155ZM8.53458 7.53458C8.45908 7.61008 8.4155 7.70723 8.4155 7.8175H8.8155C8.8155 7.81608 8.81562 7.81768 8.81452 7.82025C8.81352 7.8226 8.81327 7.82157 8.81742 7.81742L8.53458 7.53458ZM8.4155 7.8175V8.1825H8.8155V7.8175H8.4155ZM8.4155 8.1825C8.4155 8.29277 8.45908 8.38993 8.53458 8.46542L8.81742 8.18258C8.81327 8.17843 8.81352 8.1774 8.81452 8.17975C8.81562 8.18232 8.8155 8.18392 8.8155 8.1825H8.4155ZM8.53458 8.46542C8.61008 8.54092 8.70723 8.5845 8.8175 8.5845V8.1845C8.81608 8.1845 8.81768 8.18438 8.82025 8.18548C8.8226 8.18648 8.82157 8.18673 8.81742 8.18258L8.53458 8.46542Z" fill="#16A34A" mask="url(#path-1-outside-1_267_20591)"/>
</svg>
