<svg width="25" height="24" viewBox="0 0 25 24" fill="none" xmlns="http://www.w3.org/2000/svg">
<path d="M2.98903 20.0292L2.28188 19.7793H2.28188L2.98903 20.0292ZM4.52027 21.5605L4.77015 22.2676H4.77015L4.52027 21.5605ZM7.90817 20.7518L7.54451 21.4077L7.90817 20.7518ZM3.85104 16.5662L4.51804 16.2233L3.85104 16.5662ZM3.91731 17.4022L4.62446 17.6521L3.91731 17.4022ZM3.5 12C3.5 6.89137 7.64137 2.75 12.75 2.75V1.25C6.81294 1.25 2 6.06294 2 12H3.5ZM4.51804 16.2233C3.86751 14.9581 3.5 13.523 3.5 12H2C2 13.7671 2.42697 15.4367 3.18404 16.9092L4.51804 16.2233ZM3.69618 20.2791L4.62446 17.6521L3.21016 17.1523L2.28188 19.7793L3.69618 20.2791ZM4.27039 20.8533C3.91372 20.9793 3.57014 20.6358 3.69618 20.2791L2.28188 19.7793C1.73573 21.3249 3.22455 22.8138 4.77015 22.2676L4.27039 20.8533ZM6.79298 19.9619L4.27039 20.8533L4.77015 22.2676L7.29274 21.3762L6.79298 19.9619ZM12.75 21.25C11.1239 21.25 9.59798 20.8311 8.27184 20.0958L7.54451 21.4077C9.08751 22.2632 10.863 22.75 12.75 22.75V21.25ZM22 12C22 17.1086 17.8586 21.25 12.75 21.25V22.75C18.6871 22.75 23.5 17.9371 23.5 12H22ZM12.75 2.75C17.8586 2.75 22 6.89137 22 12H23.5C23.5 6.06294 18.6871 1.25 12.75 1.25V2.75ZM7.29274 21.3762C7.35823 21.3531 7.4501 21.3554 7.54451 21.4077L8.27184 20.0958C7.83623 19.8543 7.29889 19.7832 6.79298 19.9619L7.29274 21.3762ZM3.18404 16.9092C3.2314 17.0013 3.23243 17.0893 3.21016 17.1523L4.62446 17.6521C4.79633 17.1657 4.73714 16.6494 4.51804 16.2233L3.18404 16.9092Z" fill="#94A3B8"/>
<circle cx="7.7998" cy="12.0498" r="1.25" fill="#94A3B8"/>
<circle cx="12.7998" cy="12.0498" r="1.25" fill="#94A3B8"/>
<circle cx="17.7998" cy="12.0498" r="1.25" fill="#94A3B8"/>
</svg>
