<svg width="105" height="32" viewBox="0 0 105 32" fill="none" xmlns="http://www.w3.org/2000/svg">
<rect width="105" height="32" rx="16" fill="#F1F5F9"/>
<path d="M35.14 20.12C34.428 20.12 33.8 19.948 33.256 19.604C32.712 19.26 32.288 18.772 31.984 18.14C31.68 17.5 31.528 16.74 31.528 15.86C31.528 14.972 31.68 14.212 31.984 13.58C32.288 12.94 32.712 12.452 33.256 12.116C33.8 11.772 34.428 11.6 35.14 11.6C35.708 11.6 36.22 11.7 36.676 11.9C37.132 12.1 37.516 12.396 37.828 12.788C38.14 13.172 38.36 13.644 38.488 14.204L37.24 14.54C37.12 13.948 36.876 13.504 36.508 13.208C36.148 12.912 35.68 12.764 35.104 12.764C34.424 12.764 33.876 13.032 33.46 13.568C33.044 14.096 32.836 14.86 32.836 15.86C32.836 16.852 33.044 17.616 33.46 18.152C33.876 18.688 34.424 18.956 35.104 18.956C35.696 18.956 36.172 18.808 36.532 18.512C36.892 18.208 37.144 17.756 37.288 17.156L38.536 17.492C38.392 18.06 38.16 18.54 37.84 18.932C37.52 19.324 37.132 19.62 36.676 19.82C36.22 20.02 35.708 20.12 35.14 20.12ZM41.9679 20.12C41.3279 20.12 40.8039 19.896 40.3959 19.448C39.9879 19 39.7839 18.392 39.7839 17.624V13.64H40.9839V17.348C40.9839 17.908 41.1239 18.336 41.4039 18.632C41.6839 18.92 42.0239 19.064 42.4239 19.064C42.8239 19.064 43.1639 18.92 43.4439 18.632C43.7239 18.336 43.8639 17.908 43.8639 17.348H44.2599C44.2599 17.916 44.1599 18.408 43.9599 18.824C43.7599 19.24 43.4879 19.56 43.1439 19.784C42.7999 20.008 42.4079 20.12 41.9679 20.12ZM43.8639 20V13.64H45.0639V20H43.8639ZM48.8237 20.12C48.1037 20.12 47.5277 19.976 47.0957 19.688C46.6637 19.392 46.3597 18.96 46.1837 18.392L47.3117 18.032C47.4477 18.432 47.6477 18.72 47.9117 18.896C48.1757 19.064 48.5077 19.148 48.9077 19.148C49.2677 19.148 49.5557 19.08 49.7717 18.944C49.9957 18.8 50.1077 18.6 50.1077 18.344C50.1077 18.096 50.0197 17.904 49.8437 17.768C49.6677 17.624 49.4397 17.508 49.1597 17.42C48.8797 17.324 48.5797 17.232 48.2597 17.144C47.9477 17.048 47.6517 16.932 47.3717 16.796C47.0917 16.66 46.8637 16.476 46.6877 16.244C46.5117 16.004 46.4237 15.692 46.4237 15.308C46.4237 14.812 46.6277 14.392 47.0357 14.048C47.4437 13.696 48.0277 13.52 48.7877 13.52C49.4437 13.52 49.9717 13.664 50.3717 13.952C50.7717 14.24 51.0597 14.66 51.2357 15.212L50.1437 15.584C49.9997 15.192 49.8077 14.912 49.5677 14.744C49.3357 14.576 49.0437 14.492 48.6917 14.492C48.3477 14.492 48.0797 14.56 47.8877 14.696C47.7037 14.824 47.6117 14.992 47.6117 15.2C47.6117 15.416 47.6997 15.588 47.8757 15.716C48.0517 15.836 48.2797 15.94 48.5597 16.028C48.8397 16.108 49.1357 16.196 49.4477 16.292C49.7677 16.388 50.0677 16.512 50.3477 16.664C50.6277 16.808 50.8557 17.008 51.0317 17.264C51.2077 17.52 51.2957 17.852 51.2957 18.26C51.2957 18.78 51.0797 19.22 50.6477 19.58C50.2237 19.94 49.6157 20.12 48.8237 20.12ZM54.7539 20.12C54.1299 20.12 53.6419 19.956 53.2899 19.628C52.9459 19.292 52.7739 18.796 52.7739 18.14V12.32L53.9739 12.08V17.924C53.9739 18.292 54.0619 18.564 54.2379 18.74C54.4139 18.908 54.6699 18.992 55.0059 18.992C55.1659 18.992 55.3139 18.98 55.4499 18.956C55.5939 18.932 55.7339 18.904 55.8699 18.872V20C55.7019 20.04 55.5299 20.068 55.3539 20.084C55.1859 20.108 54.9859 20.12 54.7539 20.12ZM51.8739 14.684V13.64H55.8099V14.684H51.8739ZM59.5202 20.12C58.9522 20.12 58.4482 19.984 58.0082 19.712C57.5762 19.44 57.2362 19.056 56.9882 18.56C56.7402 18.064 56.6162 17.484 56.6162 16.82C56.6162 16.148 56.7402 15.568 56.9882 15.08C57.2362 14.584 57.5762 14.2 58.0082 13.928C58.4482 13.656 58.9522 13.52 59.5202 13.52C60.0962 13.52 60.6002 13.656 61.0322 13.928C61.4722 14.2 61.8162 14.584 62.0642 15.08C62.3122 15.568 62.4362 16.148 62.4362 16.82C62.4362 17.484 62.3122 18.064 62.0642 18.56C61.8162 19.056 61.4722 19.44 61.0322 19.712C60.6002 19.984 60.0962 20.12 59.5202 20.12ZM59.5202 19.04C60.0242 19.04 60.4282 18.864 60.7322 18.512C61.0362 18.152 61.1882 17.588 61.1882 16.82C61.1882 16.052 61.0362 15.492 60.7322 15.14C60.4282 14.78 60.0242 14.6 59.5202 14.6C59.0242 14.6 58.6242 14.78 58.3202 15.14C58.0162 15.492 57.8642 16.052 57.8642 16.82C57.8642 17.588 58.0162 18.152 58.3202 18.512C58.6242 18.864 59.0242 19.04 59.5202 19.04ZM71.2027 20V16.052C71.2027 15.564 71.0747 15.196 70.8187 14.948C70.5707 14.7 70.2707 14.576 69.9187 14.576C69.5667 14.576 69.2627 14.7 69.0067 14.948C68.7587 15.196 68.6347 15.564 68.6347 16.052H68.2387C68.2387 15.532 68.3307 15.084 68.5147 14.708C68.7067 14.324 68.9627 14.032 69.2827 13.832C69.6107 13.624 69.9747 13.52 70.3747 13.52C70.9667 13.52 71.4507 13.724 71.8267 14.132C72.2107 14.532 72.4027 15.08 72.4027 15.776V20H71.2027ZM63.6667 20V13.64H64.8667V20H63.6667ZM67.4347 20V16.052C67.4347 15.564 67.3067 15.196 67.0507 14.948C66.8027 14.7 66.5027 14.576 66.1507 14.576C65.7987 14.576 65.4947 14.7 65.2387 14.948C64.9907 15.196 64.8667 15.564 64.8667 16.052H64.4707C64.4707 15.532 64.5627 15.084 64.7467 14.708C64.9387 14.324 65.1947 14.032 65.5147 13.832C65.8427 13.624 66.2067 13.52 66.6067 13.52C67.1987 13.52 67.6827 13.724 68.0587 14.132C68.4427 14.532 68.6347 15.08 68.6347 15.776V20H67.4347Z" fill="#4D4F58"/>
</svg>
