<svg width="12" height="13" viewBox="0 0 12 13" fill="none" xmlns="http://www.w3.org/2000/svg">
<path d="M8.67373 7.85266L5.99998 10.9052L3.32623 7.85266C3.29447 7.81324 3.25507 7.78065 3.21038 7.75686C3.1657 7.73308 3.11666 7.71859 3.06622 7.71426C3.01578 7.70994 2.96499 7.71587 2.91691 7.7317C2.86883 7.74753 2.82445 7.77293 2.78644 7.80637C2.74844 7.83982 2.7176 7.88061 2.69579 7.92629C2.67397 7.97197 2.66163 8.02159 2.65951 8.07217C2.65739 8.12274 2.66553 8.17323 2.68344 8.22058C2.70135 8.26792 2.72866 8.31115 2.76373 8.34766L5.71873 11.7227C5.75387 11.7627 5.79713 11.7947 5.84562 11.8167C5.89411 11.8387 5.94673 11.8501 5.99998 11.8502C6.05322 11.8501 6.10584 11.8387 6.15434 11.8167C6.20283 11.7947 6.24609 11.7627 6.28123 11.7227L9.23623 8.34766C9.29684 8.27241 9.32606 8.17667 9.31781 8.08039C9.30955 7.98412 9.26445 7.89475 9.19192 7.83092C9.11938 7.76708 9.025 7.73371 8.92846 7.73776C8.83191 7.74181 8.74066 7.78297 8.67373 7.85266Z" fill="#16A34A"/>
<path d="M1.20413 5.47522C1.30253 5.46215 1.39173 5.4106 1.45218 5.33187C1.51263 5.25314 1.53941 5.15365 1.52663 5.05522C1.47469 4.66358 1.50453 4.26542 1.61425 3.8859C1.72398 3.50637 1.91121 3.15372 2.16413 2.85022C2.34784 2.6273 2.57625 2.44538 2.83462 2.31619C3.09299 2.18701 3.37557 2.11344 3.66413 2.10022C3.75254 2.08924 3.84197 2.08924 3.93038 2.10022C4.45023 2.17183 4.92275 2.4403 5.25038 2.85022C5.39525 3.0033 5.52116 3.17328 5.62538 3.35647C5.62538 3.39022 5.65913 3.41647 5.67413 3.45022C5.70371 3.51601 5.75163 3.57188 5.81216 3.61112C5.87268 3.65036 5.94325 3.67132 6.01538 3.67147C6.08711 3.67165 6.15738 3.65125 6.21786 3.6127C6.27835 3.57415 6.32651 3.51906 6.35663 3.45397C6.45767 3.23456 6.59033 3.03114 6.75038 2.85022C7.01516 2.5351 7.36352 2.30113 7.75538 2.17522C8.13031 2.07225 8.52718 2.0813 8.89702 2.20125C9.26687 2.3212 9.5935 2.5468 9.83663 2.85022C10.0905 3.15462 10.2783 3.50852 10.3881 3.88942C10.4978 4.27032 10.5271 4.66988 10.4741 5.06272C10.4635 5.15995 10.4912 5.25751 10.5515 5.33457C10.6117 5.41164 10.6997 5.46211 10.7966 5.47522H10.8454C10.9369 5.47599 11.0256 5.44325 11.0947 5.38315C11.1638 5.32305 11.2085 5.23975 11.2204 5.14897C11.2899 4.6502 11.253 4.14238 11.1121 3.65891C10.9712 3.17544 10.7295 2.72729 10.4029 2.34397C10.0628 1.93745 9.61279 1.63746 9.10673 1.47986C8.60066 1.32225 8.05992 1.3137 7.54913 1.45522C7.017 1.61388 6.54182 1.92243 6.18038 2.34397C6.11663 2.41522 6.06038 2.48647 6.00413 2.56147C5.94788 2.48647 5.89163 2.41522 5.83163 2.34397C5.3715 1.80139 4.72306 1.45306 4.01663 1.36897C3.88383 1.34944 3.74942 1.34315 3.61538 1.35022C3.22919 1.36732 2.85077 1.46448 2.50411 1.63555C2.15746 1.80662 1.85013 2.04786 1.60163 2.34397C1.27505 2.72729 1.03335 3.17544 0.892445 3.65891C0.751541 4.14238 0.714627 4.6502 0.784131 5.14897C0.790153 5.19802 0.805813 5.2454 0.83021 5.28839C0.854608 5.33137 0.887261 5.36911 0.926293 5.39943C0.965324 5.42974 1.00996 5.45205 1.05765 5.46506C1.10533 5.47806 1.15511 5.48152 1.20413 5.47522Z" fill="#16A34A"/>
<path d="M10.875 6.2253H8.625C8.56323 6.22562 8.5025 6.24119 8.44821 6.27063C8.39391 6.30007 8.34772 6.34246 8.31375 6.39405L7.93875 6.94155L7.0875 4.95405C7.0593 4.88743 7.01244 4.83039 6.95255 4.7898C6.89267 4.74921 6.82233 4.72681 6.75 4.7253C6.67723 4.72472 6.60586 4.74534 6.5446 4.78462C6.48334 4.82391 6.43484 4.88017 6.405 4.94655L5.31375 7.39905L4.5 4.61655C4.47906 4.54663 4.43818 4.48434 4.38236 4.43732C4.32654 4.3903 4.25822 4.36059 4.18576 4.35183C4.11331 4.34307 4.03987 4.35565 3.97445 4.38802C3.90904 4.42038 3.85449 4.47113 3.8175 4.53405L2.78625 6.2253H1.125C1.02554 6.2253 0.930161 6.26481 0.859835 6.33513C0.789509 6.40546 0.75 6.50084 0.75 6.6003C0.75 6.69975 0.789509 6.79514 0.859835 6.86546C0.930161 6.93579 1.02554 6.9753 1.125 6.9753H3C3.06508 6.97529 3.12903 6.95834 3.18558 6.92612C3.24212 6.89391 3.28931 6.84753 3.3225 6.79155L4.00875 5.6478L4.875 8.58405C4.89717 8.65768 4.94144 8.72271 5.00181 8.77033C5.06218 8.81796 5.13573 8.84587 5.2125 8.8503H5.25C5.32214 8.85015 5.3927 8.8292 5.45322 8.78995C5.51375 8.75071 5.56167 8.69484 5.59125 8.62905L6.75 6.0378L7.5375 7.87155C7.56375 7.93433 7.60658 7.98878 7.66141 8.02908C7.71624 8.06938 7.781 8.094 7.84875 8.1003C7.91613 8.10588 7.98376 8.09315 8.04449 8.06344C8.10523 8.03374 8.1568 7.98816 8.19375 7.93155L8.8275 6.9753H10.875C10.9745 6.9753 11.0698 6.93579 11.1402 6.86546C11.2105 6.79514 11.25 6.69975 11.25 6.6003C11.25 6.50084 11.2105 6.40546 11.1402 6.33513C11.0698 6.26481 10.9745 6.2253 10.875 6.2253Z" fill="#16A34A"/>
</svg>
