<svg width="24" height="25" viewBox="0 0 24 25" fill="none" xmlns="http://www.w3.org/2000/svg">
<rect y="0.300049" width="24" height="24" rx="12" fill="#F1F5F9"/>
<g clip-path="url(#clip0_385_10541)">
<path fill-rule="evenodd" clip-rule="evenodd" d="M11.9959 17.8435C11.9549 17.8435 11.9139 17.8271 11.8811 17.7943C10.8067 16.7199 9.72408 15.867 8.7645 15.1124C6.66491 13.4557 5 12.1517 5 9.74044C5 7.76387 6.6075 6.15637 8.58407 6.15637C10.331 6.15637 11.2168 7.05034 11.9959 8.52661C12.7832 7.05034 13.6608 6.15637 15.4159 6.15637C17.3925 6.15637 19 7.76387 19 9.74044C19 12.1517 17.3351 13.4557 15.2355 15.1124C14.2759 15.867 13.1851 16.7199 12.1107 17.7943C12.0861 17.8271 12.0369 17.8435 11.9959 17.8435Z" fill="#FF4646"/>
<path fill-rule="evenodd" clip-rule="evenodd" d="M10.4618 13.7756C10.388 13.7756 10.3306 13.7264 10.306 13.6608L9.64987 11.5612C9.60887 11.676 9.56786 11.7827 9.53505 11.8729C9.15778 12.8571 9.10857 12.9309 8.1654 12.8899C7.88655 12.8817 7.50107 12.8653 6.97618 12.8735C6.88596 12.8735 6.81215 12.8078 6.81215 12.7176C6.80395 12.6274 6.87776 12.5536 6.96798 12.5454C7.50107 12.5372 7.89475 12.5536 8.1818 12.5618C8.56727 12.5782 8.75591 12.5946 8.86253 12.5126C8.97735 12.4224 9.06757 12.1845 9.2316 11.758C9.30541 11.553 9.39563 11.307 9.51865 11.0117C9.54325 10.9461 9.60887 10.9051 9.67448 10.9051C9.74829 10.9133 9.8057 10.9543 9.83031 11.0199L10.4782 13.1031L10.6259 12.7094C10.6505 12.6438 10.7161 12.6028 10.7817 12.6028H11.1343L11.8397 10.3392C11.8643 10.2654 11.9299 10.2244 11.9955 10.2244C12.0693 10.2244 12.1349 10.2654 12.1513 10.3392L12.8567 12.6028H13.2175C13.2831 12.6028 13.3488 12.6438 13.3652 12.7094L13.521 13.1031L14.1689 11.0199C14.1935 10.9543 14.2509 10.9133 14.3165 10.9051C14.3904 10.9051 14.4478 10.9461 14.4806 11.0117C14.5954 11.307 14.6938 11.553 14.7676 11.758C14.9317 12.1845 15.0219 12.4224 15.1367 12.5126C15.2433 12.5946 15.4319 12.5782 15.8174 12.5618C16.1045 12.5536 16.4981 12.5372 17.0312 12.5454C17.1215 12.5536 17.1871 12.6274 17.1871 12.7176C17.1871 12.8078 17.1133 12.8817 17.023 12.8735C16.4981 12.8653 16.1127 12.8817 15.8338 12.8899C14.8906 12.9309 14.8332 12.8571 14.4642 11.8729C14.4232 11.7827 14.3904 11.676 14.3411 11.5612L13.685 13.6608C13.6686 13.7264 13.603 13.7756 13.5374 13.7756C13.4636 13.7756 13.4062 13.7346 13.3816 13.669L13.1027 12.9309H12.7418C12.668 12.9309 12.6024 12.8817 12.586 12.816L11.9955 10.9379L11.4132 12.816C11.3968 12.8817 11.3312 12.9309 11.2574 12.9309H10.8965L10.6177 13.669C10.593 13.7346 10.5356 13.7756 10.4618 13.7756Z" fill="#FF7979"/>
</g>
<defs>
<clipPath id="clip0_385_10541">
<rect width="14" height="14" fill="white" transform="translate(5 5)"/>
</clipPath>
</defs>
</svg>
