<svg width="55" height="24" viewBox="0 0 55 24" fill="none" xmlns="http://www.w3.org/2000/svg">
<rect width="55" height="24" rx="12" fill="#E6ECFF" fill-opacity="0.5"/>
<path d="M10.9 16V7.72H12.16V16H10.9ZM11.5 12.568V11.416H16V12.568H11.5ZM11.5 8.872V7.72H16.48V8.872H11.5ZM20.0397 16.12C19.4717 16.12 18.9677 15.984 18.5277 15.712C18.0957 15.44 17.7557 15.056 17.5077 14.56C17.2597 14.064 17.1357 13.484 17.1357 12.82C17.1357 12.148 17.2597 11.568 17.5077 11.08C17.7557 10.584 18.0957 10.2 18.5277 9.928C18.9677 9.656 19.4717 9.52 20.0397 9.52C20.6157 9.52 21.1197 9.656 21.5517 9.928C21.9917 10.2 22.3357 10.584 22.5837 11.08C22.8317 11.568 22.9557 12.148 22.9557 12.82C22.9557 13.484 22.8317 14.064 22.5837 14.56C22.3357 15.056 21.9917 15.44 21.5517 15.712C21.1197 15.984 20.6157 16.12 20.0397 16.12ZM20.0397 15.04C20.5437 15.04 20.9477 14.864 21.2517 14.512C21.5557 14.152 21.7077 13.588 21.7077 12.82C21.7077 12.052 21.5557 11.492 21.2517 11.14C20.9477 10.78 20.5437 10.6 20.0397 10.6C19.5437 10.6 19.1437 10.78 18.8397 11.14C18.5357 11.492 18.3837 12.052 18.3837 12.82C18.3837 13.588 18.5357 14.152 18.8397 14.512C19.1437 14.864 19.5437 15.04 20.0397 15.04ZM24.1863 16V7.42H25.3863V16H24.1863ZM26.9519 16V7.42H28.1519V16H26.9519ZM32.2975 16.12C31.7295 16.12 31.2255 15.984 30.7855 15.712C30.3535 15.44 30.0135 15.056 29.7655 14.56C29.5175 14.064 29.3935 13.484 29.3935 12.82C29.3935 12.148 29.5175 11.568 29.7655 11.08C30.0135 10.584 30.3535 10.2 30.7855 9.928C31.2255 9.656 31.7295 9.52 32.2975 9.52C32.8735 9.52 33.3775 9.656 33.8095 9.928C34.2495 10.2 34.5935 10.584 34.8415 11.08C35.0895 11.568 35.2135 12.148 35.2135 12.82C35.2135 13.484 35.0895 14.064 34.8415 14.56C34.5935 15.056 34.2495 15.44 33.8095 15.712C33.3775 15.984 32.8735 16.12 32.2975 16.12ZM32.2975 15.04C32.8015 15.04 33.2055 14.864 33.5095 14.512C33.8135 14.152 33.9655 13.588 33.9655 12.82C33.9655 12.052 33.8135 11.492 33.5095 11.14C33.2055 10.78 32.8015 10.6 32.2975 10.6C31.8015 10.6 31.4015 10.78 31.0975 11.14C30.7935 11.492 30.6415 12.052 30.6415 12.82C30.6415 13.588 30.7935 14.152 31.0975 14.512C31.4015 14.864 31.8015 15.04 32.2975 15.04ZM37.3561 16L35.7841 9.64H36.9961L38.4841 16H37.3561ZM38.0281 16L39.5281 9.64H40.5481L39.0601 16H38.0281ZM41.4841 16L39.9961 9.64H41.0761L42.6121 16H41.4841ZM42.1561 16L43.5961 9.64H44.7601L43.1881 16H42.1561Z" fill="#0145FE"/>
</svg>
