<svg width="305" height="229" viewBox="0 0 305 229" fill="none" xmlns="http://www.w3.org/2000/svg">
<path d="M3.93109 11.1C3.41776 11.1 2.96443 10.98 2.57109 10.74C2.17776 10.5 1.87109 10.1333 1.65109 9.64C1.43109 9.14 1.32109 8.51 1.32109 7.75C1.32109 6.52333 1.56776 5.59333 2.06109 4.96C2.55443 4.32 3.23443 4 4.10109 4C4.60109 4 5.04443 4.12 5.43109 4.36C5.81776 4.6 6.09443 4.95 6.26109 5.41L5.34109 5.85C5.23443 5.55667 5.06443 5.33667 4.83109 5.19C4.59776 5.03667 4.32443 4.96 4.01109 4.96C3.52443 4.96 3.13443 5.15333 2.84109 5.54C2.55443 5.92 2.41109 6.52333 2.41109 7.35C2.41109 7.51667 2.41443 7.66333 2.42109 7.79C2.42776 7.91667 2.43443 8.03333 2.44109 8.14L2.30109 8.39C2.32776 7.99667 2.43109 7.67 2.61109 7.41C2.79109 7.15 3.02109 6.95667 3.30109 6.83C3.58776 6.69667 3.89776 6.63 4.23109 6.63C4.62443 6.63 4.98443 6.72 5.31109 6.9C5.63776 7.08 5.89776 7.33333 6.09109 7.66C6.29109 7.98667 6.39109 8.37333 6.39109 8.82C6.39109 9.25333 6.29109 9.64333 6.09109 9.99C5.89109 10.33 5.60776 10.6 5.24109 10.8C4.87443 11 4.43776 11.1 3.93109 11.1ZM3.95109 10.15C4.37109 10.15 4.70109 10.0233 4.94109 9.77C5.18776 9.51667 5.31109 9.22 5.31109 8.88C5.31109 8.49333 5.18776 8.17667 4.94109 7.93C4.70109 7.68333 4.35443 7.56 3.90109 7.56C3.63443 7.56 3.39443 7.61667 3.18109 7.73C2.96776 7.84333 2.80109 7.99667 2.68109 8.19C2.56109 8.37667 2.50109 8.58667 2.50109 8.82C2.50109 9.06667 2.56109 9.29333 2.68109 9.5C2.80776 9.7 2.98109 9.86 3.20109 9.98C3.42109 10.0933 3.67109 10.15 3.95109 10.15ZM9.79023 11.1C9.00357 11.1 8.37357 10.8 7.90023 10.2C7.4269 9.59333 7.19023 8.71 7.19023 7.55C7.19023 6.38333 7.4269 5.5 7.90023 4.9C8.37357 4.3 9.00357 4 9.79023 4C10.5836 4 11.2169 4.3 11.6902 4.9C12.1636 5.5 12.4002 6.38333 12.4002 7.55C12.4002 8.71 12.1636 9.59333 11.6902 10.2C11.2169 10.8 10.5836 11.1 9.79023 11.1ZM9.79023 10.13C10.2702 10.13 10.6436 9.92667 10.9102 9.52C11.1769 9.11333 11.3102 8.45667 11.3102 7.55C11.3102 6.63667 11.1769 5.98 10.9102 5.58C10.6436 5.17333 10.2702 4.97 9.79023 4.97C9.3169 4.97 8.9469 5.17333 8.68023 5.58C8.41357 5.98 8.28023 6.63667 8.28023 7.55C8.28023 8.45667 8.41357 9.11333 8.68023 9.52C8.9469 9.92667 9.3169 10.13 9.79023 10.13ZM14.4335 9.61V8.35L16.5835 5.7H17.7635L14.4335 9.61ZM13.5035 11V3.85H14.5035V11H13.5035ZM16.7035 11L15.0335 8.62L15.6835 7.9L17.9235 11H16.7035Z" fill="#94A3B8"/>
<path d="M3.72992 43.7666C3.12326 43.7666 2.60326 43.5966 2.16992 43.2566C1.74326 42.91 1.47659 42.4433 1.36992 41.8566L2.40992 41.6266C2.45659 42 2.59659 42.2933 2.82992 42.5066C3.06992 42.7133 3.37326 42.8166 3.73992 42.8166C4.16659 42.8166 4.50659 42.6866 4.75992 42.4266C5.01992 42.16 5.14992 41.83 5.14992 41.4366C5.14992 41.0033 5.02326 40.6433 4.76992 40.3566C4.52326 40.0633 4.16326 39.9166 3.68992 39.9166C3.36326 39.9166 3.07659 39.9866 2.82992 40.1266C2.58992 40.2666 2.41326 40.4333 2.29992 40.6266H1.51992L1.85992 36.7666H5.93992V37.7666H2.25992L2.70992 37.2866L2.38992 40.2866H2.21992C2.35992 39.8933 2.58326 39.5866 2.88992 39.3666C3.19659 39.14 3.55992 39.0266 3.97992 39.0266C4.41326 39.0266 4.79992 39.1266 5.13992 39.3266C5.47992 39.5266 5.74659 39.8033 5.93992 40.1566C6.13992 40.51 6.23992 40.9166 6.23992 41.3766C6.23992 41.8366 6.13659 42.2466 5.92992 42.6066C5.72326 42.9666 5.43326 43.25 5.05992 43.4566C4.68659 43.6633 4.24326 43.7666 3.72992 43.7666ZM9.79023 43.7666C9.00357 43.7666 8.37357 43.4666 7.90023 42.8666C7.4269 42.26 7.19023 41.3766 7.19023 40.2166C7.19023 39.05 7.4269 38.1666 7.90023 37.5666C8.37357 36.9666 9.00357 36.6666 9.79023 36.6666C10.5836 36.6666 11.2169 36.9666 11.6902 37.5666C12.1636 38.1666 12.4002 39.05 12.4002 40.2166C12.4002 41.3766 12.1636 42.26 11.6902 42.8666C11.2169 43.4666 10.5836 43.7666 9.79023 43.7666ZM9.79023 42.7966C10.2702 42.7966 10.6436 42.5933 10.9102 42.1866C11.1769 41.78 11.3102 41.1233 11.3102 40.2166C11.3102 39.3033 11.1769 38.6466 10.9102 38.2466C10.6436 37.84 10.2702 37.6366 9.79023 37.6366C9.3169 37.6366 8.9469 37.84 8.68023 38.2466C8.41357 38.6466 8.28023 39.3033 8.28023 40.2166C8.28023 41.1233 8.41357 41.78 8.68023 42.1866C8.9469 42.5933 9.3169 42.7966 9.79023 42.7966ZM14.4335 42.2766V41.0166L16.5835 38.3666H17.7635L14.4335 42.2766ZM13.5035 43.6666V36.5166H14.5035V43.6666H13.5035ZM16.7035 43.6666L15.0335 41.2866L15.6835 40.5666L17.9235 43.6666H16.7035Z" fill="#94A3B8"/>
<path d="M1.245 74.4034L3.945 69.4334H4.965L2.265 74.4034H1.245ZM1.245 74.9234V74.4034L1.645 73.9634H6.595V74.9234H1.245ZM4.545 76.3334V69.4334H5.595V76.3334H4.545ZM9.79023 76.4334C9.00357 76.4334 8.37357 76.1334 7.90023 75.5334C7.4269 74.9267 7.19023 74.0434 7.19023 72.8834C7.19023 71.7167 7.4269 70.8334 7.90023 70.2334C8.37357 69.6334 9.00357 69.3334 9.79023 69.3334C10.5836 69.3334 11.2169 69.6334 11.6902 70.2334C12.1636 70.8334 12.4002 71.7167 12.4002 72.8834C12.4002 74.0434 12.1636 74.9267 11.6902 75.5334C11.2169 76.1334 10.5836 76.4334 9.79023 76.4334ZM9.79023 75.4634C10.2702 75.4634 10.6436 75.26 10.9102 74.8534C11.1769 74.4467 11.3102 73.79 11.3102 72.8834C11.3102 71.97 11.1769 71.3134 10.9102 70.9134C10.6436 70.5067 10.2702 70.3034 9.79023 70.3034C9.3169 70.3034 8.9469 70.5067 8.68023 70.9134C8.41357 71.3134 8.28023 71.97 8.28023 72.8834C8.28023 73.79 8.41357 74.4467 8.68023 74.8534C8.9469 75.26 9.3169 75.4634 9.79023 75.4634ZM14.4335 74.9434V73.6834L16.5835 71.0334H17.7635L14.4335 74.9434ZM13.5035 76.3334V69.1834H14.5035V76.3334H13.5035ZM16.7035 76.3334L15.0335 73.9534L15.6835 73.2334L17.9235 76.3334H16.7035Z" fill="#94A3B8"/>
<path d="M3.84758 109.1C3.18758 109.1 2.63424 108.92 2.18758 108.56C1.74758 108.2 1.47424 107.677 1.36758 106.99L2.40758 106.76C2.45424 107.233 2.60424 107.583 2.85758 107.81C3.11091 108.037 3.43758 108.15 3.83758 108.15C4.27758 108.15 4.61424 108.023 4.84758 107.77C5.08091 107.51 5.19758 107.197 5.19758 106.83C5.19758 106.417 5.07424 106.09 4.82758 105.85C4.58758 105.603 4.20424 105.48 3.67758 105.48H2.90758V104.83L4.99758 102.62L6.14758 102.77L3.72758 105.19L3.85758 104.86C3.95091 104.807 4.03758 104.77 4.11758 104.75C4.19758 104.73 4.29091 104.72 4.39758 104.72C4.73758 104.72 5.05091 104.803 5.33758 104.97C5.62424 105.137 5.85425 105.373 6.02758 105.68C6.20091 105.987 6.28758 106.35 6.28758 106.77C6.28758 107.21 6.19091 107.607 5.99758 107.96C5.80424 108.313 5.52424 108.593 5.15758 108.8C4.79758 109 4.36091 109.1 3.84758 109.1ZM1.55758 103.1V102.1H6.14758V102.77L5.34758 103.1H1.55758ZM9.79023 109.1C9.00357 109.1 8.37357 108.8 7.90023 108.2C7.4269 107.593 7.19023 106.71 7.19023 105.55C7.19023 104.383 7.4269 103.5 7.90023 102.9C8.37357 102.3 9.00357 102 9.79023 102C10.5836 102 11.2169 102.3 11.6902 102.9C12.1636 103.5 12.4002 104.383 12.4002 105.55C12.4002 106.71 12.1636 107.593 11.6902 108.2C11.2169 108.8 10.5836 109.1 9.79023 109.1ZM9.79023 108.13C10.2702 108.13 10.6436 107.927 10.9102 107.52C11.1769 107.113 11.3102 106.457 11.3102 105.55C11.3102 104.637 11.1769 103.98 10.9102 103.58C10.6436 103.173 10.2702 102.97 9.79023 102.97C9.3169 102.97 8.9469 103.173 8.68023 103.58C8.41357 103.98 8.28023 104.637 8.28023 105.55C8.28023 106.457 8.41357 107.113 8.68023 107.52C8.9469 107.927 9.3169 108.13 9.79023 108.13ZM14.4335 107.61V106.35L16.5835 103.7H17.7635L14.4335 107.61ZM13.5035 109V101.85H14.5035V109H13.5035ZM16.7035 109L15.0335 106.62L15.6835 105.9L17.9235 109H16.7035Z" fill="#94A3B8"/>
<path d="M2.64711 141.147L1.51711 140.997L4.15711 138.357C4.45711 138.057 4.67711 137.773 4.81711 137.507C4.95711 137.24 5.02711 136.983 5.02711 136.737C5.02711 136.37 4.91711 136.087 4.69711 135.887C4.48378 135.687 4.20044 135.587 3.84711 135.587C3.48044 135.587 3.18044 135.717 2.94711 135.977C2.72044 136.23 2.57711 136.617 2.51711 137.137L1.48711 136.937C1.54711 136.437 1.68711 136.02 1.90711 135.687C2.12711 135.347 2.40711 135.093 2.74711 134.927C3.08711 134.753 3.47044 134.667 3.89711 134.667C4.31044 134.667 4.68378 134.75 5.01711 134.917C5.35711 135.083 5.62378 135.317 5.81711 135.617C6.01711 135.917 6.11711 136.27 6.11711 136.677C6.11711 136.997 6.06711 137.28 5.96711 137.527C5.86711 137.767 5.72044 138.003 5.52711 138.237C5.33378 138.463 5.09711 138.717 4.81711 138.997L2.64711 141.147ZM1.51711 141.667V140.997L2.31711 140.667H6.30711V141.667H1.51711ZM9.79023 141.767C9.00357 141.767 8.37357 141.467 7.90023 140.867C7.4269 140.26 7.19023 139.377 7.19023 138.217C7.19023 137.05 7.4269 136.167 7.90023 135.567C8.37357 134.967 9.00357 134.667 9.79023 134.667C10.5836 134.667 11.2169 134.967 11.6902 135.567C12.1636 136.167 12.4002 137.05 12.4002 138.217C12.4002 139.377 12.1636 140.26 11.6902 140.867C11.2169 141.467 10.5836 141.767 9.79023 141.767ZM9.79023 140.797C10.2702 140.797 10.6436 140.593 10.9102 140.187C11.1769 139.78 11.3102 139.123 11.3102 138.217C11.3102 137.303 11.1769 136.647 10.9102 136.247C10.6436 135.84 10.2702 135.637 9.79023 135.637C9.3169 135.637 8.9469 135.84 8.68023 136.247C8.41357 136.647 8.28023 137.303 8.28023 138.217C8.28023 139.123 8.41357 139.78 8.68023 140.187C8.9469 140.593 9.3169 140.797 9.79023 140.797ZM14.4335 140.277V139.017L16.5835 136.367H17.7635L14.4335 140.277ZM13.5035 141.667V134.517H14.5035V141.667H13.5035ZM16.7035 141.667L15.0335 139.287L15.6835 138.567L17.9235 141.667H16.7035Z" fill="#94A3B8"/>
<path d="M4.69414 174.333V168.613L4.94414 167.433H5.74414V174.333H4.69414ZM3.46414 169.343V168.583C3.77747 168.55 4.03081 168.497 4.22414 168.423C4.41747 168.35 4.57081 168.237 4.68414 168.083C4.79747 167.923 4.88414 167.707 4.94414 167.433L5.20414 169.343H3.46414ZM9.79023 174.433C9.00357 174.433 8.37357 174.133 7.90023 173.533C7.4269 172.927 7.19023 172.043 7.19023 170.883C7.19023 169.717 7.4269 168.833 7.90023 168.233C8.37357 167.633 9.00357 167.333 9.79023 167.333C10.5836 167.333 11.2169 167.633 11.6902 168.233C12.1636 168.833 12.4002 169.717 12.4002 170.883C12.4002 172.043 12.1636 172.927 11.6902 173.533C11.2169 174.133 10.5836 174.433 9.79023 174.433ZM9.79023 173.463C10.2702 173.463 10.6436 173.26 10.9102 172.853C11.1769 172.447 11.3102 171.79 11.3102 170.883C11.3102 169.97 11.1769 169.313 10.9102 168.913C10.6436 168.507 10.2702 168.303 9.79023 168.303C9.3169 168.303 8.9469 168.507 8.68023 168.913C8.41357 169.313 8.28023 169.97 8.28023 170.883C8.28023 171.79 8.41357 172.447 8.68023 172.853C8.9469 173.26 9.3169 173.463 9.79023 173.463ZM14.4335 172.943V171.683L16.5835 169.033H17.7635L14.4335 172.943ZM13.5035 174.333V167.183H14.5035V174.333H13.5035ZM16.7035 174.333L15.0335 171.953L15.6835 171.233L17.9235 174.333H16.7035Z" fill="#94A3B8"/>
<path d="M14.9367 207.1C14.1501 207.1 13.5201 206.8 13.0467 206.2C12.5734 205.593 12.3367 204.71 12.3367 203.55C12.3367 202.383 12.5734 201.5 13.0467 200.9C13.5201 200.3 14.1501 200 14.9367 200C15.7301 200 16.3634 200.3 16.8367 200.9C17.3101 201.5 17.5467 202.383 17.5467 203.55C17.5467 204.71 17.3101 205.593 16.8367 206.2C16.3634 206.8 15.7301 207.1 14.9367 207.1ZM14.9367 206.13C15.4167 206.13 15.7901 205.927 16.0567 205.52C16.3234 205.113 16.4567 204.457 16.4567 203.55C16.4567 202.637 16.3234 201.98 16.0567 201.58C15.7901 201.173 15.4167 200.97 14.9367 200.97C14.4634 200.97 14.0934 201.173 13.8267 201.58C13.5601 201.98 13.4267 202.637 13.4267 203.55C13.4267 204.457 13.5601 205.113 13.8267 205.52C14.0934 205.927 14.4634 206.13 14.9367 206.13Z" fill="#94A3B8"/>
<line x1="26.25" y1="0.75" x2="304.75" y2="0.75" stroke="#C4C4C4" stroke-width="0.5" stroke-linecap="round" stroke-dasharray="1 2"/>
<line x1="26.25" y1="35.5834" x2="304.75" y2="35.5834" stroke="#C4C4C4" stroke-width="0.5" stroke-linecap="round" stroke-dasharray="1 2"/>
<line x1="26.25" y1="70.4166" x2="304.75" y2="70.4166" stroke="#C4C4C4" stroke-width="0.5" stroke-linecap="round" stroke-dasharray="1 2"/>
<line x1="26.25" y1="105.25" x2="304.75" y2="105.25" stroke="#C4C4C4" stroke-width="0.5" stroke-linecap="round" stroke-dasharray="1 2"/>
<line x1="26.25" y1="140.083" x2="304.75" y2="140.083" stroke="#C4C4C4" stroke-width="0.5" stroke-linecap="round" stroke-dasharray="1 2"/>
<line x1="26.25" y1="174.917" x2="304.75" y2="174.917" stroke="#C4C4C4" stroke-width="0.5" stroke-linecap="round" stroke-dasharray="1 2"/>
<line x1="26.5" y1="209.5" x2="304.5" y2="209.5" stroke="#C4C4C4" stroke-linecap="round"/>
<rect x="32" y="6" width="32.25" height="200" rx="4" fill="#EFF1F3"/>
<rect x="32" y="139" width="32.25" height="67" rx="4" fill="#0166FF" stroke="#EFF1F3" stroke-width="3"/>
<path d="M37.7146 224V218.28L37.9646 217.1H38.7646V224H37.7146ZM36.4846 219.01V218.25C36.798 218.217 37.0513 218.163 37.2446 218.09C37.438 218.017 37.5913 217.903 37.7046 217.75C37.818 217.59 37.9046 217.373 37.9646 217.1L38.2246 219.01H36.4846ZM41.4107 224C41.4507 223.293 41.5574 222.587 41.7307 221.88C41.9107 221.167 42.1641 220.457 42.4907 219.75C42.8241 219.037 43.2374 218.327 43.7307 217.62H44.8607C44.3074 218.36 43.8641 219.087 43.5307 219.8C43.2041 220.507 42.9674 221.207 42.8207 221.9C42.6807 222.593 42.6074 223.293 42.6007 224H41.4107ZM39.9607 218.1V217.1H44.8607V217.62L44.1607 218.1H39.9607ZM45.7123 221.39V220.54H48.2623V221.39H45.7123ZM50.4723 223.48L49.3423 223.33L51.9823 220.69C52.2823 220.39 52.5023 220.107 52.6423 219.84C52.7823 219.573 52.8523 219.317 52.8523 219.07C52.8523 218.703 52.7423 218.42 52.5223 218.22C52.309 218.02 52.0256 217.92 51.6723 217.92C51.3056 217.92 51.0056 218.05 50.7723 218.31C50.5456 218.563 50.4023 218.95 50.3423 219.47L49.3123 219.27C49.3723 218.77 49.5123 218.353 49.7323 218.02C49.9523 217.68 50.2323 217.427 50.5723 217.26C50.9123 217.087 51.2956 217 51.7223 217C52.1356 217 52.509 217.083 52.8423 217.25C53.1823 217.417 53.449 217.65 53.6423 217.95C53.8423 218.25 53.9423 218.603 53.9423 219.01C53.9423 219.33 53.8923 219.613 53.7923 219.86C53.6923 220.1 53.5456 220.337 53.3523 220.57C53.159 220.797 52.9223 221.05 52.6423 221.33L50.4723 223.48ZM49.3423 224V223.33L50.1423 223H54.1323V224H49.3423ZM54.4901 222.07L57.1901 217.1H58.2101L55.5101 222.07H54.4901ZM54.4901 222.59V222.07L54.8901 221.63H59.8401V222.59H54.4901ZM57.7901 224V217.1H58.8401V224H57.7901Z" fill="#94A3B8"/>
<rect x="78.75" y="6" width="32.25" height="200" rx="4" fill="#EFF1F3"/>
<path d="M78.75 83C78.75 80.7909 80.5409 79 82.75 79H107C109.209 79 111 80.7909 111 83V202C111 204.209 109.209 206 107 206H82.75C80.5409 206 78.75 204.209 78.75 202V83Z" fill="#0166FF" stroke="#EFF1F3" stroke-width="3"/>
<path d="M84.7219 224.1C83.9352 224.1 83.3052 223.8 82.8319 223.2C82.3585 222.593 82.1219 221.71 82.1219 220.55C82.1219 219.383 82.3585 218.5 82.8319 217.9C83.3052 217.3 83.9352 217 84.7219 217C85.5152 217 86.1485 217.3 86.6219 217.9C87.0952 218.5 87.3319 219.383 87.3319 220.55C87.3319 221.71 87.0952 222.593 86.6219 223.2C86.1485 223.8 85.5152 224.1 84.7219 224.1ZM84.7219 223.13C85.2019 223.13 85.5752 222.927 85.8419 222.52C86.1085 222.113 86.2419 221.457 86.2419 220.55C86.2419 219.637 86.1085 218.98 85.8419 218.58C85.5752 218.173 85.2019 217.97 84.7219 217.97C84.2485 217.97 83.8785 218.173 83.6119 218.58C83.3452 218.98 83.2119 219.637 83.2119 220.55C83.2119 221.457 83.3452 222.113 83.6119 222.52C83.8785 222.927 84.2485 223.13 84.7219 223.13ZM90.4252 224.1C89.9252 224.1 89.4818 223.98 89.0952 223.74C88.7152 223.5 88.4385 223.15 88.2652 222.69L89.1852 222.25C89.2985 222.537 89.4685 222.76 89.6952 222.92C89.9285 223.073 90.2018 223.15 90.5152 223.15C91.0085 223.15 91.3985 222.957 91.6852 222.57C91.9718 222.183 92.1152 221.577 92.1152 220.75C92.1152 220.577 92.1118 220.43 92.1052 220.31C92.1052 220.183 92.0985 220.067 92.0852 219.96L92.2252 219.71C92.2052 220.103 92.1052 220.43 91.9252 220.69C91.7452 220.95 91.5118 221.147 91.2252 221.28C90.9452 221.407 90.6352 221.47 90.2952 221.47C89.9085 221.47 89.5485 221.38 89.2152 221.2C88.8885 221.02 88.6252 220.767 88.4252 220.44C88.2318 220.113 88.1352 219.727 88.1352 219.28C88.1352 218.847 88.2352 218.46 88.4352 218.12C88.6352 217.773 88.9185 217.5 89.2852 217.3C89.6585 217.1 90.0952 217 90.5952 217C91.1085 217 91.5618 217.12 91.9552 217.36C92.3485 217.6 92.6552 217.967 92.8752 218.46C93.0952 218.953 93.2052 219.583 93.2052 220.35C93.2052 221.577 92.9585 222.51 92.4652 223.15C91.9785 223.783 91.2985 224.1 90.4252 224.1ZM90.6252 220.54C90.8985 220.54 91.1385 220.483 91.3452 220.37C91.5585 220.257 91.7252 220.103 91.8452 219.91C91.9652 219.717 92.0252 219.507 92.0252 219.28C92.0252 219.027 91.9618 218.8 91.8352 218.6C91.7152 218.4 91.5452 218.243 91.3252 218.13C91.1052 218.01 90.8552 217.95 90.5752 217.95C90.1552 217.95 89.8252 218.077 89.5852 218.33C89.3452 218.583 89.2252 218.88 89.2252 219.22C89.2252 219.607 89.3452 219.923 89.5852 220.17C89.8252 220.417 90.1718 220.54 90.6252 220.54ZM94.7543 219.93C94.5676 219.93 94.411 219.867 94.2843 219.74C94.1643 219.613 94.1043 219.457 94.1043 219.27C94.1043 219.077 94.1643 218.917 94.2843 218.79C94.411 218.663 94.5676 218.6 94.7543 218.6C94.9476 218.6 95.1043 218.663 95.2243 218.79C95.3443 218.917 95.4043 219.077 95.4043 219.27C95.4043 219.457 95.3443 219.613 95.2243 219.74C95.1043 219.867 94.9476 219.93 94.7543 219.93ZM94.7543 224.1C94.5676 224.1 94.411 224.037 94.2843 223.91C94.1643 223.783 94.1043 223.627 94.1043 223.44C94.1043 223.247 94.1643 223.087 94.2843 222.96C94.411 222.833 94.5676 222.77 94.7543 222.77C94.9476 222.77 95.1043 222.833 95.2243 222.96C95.3443 223.087 95.4043 223.247 95.4043 223.44C95.4043 223.627 95.3443 223.783 95.2243 223.91C95.1043 224.037 94.9476 224.1 94.7543 224.1ZM98.9016 224.1C98.1149 224.1 97.4849 223.8 97.0116 223.2C96.5382 222.593 96.3016 221.71 96.3016 220.55C96.3016 219.383 96.5382 218.5 97.0116 217.9C97.4849 217.3 98.1149 217 98.9016 217C99.6949 217 100.328 217.3 100.802 217.9C101.275 218.5 101.512 219.383 101.512 220.55C101.512 221.71 101.275 222.593 100.802 223.2C100.328 223.8 99.6949 224.1 98.9016 224.1ZM98.9016 223.13C99.3816 223.13 99.7549 222.927 100.022 222.52C100.288 222.113 100.422 221.457 100.422 220.55C100.422 219.637 100.288 218.98 100.022 218.58C99.7549 218.173 99.3816 217.97 98.9016 217.97C98.4282 217.97 98.0582 218.173 97.7916 218.58C97.5249 218.98 97.3916 219.637 97.3916 220.55C97.3916 221.457 97.5249 222.113 97.7916 222.52C98.0582 222.927 98.4282 223.13 98.9016 223.13ZM105.015 224.1C104.228 224.1 103.598 223.8 103.125 223.2C102.652 222.593 102.415 221.71 102.415 220.55C102.415 219.383 102.652 218.5 103.125 217.9C103.598 217.3 104.228 217 105.015 217C105.808 217 106.442 217.3 106.915 217.9C107.388 218.5 107.625 219.383 107.625 220.55C107.625 221.71 107.388 222.593 106.915 223.2C106.442 223.8 105.808 224.1 105.015 224.1ZM105.015 223.13C105.495 223.13 105.868 222.927 106.135 222.52C106.402 222.113 106.535 221.457 106.535 220.55C106.535 219.637 106.402 218.98 106.135 218.58C105.868 218.173 105.495 217.97 105.015 217.97C104.542 217.97 104.172 218.173 103.905 218.58C103.638 218.98 103.505 219.637 103.505 220.55C103.505 221.457 103.638 222.113 103.905 222.52C104.172 222.927 104.542 223.13 105.015 223.13Z" fill="#94A3B8"/>
<rect x="125.5" y="6" width="32.25" height="200" rx="4" fill="#EFF1F3"/>
<path d="M125.5 183C125.5 180.791 127.291 179 129.5 179H153.75C155.959 179 157.75 180.791 157.75 183V202C157.75 204.209 155.959 206 153.75 206H129.5C127.291 206 125.5 204.209 125.5 202V183Z" fill="#0166FF" stroke="#EFF1F3" stroke-width="3"/>
<path d="M131.058 224V218.28L131.308 217.1H132.108V224H131.058ZM129.828 219.01V218.25C130.142 218.217 130.395 218.163 130.588 218.09C130.782 218.017 130.935 217.903 131.048 217.75C131.162 217.59 131.248 217.373 131.308 217.1L131.568 219.01H129.828ZM136.154 224.1C135.368 224.1 134.738 223.8 134.264 223.2C133.791 222.593 133.554 221.71 133.554 220.55C133.554 219.383 133.791 218.5 134.264 217.9C134.738 217.3 135.368 217 136.154 217C136.948 217 137.581 217.3 138.054 217.9C138.528 218.5 138.764 219.383 138.764 220.55C138.764 221.71 138.528 222.593 138.054 223.2C137.581 223.8 136.948 224.1 136.154 224.1ZM136.154 223.13C136.634 223.13 137.008 222.927 137.274 222.52C137.541 222.113 137.674 221.457 137.674 220.55C137.674 219.637 137.541 218.98 137.274 218.58C137.008 218.173 136.634 217.97 136.154 217.97C135.681 217.97 135.311 218.173 135.044 218.58C134.778 218.98 134.644 219.637 134.644 220.55C134.644 221.457 134.778 222.113 135.044 222.52C135.311 222.927 135.681 223.13 136.154 223.13ZM140.318 219.93C140.131 219.93 139.974 219.867 139.848 219.74C139.728 219.613 139.668 219.457 139.668 219.27C139.668 219.077 139.728 218.917 139.848 218.79C139.974 218.663 140.131 218.6 140.318 218.6C140.511 218.6 140.668 218.663 140.788 218.79C140.908 218.917 140.968 219.077 140.968 219.27C140.968 219.457 140.908 219.613 140.788 219.74C140.668 219.867 140.511 219.93 140.318 219.93ZM140.318 224.1C140.131 224.1 139.974 224.037 139.848 223.91C139.728 223.783 139.668 223.627 139.668 223.44C139.668 223.247 139.728 223.087 139.848 222.96C139.974 222.833 140.131 222.77 140.318 222.77C140.511 222.77 140.668 222.833 140.788 222.96C140.908 223.087 140.968 223.247 140.968 223.44C140.968 223.627 140.908 223.783 140.788 223.91C140.668 224.037 140.511 224.1 140.318 224.1ZM144.465 224.1C143.678 224.1 143.048 223.8 142.575 223.2C142.102 222.593 141.865 221.71 141.865 220.55C141.865 219.383 142.102 218.5 142.575 217.9C143.048 217.3 143.678 217 144.465 217C145.258 217 145.892 217.3 146.365 217.9C146.838 218.5 147.075 219.383 147.075 220.55C147.075 221.71 146.838 222.593 146.365 223.2C145.892 223.8 145.258 224.1 144.465 224.1ZM144.465 223.13C144.945 223.13 145.318 222.927 145.585 222.52C145.852 222.113 145.985 221.457 145.985 220.55C145.985 219.637 145.852 218.98 145.585 218.58C145.318 218.173 144.945 217.97 144.465 217.97C143.992 217.97 143.622 218.173 143.355 218.58C143.088 218.98 142.955 219.637 142.955 220.55C142.955 221.457 143.088 222.113 143.355 222.52C143.622 222.927 143.992 223.13 144.465 223.13ZM150.578 224.1C149.792 224.1 149.162 223.8 148.688 223.2C148.215 222.593 147.978 221.71 147.978 220.55C147.978 219.383 148.215 218.5 148.688 217.9C149.162 217.3 149.792 217 150.578 217C151.372 217 152.005 217.3 152.478 217.9C152.952 218.5 153.188 219.383 153.188 220.55C153.188 221.71 152.952 222.593 152.478 223.2C152.005 223.8 151.372 224.1 150.578 224.1ZM150.578 223.13C151.058 223.13 151.432 222.927 151.698 222.52C151.965 222.113 152.098 221.457 152.098 220.55C152.098 219.637 151.965 218.98 151.698 218.58C151.432 218.173 151.058 217.97 150.578 217.97C150.105 217.97 149.735 218.173 149.468 218.58C149.202 218.98 149.068 219.637 149.068 220.55C149.068 221.457 149.202 222.113 149.468 222.52C149.735 222.927 150.105 223.13 150.578 223.13Z" fill="#94A3B8"/>
<rect x="172.25" y="6" width="32.25" height="200" rx="4" fill="#EFF1F3"/>
<path d="M172.25 123C172.25 120.791 174.041 119 176.25 119H200.5C202.709 119 204.5 120.791 204.5 123V202C204.5 204.209 202.709 206 200.5 206H176.25C174.041 206 172.25 204.209 172.25 202V123Z" fill="#0166FF" stroke="#EFF1F3" stroke-width="3"/>
<path d="M179.117 224V218.28L179.367 217.1H180.167V224H179.117ZM177.887 219.01V218.25C178.2 218.217 178.454 218.163 178.647 218.09C178.84 218.017 178.994 217.903 179.107 217.75C179.22 217.59 179.307 217.373 179.367 217.1L179.627 219.01H177.887ZM182.613 224V218.28L182.863 217.1H183.663V224H182.613ZM181.383 219.01V218.25C181.696 218.217 181.95 218.163 182.143 218.09C182.336 218.017 182.49 217.903 182.603 217.75C182.716 217.59 182.803 217.373 182.863 217.1L183.123 219.01H181.383ZM185.759 219.93C185.573 219.93 185.416 219.867 185.289 219.74C185.169 219.613 185.109 219.457 185.109 219.27C185.109 219.077 185.169 218.917 185.289 218.79C185.416 218.663 185.573 218.6 185.759 218.6C185.953 218.6 186.109 218.663 186.229 218.79C186.349 218.917 186.409 219.077 186.409 219.27C186.409 219.457 186.349 219.613 186.229 219.74C186.109 219.867 185.953 219.93 185.759 219.93ZM185.759 224.1C185.573 224.1 185.416 224.037 185.289 223.91C185.169 223.783 185.109 223.627 185.109 223.44C185.109 223.247 185.169 223.087 185.289 222.96C185.416 222.833 185.573 222.77 185.759 222.77C185.953 222.77 186.109 222.833 186.229 222.96C186.349 223.087 186.409 223.247 186.409 223.44C186.409 223.627 186.349 223.783 186.229 223.91C186.109 224.037 185.953 224.1 185.759 224.1ZM189.906 224.1C189.12 224.1 188.49 223.8 188.016 223.2C187.543 222.593 187.306 221.71 187.306 220.55C187.306 219.383 187.543 218.5 188.016 217.9C188.49 217.3 189.12 217 189.906 217C190.7 217 191.333 217.3 191.806 217.9C192.28 218.5 192.516 219.383 192.516 220.55C192.516 221.71 192.28 222.593 191.806 223.2C191.333 223.8 190.7 224.1 189.906 224.1ZM189.906 223.13C190.386 223.13 190.76 222.927 191.026 222.52C191.293 222.113 191.426 221.457 191.426 220.55C191.426 219.637 191.293 218.98 191.026 218.58C190.76 218.173 190.386 217.97 189.906 217.97C189.433 217.97 189.063 218.173 188.796 218.58C188.53 218.98 188.396 219.637 188.396 220.55C188.396 221.457 188.53 222.113 188.796 222.52C189.063 222.927 189.433 223.13 189.906 223.13ZM196.02 224.1C195.233 224.1 194.603 223.8 194.13 223.2C193.656 222.593 193.42 221.71 193.42 220.55C193.42 219.383 193.656 218.5 194.13 217.9C194.603 217.3 195.233 217 196.02 217C196.813 217 197.446 217.3 197.92 217.9C198.393 218.5 198.63 219.383 198.63 220.55C198.63 221.71 198.393 222.593 197.92 223.2C197.446 223.8 196.813 224.1 196.02 224.1ZM196.02 223.13C196.5 223.13 196.873 222.927 197.14 222.52C197.406 222.113 197.54 221.457 197.54 220.55C197.54 219.637 197.406 218.98 197.14 218.58C196.873 218.173 196.5 217.97 196.02 217.97C195.546 217.97 195.176 218.173 194.91 218.58C194.643 218.98 194.51 219.637 194.51 220.55C194.51 221.457 194.643 222.113 194.91 222.52C195.176 222.927 195.546 223.13 196.02 223.13Z" fill="#94A3B8"/>
<rect x="219" y="6" width="32.25" height="200" rx="4" fill="#EFF1F3"/>
<path d="M219 103C219 100.791 220.791 99 223 99H247.25C249.459 99 251.25 100.791 251.25 103V202C251.25 204.209 249.459 206 247.25 206H223C220.791 206 219 204.209 219 202V103Z" fill="#0166FF" stroke="#EFF1F3" stroke-width="3"/>
<path d="M224.763 224V218.28L225.013 217.1H225.813V224H224.763ZM223.533 219.01V218.25C223.847 218.217 224.1 218.163 224.293 218.09C224.487 218.017 224.64 217.903 224.753 217.75C224.867 217.59 224.953 217.373 225.013 217.1L225.273 219.01H223.533ZM228.42 223.48L227.29 223.33L229.93 220.69C230.23 220.39 230.45 220.107 230.59 219.84C230.73 219.573 230.8 219.317 230.8 219.07C230.8 218.703 230.69 218.42 230.47 218.22C230.256 218.02 229.973 217.92 229.62 217.92C229.253 217.92 228.953 218.05 228.72 218.31C228.493 218.563 228.35 218.95 228.29 219.47L227.26 219.27C227.32 218.77 227.46 218.353 227.68 218.02C227.9 217.68 228.18 217.427 228.52 217.26C228.86 217.087 229.243 217 229.67 217C230.083 217 230.456 217.083 230.79 217.25C231.13 217.417 231.396 217.65 231.59 217.95C231.79 218.25 231.89 218.603 231.89 219.01C231.89 219.33 231.84 219.613 231.74 219.86C231.64 220.1 231.493 220.337 231.3 220.57C231.106 220.797 230.87 221.05 230.59 221.33L228.42 223.48ZM227.29 224V223.33L228.09 223H232.08V224H227.29ZM233.613 219.93C233.426 219.93 233.269 219.867 233.143 219.74C233.023 219.613 232.963 219.457 232.963 219.27C232.963 219.077 233.023 218.917 233.143 218.79C233.269 218.663 233.426 218.6 233.613 218.6C233.806 218.6 233.963 218.663 234.083 218.79C234.203 218.917 234.263 219.077 234.263 219.27C234.263 219.457 234.203 219.613 234.083 219.74C233.963 219.867 233.806 219.93 233.613 219.93ZM233.613 224.1C233.426 224.1 233.269 224.037 233.143 223.91C233.023 223.783 232.963 223.627 232.963 223.44C232.963 223.247 233.023 223.087 233.143 222.96C233.269 222.833 233.426 222.77 233.613 222.77C233.806 222.77 233.963 222.833 234.083 222.96C234.203 223.087 234.263 223.247 234.263 223.44C234.263 223.627 234.203 223.783 234.083 223.91C233.963 224.037 233.806 224.1 233.613 224.1ZM237.76 224.1C236.973 224.1 236.343 223.8 235.87 223.2C235.397 222.593 235.16 221.71 235.16 220.55C235.16 219.383 235.397 218.5 235.87 217.9C236.343 217.3 236.973 217 237.76 217C238.553 217 239.187 217.3 239.66 217.9C240.133 218.5 240.37 219.383 240.37 220.55C240.37 221.71 240.133 222.593 239.66 223.2C239.187 223.8 238.553 224.1 237.76 224.1ZM237.76 223.13C238.24 223.13 238.613 222.927 238.88 222.52C239.147 222.113 239.28 221.457 239.28 220.55C239.28 219.637 239.147 218.98 238.88 218.58C238.613 218.173 238.24 217.97 237.76 217.97C237.287 217.97 236.917 218.173 236.65 218.58C236.383 218.98 236.25 219.637 236.25 220.55C236.25 221.457 236.383 222.113 236.65 222.52C236.917 222.927 237.287 223.13 237.76 223.13ZM243.873 224.1C243.087 224.1 242.457 223.8 241.983 223.2C241.51 222.593 241.273 221.71 241.273 220.55C241.273 219.383 241.51 218.5 241.983 217.9C242.457 217.3 243.087 217 243.873 217C244.667 217 245.3 217.3 245.773 217.9C246.247 218.5 246.483 219.383 246.483 220.55C246.483 221.71 246.247 222.593 245.773 223.2C245.3 223.8 244.667 224.1 243.873 224.1ZM243.873 223.13C244.353 223.13 244.727 222.927 244.993 222.52C245.26 222.113 245.393 221.457 245.393 220.55C245.393 219.637 245.26 218.98 244.993 218.58C244.727 218.173 244.353 217.97 243.873 217.97C243.4 217.97 243.03 218.173 242.763 218.58C242.497 218.98 242.363 219.637 242.363 220.55C242.363 221.457 242.497 222.113 242.763 222.52C243.03 222.927 243.4 223.13 243.873 223.13Z" fill="#94A3B8"/>
<rect x="265.75" y="6" width="32.25" height="200" rx="4" fill="#EFF1F3"/>
<path d="M265.75 163C265.75 160.791 267.541 159 269.75 159H294C296.209 159 298 160.791 298 163V202C298 204.209 296.209 206 294 206H269.75C267.541 206 265.75 204.209 265.75 202V163Z" fill="#0166FF" stroke="#EFF1F3" stroke-width="3"/>
<path d="M271.504 224V218.28L271.754 217.1H272.554V224H271.504ZM270.274 219.01V218.25C270.587 218.217 270.84 218.163 271.034 218.09C271.227 218.017 271.38 217.903 271.494 217.75C271.607 217.59 271.694 217.373 271.754 217.1L272.014 219.01H270.274ZM276.38 224.1C275.72 224.1 275.166 223.92 274.72 223.56C274.28 223.2 274.006 222.677 273.9 221.99L274.94 221.76C274.986 222.233 275.136 222.583 275.39 222.81C275.643 223.037 275.97 223.15 276.37 223.15C276.81 223.15 277.146 223.023 277.38 222.77C277.613 222.51 277.73 222.197 277.73 221.83C277.73 221.417 277.606 221.09 277.36 220.85C277.12 220.603 276.736 220.48 276.21 220.48H275.44V219.83L277.53 217.62L278.68 217.77L276.26 220.19L276.39 219.86C276.483 219.807 276.57 219.77 276.65 219.75C276.73 219.73 276.823 219.72 276.93 219.72C277.27 219.72 277.583 219.803 277.87 219.97C278.156 220.137 278.386 220.373 278.56 220.68C278.733 220.987 278.82 221.35 278.82 221.77C278.82 222.21 278.723 222.607 278.53 222.96C278.336 223.313 278.056 223.593 277.69 223.8C277.33 224 276.893 224.1 276.38 224.1ZM274.09 218.1V217.1H278.68V217.77L277.88 218.1H274.09ZM280.372 219.93C280.186 219.93 280.029 219.867 279.902 219.74C279.782 219.613 279.722 219.457 279.722 219.27C279.722 219.077 279.782 218.917 279.902 218.79C280.029 218.663 280.186 218.6 280.372 218.6C280.566 218.6 280.722 218.663 280.842 218.79C280.962 218.917 281.022 219.077 281.022 219.27C281.022 219.457 280.962 219.613 280.842 219.74C280.722 219.867 280.566 219.93 280.372 219.93ZM280.372 224.1C280.186 224.1 280.029 224.037 279.902 223.91C279.782 223.783 279.722 223.627 279.722 223.44C279.722 223.247 279.782 223.087 279.902 222.96C280.029 222.833 280.186 222.77 280.372 222.77C280.566 222.77 280.722 222.833 280.842 222.96C280.962 223.087 281.022 223.247 281.022 223.44C281.022 223.627 280.962 223.783 280.842 223.91C280.722 224.037 280.566 224.1 280.372 224.1ZM284.52 224.1C283.733 224.1 283.103 223.8 282.63 223.2C282.156 222.593 281.92 221.71 281.92 220.55C281.92 219.383 282.156 218.5 282.63 217.9C283.103 217.3 283.733 217 284.52 217C285.313 217 285.946 217.3 286.42 217.9C286.893 218.5 287.13 219.383 287.13 220.55C287.13 221.71 286.893 222.593 286.42 223.2C285.946 223.8 285.313 224.1 284.52 224.1ZM284.52 223.13C285 223.13 285.373 222.927 285.64 222.52C285.906 222.113 286.04 221.457 286.04 220.55C286.04 219.637 285.906 218.98 285.64 218.58C285.373 218.173 285 217.97 284.52 217.97C284.046 217.97 283.676 218.173 283.41 218.58C283.143 218.98 283.01 219.637 283.01 220.55C283.01 221.457 283.143 222.113 283.41 222.52C283.676 222.927 284.046 223.13 284.52 223.13ZM290.633 224.1C289.846 224.1 289.216 223.8 288.743 223.2C288.27 222.593 288.033 221.71 288.033 220.55C288.033 219.383 288.27 218.5 288.743 217.9C289.216 217.3 289.846 217 290.633 217C291.426 217 292.06 217.3 292.533 217.9C293.006 218.5 293.243 219.383 293.243 220.55C293.243 221.71 293.006 222.593 292.533 223.2C292.06 223.8 291.426 224.1 290.633 224.1ZM290.633 223.13C291.113 223.13 291.486 222.927 291.753 222.52C292.02 222.113 292.153 221.457 292.153 220.55C292.153 219.637 292.02 218.98 291.753 218.58C291.486 218.173 291.113 217.97 290.633 217.97C290.16 217.97 289.79 218.173 289.523 218.58C289.256 218.98 289.123 219.637 289.123 220.55C289.123 221.457 289.256 222.113 289.523 222.52C289.79 222.927 290.16 223.13 290.633 223.13Z" fill="#94A3B8"/>
</svg>
