<svg width="14" height="14" viewBox="0 0 14 14" fill="none" xmlns="http://www.w3.org/2000/svg">
<g clip-path="url(#clip0_385_10542)">
<path fill-rule="evenodd" clip-rule="evenodd" d="M6.9959 12.8435C6.95489 12.8435 6.91388 12.8271 6.88108 12.7943C5.80668 11.7199 4.72408 10.867 3.7645 10.1124C1.66491 8.45573 0 7.15169 0 4.74044C0 2.76387 1.6075 1.15637 3.58407 1.15637C5.33099 1.15637 6.21675 2.05034 6.9959 3.52661C7.78325 2.05034 8.66081 1.15637 10.4159 1.15637C12.3925 1.15637 14 2.76387 14 4.74044C14 7.15169 12.3351 8.45573 10.2355 10.1124C9.27592 10.867 8.18512 11.7199 7.11072 12.7943C7.08612 12.8271 7.03691 12.8435 6.9959 12.8435Z" fill="#FF4646"/>
<path fill-rule="evenodd" clip-rule="evenodd" d="M5.46182 8.77562C5.38801 8.77562 5.3306 8.72642 5.306 8.6608L4.64987 6.56121C4.60887 6.67603 4.56786 6.78265 4.53505 6.87287C4.15778 7.85705 4.10857 7.93087 3.1654 7.88986C2.88655 7.88166 2.50107 7.86526 1.97618 7.87346C1.88596 7.87346 1.81215 7.80784 1.81215 7.71763C1.80395 7.62741 1.87776 7.5536 1.96798 7.5454C2.50107 7.53719 2.89475 7.5536 3.1818 7.5618C3.56727 7.5782 3.75591 7.59461 3.86253 7.51259C3.97735 7.42237 4.06757 7.18453 4.2316 6.75805C4.30541 6.55301 4.39563 6.30697 4.51865 6.01171C4.54325 5.9461 4.60887 5.90509 4.67448 5.90509C4.74829 5.91329 4.8057 5.9543 4.83031 6.01991L5.47823 8.1031L5.62585 7.70943C5.65046 7.64381 5.71607 7.60281 5.78168 7.60281H6.13435L6.83968 5.33919C6.86428 5.26537 6.9299 5.22437 6.99551 5.22437C7.06932 5.22437 7.13494 5.26537 7.15134 5.33919L7.85667 7.60281H8.21754C8.28315 7.60281 8.34876 7.64381 8.36516 7.70943L8.52099 8.1031L9.16891 6.01991C9.19352 5.9543 9.25093 5.91329 9.31654 5.90509C9.39035 5.90509 9.44776 5.9461 9.48057 6.01171C9.59539 6.30697 9.69381 6.55301 9.76762 6.75805C9.93165 7.18453 10.0219 7.42237 10.1367 7.51259C10.2433 7.59461 10.4319 7.5782 10.8174 7.5618C11.1045 7.5536 11.4981 7.53719 12.0312 7.5454C12.1215 7.5536 12.1871 7.62741 12.1871 7.71763C12.1871 7.80784 12.1133 7.88166 12.023 7.87346C11.4981 7.86526 11.1127 7.88166 10.8338 7.88986C9.89065 7.93087 9.83324 7.85705 9.46417 6.87287C9.42316 6.78265 9.39035 6.67603 9.34115 6.56121L8.68502 8.6608C8.66862 8.72642 8.60301 8.77562 8.5374 8.77562C8.46358 8.77562 8.40617 8.73462 8.38157 8.669L8.10272 7.93087H7.74185C7.66803 7.93087 7.60242 7.88166 7.58602 7.81605L6.99551 5.9379L6.4132 7.81605C6.3968 7.88166 6.33119 7.93087 6.25737 7.93087H5.89651L5.61765 8.669C5.59305 8.73462 5.53564 8.77562 5.46182 8.77562Z" fill="#FF7979"/>
</g>
<defs>
<clipPath id="clip0_385_10542">
<rect width="14" height="14" fill="white"/>
</clipPath>
</defs>
</svg>
