<svg width="25" height="24" viewBox="0 0 25 24" fill="none" xmlns="http://www.w3.org/2000/svg">
<path d="M21.2653 9.72855L13.7653 2.6523C13.7616 2.6491 13.7582 2.64566 13.755 2.64199C13.4789 2.39086 13.119 2.25171 12.7458 2.25171C12.3725 2.25171 12.0127 2.39086 11.7366 2.64199L11.7263 2.6523L4.23469 9.72855C4.08187 9.86907 3.95989 10.0398 3.87646 10.2299C3.79303 10.42 3.74997 10.6253 3.75 10.8329V19.5001C3.75 19.8979 3.90804 20.2795 4.18934 20.5608C4.47064 20.8421 4.85218 21.0001 5.25 21.0001H9.75C10.1478 21.0001 10.5294 20.8421 10.8107 20.5608C11.092 20.2795 11.25 19.8979 11.25 19.5001V15.0001H14.25V19.5001C14.25 19.8979 14.408 20.2795 14.6893 20.5608C14.9706 20.8421 15.3522 21.0001 15.75 21.0001H20.25C20.6478 21.0001 21.0294 20.8421 21.3107 20.5608C21.592 20.2795 21.75 19.8979 21.75 19.5001V10.8329C21.75 10.6253 21.707 10.42 21.6235 10.2299C21.5401 10.0398 21.4181 9.86907 21.2653 9.72855ZM20.25 19.5001H15.75V15.0001C15.75 14.6023 15.592 14.2208 15.3107 13.9395C15.0294 13.6582 14.6478 13.5001 14.25 13.5001H11.25C10.8522 13.5001 10.4706 13.6582 10.1893 13.9395C9.90804 14.2208 9.75 14.6023 9.75 15.0001V19.5001H5.25V10.8329L5.26031 10.8236L12.75 3.75011L20.2406 10.8217L20.2509 10.8311L20.25 19.5001Z" fill="#0145FE"/>
</svg>
