<svg width="12" height="13" viewBox="0 0 12 13" fill="none" xmlns="http://www.w3.org/2000/svg">
<mask id="path-1-outside-1_239_19897" maskUnits="userSpaceOnUse" x="0" y="1.6001" width="12" height="10" fill="black">
<rect fill="white" y="1.6001" width="12" height="10"/>
<path d="M11 3.4081V9.7926C11 10.0146 10.9208 10.2046 10.7625 10.3626C10.6042 10.5206 10.4142 10.5998 10.1925 10.6001H8.25C8.179 10.6001 8.11967 10.5761 8.072 10.5281C8.02433 10.4801 8.00033 10.4206 8 10.3496C7.99967 10.2786 8.02367 10.2193 8.072 10.1716C8.12033 10.1239 8.17967 10.1001 8.25 10.1001H10.1925C10.2822 10.1001 10.3558 10.0713 10.4135 10.0136C10.4712 9.95593 10.5 9.88227 10.5 9.7926V3.4076C10.5 3.31793 10.4712 3.24426 10.4135 3.1866C10.3558 3.12893 10.2822 3.1001 10.1925 3.1001H6C5.91 3.1001 5.83633 3.12893 5.779 3.1866C5.72133 3.24426 5.6925 3.3181 5.6925 3.4081V3.9946C5.6925 4.06526 5.6685 4.1246 5.6205 4.1726C5.5725 4.2206 5.513 4.2446 5.442 4.2446C5.371 4.2446 5.31167 4.2206 5.264 4.1726C5.21633 4.1246 5.19233 4.06526 5.192 3.9946V3.4021C5.192 3.18276 5.271 2.99426 5.429 2.8366C5.58633 2.67893 5.77467 2.6001 5.994 2.6001H10.1925C10.4145 2.6001 10.6045 2.67926 10.7625 2.8376C10.9205 2.99593 10.9997 3.18593 11 3.4076M1 6.7671C1 6.63876 1.0295 6.5151 1.0885 6.3961C1.1475 6.27676 1.23083 6.18093 1.3385 6.1086L3.531 4.5516C3.60567 4.4986 3.682 4.4606 3.76 4.4376C3.838 4.41426 3.91767 4.4026 3.999 4.4026C4.08033 4.4026 4.16033 4.41426 4.239 4.4376C4.31767 4.46093 4.39433 4.49893 4.469 4.5516L6.6615 6.1086C6.76917 6.18093 6.8525 6.27676 6.9115 6.3961C6.9705 6.5151 7 6.63876 7 6.7671V9.7931C7 10.0151 6.92083 10.2051 6.7625 10.3631C6.60417 10.5211 6.41417 10.6003 6.1925 10.6006H5.4425C5.22017 10.6006 5.03 10.5214 4.872 10.3631C4.714 10.2048 4.63483 10.0148 4.6345 9.7931V8.3501H3.3655V9.7926C3.3655 10.0146 3.28633 10.2046 3.128 10.3626C2.96967 10.5206 2.77967 10.5998 2.558 10.6001H1.808C1.58567 10.6001 1.3955 10.5209 1.2375 10.3626C1.0795 10.2043 1.00033 10.0144 1 9.7931V6.7671ZM1.5 6.7641V9.7931C1.5 9.88276 1.52883 9.95643 1.5865 10.0141C1.64417 10.0718 1.718 10.1006 1.808 10.1006H2.558C2.64767 10.1006 2.72133 10.0718 2.779 10.0141C2.83667 9.95643 2.8655 9.88276 2.8655 9.7931V8.3696C2.8655 8.22293 2.91533 8.09977 3.015 8.0001C3.11467 7.90043 3.238 7.8506 3.385 7.8506H4.615C4.762 7.8506 4.88533 7.90043 4.985 8.0001C5.08467 8.09977 5.13467 8.2231 5.135 8.3701V9.7926C5.135 9.8826 5.16367 9.95643 5.221 10.0141C5.27867 10.0718 5.35233 10.1006 5.442 10.1006H6.192C6.282 10.1006 6.35583 10.0718 6.4135 10.0141C6.47117 9.95643 6.5 9.8826 6.5 9.7926V6.7641C6.5 6.71276 6.48883 6.6646 6.4665 6.6196C6.44417 6.5746 6.4105 6.53626 6.3655 6.5046L4.173 4.9696C4.12167 4.93126 4.064 4.9121 4 4.9121C3.936 4.9121 3.87833 4.93143 3.827 4.9701L1.6345 6.5046C1.58983 6.5366 1.55617 6.57493 1.5335 6.6196C1.51117 6.6646 1.5 6.71276 1.5 6.7641ZM8.8175 4.9851H9.1825C9.2365 4.9851 9.28367 4.96476 9.324 4.9241C9.36434 4.88376 9.3845 4.8366 9.3845 4.7826V4.4176C9.3845 4.3636 9.36434 4.31643 9.324 4.2761C9.28367 4.23576 9.2365 4.2156 9.1825 4.2156H8.8175C8.7635 4.2156 8.71633 4.23576 8.676 4.2761C8.63567 4.31643 8.6155 4.36343 8.6155 4.4171V4.7826C8.6155 4.8366 8.63567 4.88376 8.676 4.9241C8.71633 4.96443 8.7635 4.9846 8.8175 4.9846M8.8175 6.9846H9.1825C9.2365 6.9846 9.28367 6.96443 9.324 6.9241C9.36434 6.88376 9.3845 6.8366 9.3845 6.7826V6.4176C9.3845 6.3636 9.36434 6.31643 9.324 6.2761C9.28367 6.23576 9.2365 6.2156 9.1825 6.2156H8.8175C8.7635 6.2156 8.71633 6.23576 8.676 6.2761C8.63567 6.31643 8.6155 6.36343 8.6155 6.4171V6.7826C8.6155 6.8366 8.63567 6.88376 8.676 6.9241C8.71633 6.96443 8.7635 6.9846 8.8175 6.9846ZM8.8175 8.9846H9.1825C9.2365 8.9846 9.28367 8.96443 9.324 8.9241C9.36434 8.88377 9.3845 8.8366 9.3845 8.7826V8.4176C9.3845 8.3636 9.36434 8.31643 9.324 8.2761C9.28367 8.23576 9.2365 8.2156 9.1825 8.2156H8.8175C8.7635 8.2156 8.71633 8.23576 8.676 8.2761C8.63567 8.31643 8.6155 8.3636 8.6155 8.4176V8.7826C8.6155 8.8366 8.63567 8.88377 8.676 8.9241C8.71633 8.96443 8.7635 8.9846 8.8175 8.9846Z"/>
</mask>
<path d="M11 3.4081V9.7926C11 10.0146 10.9208 10.2046 10.7625 10.3626C10.6042 10.5206 10.4142 10.5998 10.1925 10.6001H8.25C8.179 10.6001 8.11967 10.5761 8.072 10.5281C8.02433 10.4801 8.00033 10.4206 8 10.3496C7.99967 10.2786 8.02367 10.2193 8.072 10.1716C8.12033 10.1239 8.17967 10.1001 8.25 10.1001H10.1925C10.2822 10.1001 10.3558 10.0713 10.4135 10.0136C10.4712 9.95593 10.5 9.88227 10.5 9.7926V3.4076C10.5 3.31793 10.4712 3.24426 10.4135 3.1866C10.3558 3.12893 10.2822 3.1001 10.1925 3.1001H6C5.91 3.1001 5.83633 3.12893 5.779 3.1866C5.72133 3.24426 5.6925 3.3181 5.6925 3.4081V3.9946C5.6925 4.06526 5.6685 4.1246 5.6205 4.1726C5.5725 4.2206 5.513 4.2446 5.442 4.2446C5.371 4.2446 5.31167 4.2206 5.264 4.1726C5.21633 4.1246 5.19233 4.06526 5.192 3.9946V3.4021C5.192 3.18276 5.271 2.99426 5.429 2.8366C5.58633 2.67893 5.77467 2.6001 5.994 2.6001H10.1925C10.4145 2.6001 10.6045 2.67926 10.7625 2.8376C10.9205 2.99593 10.9997 3.18593 11 3.4076M1 6.7671C1 6.63876 1.0295 6.5151 1.0885 6.3961C1.1475 6.27676 1.23083 6.18093 1.3385 6.1086L3.531 4.5516C3.60567 4.4986 3.682 4.4606 3.76 4.4376C3.838 4.41426 3.91767 4.4026 3.999 4.4026C4.08033 4.4026 4.16033 4.41426 4.239 4.4376C4.31767 4.46093 4.39433 4.49893 4.469 4.5516L6.6615 6.1086C6.76917 6.18093 6.8525 6.27676 6.9115 6.3961C6.9705 6.5151 7 6.63876 7 6.7671V9.7931C7 10.0151 6.92083 10.2051 6.7625 10.3631C6.60417 10.5211 6.41417 10.6003 6.1925 10.6006H5.4425C5.22017 10.6006 5.03 10.5214 4.872 10.3631C4.714 10.2048 4.63483 10.0148 4.6345 9.7931V8.3501H3.3655V9.7926C3.3655 10.0146 3.28633 10.2046 3.128 10.3626C2.96967 10.5206 2.77967 10.5998 2.558 10.6001H1.808C1.58567 10.6001 1.3955 10.5209 1.2375 10.3626C1.0795 10.2043 1.00033 10.0144 1 9.7931V6.7671ZM1.5 6.7641V9.7931C1.5 9.88276 1.52883 9.95643 1.5865 10.0141C1.64417 10.0718 1.718 10.1006 1.808 10.1006H2.558C2.64767 10.1006 2.72133 10.0718 2.779 10.0141C2.83667 9.95643 2.8655 9.88276 2.8655 9.7931V8.3696C2.8655 8.22293 2.91533 8.09977 3.015 8.0001C3.11467 7.90043 3.238 7.8506 3.385 7.8506H4.615C4.762 7.8506 4.88533 7.90043 4.985 8.0001C5.08467 8.09977 5.13467 8.2231 5.135 8.3701V9.7926C5.135 9.8826 5.16367 9.95643 5.221 10.0141C5.27867 10.0718 5.35233 10.1006 5.442 10.1006H6.192C6.282 10.1006 6.35583 10.0718 6.4135 10.0141C6.47117 9.95643 6.5 9.8826 6.5 9.7926V6.7641C6.5 6.71276 6.48883 6.6646 6.4665 6.6196C6.44417 6.5746 6.4105 6.53626 6.3655 6.5046L4.173 4.9696C4.12167 4.93126 4.064 4.9121 4 4.9121C3.936 4.9121 3.87833 4.93143 3.827 4.9701L1.6345 6.5046C1.58983 6.5366 1.55617 6.57493 1.5335 6.6196C1.51117 6.6646 1.5 6.71276 1.5 6.7641ZM8.8175 4.9851H9.1825C9.2365 4.9851 9.28367 4.96476 9.324 4.9241C9.36434 4.88376 9.3845 4.8366 9.3845 4.7826V4.4176C9.3845 4.3636 9.36434 4.31643 9.324 4.2761C9.28367 4.23576 9.2365 4.2156 9.1825 4.2156H8.8175C8.7635 4.2156 8.71633 4.23576 8.676 4.2761C8.63567 4.31643 8.6155 4.36343 8.6155 4.4171V4.7826C8.6155 4.8366 8.63567 4.88376 8.676 4.9241C8.71633 4.96443 8.7635 4.9846 8.8175 4.9846M8.8175 6.9846H9.1825C9.2365 6.9846 9.28367 6.96443 9.324 6.9241C9.36434 6.88376 9.3845 6.8366 9.3845 6.7826V6.4176C9.3845 6.3636 9.36434 6.31643 9.324 6.2761C9.28367 6.23576 9.2365 6.2156 9.1825 6.2156H8.8175C8.7635 6.2156 8.71633 6.23576 8.676 6.2761C8.63567 6.31643 8.6155 6.36343 8.6155 6.4171V6.7826C8.6155 6.8366 8.63567 6.88376 8.676 6.9241C8.71633 6.96443 8.7635 6.9846 8.8175 6.9846ZM8.8175 8.9846H9.1825C9.2365 8.9846 9.28367 8.96443 9.324 8.9241C9.36434 8.88377 9.3845 8.8366 9.3845 8.7826V8.4176C9.3845 8.3636 9.36434 8.31643 9.324 8.2761C9.28367 8.23576 9.2365 8.2156 9.1825 8.2156H8.8175C8.7635 8.2156 8.71633 8.23576 8.676 8.2761C8.63567 8.31643 8.6155 8.3636 8.6155 8.4176V8.7826C8.6155 8.8366 8.63567 8.88377 8.676 8.9241C8.71633 8.96443 8.7635 8.9846 8.8175 8.9846Z" fill="#16A34A"/>
<path d="M5.135 7.8501H5.235V7.7501H5.135V7.8501ZM2.865 7.8501V7.7501H2.765V7.8501H2.865ZM5.235 10.1001V7.8501H5.035V10.1001H5.235ZM5.135 7.7501H2.865V7.9501H5.135V7.7501ZM2.765 7.8501V10.1001H2.965V7.8501H2.765ZM10.1925 10.6001V10.8001H10.1928L10.1925 10.6001ZM10.5 9.7926H10.3H10.5ZM5.779 3.1866L5.92042 3.32802L5.92083 3.32761L5.779 3.1866ZM5.192 3.9946H4.992L4.992 3.99554L5.192 3.9946ZM5.429 2.8366L5.57027 2.97817L5.57057 2.97787L5.429 2.8366ZM1.0885 6.3961L1.26769 6.48494L1.26778 6.48474L1.0885 6.3961ZM1.3385 6.1086L1.45007 6.27467L1.4543 6.27166L1.3385 6.1086ZM3.531 4.5516L3.41524 4.38851L3.4152 4.38853L3.531 4.5516ZM3.76 4.4376L3.81657 4.62943L3.81732 4.62921L3.76 4.4376ZM4.469 4.5516L4.5848 4.38853L4.58428 4.38816L4.469 4.5516ZM6.6615 6.1086L6.54566 6.27172L6.54997 6.27461L6.6615 6.1086ZM6.9115 6.3961L6.73222 6.48474L6.73232 6.48494L6.9115 6.3961ZM6.1925 10.6006V10.8006H6.1928L6.1925 10.6006ZM4.6345 9.7931H4.4345L4.4345 9.7934L4.6345 9.7931ZM4.6345 8.3501H4.8345V8.1501H4.6345V8.3501ZM3.3655 8.3501V8.1501H3.1655V8.3501H3.3655ZM2.558 10.6001V10.8001H2.5583L2.558 10.6001ZM1 9.7931H0.8L0.8 9.7934L1 9.7931ZM1.808 10.1006V9.9006V10.1006ZM3.385 7.8506V8.0506V7.8506ZM5.135 8.3701H5.335L5.335 8.36964L5.135 8.3701ZM5.221 10.0141L5.07917 10.1551L5.07958 10.1555L5.221 10.0141ZM6.3655 6.5046L6.4806 6.34104L6.48021 6.34076L6.3655 6.5046ZM4.173 4.9696L4.05328 5.12992L4.0583 5.13344L4.173 4.9696ZM3.827 4.9701L3.94175 5.13405L3.94733 5.12985L3.827 4.9701ZM1.6345 6.5046L1.51981 6.34073L1.51802 6.34202L1.6345 6.5046ZM1.5335 6.6196L1.35514 6.52909L1.35435 6.53069L1.5335 6.6196ZM9.324 4.9241L9.18258 4.78268L9.182 4.78326L9.324 4.9241ZM9.1825 4.2156V4.4156V4.2156ZM8.6155 4.4171H8.8155H8.6155ZM8.8175 6.9846V7.1846V6.9846ZM9.3845 6.7826H9.1845H9.3845ZM9.1825 6.2156V6.0156V6.2156ZM8.6155 6.4171H8.8155H8.6155ZM8.8175 8.9846V8.7846V8.9846ZM9.3845 8.7826H9.1845H9.3845ZM9.1825 8.2156V8.0156V8.2156ZM8.6155 8.4176H8.8155H8.6155ZM10.8 3.4081V9.7926H11.2V3.4081H10.8ZM10.8 9.7926C10.8 9.96103 10.7423 10.1002 10.6212 10.221L10.9038 10.5042C11.0994 10.309 11.2 10.0682 11.2 9.7926H10.8ZM10.6212 10.221C10.4999 10.3421 10.3605 10.3998 10.1922 10.4001L10.1928 10.8001C10.4679 10.7997 10.7084 10.6991 10.9038 10.5042L10.6212 10.221ZM10.1925 10.4001H8.25V10.8001H10.1925V10.4001ZM8.25 10.4001C8.22934 10.4001 8.22201 10.3953 8.21391 10.3872L7.93009 10.669C8.01733 10.7569 8.12866 10.8001 8.25 10.8001V10.4001ZM8.21391 10.3872C8.20521 10.3784 8.2001 10.3701 8.2 10.3487L7.8 10.3505C7.80057 10.4711 7.84346 10.5818 7.93009 10.669L8.21391 10.3872ZM8.2 10.3487C8.1999 10.3287 8.20437 10.322 8.21244 10.314L7.93156 10.0292C7.84296 10.1166 7.79943 10.2285 7.8 10.3505L8.2 10.3487ZM8.21244 10.314C8.22187 10.3047 8.23012 10.3001 8.25 10.3001V9.9001C8.12922 9.9001 8.0188 9.94317 7.93156 10.0292L8.21244 10.314ZM8.25 10.3001H10.1925V9.9001H8.25V10.3001ZM10.1925 10.3001C10.3294 10.3001 10.4558 10.2541 10.5549 10.155L10.2721 9.87218C10.2558 9.88843 10.2349 9.9001 10.1925 9.9001V10.3001ZM10.5549 10.155C10.654 10.0559 10.7 9.92951 10.7 9.7926H10.3C10.3 9.83502 10.2883 9.85593 10.2721 9.87218L10.5549 10.155ZM10.7 9.7926V3.4076H10.3V9.7926H10.7ZM10.7 3.4076C10.7 3.27069 10.654 3.14426 10.5549 3.04518L10.2721 3.32802C10.2883 3.34427 10.3 3.36518 10.3 3.4076H10.7ZM10.5549 3.04518C10.4558 2.94609 10.3294 2.9001 10.1925 2.9001V3.3001C10.2349 3.3001 10.2558 3.31177 10.2721 3.32802L10.5549 3.04518ZM10.1925 2.9001H6V3.3001H10.1925V2.9001ZM6 2.9001C5.863 2.9001 5.73623 2.94595 5.63717 3.04559L5.92083 3.32761C5.93644 3.31191 5.957 3.3001 6 3.3001V2.9001ZM5.63758 3.04518C5.53835 3.14441 5.4925 3.27109 5.4925 3.4081H5.8925C5.8925 3.36511 5.90432 3.34412 5.92042 3.32802L5.63758 3.04518ZM5.4925 3.4081V3.9946H5.8925V3.4081H5.4925ZM5.4925 3.9946C5.4925 4.01465 5.48789 4.02237 5.47908 4.03118L5.76192 4.31402C5.84911 4.22683 5.8925 4.11588 5.8925 3.9946H5.4925ZM5.47908 4.03118C5.47046 4.03979 5.46267 4.0446 5.442 4.0446V4.4446C5.56333 4.4446 5.67454 4.4014 5.76192 4.31402L5.47908 4.03118ZM5.442 4.0446C5.42134 4.0446 5.41401 4.03982 5.40591 4.03167L5.12209 4.31353C5.20932 4.40137 5.32066 4.4446 5.442 4.4446V4.0446ZM5.40591 4.03167C5.39702 4.02271 5.3921 4.01445 5.392 3.99365L4.992 3.99554C4.99257 4.11608 5.03565 4.22648 5.12209 4.31353L5.40591 4.03167ZM5.392 3.9946V3.4021H4.992V3.9946H5.392ZM5.392 3.4021C5.392 3.23693 5.44913 3.09906 5.57027 2.97817L5.28773 2.69503C5.09288 2.88947 4.992 3.1286 4.992 3.4021H5.392ZM5.57057 2.97787C5.69104 2.85715 5.8287 2.8001 5.994 2.8001V2.4001C5.72063 2.4001 5.48163 2.50072 5.28743 2.69533L5.57057 2.97787ZM5.994 2.8001H10.1925V2.4001H5.994V2.8001ZM10.1925 2.8001C10.3609 2.8001 10.5001 2.85781 10.6209 2.97887L10.9041 2.69633C10.7089 2.50071 10.4681 2.4001 10.1925 2.4001V2.8001ZM10.6209 2.97887C10.742 3.10016 10.7997 3.23964 10.8 3.4079L11.2 3.4073C11.1996 3.13223 11.099 2.8917 10.9041 2.69633L10.6209 2.97887ZM1.2 6.7671C1.2 6.67068 1.22188 6.57732 1.26769 6.48494L0.909314 6.30726C0.837118 6.45288 0.8 6.60685 0.8 6.7671H1.2ZM1.26778 6.48474C1.31176 6.3958 1.37209 6.32697 1.45003 6.27461L1.22697 5.94258C1.08957 6.03489 0.983244 6.15773 0.909216 6.30746L1.26778 6.48474ZM1.4543 6.27166L3.6468 4.71466L3.4152 4.38853L1.2227 5.94553L1.4543 6.27166ZM3.64677 4.71469C3.70566 4.67288 3.76224 4.64545 3.81657 4.62943L3.70343 4.24576C3.60176 4.27574 3.50567 4.32432 3.41524 4.38851L3.64677 4.71469ZM3.81732 4.62921C3.87674 4.61143 3.9371 4.6026 3.999 4.6026V4.2026C3.89823 4.2026 3.79926 4.2171 3.70268 4.24599L3.81732 4.62921ZM3.999 4.6026C4.0609 4.6026 4.12176 4.61143 4.18213 4.62934L4.29587 4.24585C4.19891 4.21709 4.09976 4.2026 3.999 4.2026V4.6026ZM4.18213 4.62934C4.23769 4.64582 4.29485 4.67351 4.35372 4.71503L4.58428 4.38816C4.49382 4.32436 4.39765 4.27604 4.29587 4.24585L4.18213 4.62934ZM4.3532 4.71466L6.5457 6.27166L6.7773 5.94553L4.5848 4.38853L4.3532 4.71466ZM6.54997 6.27461C6.62791 6.32697 6.68824 6.3958 6.73222 6.48474L7.09079 6.30746C7.01676 6.15773 6.91043 6.03489 6.77303 5.94258L6.54997 6.27461ZM6.73232 6.48494C6.77812 6.57732 6.8 6.67068 6.8 6.7671H7.2C7.2 6.60685 7.16288 6.45288 7.09069 6.30726L6.73232 6.48494ZM6.8 6.7671V9.7931H7.2V6.7671H6.8ZM6.8 9.7931C6.8 9.96153 6.74228 10.1007 6.62123 10.2215L6.90377 10.5047C7.09938 10.3095 7.2 10.0687 7.2 9.7931H6.8ZM6.62123 10.2215C6.49993 10.3426 6.36046 10.4003 6.1922 10.4006L6.1928 10.8006C6.46787 10.8002 6.7084 10.6996 6.90377 10.5047L6.62123 10.2215ZM6.1925 10.4006H5.4425V10.8006H6.1925V10.4006ZM5.4425 10.4006C5.27365 10.4006 5.13431 10.3428 5.01357 10.2218L4.73043 10.5044C4.92569 10.7 5.16669 10.8006 5.4425 10.8006V10.4006ZM5.01357 10.2218C4.89253 10.1005 4.83475 9.96106 4.8345 9.7928L4.4345 9.7934C4.43491 10.0685 4.53547 10.309 4.73043 10.5044L5.01357 10.2218ZM4.8345 9.7931V8.3501H4.4345V9.7931H4.8345ZM4.6345 8.1501H3.3655V8.5501H4.6345V8.1501ZM3.1655 8.3501V9.7926H3.5655V8.3501H3.1655ZM3.1655 9.7926C3.1655 9.96103 3.10778 10.1002 2.98673 10.221L3.26927 10.5042C3.46488 10.309 3.5655 10.0682 3.5655 9.7926H3.1655ZM2.98673 10.221C2.86543 10.3421 2.72596 10.3998 2.5577 10.4001L2.5583 10.8001C2.83337 10.7997 3.0739 10.6991 3.26927 10.5042L2.98673 10.221ZM2.558 10.4001H1.808V10.8001H2.558V10.4001ZM1.808 10.4001C1.63914 10.4001 1.49981 10.3423 1.37907 10.2213L1.09593 10.5039C1.29119 10.6995 1.53219 10.8001 1.808 10.8001V10.4001ZM1.37907 10.2213C1.25797 10.1 1.20025 9.96064 1.2 9.7928L0.8 9.7934C0.800414 10.0682 0.901032 10.3086 1.09593 10.5039L1.37907 10.2213ZM1.2 9.7931V6.7671H0.8V9.7931H1.2ZM1.3 6.7641V9.7931H1.7V6.7641H1.3ZM1.3 9.7931C1.3 9.93001 1.34599 10.0564 1.44508 10.1555L1.72792 9.87268C1.71167 9.85643 1.7 9.83552 1.7 9.7931H1.3ZM1.44508 10.1555C1.54431 10.2548 1.67099 10.3006 1.808 10.3006V9.9006C1.76501 9.9006 1.74402 9.88878 1.72792 9.87268L1.44508 10.1555ZM1.808 10.3006H2.558V9.9006H1.808V10.3006ZM2.558 10.3006C2.69491 10.3006 2.82134 10.2546 2.92042 10.1555L2.63758 9.87268C2.62133 9.88893 2.60042 9.9006 2.558 9.9006V10.3006ZM2.92042 10.1555C3.01951 10.0564 3.0655 9.93001 3.0655 9.7931H2.6655C2.6655 9.83552 2.65383 9.85643 2.63758 9.87268L2.92042 10.1555ZM3.0655 9.7931V8.3696H2.6655V9.7931H3.0655ZM3.0655 8.3696C3.0655 8.27358 3.09593 8.20202 3.15642 8.14152L2.87358 7.85868C2.73474 7.99751 2.6655 8.17229 2.6655 8.3696H3.0655ZM3.15642 8.14152C3.21682 8.08112 3.28851 8.0506 3.385 8.0506V7.6506C3.1875 7.6506 3.01251 7.71975 2.87358 7.85868L3.15642 8.14152ZM3.385 8.0506H4.615V7.6506H3.385V8.0506ZM4.615 8.0506C4.7115 8.0506 4.78318 8.08112 4.84358 8.14152L5.12642 7.85868C4.98749 7.71975 4.81251 7.6506 4.615 7.6506V8.0506ZM4.84358 8.14152C4.9041 8.20204 4.93478 8.27391 4.935 8.37055L5.335 8.36964C5.33455 8.17229 5.26524 7.99749 5.12642 7.85868L4.84358 8.14152ZM4.935 8.3701V9.7926H5.335V8.3701H4.935ZM4.935 9.7926C4.935 9.92926 4.98044 10.0558 5.07917 10.1551L5.36283 9.87309C5.3469 9.85706 5.335 9.83594 5.335 9.7926H4.935ZM5.07958 10.1555C5.17866 10.2546 5.30509 10.3006 5.442 10.3006V9.9006C5.39958 9.9006 5.37867 9.88893 5.36242 9.87268L5.07958 10.1555ZM5.442 10.3006H6.192V9.9006H5.442V10.3006ZM6.192 10.3006C6.32901 10.3006 6.45569 10.2548 6.55492 10.1555L6.27208 9.87268C6.25598 9.88878 6.23499 9.9006 6.192 9.9006V10.3006ZM6.55492 10.1555C6.65415 10.0563 6.7 9.92961 6.7 9.7926H6.3C6.3 9.83559 6.28818 9.85658 6.27208 9.87268L6.55492 10.1555ZM6.7 9.7926V6.7641H6.3V9.7926H6.7ZM6.7 6.7641C6.7 6.68261 6.682 6.60394 6.64565 6.53069L6.28735 6.70851C6.29566 6.72526 6.3 6.74292 6.3 6.7641H6.7ZM6.64565 6.53069C6.60713 6.45308 6.55018 6.39 6.4806 6.34104L6.2504 6.66816C6.27083 6.68253 6.2812 6.69612 6.28735 6.70851L6.64565 6.53069ZM6.48021 6.34076L4.28771 4.80576L4.0583 5.13344L6.2508 6.66844L6.48021 6.34076ZM4.29267 4.80935C4.20681 4.74524 4.10718 4.7121 4 4.7121V5.1121C4.02082 5.1121 4.03652 5.11729 4.05333 5.12985L4.29267 4.80935ZM4 4.7121C3.89239 4.7121 3.79252 4.74568 3.70667 4.81035L3.94733 5.12985C3.96414 5.11719 3.97961 5.1121 4 5.1121V4.7121ZM3.71232 4.80624L1.51982 6.34074L1.74918 6.66845L3.94168 5.13395L3.71232 4.80624ZM1.51802 6.34202C1.44982 6.39087 1.39373 6.45308 1.35515 6.52909L1.71185 6.7101C1.71861 6.69679 1.72984 6.68232 1.75098 6.66718L1.51802 6.34202ZM1.35435 6.53069C1.318 6.60394 1.3 6.68261 1.3 6.7641H1.7C1.7 6.74292 1.70434 6.72526 1.71265 6.70851L1.35435 6.53069ZM8.8175 5.1851H9.1825V4.7851H8.8175V5.1851ZM9.1825 5.1851C9.29332 5.1851 9.39065 5.14091 9.466 5.06494L9.182 4.78326C9.17777 4.78752 9.17674 4.78725 9.1792 4.78619C9.18025 4.78573 9.18137 4.7854 9.18231 4.78521C9.18323 4.78502 9.18338 4.7851 9.1825 4.7851V5.1851ZM9.46542 5.06552C9.54092 4.99002 9.5845 4.89287 9.5845 4.7826H9.1845C9.1845 4.78402 9.18438 4.78241 9.18548 4.77985C9.18649 4.77749 9.18673 4.77853 9.18258 4.78268L9.46542 5.06552ZM9.5845 4.7826V4.4176H9.1845V4.7826H9.5845ZM9.5845 4.4176C9.5845 4.30733 9.54092 4.21017 9.46542 4.13468L9.18258 4.41752C9.18673 4.42167 9.18649 4.4227 9.18548 4.42035C9.18438 4.41778 9.1845 4.41618 9.1845 4.4176H9.5845ZM9.46542 4.13468C9.38993 4.05918 9.29277 4.0156 9.1825 4.0156V4.4156C9.18392 4.4156 9.18232 4.41572 9.17975 4.41462C9.1774 4.41361 9.17843 4.41337 9.18258 4.41752L9.46542 4.13468ZM9.1825 4.0156H8.8175V4.4156H9.1825V4.0156ZM8.8175 4.0156C8.70723 4.0156 8.61007 4.05918 8.53458 4.13468L8.81742 4.41752C8.82157 4.41337 8.8226 4.41361 8.82025 4.41462C8.81769 4.41572 8.81608 4.4156 8.8175 4.4156V4.0156ZM8.53458 4.13468C8.45935 4.2099 8.4155 4.3068 8.4155 4.4171H8.8155C8.8155 4.41601 8.81555 4.41782 8.81442 4.42046C8.81339 4.42286 8.81316 4.42178 8.81742 4.41752L8.53458 4.13468ZM8.4155 4.4171V4.7826H8.8155V4.4171H8.4155ZM8.4155 4.7826C8.4155 4.89287 8.45908 4.99002 8.53458 5.06552L8.81742 4.78268C8.81327 4.77853 8.81352 4.77749 8.81452 4.77985C8.81562 4.78241 8.8155 4.78402 8.8155 4.7826H8.4155ZM8.53458 5.06552C8.61007 5.14101 8.70723 5.1846 8.8175 5.1846V4.7846C8.81608 4.7846 8.81769 4.78448 8.82025 4.78558C8.8226 4.78658 8.82157 4.78683 8.81742 4.78268L8.53458 5.06552ZM8.8175 7.1846H9.1825V6.7846H8.8175V7.1846ZM9.1825 7.1846C9.29277 7.1846 9.38993 7.14101 9.46542 7.06552L9.18258 6.78268C9.17843 6.78683 9.1774 6.78658 9.17975 6.78558C9.18232 6.78448 9.18392 6.7846 9.1825 6.7846V7.1846ZM9.46542 7.06552C9.54092 6.99002 9.5845 6.89287 9.5845 6.7826H9.1845C9.1845 6.78402 9.18438 6.78241 9.18548 6.77985C9.18649 6.7775 9.18673 6.77853 9.18258 6.78268L9.46542 7.06552ZM9.5845 6.7826V6.4176H9.1845V6.7826H9.5845ZM9.5845 6.4176C9.5845 6.30733 9.54092 6.21017 9.46542 6.13468L9.18258 6.41752C9.18673 6.42167 9.18649 6.4227 9.18548 6.42035C9.18438 6.41778 9.1845 6.41618 9.1845 6.4176H9.5845ZM9.46542 6.13468C9.38993 6.05918 9.29277 6.0156 9.1825 6.0156V6.4156C9.18392 6.4156 9.18232 6.41572 9.17975 6.41462C9.1774 6.41361 9.17843 6.41337 9.18258 6.41752L9.46542 6.13468ZM9.1825 6.0156H8.8175V6.4156H9.1825V6.0156ZM8.8175 6.0156C8.70723 6.0156 8.61007 6.05918 8.53458 6.13468L8.81742 6.41752C8.82157 6.41337 8.8226 6.41361 8.82025 6.41462C8.81769 6.41572 8.81608 6.4156 8.8175 6.4156V6.0156ZM8.53458 6.13468C8.45935 6.2099 8.4155 6.3068 8.4155 6.4171H8.8155C8.8155 6.41602 8.81555 6.41782 8.81442 6.42046C8.81339 6.42286 8.81316 6.42178 8.81742 6.41752L8.53458 6.13468ZM8.4155 6.4171V6.7826H8.8155V6.4171H8.4155ZM8.4155 6.7826C8.4155 6.89287 8.45908 6.99002 8.53458 7.06552L8.81742 6.78268C8.81327 6.77853 8.81352 6.7775 8.81452 6.77985C8.81562 6.78241 8.8155 6.78402 8.8155 6.7826H8.4155ZM8.53458 7.06552C8.61007 7.14101 8.70723 7.1846 8.8175 7.1846V6.7846C8.81608 6.7846 8.81769 6.78448 8.82025 6.78558C8.8226 6.78658 8.82157 6.78683 8.81742 6.78268L8.53458 7.06552ZM8.8175 9.1846H9.1825V8.7846H8.8175V9.1846ZM9.1825 9.1846C9.29277 9.1846 9.38993 9.14102 9.46542 9.06552L9.18258 8.78268C9.17843 8.78683 9.1774 8.78658 9.17975 8.78558C9.18232 8.78448 9.18392 8.7846 9.1825 8.7846V9.1846ZM9.46542 9.06552C9.54092 8.99002 9.5845 8.89287 9.5845 8.7826H9.1845C9.1845 8.78402 9.18438 8.78242 9.18548 8.77985C9.18648 8.7775 9.18673 8.77853 9.18258 8.78268L9.46542 9.06552ZM9.5845 8.7826V8.4176H9.1845V8.7826H9.5845ZM9.5845 8.4176C9.5845 8.30733 9.54092 8.21017 9.46542 8.13468L9.18258 8.41752C9.18673 8.42167 9.18649 8.4227 9.18548 8.42035C9.18438 8.41778 9.1845 8.41618 9.1845 8.4176H9.5845ZM9.46542 8.13468C9.38993 8.05918 9.29277 8.0156 9.1825 8.0156V8.4156C9.18392 8.4156 9.18232 8.41572 9.17975 8.41462C9.1774 8.41361 9.17843 8.41337 9.18258 8.41752L9.46542 8.13468ZM9.1825 8.0156H8.8175V8.4156H9.1825V8.0156ZM8.8175 8.0156C8.70723 8.0156 8.61007 8.05918 8.53458 8.13468L8.81742 8.41752C8.82157 8.41337 8.8226 8.41361 8.82025 8.41462C8.81769 8.41572 8.81608 8.4156 8.8175 8.4156V8.0156ZM8.53458 8.13468C8.45908 8.21017 8.4155 8.30733 8.4155 8.4176H8.8155C8.8155 8.41618 8.81562 8.41778 8.81452 8.42035C8.81352 8.4227 8.81327 8.42167 8.81742 8.41752L8.53458 8.13468ZM8.4155 8.4176V8.7826H8.8155V8.4176H8.4155ZM8.4155 8.7826C8.4155 8.89287 8.45908 8.99002 8.53458 9.06552L8.81742 8.78268C8.81327 8.77853 8.81352 8.7775 8.81452 8.77985C8.81562 8.78242 8.8155 8.78402 8.8155 8.7826H8.4155ZM8.53458 9.06552C8.61008 9.14102 8.70723 9.1846 8.8175 9.1846V8.7846C8.81608 8.7846 8.81768 8.78448 8.82025 8.78558C8.8226 8.78658 8.82157 8.78683 8.81742 8.78268L8.53458 9.06552Z" fill="#16A34A" mask="url(#path-1-outside-1_239_19897)"/>
</svg>
