<svg width="16" height="16" viewBox="0 0 16 16" fill="none" xmlns="http://www.w3.org/2000/svg">
<path d="M1.49256 13.3528L1.964 13.5194L1.49256 13.3528ZM2.51339 14.3736L2.34681 13.9022H2.34681L2.51339 14.3736ZM4.19538 13.7793L4.36197 14.2507L4.19538 13.7793ZM4.77226 13.8344L4.52982 14.2717L4.77226 13.8344ZM1.8335 7.99992C1.8335 4.59416 4.59441 1.83325 8.00016 1.83325V0.833252C4.04212 0.833252 0.833496 4.04188 0.833496 7.99992H1.8335ZM2.51206 10.8152C2.07846 9.97178 1.8335 9.01518 1.8335 7.99992H0.833496C0.833496 9.1779 1.11809 10.2909 1.62271 11.2724L2.51206 10.8152ZM1.964 13.5194L2.58298 11.7677L1.64012 11.4345L1.02113 13.1862L1.964 13.5194ZM2.34681 13.9022C2.10902 13.9862 1.87997 13.7572 1.964 13.5194L1.02113 13.1862C0.65703 14.2166 1.64958 15.2092 2.67998 14.8451L2.34681 13.9022ZM4.0288 13.3079L2.34681 13.9022L2.67998 14.8451L4.36197 14.2507L4.0288 13.3079ZM8.00016 14.1666C6.91611 14.1666 5.8988 13.8873 5.0147 13.3971L4.52982 14.2717C5.55849 14.842 6.74217 15.1666 8.00016 15.1666V14.1666ZM14.1668 7.99992C14.1668 11.4057 11.4059 14.1666 8.00016 14.1666V15.1666C11.9582 15.1666 15.1668 11.958 15.1668 7.99992H14.1668ZM8.00016 1.83325C11.4059 1.83325 14.1668 4.59416 14.1668 7.99992H15.1668C15.1668 4.04188 11.9582 0.833252 8.00016 0.833252V1.83325ZM4.36197 14.2507C4.40563 14.2353 4.46688 14.2368 4.52982 14.2717L5.0147 13.3971C4.7243 13.2361 4.36607 13.1887 4.0288 13.3079L4.36197 14.2507ZM1.62271 11.2724C1.65428 11.3338 1.65496 11.3925 1.64012 11.4345L2.58298 11.7677C2.69756 11.4434 2.65811 11.0993 2.51206 10.8152L1.62271 11.2724Z" fill="#2B3F6C"/>
<circle cx="4.70003" cy="8.03328" r="0.833333" fill="#2B3F6C"/>
<circle cx="8.03304" cy="8.03328" r="0.833333" fill="#2B3F6C"/>
<circle cx="11.3665" cy="8.03328" r="0.833333" fill="#2B3F6C"/>
</svg>
