<svg width="41" height="41" viewBox="0 0 41 41" fill="none" xmlns="http://www.w3.org/2000/svg">
<rect width="41" height="41" rx="20.5" fill="#F1F5F9"/>
<path d="M13.0449 23.1884H13.7438H13.0449ZM15.5915 26.1686L15.6875 25.4764H15.6875L15.5915 26.1686ZM25.0833 26.1686L25.1793 26.8608L25.0833 26.1686ZM13.4796 21.6062L12.8793 21.2483L13.4796 21.6062ZM15.3643 16.8537C15.3643 14.1071 17.5908 11.8806 20.3374 11.8806V10.4829C16.8189 10.4829 13.9666 13.3352 13.9666 16.8537H15.3643ZM15.3643 18.8036V16.8537H13.9666V18.8036H15.3643ZM13.7438 23.1884C13.7438 22.7397 13.8665 22.3219 14.0798 21.9642L12.8793 21.2483C12.5405 21.8164 12.3461 22.4808 12.3461 23.1884H13.7438ZM15.6875 25.4764C14.5696 25.3214 13.7438 24.3495 13.7438 23.1884H12.3461C12.3461 25.0144 13.6544 26.6055 15.4955 26.8608L15.6875 25.4764ZM20.3374 25.8784C18.9472 25.8784 17.151 25.6793 15.6875 25.4764L15.4955 26.8608C16.9704 27.0653 18.8458 27.2761 20.3374 27.2761V25.8784ZM24.9873 25.4764C23.5238 25.6793 21.7277 25.8784 20.3374 25.8784V27.2761C21.829 27.2761 23.7045 27.0653 25.1793 26.8608L24.9873 25.4764ZM26.931 23.1884C26.931 24.3495 26.1052 25.3214 24.9873 25.4764L25.1793 26.8608C27.0204 26.6055 28.3288 25.0144 28.3288 23.1884H26.931ZM26.595 21.9642C26.8083 22.3219 26.931 22.7397 26.931 23.1884H28.3288C28.3288 22.4807 28.1343 21.8164 27.7955 21.2483L26.595 21.9642ZM25.3104 16.8537V18.8035H26.7082V16.8537H25.3104ZM20.3374 11.8806C23.0839 11.8806 25.3104 14.1071 25.3104 16.8537H26.7082C26.7082 13.3352 23.8559 10.4829 20.3374 10.4829V11.8806ZM27.7955 21.2483C27.5076 20.7656 27.2462 20.3789 27.0306 19.947C26.8242 19.5335 26.7082 19.1646 26.7082 18.8035H25.3104C25.3104 19.4678 25.5248 20.0599 25.78 20.5713C26.0261 21.0643 26.3577 21.5662 26.595 21.9642L27.7955 21.2483ZM13.9666 18.8036C13.9666 19.1647 13.8505 19.5336 13.6441 19.9471C13.4286 20.3789 13.1672 20.7657 12.8793 21.2483L14.0798 21.9642C14.3171 21.5662 14.6486 21.0643 14.8947 20.5713C15.15 20.06 15.3643 19.4678 15.3643 18.8036H13.9666Z" fill="#64748B"/>
<path d="M22.3633 28.7316C21.9278 29.3865 21.1831 29.8182 20.3376 29.8182C19.4921 29.8182 18.7474 29.3865 18.3119 28.7316" stroke="#64748B" stroke-width="1.39773" stroke-linecap="round"/>
</svg>
