<svg width="25" height="24" viewBox="0 0 25 24" fill="none" xmlns="http://www.w3.org/2000/svg">
<path d="M21.25 12C21.25 12.1989 21.171 12.3897 21.0303 12.5303C20.8897 12.671 20.6989 12.75 20.5 12.75H13V20.25C13 20.4489 12.921 20.6397 12.7803 20.7803C12.6397 20.921 12.4489 21 12.25 21C12.0511 21 11.8603 20.921 11.7197 20.7803C11.579 20.6397 11.5 20.4489 11.5 20.25V12.75H4C3.80109 12.75 3.61032 12.671 3.46967 12.5303C3.32902 12.3897 3.25 12.1989 3.25 12C3.25 11.8011 3.32902 11.6103 3.46967 11.4697C3.61032 11.329 3.80109 11.25 4 11.25H11.5V3.75C11.5 3.55109 11.579 3.36032 11.7197 3.21967C11.8603 3.07902 12.0511 3 12.25 3C12.4489 3 12.6397 3.07902 12.7803 3.21967C12.921 3.36032 13 3.55109 13 3.75V11.25H20.5C20.6989 11.25 20.8897 11.329 21.0303 11.4697C21.171 11.6103 21.25 11.8011 21.25 12Z" fill="#94A3B8"/>
</svg>
