<svg width="9" height="10" viewBox="0 0 9 10" fill="none" xmlns="http://www.w3.org/2000/svg">
<g clip-path="url(#clip0_239_17492)">
<path d="M8.44786 4.09171C8.41504 3.99082 8.3531 3.9019 8.26983 3.83615C8.18656 3.77041 8.0857 3.73077 7.97995 3.72224L6.04402 3.56606L5.29655 1.75842C5.25612 1.65992 5.18732 1.57567 5.09889 1.51637C5.01046 1.45708 4.9064 1.42542 4.79993 1.42542C4.69346 1.42542 4.5894 1.45708 4.50097 1.51637C4.41254 1.57567 4.34374 1.65992 4.30331 1.75842L3.5565 3.56573L1.61958 3.72224C1.51365 3.7312 1.41272 3.77122 1.32944 3.83729C1.24616 3.90335 1.18422 3.99253 1.1514 4.09363C1.11857 4.19474 1.11631 4.30329 1.1449 4.40568C1.17349 4.50807 1.23166 4.59974 1.31213 4.66921L2.78869 5.94332L2.33883 7.84842C2.31401 7.95185 2.3204 8.06032 2.3572 8.16013C2.39399 8.25994 2.45954 8.3466 2.54557 8.40917C2.63159 8.47174 2.73423 8.50741 2.84052 8.51167C2.94681 8.51594 3.05197 8.48861 3.14273 8.43314L4.79977 7.41332L6.45778 8.43314C6.54853 8.48829 6.65357 8.51536 6.75968 8.51094C6.86578 8.50651 6.9682 8.4708 7.05405 8.40828C7.13989 8.34576 7.20532 8.25925 7.2421 8.15962C7.27887 8.05999 7.28534 7.95171 7.2607 7.84842L6.8092 5.94299L8.28577 4.66888C8.36688 4.59953 8.42558 4.50766 8.45444 4.40491C8.48329 4.30216 8.481 4.19316 8.44786 4.09171ZM7.94452 4.2712L6.34655 5.64932C6.31011 5.68073 6.283 5.72155 6.26818 5.76733C6.25337 5.8131 6.25142 5.86206 6.26255 5.90887L6.7508 7.96949C6.75206 7.97233 6.75219 7.97555 6.75115 7.97848C6.75011 7.98141 6.74799 7.98383 6.74522 7.98524C6.73931 7.98984 6.73767 7.98885 6.73275 7.98524L4.93725 6.8811C4.89585 6.85585 4.84826 6.84257 4.79977 6.84271V1.95037C4.80764 1.95037 4.80862 1.95299 4.81125 1.9589L5.62008 3.91453C5.63854 3.95923 5.66899 3.99796 5.70808 4.02645C5.74716 4.05493 5.79336 4.07207 5.84156 4.07596L7.93861 4.24528C7.94386 4.24528 7.94681 4.24528 7.94977 4.25479C7.95272 4.26431 7.94977 4.26792 7.94452 4.2712Z" fill="#EAB308"/>
</g>
<defs>
<clipPath id="clip0_239_17492">
<rect width="8.4" height="8.4" fill="white" transform="translate(0.599609 0.900269)"/>
</clipPath>
</defs>
</svg>
