<svg width="9" height="10" viewBox="0 0 9 10" fill="none" xmlns="http://www.w3.org/2000/svg">
<g clip-path="url(#clip0_239_17490)">
<path d="M7.88811 4.66892L6.41155 5.94303L6.86141 7.84845C6.88623 7.95189 6.87984 8.06036 6.84304 8.16017C6.80624 8.25997 6.74069 8.34664 6.65467 8.40921C6.56864 8.47178 6.466 8.50745 6.35972 8.51171C6.25343 8.51598 6.14826 8.48865 6.0575 8.43317L4.40047 7.41336L2.74245 8.43317C2.6517 8.48833 2.54666 8.5154 2.44056 8.51098C2.33445 8.50655 2.23203 8.47083 2.14618 8.40832C2.06034 8.3458 1.99491 8.25928 1.95814 8.15966C1.92136 8.06003 1.91489 7.95175 1.93953 7.84845L2.39103 5.94303L0.914468 4.66892C0.834175 4.59953 0.776106 4.50802 0.747512 4.40582C0.718918 4.30361 0.721068 4.19525 0.753692 4.09427C0.786315 3.99328 0.847968 3.90414 0.930949 3.83799C1.01393 3.77183 1.11456 3.73159 1.22028 3.72228L3.15622 3.5661L3.90303 1.75878C3.94345 1.66029 4.01225 1.57603 4.10068 1.51674C4.18911 1.45744 4.29318 1.42578 4.39965 1.42578C4.50612 1.42578 4.61018 1.45744 4.69861 1.51674C4.78704 1.57603 4.85584 1.66029 4.89627 1.75878L5.64275 3.5661L7.57869 3.72228C7.68461 3.73124 7.78554 3.77126 7.86882 3.83733C7.95211 3.90339 8.01404 3.99256 8.04687 4.09367C8.0797 4.19478 8.08196 4.30333 8.05336 4.40572C8.02477 4.5081 7.9666 4.59978 7.88614 4.66925L7.88811 4.66892Z" fill="#EAB308"/>
</g>
<defs>
<clipPath id="clip0_239_17490">
<rect width="8.4" height="8.4" fill="white" transform="translate(0.200195 0.900269)"/>
</clipPath>
</defs>
</svg>
