<svg width="105" height="32" viewBox="0 0 105 32" fill="none" xmlns="http://www.w3.org/2000/svg">
<rect width="105" height="32" rx="16" fill="#F1F5F9"/>
<path d="M24.856 20V11.72H26.116V20H24.856ZM22.216 12.872V11.72H28.756V12.872H22.216ZM33.8807 20V16.292C33.8807 15.724 33.7367 15.296 33.4487 15.008C33.1607 14.72 32.8167 14.576 32.4167 14.576C32.0167 14.576 31.6727 14.72 31.3847 15.008C31.0967 15.296 30.9527 15.724 30.9527 16.292H30.5567C30.5567 15.724 30.6567 15.232 30.8567 14.816C31.0647 14.4 31.3447 14.08 31.6967 13.856C32.0487 13.632 32.4407 13.52 32.8727 13.52C33.3047 13.52 33.6847 13.624 34.0127 13.832C34.3487 14.032 34.6087 14.32 34.7927 14.696C34.9847 15.064 35.0807 15.504 35.0807 16.016V20H33.8807ZM29.7527 20V11.42H30.9527V20H29.7527ZM36.6433 20V13.64H37.8433V20H36.6433ZM37.2433 12.776C37.0353 12.776 36.8593 12.708 36.7153 12.572C36.5713 12.436 36.4993 12.26 36.4993 12.044C36.4993 11.82 36.5713 11.64 36.7153 11.504C36.8593 11.368 37.0353 11.3 37.2433 11.3C37.4513 11.3 37.6273 11.368 37.7713 11.504C37.9153 11.64 37.9873 11.82 37.9873 12.044C37.9873 12.26 37.9153 12.436 37.7713 12.572C37.6273 12.708 37.4513 12.776 37.2433 12.776ZM41.6049 20.12C40.8849 20.12 40.3089 19.976 39.8769 19.688C39.4449 19.392 39.1409 18.96 38.9649 18.392L40.0929 18.032C40.2289 18.432 40.4289 18.72 40.6929 18.896C40.9569 19.064 41.2889 19.148 41.6889 19.148C42.0489 19.148 42.3369 19.08 42.5529 18.944C42.7769 18.8 42.8889 18.6 42.8889 18.344C42.8889 18.096 42.8009 17.904 42.6249 17.768C42.4489 17.624 42.2209 17.508 41.9409 17.42C41.6609 17.324 41.3609 17.232 41.0409 17.144C40.7289 17.048 40.4329 16.932 40.1529 16.796C39.8729 16.66 39.6449 16.476 39.4689 16.244C39.2929 16.004 39.2049 15.692 39.2049 15.308C39.2049 14.812 39.4089 14.392 39.8169 14.048C40.2249 13.696 40.8089 13.52 41.5689 13.52C42.2249 13.52 42.7529 13.664 43.1529 13.952C43.5529 14.24 43.8409 14.66 44.0169 15.212L42.9249 15.584C42.7809 15.192 42.5889 14.912 42.3489 14.744C42.1169 14.576 41.8249 14.492 41.4729 14.492C41.1289 14.492 40.8609 14.56 40.6689 14.696C40.4849 14.824 40.3929 14.992 40.3929 15.2C40.3929 15.416 40.4809 15.588 40.6569 15.716C40.8329 15.836 41.0609 15.94 41.3409 16.028C41.6209 16.108 41.9169 16.196 42.2289 16.292C42.5489 16.388 42.8489 16.512 43.1289 16.664C43.4089 16.808 43.6369 17.008 43.8129 17.264C43.9889 17.52 44.0769 17.852 44.0769 18.26C44.0769 18.78 43.8609 19.22 43.4289 19.58C43.0049 19.94 42.3969 20.12 41.6049 20.12ZM55.4879 20V16.052C55.4879 15.564 55.3599 15.196 55.1039 14.948C54.8559 14.7 54.5559 14.576 54.2039 14.576C53.8519 14.576 53.5479 14.7 53.2919 14.948C53.0439 15.196 52.9199 15.564 52.9199 16.052H52.5239C52.5239 15.532 52.6159 15.084 52.7999 14.708C52.9919 14.324 53.2479 14.032 53.5679 13.832C53.8959 13.624 54.2599 13.52 54.6599 13.52C55.2519 13.52 55.7359 13.724 56.1119 14.132C56.4959 14.532 56.6879 15.08 56.6879 15.776V20H55.4879ZM47.9519 20V13.64H49.1519V20H47.9519ZM51.7199 20V16.052C51.7199 15.564 51.5919 15.196 51.3359 14.948C51.0879 14.7 50.7879 14.576 50.4359 14.576C50.0839 14.576 49.7799 14.7 49.5239 14.948C49.2759 15.196 49.1519 15.564 49.1519 16.052H48.7559C48.7559 15.532 48.8479 15.084 49.0319 14.708C49.2239 14.324 49.4799 14.032 49.7999 13.832C50.1279 13.624 50.4919 13.52 50.8919 13.52C51.4839 13.52 51.9679 13.724 52.3439 14.132C52.7279 14.532 52.9199 15.08 52.9199 15.776V20H51.7199ZM60.8327 20.12C60.2647 20.12 59.7607 19.984 59.3207 19.712C58.8887 19.44 58.5487 19.056 58.3007 18.56C58.0527 18.064 57.9287 17.484 57.9287 16.82C57.9287 16.148 58.0527 15.568 58.3007 15.08C58.5487 14.584 58.8887 14.2 59.3207 13.928C59.7607 13.656 60.2647 13.52 60.8327 13.52C61.4087 13.52 61.9127 13.656 62.3447 13.928C62.7847 14.2 63.1287 14.584 63.3767 15.08C63.6247 15.568 63.7487 16.148 63.7487 16.82C63.7487 17.484 63.6247 18.064 63.3767 18.56C63.1287 19.056 62.7847 19.44 62.3447 19.712C61.9127 19.984 61.4087 20.12 60.8327 20.12ZM60.8327 19.04C61.3367 19.04 61.7407 18.864 62.0447 18.512C62.3487 18.152 62.5007 17.588 62.5007 16.82C62.5007 16.052 62.3487 15.492 62.0447 15.14C61.7407 14.78 61.3367 14.6 60.8327 14.6C60.3367 14.6 59.9367 14.78 59.6327 15.14C59.3287 15.492 59.1767 16.052 59.1767 16.82C59.1767 17.588 59.3287 18.152 59.6327 18.512C59.9367 18.864 60.3367 19.04 60.8327 19.04ZM69.1072 20V16.292C69.1072 15.724 68.9632 15.296 68.6752 15.008C68.3872 14.72 68.0432 14.576 67.6432 14.576C67.2432 14.576 66.8992 14.72 66.6112 15.008C66.3232 15.296 66.1792 15.724 66.1792 16.292H65.7832C65.7832 15.724 65.8832 15.232 66.0832 14.816C66.2912 14.4 66.5712 14.08 66.9232 13.856C67.2752 13.632 67.6672 13.52 68.0992 13.52C68.5312 13.52 68.9112 13.624 69.2392 13.832C69.5752 14.032 69.8352 14.32 70.0192 14.696C70.2112 15.064 70.3072 15.504 70.3072 16.016V20H69.1072ZM64.9792 20V13.64H66.1792V20H64.9792ZM74.0898 20.12C73.4658 20.12 72.9778 19.956 72.6258 19.628C72.2818 19.292 72.1098 18.796 72.1098 18.14V12.32L73.3098 12.08V17.924C73.3098 18.292 73.3978 18.564 73.5738 18.74C73.7498 18.908 74.0058 18.992 74.3418 18.992C74.5018 18.992 74.6498 18.98 74.7858 18.956C74.9298 18.932 75.0698 18.904 75.2058 18.872V20C75.0378 20.04 74.8658 20.068 74.6898 20.084C74.5218 20.108 74.3218 20.12 74.0898 20.12ZM71.2098 14.684V13.64H75.1458V14.684H71.2098ZM80.4041 20V16.292C80.4041 15.724 80.2601 15.296 79.9721 15.008C79.6841 14.72 79.3401 14.576 78.9401 14.576C78.5401 14.576 78.1961 14.72 77.9081 15.008C77.6201 15.296 77.4761 15.724 77.4761 16.292H77.0801C77.0801 15.724 77.1801 15.232 77.3801 14.816C77.5881 14.4 77.8681 14.08 78.2201 13.856C78.5721 13.632 78.9641 13.52 79.3961 13.52C79.8281 13.52 80.2081 13.624 80.5361 13.832C80.8721 14.032 81.1321 14.32 81.3161 14.696C81.5081 15.064 81.6041 15.504 81.6041 16.016V20H80.4041ZM76.2761 20V11.42H77.4761V20H76.2761Z" fill="#4D4F58"/>
</svg>
