<svg width="105" height="32" viewBox="0 0 105 32" fill="none" xmlns="http://www.w3.org/2000/svg">
<rect width="105" height="32" rx="16" fill="#0145FE"/>
<path d="M28.356 20V11.72H29.616V20H28.356ZM25.716 12.872V11.72H32.256V12.872H25.716ZM37.3807 20V16.292C37.3807 15.724 37.2367 15.296 36.9487 15.008C36.6607 14.72 36.3167 14.576 35.9167 14.576C35.5167 14.576 35.1727 14.72 34.8847 15.008C34.5967 15.296 34.4527 15.724 34.4527 16.292H34.0567C34.0567 15.724 34.1567 15.232 34.3567 14.816C34.5647 14.4 34.8447 14.08 35.1967 13.856C35.5487 13.632 35.9407 13.52 36.3727 13.52C36.8047 13.52 37.1847 13.624 37.5127 13.832C37.8487 14.032 38.1087 14.32 38.2927 14.696C38.4847 15.064 38.5807 15.504 38.5807 16.016V20H37.3807ZM33.2527 20V11.42H34.4527V20H33.2527ZM40.1433 20V13.64H41.3433V20H40.1433ZM40.7433 12.776C40.5353 12.776 40.3593 12.708 40.2153 12.572C40.0713 12.436 39.9993 12.26 39.9993 12.044C39.9993 11.82 40.0713 11.64 40.2153 11.504C40.3593 11.368 40.5353 11.3 40.7433 11.3C40.9513 11.3 41.1273 11.368 41.2713 11.504C41.4153 11.64 41.4873 11.82 41.4873 12.044C41.4873 12.26 41.4153 12.436 41.2713 12.572C41.1273 12.708 40.9513 12.776 40.7433 12.776ZM45.1049 20.12C44.3849 20.12 43.8089 19.976 43.3769 19.688C42.9449 19.392 42.6409 18.96 42.4649 18.392L43.5929 18.032C43.7289 18.432 43.9289 18.72 44.1929 18.896C44.4569 19.064 44.7889 19.148 45.1889 19.148C45.5489 19.148 45.8369 19.08 46.0529 18.944C46.2769 18.8 46.3889 18.6 46.3889 18.344C46.3889 18.096 46.3009 17.904 46.1249 17.768C45.9489 17.624 45.7209 17.508 45.4409 17.42C45.1609 17.324 44.8609 17.232 44.5409 17.144C44.2289 17.048 43.9329 16.932 43.6529 16.796C43.3729 16.66 43.1449 16.476 42.9689 16.244C42.7929 16.004 42.7049 15.692 42.7049 15.308C42.7049 14.812 42.9089 14.392 43.3169 14.048C43.7249 13.696 44.3089 13.52 45.0689 13.52C45.7249 13.52 46.2529 13.664 46.6529 13.952C47.0529 14.24 47.3409 14.66 47.5169 15.212L46.4249 15.584C46.2809 15.192 46.0889 14.912 45.8489 14.744C45.6169 14.576 45.3249 14.492 44.9729 14.492C44.6289 14.492 44.3609 14.56 44.1689 14.696C43.9849 14.824 43.8929 14.992 43.8929 15.2C43.8929 15.416 43.9809 15.588 44.1569 15.716C44.3329 15.836 44.5609 15.94 44.8409 16.028C45.1209 16.108 45.4169 16.196 45.7289 16.292C46.0489 16.388 46.3489 16.512 46.6289 16.664C46.9089 16.808 47.1369 17.008 47.3129 17.264C47.4889 17.52 47.5769 17.852 47.5769 18.26C47.5769 18.78 47.3609 19.22 46.9289 19.58C46.5049 19.94 45.8969 20.12 45.1049 20.12ZM52.3639 20L50.7919 13.64H52.0039L53.4919 20H52.3639ZM53.0359 20L54.5359 13.64H55.5559L54.0679 20H53.0359ZM56.4919 20L55.0039 13.64H56.0839L57.6199 20H56.4919ZM57.1639 20L58.6039 13.64H59.7679L58.1959 20H57.1639ZM63.2668 20.12C62.6828 20.12 62.1708 19.984 61.7308 19.712C61.2908 19.44 60.9468 19.056 60.6988 18.56C60.4588 18.064 60.3388 17.484 60.3388 16.82C60.3388 16.124 60.4628 15.532 60.7108 15.044C60.9588 14.548 61.2988 14.172 61.7308 13.916C62.1708 13.652 62.6748 13.52 63.2428 13.52C63.7948 13.52 64.2788 13.652 64.6948 13.916C65.1188 14.172 65.4468 14.548 65.6788 15.044C65.9188 15.532 66.0388 16.124 66.0388 16.82C66.0388 16.884 66.0388 16.944 66.0388 17C66.0388 17.056 66.0348 17.132 66.0268 17.228H61.3228V16.28H65.1388L64.7908 16.82C64.7908 16.02 64.6508 15.444 64.3708 15.092C64.0908 14.732 63.7148 14.552 63.2428 14.552C62.7468 14.552 62.3468 14.732 62.0428 15.092C61.7388 15.444 61.5868 16.02 61.5868 16.82C61.5868 17.564 61.7348 18.112 62.0308 18.464C62.3348 18.816 62.7468 18.992 63.2668 18.992C63.6188 18.992 63.9188 18.916 64.1668 18.764C64.4228 18.604 64.6268 18.344 64.7788 17.984L65.8948 18.428C65.6868 18.964 65.3508 19.38 64.8868 19.676C64.4228 19.972 63.8828 20.12 63.2668 20.12ZM69.8762 20.12C69.2922 20.12 68.7802 19.984 68.3402 19.712C67.9002 19.44 67.5562 19.056 67.3082 18.56C67.0682 18.064 66.9482 17.484 66.9482 16.82C66.9482 16.124 67.0722 15.532 67.3202 15.044C67.5682 14.548 67.9082 14.172 68.3402 13.916C68.7802 13.652 69.2842 13.52 69.8522 13.52C70.4042 13.52 70.8882 13.652 71.3042 13.916C71.7282 14.172 72.0562 14.548 72.2882 15.044C72.5282 15.532 72.6482 16.124 72.6482 16.82C72.6482 16.884 72.6482 16.944 72.6482 17C72.6482 17.056 72.6442 17.132 72.6362 17.228H67.9322V16.28H71.7482L71.4002 16.82C71.4002 16.02 71.2602 15.444 70.9802 15.092C70.7002 14.732 70.3242 14.552 69.8522 14.552C69.3562 14.552 68.9562 14.732 68.6522 15.092C68.3482 15.444 68.1962 16.02 68.1962 16.82C68.1962 17.564 68.3442 18.112 68.6402 18.464C68.9442 18.816 69.3562 18.992 69.8762 18.992C70.2282 18.992 70.5282 18.916 70.7762 18.764C71.0322 18.604 71.2362 18.344 71.3882 17.984L72.5042 18.428C72.2962 18.964 71.9602 19.38 71.4962 19.676C71.0322 19.972 70.4922 20.12 69.8762 20.12ZM74.9976 18.332V16.82L77.5776 13.64H78.9936L74.9976 18.332ZM73.8816 20V11.42H75.0816V20H73.8816ZM77.7216 20L75.7176 17.144L76.4976 16.28L79.1856 20H77.7216Z" fill="#F8FAFC"/>
</svg>
