<svg width="374" height="544" viewBox="0 0 374 544" fill="none" xmlns="http://www.w3.org/2000/svg">
<rect width="375" height="544" fill="url(#paint0_linear_266_18253)"/>
<path d="M79.5572 153.176C78.6399 153.176 77.8505 153 77.1892 152.648C76.5385 152.285 76.0372 151.773 75.6852 151.112C75.3332 150.451 75.1572 149.672 75.1572 148.776V141.96H77.1092V148.616C77.1092 149.512 77.3172 150.195 77.7332 150.664C78.1492 151.133 78.7625 151.368 79.5732 151.368C80.3945 151.368 81.0132 151.133 81.4292 150.664C81.8559 150.195 82.0692 149.512 82.0692 148.616V141.96H83.9732V148.776C83.9732 149.672 83.7972 150.451 83.4452 151.112C83.0932 151.773 82.5865 152.285 81.9252 152.648C81.2639 153 80.4745 153.176 79.5572 153.176ZM90.3358 153.176C89.4611 153.176 88.7518 152.851 88.2078 152.2C87.6745 151.549 87.4078 150.627 87.4078 149.432V148.088C87.4078 146.893 87.6745 145.971 88.2078 145.32C88.7518 144.669 89.4611 144.344 90.3358 144.344C90.9971 144.344 91.5785 144.52 92.0798 144.872C92.5811 145.224 92.9705 145.731 93.2478 146.392C93.5251 147.043 93.6638 147.832 93.6638 148.76C93.6638 149.677 93.5251 150.467 93.2478 151.128C92.9705 151.789 92.5811 152.296 92.0798 152.648C91.5785 153 90.9971 153.176 90.3358 153.176ZM85.9838 155.8V144.52H87.8398V146.568L87.5838 148.76L87.8398 150.92V155.8H85.9838ZM89.7438 151.528C90.3411 151.528 90.8211 151.304 91.1838 150.856C91.5571 150.408 91.7438 149.709 91.7438 148.76C91.7438 147.811 91.5571 147.112 91.1838 146.664C90.8211 146.216 90.3411 145.992 89.7438 145.992C89.1465 145.992 88.6611 146.216 88.2878 146.664C87.9251 147.112 87.7438 147.811 87.7438 148.76C87.7438 149.709 87.9251 150.408 88.2878 150.856C88.6611 151.304 89.1465 151.528 89.7438 151.528ZM98.4182 155.992C97.5862 155.992 96.8875 155.843 96.3222 155.544C95.7569 155.256 95.3195 154.877 95.0102 154.408L96.2902 153.336C96.5462 153.656 96.8395 153.896 97.1702 154.056C97.5115 154.216 97.9222 154.296 98.4022 154.296C98.7969 154.296 99.1649 154.221 99.5062 154.072C99.8475 153.923 100.12 153.677 100.322 153.336C100.536 152.995 100.642 152.552 100.642 152.008V150.488L100.898 148.344L100.642 146.296V144.52H102.498V152.024C102.498 152.931 102.317 153.677 101.954 154.264C101.592 154.851 101.101 155.283 100.482 155.56C99.8742 155.848 99.1862 155.992 98.4182 155.992ZM98.1462 152.344C97.4955 152.344 96.9195 152.179 96.4182 151.848C95.9169 151.517 95.5222 151.053 95.2342 150.456C94.9569 149.859 94.8182 149.155 94.8182 148.344C94.8182 147.523 94.9569 146.813 95.2342 146.216C95.5222 145.619 95.9169 145.16 96.4182 144.84C96.9195 144.509 97.4955 144.344 98.1462 144.344C99.0315 144.344 99.7302 144.637 100.242 145.224C100.765 145.811 101.026 146.621 101.026 147.656V149.016C101.026 150.051 100.765 150.867 100.242 151.464C99.7302 152.051 99.0315 152.344 98.1462 152.344ZM98.7382 150.68C99.3355 150.68 99.8155 150.488 100.178 150.104C100.552 149.709 100.738 149.123 100.738 148.344C100.738 147.555 100.552 146.968 100.178 146.584C99.8155 146.189 99.3355 145.992 98.7382 145.992C98.1409 145.992 97.6555 146.189 97.2822 146.584C96.9195 146.968 96.7382 147.555 96.7382 148.344C96.7382 149.123 96.9195 149.709 97.2822 150.104C97.6555 150.488 98.1409 150.68 98.7382 150.68ZM104.453 153V144.52H106.309V153H104.453ZM105.877 148.76C105.877 147.853 105.994 147.075 106.229 146.424C106.474 145.763 106.821 145.251 107.269 144.888C107.727 144.525 108.287 144.344 108.949 144.344V146.44H108.229C107.642 146.44 107.173 146.595 106.821 146.904C106.479 147.203 106.309 147.715 106.309 148.44L105.877 148.76ZM115.243 153C115.179 152.723 115.126 152.44 115.083 152.152C115.051 151.864 115.035 151.581 115.035 151.304V147.72C115.035 147.069 114.87 146.605 114.539 146.328C114.219 146.051 113.835 145.912 113.387 145.912C112.971 145.912 112.614 146.029 112.315 146.264C112.027 146.499 111.819 146.856 111.691 147.336L109.931 146.84C110.155 146.019 110.582 145.4 111.211 144.984C111.851 144.557 112.614 144.344 113.499 144.344C114.566 144.344 115.398 144.627 115.995 145.192C116.592 145.757 116.891 146.536 116.891 147.528V151.112C116.891 151.741 116.971 152.371 117.131 153H115.243ZM112.251 153.176C111.483 153.176 110.875 152.963 110.427 152.536C109.99 152.109 109.771 151.56 109.771 150.888C109.771 150.248 109.984 149.693 110.411 149.224C110.848 148.755 111.515 148.44 112.411 148.28L115.483 147.768V149.096L113.051 149.592C112.539 149.688 112.176 149.837 111.963 150.04C111.75 150.243 111.643 150.477 111.643 150.744C111.643 150.968 111.734 151.176 111.915 151.368C112.096 151.549 112.379 151.64 112.763 151.64C113.126 151.64 113.478 151.555 113.819 151.384C114.171 151.213 114.459 150.968 114.683 150.648C114.918 150.317 115.035 149.923 115.035 149.464H115.563C115.563 150.221 115.414 150.883 115.115 151.448C114.816 152.003 114.416 152.429 113.915 152.728C113.414 153.027 112.859 153.176 112.251 153.176ZM121.771 153.176C121.121 153.176 120.545 153 120.043 152.648C119.542 152.296 119.147 151.789 118.859 151.128C118.582 150.467 118.443 149.677 118.443 148.76C118.443 147.832 118.582 147.043 118.859 146.392C119.147 145.731 119.542 145.224 120.043 144.872C120.545 144.52 121.121 144.344 121.771 144.344C122.657 144.344 123.366 144.669 123.899 145.32C124.433 145.971 124.699 146.893 124.699 148.088V149.432C124.699 150.627 124.433 151.549 123.899 152.2C123.366 152.851 122.657 153.176 121.771 153.176ZM122.363 151.528C122.961 151.528 123.441 151.304 123.803 150.856C124.177 150.408 124.363 149.709 124.363 148.76C124.363 147.811 124.177 147.112 123.803 146.664C123.441 146.216 122.961 145.992 122.363 145.992C121.766 145.992 121.281 146.216 120.907 146.664C120.545 147.112 120.363 147.811 120.363 148.76C120.363 149.709 120.545 150.408 120.907 150.856C121.281 151.304 121.766 151.528 122.363 151.528ZM124.267 153V150.952L124.523 148.76L124.267 146.6V141.56H126.123V153H124.267ZM131.614 153.176C130.824 153.176 130.131 152.995 129.534 152.632C128.947 152.269 128.488 151.757 128.158 151.096C127.827 150.424 127.662 149.645 127.662 148.76C127.662 147.843 127.827 147.053 128.158 146.392C128.499 145.731 128.963 145.224 129.55 144.872C130.147 144.52 130.83 144.344 131.598 144.344C132.355 144.344 133.022 144.52 133.598 144.872C134.174 145.224 134.622 145.731 134.942 146.392C135.272 147.053 135.438 147.843 135.438 148.76C135.438 148.856 135.438 148.947 135.438 149.032C135.438 149.117 135.432 149.224 135.422 149.352H128.974V147.976H134.046L133.518 148.76C133.518 147.747 133.347 147.021 133.006 146.584C132.664 146.147 132.195 145.928 131.598 145.928C130.99 145.928 130.499 146.152 130.126 146.6C129.763 147.037 129.582 147.757 129.582 148.76C129.582 149.699 129.763 150.392 130.126 150.84C130.499 151.277 131.011 151.496 131.662 151.496C132.088 151.496 132.456 151.4 132.766 151.208C133.075 151.016 133.315 150.701 133.486 150.264L135.246 150.856C134.99 151.581 134.542 152.152 133.902 152.568C133.272 152.973 132.51 153.176 131.614 153.176ZM143.369 153.176C142.505 153.176 141.827 152.941 141.337 152.472C140.846 152.003 140.601 151.299 140.601 150.36V142.76L142.473 142.392V150.072C142.473 150.541 142.585 150.888 142.809 151.112C143.043 151.336 143.379 151.448 143.817 151.448C144.019 151.448 144.211 151.432 144.393 151.4C144.574 151.368 144.75 151.331 144.921 151.288V153C144.697 153.064 144.462 153.107 144.217 153.128C143.971 153.16 143.689 153.176 143.369 153.176ZM139.449 146.104V144.52H144.841V146.104H139.449ZM149.786 153.176C149.007 153.176 148.319 152.995 147.722 152.632C147.124 152.269 146.655 151.757 146.314 151.096C145.983 150.424 145.818 149.645 145.818 148.76C145.818 147.864 145.983 147.085 146.314 146.424C146.655 145.763 147.124 145.251 147.722 144.888C148.319 144.525 149.007 144.344 149.786 144.344C150.564 144.344 151.252 144.525 151.85 144.888C152.447 145.251 152.911 145.763 153.242 146.424C153.583 147.085 153.754 147.864 153.754 148.76C153.754 149.645 153.583 150.424 153.242 151.096C152.911 151.757 152.447 152.269 151.85 152.632C151.252 152.995 150.564 153.176 149.786 153.176ZM149.786 151.512C150.404 151.512 150.9 151.288 151.274 150.84C151.647 150.392 151.834 149.699 151.834 148.76C151.834 147.821 151.647 147.128 151.274 146.68C150.9 146.232 150.404 146.008 149.786 146.008C149.167 146.008 148.671 146.232 148.298 146.68C147.924 147.128 147.738 147.821 147.738 148.76C147.738 149.699 147.924 150.392 148.298 150.84C148.671 151.288 149.167 151.512 149.786 151.512ZM160.337 153L157.745 144.52H159.729L162.193 153H160.337ZM161.505 153L163.921 144.52H165.825L163.233 153H161.505ZM166.906 153V144.52H168.762V153H166.906ZM167.834 143.448C167.535 143.448 167.279 143.352 167.066 143.16C166.863 142.957 166.762 142.701 166.762 142.392C166.762 142.061 166.863 141.805 167.066 141.624C167.279 141.432 167.535 141.336 167.834 141.336C168.132 141.336 168.383 141.432 168.586 141.624C168.799 141.805 168.906 142.061 168.906 142.392C168.906 142.701 168.799 142.957 168.586 143.16C168.383 143.352 168.132 143.448 167.834 143.448ZM174.254 153.176C173.465 153.176 172.772 152.995 172.174 152.632C171.588 152.269 171.129 151.757 170.798 151.096C170.468 150.424 170.302 149.645 170.302 148.76C170.302 147.843 170.468 147.053 170.798 146.392C171.14 145.731 171.604 145.224 172.19 144.872C172.788 144.52 173.47 144.344 174.238 144.344C174.996 144.344 175.662 144.52 176.238 144.872C176.814 145.224 177.262 145.731 177.582 146.392C177.913 147.053 178.078 147.843 178.078 148.76C178.078 148.856 178.078 148.947 178.078 149.032C178.078 149.117 178.073 149.224 178.062 149.352H171.614V147.976H176.686L176.158 148.76C176.158 147.747 175.988 147.021 175.646 146.584C175.305 146.147 174.836 145.928 174.238 145.928C173.63 145.928 173.14 146.152 172.766 146.6C172.404 147.037 172.222 147.757 172.222 148.76C172.222 149.699 172.404 150.392 172.766 150.84C173.14 151.277 173.652 151.496 174.302 151.496C174.729 151.496 175.097 151.4 175.406 151.208C175.716 151.016 175.956 150.701 176.126 150.264L177.886 150.856C177.63 151.581 177.182 152.152 176.542 152.568C175.913 152.973 175.15 153.176 174.254 153.176ZM180.793 153L178.793 144.52H180.681L182.505 153H180.793ZM181.913 153L183.769 144.52H185.353L183.513 153H181.913ZM186.489 153L184.649 144.52H186.313L188.201 153H186.489ZM187.609 153L189.385 144.52H191.209L189.209 153H187.609ZM205.656 153V147.864C205.656 147.235 205.501 146.765 205.192 146.456C204.893 146.136 204.525 145.976 204.088 145.976C203.65 145.976 203.277 146.136 202.968 146.456C202.669 146.765 202.52 147.235 202.52 147.864H201.928C201.928 147.128 202.05 146.499 202.296 145.976C202.552 145.443 202.893 145.037 203.32 144.76C203.757 144.483 204.253 144.344 204.808 144.344C205.597 144.344 206.242 144.621 206.744 145.176C207.256 145.731 207.512 146.488 207.512 147.448V153H205.656ZM195.656 153V144.52H197.512V153H195.656ZM200.648 153V147.864C200.648 147.235 200.498 146.765 200.2 146.456C199.901 146.136 199.528 145.976 199.08 145.976C198.642 145.976 198.269 146.136 197.96 146.456C197.661 146.765 197.512 147.235 197.512 147.864H197.032C197.032 147.128 197.149 146.499 197.384 145.976C197.629 145.443 197.96 145.037 198.376 144.76C198.802 144.483 199.288 144.344 199.832 144.344C200.621 144.344 201.266 144.621 201.768 145.176C202.269 145.731 202.52 146.488 202.52 147.448V153H200.648ZM213.02 153.176C212.242 153.176 211.554 152.995 210.956 152.632C210.359 152.269 209.89 151.757 209.548 151.096C209.218 150.424 209.052 149.645 209.052 148.76C209.052 147.864 209.218 147.085 209.548 146.424C209.89 145.763 210.359 145.251 210.956 144.888C211.554 144.525 212.242 144.344 213.02 144.344C213.799 144.344 214.487 144.525 215.084 144.888C215.682 145.251 216.146 145.763 216.476 146.424C216.818 147.085 216.988 147.864 216.988 148.76C216.988 149.645 216.818 150.424 216.476 151.096C216.146 151.757 215.682 152.269 215.084 152.632C214.487 152.995 213.799 153.176 213.02 153.176ZM213.02 151.512C213.639 151.512 214.135 151.288 214.508 150.84C214.882 150.392 215.068 149.699 215.068 148.76C215.068 147.821 214.882 147.128 214.508 146.68C214.135 146.232 213.639 146.008 213.02 146.008C212.402 146.008 211.906 146.232 211.532 146.68C211.159 147.128 210.972 147.821 210.972 148.76C210.972 149.699 211.159 150.392 211.532 150.84C211.906 151.288 212.402 151.512 213.02 151.512ZM218.531 153V144.52H220.387V153H218.531ZM219.955 148.76C219.955 147.853 220.072 147.075 220.307 146.424C220.552 145.763 220.899 145.251 221.347 144.888C221.805 144.525 222.365 144.344 223.027 144.344V146.44H222.307C221.72 146.44 221.251 146.595 220.899 146.904C220.557 147.203 220.387 147.715 220.387 148.44L219.955 148.76ZM227.801 153.176C227.012 153.176 226.318 152.995 225.721 152.632C225.134 152.269 224.676 151.757 224.345 151.096C224.014 150.424 223.849 149.645 223.849 148.76C223.849 147.843 224.014 147.053 224.345 146.392C224.686 145.731 225.15 145.224 225.737 144.872C226.334 144.52 227.017 144.344 227.785 144.344C228.542 144.344 229.209 144.52 229.785 144.872C230.361 145.224 230.809 145.731 231.129 146.392C231.46 147.053 231.625 147.843 231.625 148.76C231.625 148.856 231.625 148.947 231.625 149.032C231.625 149.117 231.62 149.224 231.609 149.352H225.161V147.976H230.233L229.705 148.76C229.705 147.747 229.534 147.021 229.193 146.584C228.852 146.147 228.382 145.928 227.785 145.928C227.177 145.928 226.686 146.152 226.313 146.6C225.95 147.037 225.769 147.757 225.769 148.76C225.769 149.699 225.95 150.392 226.313 150.84C226.686 151.277 227.198 151.496 227.849 151.496C228.276 151.496 228.644 151.4 228.953 151.208C229.262 151.016 229.502 150.701 229.673 150.264L231.433 150.856C231.177 151.581 230.729 152.152 230.089 152.568C229.46 152.973 228.697 153.176 227.801 153.176ZM240.82 153.176C239.946 153.176 239.236 152.851 238.692 152.2C238.159 151.549 237.892 150.627 237.892 149.432V148.088C237.892 146.893 238.159 145.971 238.692 145.32C239.236 144.669 239.946 144.344 240.82 144.344C241.482 144.344 242.063 144.52 242.564 144.872C243.066 145.224 243.455 145.731 243.732 146.392C244.01 147.043 244.148 147.832 244.148 148.76C244.148 149.677 244.01 150.467 243.732 151.128C243.455 151.789 243.066 152.296 242.564 152.648C242.063 153 241.482 153.176 240.82 153.176ZM236.468 155.8V144.52H238.324V146.568L238.068 148.76L238.324 150.92V155.8H236.468ZM240.228 151.528C240.826 151.528 241.306 151.304 241.668 150.856C242.042 150.408 242.228 149.709 242.228 148.76C242.228 147.811 242.042 147.112 241.668 146.664C241.306 146.216 240.826 145.992 240.228 145.992C239.631 145.992 239.146 146.216 238.772 146.664C238.41 147.112 238.228 147.811 238.228 148.76C238.228 149.709 238.41 150.408 238.772 150.856C239.146 151.304 239.631 151.528 240.228 151.528ZM245.703 153V144.52H247.559V153H245.703ZM247.127 148.76C247.127 147.853 247.244 147.075 247.479 146.424C247.724 145.763 248.071 145.251 248.519 144.888C248.977 144.525 249.537 144.344 250.199 144.344V146.44H249.479C248.892 146.44 248.423 146.595 248.071 146.904C247.729 147.203 247.559 147.715 247.559 148.44L247.127 148.76ZM254.989 153.176C254.21 153.176 253.522 152.995 252.925 152.632C252.328 152.269 251.858 151.757 251.517 151.096C251.186 150.424 251.021 149.645 251.021 148.76C251.021 147.864 251.186 147.085 251.517 146.424C251.858 145.763 252.328 145.251 252.925 144.888C253.522 144.525 254.21 144.344 254.989 144.344C255.768 144.344 256.456 144.525 257.053 144.888C257.65 145.251 258.114 145.763 258.445 146.424C258.786 147.085 258.957 147.864 258.957 148.76C258.957 149.645 258.786 150.424 258.445 151.096C258.114 151.757 257.65 152.269 257.053 152.632C256.456 152.995 255.768 153.176 254.989 153.176ZM254.989 151.512C255.608 151.512 256.104 151.288 256.477 150.84C256.85 150.392 257.037 149.699 257.037 148.76C257.037 147.821 256.85 147.128 256.477 146.68C256.104 146.232 255.608 146.008 254.989 146.008C254.37 146.008 253.874 146.232 253.501 146.68C253.128 147.128 252.941 147.821 252.941 148.76C252.941 149.699 253.128 150.392 253.501 150.84C253.874 151.288 254.37 151.512 254.989 151.512ZM260.819 153V144.28C260.819 143.309 261.07 142.584 261.571 142.104C262.073 141.613 262.766 141.368 263.651 141.368C263.907 141.368 264.131 141.384 264.323 141.416C264.526 141.448 264.734 141.491 264.947 141.544V143.16C264.787 143.117 264.622 143.08 264.451 143.048C264.291 143.016 264.115 143 263.923 143C263.518 143 263.209 143.101 262.995 143.304C262.793 143.507 262.691 143.795 262.691 144.168V153H260.819ZM259.667 146.104V144.52H266.659V146.104H259.667ZM266.035 153V144.52H267.891V153H266.035ZM266.963 143.48C266.643 143.48 266.371 143.379 266.147 143.176C265.934 142.973 265.827 142.707 265.827 142.376C265.827 142.035 265.934 141.763 266.147 141.56C266.371 141.347 266.643 141.24 266.963 141.24C267.283 141.24 267.55 141.347 267.763 141.56C267.987 141.763 268.099 142.035 268.099 142.376C268.099 142.707 267.987 142.973 267.763 143.176C267.55 143.379 267.283 143.48 266.963 143.48ZM269.843 153V141.56H271.699V153H269.843ZM277.192 153.176C276.402 153.176 275.709 152.995 275.112 152.632C274.525 152.269 274.066 151.757 273.736 151.096C273.405 150.424 273.24 149.645 273.24 148.76C273.24 147.843 273.405 147.053 273.736 146.392C274.077 145.731 274.541 145.224 275.128 144.872C275.725 144.52 276.408 144.344 277.176 144.344C277.933 144.344 278.6 144.52 279.176 144.872C279.752 145.224 280.2 145.731 280.52 146.392C280.85 147.053 281.016 147.843 281.016 148.76C281.016 148.856 281.016 148.947 281.016 149.032C281.016 149.117 281.01 149.224 281 149.352H274.552V147.976H279.624L279.096 148.76C279.096 147.747 278.925 147.021 278.584 146.584C278.242 146.147 277.773 145.928 277.176 145.928C276.568 145.928 276.077 146.152 275.704 146.6C275.341 147.037 275.16 147.757 275.16 148.76C275.16 149.699 275.341 150.392 275.704 150.84C276.077 151.277 276.589 151.496 277.24 151.496C277.666 151.496 278.034 151.4 278.344 151.208C278.653 151.016 278.893 150.701 279.064 150.264L280.824 150.856C280.568 151.581 280.12 152.152 279.48 152.568C278.85 152.973 278.088 153.176 277.192 153.176ZM84.404 174.176C83.7533 174.176 83.1773 174 82.676 173.648C82.1747 173.296 81.78 172.789 81.492 172.128C81.2147 171.467 81.076 170.677 81.076 169.76C81.076 168.832 81.2147 168.043 81.492 167.392C81.78 166.731 82.1747 166.224 82.676 165.872C83.1773 165.52 83.7533 165.344 84.404 165.344C85.2893 165.344 85.9987 165.669 86.532 166.32C87.0653 166.971 87.332 167.893 87.332 169.088V170.432C87.332 171.627 87.0653 172.549 86.532 173.2C85.9987 173.851 85.2893 174.176 84.404 174.176ZM84.996 172.528C85.5933 172.528 86.0733 172.304 86.436 171.856C86.8093 171.408 86.996 170.709 86.996 169.76C86.996 168.811 86.8093 168.112 86.436 167.664C86.0733 167.216 85.5933 166.992 84.996 166.992C84.3987 166.992 83.9133 167.216 83.54 167.664C83.1773 168.112 82.996 168.811 82.996 169.76C82.996 170.709 83.1773 171.408 83.54 171.856C83.9133 172.304 84.3987 172.528 84.996 172.528ZM86.9 174V171.952L87.156 169.76L86.9 167.6V162.56H88.756V174H86.9ZM95.7664 174C95.7024 173.723 95.649 173.44 95.6064 173.152C95.5744 172.864 95.5584 172.581 95.5584 172.304V168.72C95.5584 168.069 95.393 167.605 95.0624 167.328C94.7424 167.051 94.3584 166.912 93.9104 166.912C93.4944 166.912 93.137 167.029 92.8384 167.264C92.5504 167.499 92.3424 167.856 92.2144 168.336L90.4544 167.84C90.6784 167.019 91.105 166.4 91.7344 165.984C92.3744 165.557 93.137 165.344 94.0224 165.344C95.089 165.344 95.921 165.627 96.5184 166.192C97.1157 166.757 97.4144 167.536 97.4144 168.528V172.112C97.4144 172.741 97.4944 173.371 97.6544 174H95.7664ZM92.7744 174.176C92.0064 174.176 91.3984 173.963 90.9504 173.536C90.513 173.109 90.2944 172.56 90.2944 171.888C90.2944 171.248 90.5077 170.693 90.9344 170.224C91.3717 169.755 92.0384 169.44 92.9344 169.28L96.0064 168.768V170.096L93.5744 170.592C93.0624 170.688 92.6997 170.837 92.4864 171.04C92.273 171.243 92.1664 171.477 92.1664 171.744C92.1664 171.968 92.257 172.176 92.4384 172.368C92.6197 172.549 92.9024 172.64 93.2864 172.64C93.649 172.64 94.001 172.555 94.3424 172.384C94.6944 172.213 94.9824 171.968 95.2064 171.648C95.441 171.317 95.5584 170.923 95.5584 170.464H96.0864C96.0864 171.221 95.937 171.883 95.6384 172.448C95.3397 173.003 94.9397 173.429 94.4384 173.728C93.937 174.027 93.3824 174.176 92.7744 174.176ZM102.455 174.176C101.591 174.176 100.913 173.941 100.423 173.472C99.932 173.003 99.6866 172.299 99.6866 171.36V163.76L101.559 163.392V171.072C101.559 171.541 101.671 171.888 101.895 172.112C102.129 172.336 102.465 172.448 102.903 172.448C103.105 172.448 103.297 172.432 103.479 172.4C103.66 172.368 103.836 172.331 104.007 172.288V174C103.783 174.064 103.548 174.107 103.303 174.128C103.057 174.16 102.775 174.176 102.455 174.176ZM98.5346 167.104V165.52H103.927V167.104H98.5346ZM110.376 174C110.312 173.723 110.258 173.44 110.216 173.152C110.184 172.864 110.168 172.581 110.168 172.304V168.72C110.168 168.069 110.002 167.605 109.672 167.328C109.352 167.051 108.968 166.912 108.52 166.912C108.104 166.912 107.746 167.029 107.448 167.264C107.16 167.499 106.952 167.856 106.824 168.336L105.064 167.84C105.288 167.019 105.714 166.4 106.344 165.984C106.984 165.557 107.746 165.344 108.632 165.344C109.698 165.344 110.53 165.627 111.128 166.192C111.725 166.757 112.024 167.536 112.024 168.528V172.112C112.024 172.741 112.104 173.371 112.264 174H110.376ZM107.384 174.176C106.616 174.176 106.008 173.963 105.56 173.536C105.122 173.109 104.904 172.56 104.904 171.888C104.904 171.248 105.117 170.693 105.544 170.224C105.981 169.755 106.648 169.44 107.544 169.28L110.616 168.768V170.096L108.184 170.592C107.672 170.688 107.309 170.837 107.096 171.04C106.882 171.243 106.776 171.477 106.776 171.744C106.776 171.968 106.866 172.176 107.048 172.368C107.229 172.549 107.512 172.64 107.896 172.64C108.258 172.64 108.61 172.555 108.952 172.384C109.304 172.213 109.592 171.968 109.816 171.648C110.05 171.317 110.168 170.923 110.168 170.464H110.696C110.696 171.221 110.546 171.883 110.248 172.448C109.949 173.003 109.549 173.429 109.048 173.728C108.546 174.027 107.992 174.176 107.384 174.176ZM122.345 174C122.281 173.723 122.227 173.44 122.185 173.152C122.153 172.864 122.137 172.581 122.137 172.304V168.72C122.137 168.069 121.971 167.605 121.641 167.328C121.321 167.051 120.937 166.912 120.489 166.912C120.073 166.912 119.715 167.029 119.417 167.264C119.129 167.499 118.921 167.856 118.793 168.336L117.033 167.84C117.257 167.019 117.683 166.4 118.312 165.984C118.953 165.557 119.715 165.344 120.601 165.344C121.667 165.344 122.499 165.627 123.097 166.192C123.694 166.757 123.993 167.536 123.993 168.528V172.112C123.993 172.741 124.073 173.371 124.233 174H122.345ZM119.353 174.176C118.585 174.176 117.977 173.963 117.529 173.536C117.091 173.109 116.873 172.56 116.873 171.888C116.873 171.248 117.086 170.693 117.513 170.224C117.95 169.755 118.617 169.44 119.513 169.28L122.585 168.768V170.096L120.153 170.592C119.641 170.688 119.278 170.837 119.065 171.04C118.851 171.243 118.745 171.477 118.745 171.744C118.745 171.968 118.835 172.176 119.017 172.368C119.198 172.549 119.481 172.64 119.865 172.64C120.227 172.64 120.579 172.555 120.921 172.384C121.273 172.213 121.561 171.968 121.785 171.648C122.019 171.317 122.137 170.923 122.137 170.464H122.665C122.665 171.221 122.515 171.883 122.217 172.448C121.918 173.003 121.518 173.429 121.016 173.728C120.515 174.027 119.961 174.176 119.353 174.176ZM130.297 174.176C129.422 174.176 128.713 173.851 128.169 173.2C127.635 172.549 127.369 171.627 127.369 170.432V169.088C127.369 167.893 127.635 166.971 128.169 166.32C128.713 165.669 129.422 165.344 130.297 165.344C130.958 165.344 131.539 165.52 132.041 165.872C132.542 166.224 132.931 166.731 133.209 167.392C133.486 168.043 133.625 168.832 133.625 169.76C133.625 170.677 133.486 171.467 133.209 172.128C132.931 172.789 132.542 173.296 132.041 173.648C131.539 174 130.958 174.176 130.297 174.176ZM125.945 174V162.56H127.801V167.6L127.545 169.76L127.801 171.952V174H125.945ZM129.705 172.528C130.302 172.528 130.782 172.304 131.145 171.856C131.518 171.408 131.705 170.709 131.705 169.76C131.705 168.811 131.518 168.112 131.145 167.664C130.782 167.216 130.302 166.992 129.705 166.992C129.107 166.992 128.622 167.216 128.249 167.664C127.886 168.112 127.705 168.811 127.705 169.76C127.705 170.709 127.886 171.408 128.249 171.856C128.622 172.304 129.107 172.528 129.705 172.528ZM138.731 174.176C137.952 174.176 137.264 173.995 136.667 173.632C136.07 173.269 135.6 172.757 135.259 172.096C134.928 171.424 134.763 170.645 134.763 169.76C134.763 168.864 134.928 168.085 135.259 167.424C135.6 166.763 136.07 166.251 136.667 165.888C137.264 165.525 137.952 165.344 138.731 165.344C139.51 165.344 140.198 165.525 140.795 165.888C141.392 166.251 141.856 166.763 142.187 167.424C142.528 168.085 142.699 168.864 142.699 169.76C142.699 170.645 142.528 171.424 142.187 172.096C141.856 172.757 141.392 173.269 140.795 173.632C140.198 173.995 139.51 174.176 138.731 174.176ZM138.731 172.512C139.35 172.512 139.846 172.288 140.219 171.84C140.592 171.392 140.779 170.699 140.779 169.76C140.779 168.821 140.592 168.128 140.219 167.68C139.846 167.232 139.35 167.008 138.731 167.008C138.112 167.008 137.616 167.232 137.243 167.68C136.87 168.128 136.683 168.821 136.683 169.76C136.683 170.699 136.87 171.392 137.243 171.84C137.616 172.288 138.112 172.512 138.731 172.512ZM147.122 174.176C146.279 174.176 145.586 173.883 145.042 173.296C144.508 172.699 144.242 171.883 144.242 170.848V165.52H146.098V170.432C146.098 171.125 146.268 171.653 146.61 172.016C146.951 172.368 147.372 172.544 147.874 172.544C148.364 172.544 148.78 172.368 149.122 172.016C149.463 171.653 149.634 171.125 149.634 170.432H150.13C150.13 171.211 150.002 171.883 149.746 172.448C149.49 173.003 149.132 173.429 148.674 173.728C148.226 174.027 147.708 174.176 147.122 174.176ZM149.634 174V165.52H151.49V174H149.634ZM156.533 174.176C155.669 174.176 154.991 173.941 154.501 173.472C154.01 173.003 153.765 172.299 153.765 171.36V163.76L155.637 163.392V171.072C155.637 171.541 155.749 171.888 155.973 172.112C156.207 172.336 156.543 172.448 156.981 172.448C157.183 172.448 157.375 172.432 157.557 172.4C157.738 172.368 157.914 172.331 158.085 172.288V174C157.861 174.064 157.626 174.107 157.381 174.128C157.135 174.16 156.853 174.176 156.533 174.176ZM152.613 167.104V165.52H158.005V167.104H152.613ZM163.942 176.992C163.676 176.992 163.425 176.976 163.19 176.944C162.966 176.912 162.748 176.864 162.534 176.8V175.104C162.737 175.168 162.945 175.216 163.158 175.248C163.372 175.291 163.59 175.312 163.814 175.312C164.305 175.312 164.689 175.211 164.966 175.008C165.254 174.816 165.468 174.48 165.606 174L168.022 165.52H169.926L167.334 174C167.089 174.789 166.806 175.397 166.486 175.824C166.177 176.251 165.809 176.549 165.382 176.72C164.966 176.901 164.486 176.992 163.942 176.992ZM164.438 174L161.846 165.52H163.83L166.294 174H164.438ZM174.559 174.176C173.781 174.176 173.093 173.995 172.495 173.632C171.898 173.269 171.429 172.757 171.087 172.096C170.757 171.424 170.591 170.645 170.591 169.76C170.591 168.864 170.757 168.085 171.087 167.424C171.429 166.763 171.898 166.251 172.495 165.888C173.093 165.525 173.781 165.344 174.559 165.344C175.338 165.344 176.026 165.525 176.623 165.888C177.221 166.251 177.685 166.763 178.015 167.424C178.357 168.085 178.527 168.864 178.527 169.76C178.527 170.645 178.357 171.424 178.015 172.096C177.685 172.757 177.221 173.269 176.623 173.632C176.026 173.995 175.338 174.176 174.559 174.176ZM174.559 172.512C175.178 172.512 175.674 172.288 176.047 171.84C176.421 171.392 176.607 170.699 176.607 169.76C176.607 168.821 176.421 168.128 176.047 167.68C175.674 167.232 175.178 167.008 174.559 167.008C173.941 167.008 173.445 167.232 173.071 167.68C172.698 168.128 172.511 168.821 172.511 169.76C172.511 170.699 172.698 171.392 173.071 171.84C173.445 172.288 173.941 172.512 174.559 172.512ZM182.95 174.176C182.107 174.176 181.414 173.883 180.87 173.296C180.336 172.699 180.07 171.883 180.07 170.848V165.52H181.926V170.432C181.926 171.125 182.096 171.653 182.438 172.016C182.779 172.368 183.2 172.544 183.702 172.544C184.192 172.544 184.608 172.368 184.95 172.016C185.291 171.653 185.462 171.125 185.462 170.432H185.958C185.958 171.211 185.83 171.883 185.574 172.448C185.318 173.003 184.96 173.429 184.502 173.728C184.054 174.027 183.536 174.176 182.95 174.176ZM185.462 174V165.52H187.318V174H185.462ZM189.273 174V165.52H191.129V174H189.273ZM190.697 169.76C190.697 168.853 190.814 168.075 191.049 167.424C191.294 166.763 191.641 166.251 192.089 165.888C192.548 165.525 193.108 165.344 193.769 165.344V167.44H193.049C192.462 167.44 191.993 167.595 191.641 167.904C191.3 168.203 191.129 168.715 191.129 169.44L190.697 169.76ZM202.672 174.176C201.797 174.176 201.088 173.851 200.544 173.2C200.01 172.549 199.744 171.627 199.744 170.432V169.088C199.744 167.893 200.01 166.971 200.544 166.32C201.088 165.669 201.797 165.344 202.672 165.344C203.333 165.344 203.914 165.52 204.416 165.872C204.917 166.224 205.306 166.731 205.584 167.392C205.861 168.043 206 168.832 206 169.76C206 170.677 205.861 171.467 205.584 172.128C205.306 172.789 204.917 173.296 204.416 173.648C203.914 174 203.333 174.176 202.672 174.176ZM198.32 174V162.56H200.176V167.6L199.92 169.76L200.176 171.952V174H198.32ZM202.08 172.528C202.677 172.528 203.157 172.304 203.52 171.856C203.893 171.408 204.08 170.709 204.08 169.76C204.08 168.811 203.893 168.112 203.52 167.664C203.157 167.216 202.677 166.992 202.08 166.992C201.482 166.992 200.997 167.216 200.624 167.664C200.261 168.112 200.08 168.811 200.08 169.76C200.08 170.709 200.261 171.408 200.624 171.856C200.997 172.304 201.482 172.528 202.08 172.528ZM210.434 174.176C209.591 174.176 208.898 173.883 208.354 173.296C207.821 172.699 207.554 171.883 207.554 170.848V165.52H209.41V170.432C209.41 171.125 209.581 171.653 209.922 172.016C210.263 172.368 210.685 172.544 211.186 172.544C211.677 172.544 212.093 172.368 212.434 172.016C212.775 171.653 212.946 171.125 212.946 170.432H213.442C213.442 171.211 213.314 171.883 213.058 172.448C212.802 173.003 212.445 173.429 211.986 173.728C211.538 174.027 211.021 174.176 210.434 174.176ZM212.946 174V165.52H214.802V174H212.946ZM219.781 174.176C218.789 174.176 217.995 173.979 217.397 173.584C216.8 173.189 216.395 172.603 216.181 171.824L217.925 171.28C218.085 171.781 218.325 172.144 218.645 172.368C218.976 172.592 219.397 172.704 219.909 172.704C220.368 172.704 220.72 172.624 220.965 172.464C221.221 172.293 221.349 172.064 221.349 171.776C221.349 171.467 221.232 171.232 220.997 171.072C220.763 170.901 220.459 170.763 220.085 170.656C219.723 170.539 219.333 170.421 218.917 170.304C218.501 170.187 218.107 170.037 217.733 169.856C217.371 169.664 217.072 169.408 216.837 169.088C216.613 168.768 216.501 168.347 216.501 167.824C216.501 167.12 216.779 166.533 217.333 166.064C217.899 165.584 218.704 165.344 219.749 165.344C220.645 165.344 221.371 165.536 221.925 165.92C222.48 166.304 222.875 166.859 223.109 167.584L221.413 168.144C221.253 167.675 221.029 167.339 220.741 167.136C220.453 166.923 220.08 166.816 219.621 166.816C219.184 166.816 218.853 166.896 218.629 167.056C218.416 167.205 218.309 167.397 218.309 167.632C218.309 167.899 218.427 168.107 218.661 168.256C218.896 168.395 219.2 168.517 219.573 168.624C219.947 168.72 220.341 168.832 220.757 168.96C221.173 169.077 221.568 169.237 221.941 169.44C222.315 169.643 222.619 169.92 222.853 170.272C223.088 170.613 223.205 171.061 223.205 171.616C223.205 172.352 222.907 172.965 222.309 173.456C221.712 173.936 220.869 174.176 219.781 174.176ZM224.726 174V165.52H226.582V174H224.726ZM225.654 164.448C225.355 164.448 225.099 164.352 224.886 164.16C224.683 163.957 224.582 163.701 224.582 163.392C224.582 163.061 224.683 162.805 224.886 162.624C225.099 162.432 225.355 162.336 225.654 162.336C225.953 162.336 226.203 162.432 226.406 162.624C226.619 162.805 226.726 163.061 226.726 163.392C226.726 163.701 226.619 163.957 226.406 164.16C226.203 164.352 225.953 164.448 225.654 164.448ZM233.979 174V169.088C233.979 168.395 233.803 167.872 233.451 167.52C233.109 167.157 232.688 166.976 232.187 166.976C231.685 166.976 231.259 167.157 230.907 167.52C230.565 167.872 230.395 168.395 230.395 169.088H229.914C229.914 168.309 230.043 167.643 230.299 167.088C230.555 166.523 230.912 166.091 231.371 165.792C231.829 165.493 232.347 165.344 232.923 165.344C233.499 165.344 234.005 165.477 234.443 165.744C234.88 166.011 235.221 166.395 235.467 166.896C235.712 167.397 235.835 167.989 235.835 168.672V174H233.979ZM228.539 174V165.52H230.395V174H228.539ZM241.325 174.176C240.535 174.176 239.842 173.995 239.245 173.632C238.658 173.269 238.199 172.757 237.868 172.096C237.538 171.424 237.373 170.645 237.373 169.76C237.373 168.843 237.538 168.053 237.868 167.392C238.21 166.731 238.674 166.224 239.261 165.872C239.858 165.52 240.541 165.344 241.309 165.344C242.066 165.344 242.733 165.52 243.309 165.872C243.885 166.224 244.333 166.731 244.653 167.392C244.983 168.053 245.149 168.843 245.149 169.76C245.149 169.856 245.149 169.947 245.149 170.032C245.149 170.117 245.143 170.224 245.133 170.352H238.685V168.976H243.757L243.229 169.76C243.229 168.747 243.058 168.021 242.717 167.584C242.375 167.147 241.906 166.928 241.309 166.928C240.701 166.928 240.21 167.152 239.837 167.6C239.474 168.037 239.293 168.757 239.293 169.76C239.293 170.699 239.474 171.392 239.837 171.84C240.21 172.277 240.722 172.496 241.373 172.496C241.799 172.496 242.167 172.4 242.477 172.208C242.786 172.016 243.026 171.701 243.197 171.264L244.957 171.856C244.701 172.581 244.253 173.152 243.613 173.568C242.983 173.973 242.221 174.176 241.325 174.176ZM249.703 174.176C248.711 174.176 247.916 173.979 247.319 173.584C246.722 173.189 246.316 172.603 246.103 171.824L247.847 171.28C248.007 171.781 248.247 172.144 248.567 172.368C248.898 172.592 249.319 172.704 249.831 172.704C250.29 172.704 250.642 172.624 250.887 172.464C251.143 172.293 251.271 172.064 251.271 171.776C251.271 171.467 251.154 171.232 250.919 171.072C250.684 170.901 250.38 170.763 250.007 170.656C249.644 170.539 249.255 170.421 248.839 170.304C248.423 170.187 248.028 170.037 247.655 169.856C247.292 169.664 246.994 169.408 246.759 169.088C246.535 168.768 246.423 168.347 246.423 167.824C246.423 167.12 246.7 166.533 247.255 166.064C247.82 165.584 248.626 165.344 249.671 165.344C250.567 165.344 251.292 165.536 251.847 165.92C252.402 166.304 252.796 166.859 253.031 167.584L251.335 168.144C251.175 167.675 250.951 167.339 250.663 167.136C250.375 166.923 250.002 166.816 249.543 166.816C249.106 166.816 248.775 166.896 248.551 167.056C248.338 167.205 248.231 167.397 248.231 167.632C248.231 167.899 248.348 168.107 248.583 168.256C248.818 168.395 249.122 168.517 249.495 168.624C249.868 168.72 250.263 168.832 250.679 168.96C251.095 169.077 251.49 169.237 251.863 169.44C252.236 169.643 252.54 169.92 252.775 170.272C253.01 170.613 253.127 171.061 253.127 171.616C253.127 172.352 252.828 172.965 252.231 173.456C251.634 173.936 250.791 174.176 249.703 174.176ZM257.672 174.176C256.68 174.176 255.885 173.979 255.288 173.584C254.691 173.189 254.285 172.603 254.072 171.824L255.816 171.28C255.976 171.781 256.216 172.144 256.536 172.368C256.867 172.592 257.288 172.704 257.8 172.704C258.259 172.704 258.611 172.624 258.856 172.464C259.112 172.293 259.24 172.064 259.24 171.776C259.24 171.467 259.123 171.232 258.888 171.072C258.653 170.901 258.349 170.763 257.976 170.656C257.613 170.539 257.224 170.421 256.808 170.304C256.392 170.187 255.997 170.037 255.624 169.856C255.261 169.664 254.963 169.408 254.728 169.088C254.504 168.768 254.392 168.347 254.392 167.824C254.392 167.12 254.669 166.533 255.224 166.064C255.789 165.584 256.595 165.344 257.64 165.344C258.536 165.344 259.261 165.536 259.816 165.92C260.371 166.304 260.765 166.859 261 167.584L259.304 168.144C259.144 167.675 258.92 167.339 258.632 167.136C258.344 166.923 257.971 166.816 257.512 166.816C257.075 166.816 256.744 166.896 256.52 167.056C256.307 167.205 256.2 167.397 256.2 167.632C256.2 167.899 256.317 168.107 256.552 168.256C256.787 168.395 257.091 168.517 257.464 168.624C257.837 168.72 258.232 168.832 258.648 168.96C259.064 169.077 259.459 169.237 259.832 169.44C260.205 169.643 260.509 169.92 260.744 170.272C260.979 170.613 261.096 171.061 261.096 171.616C261.096 172.352 260.797 172.965 260.2 173.456C259.603 173.936 258.76 174.176 257.672 174.176ZM266.153 174.176C265.363 174.176 264.67 173.995 264.073 173.632C263.486 173.269 263.027 172.757 262.697 172.096C262.366 171.424 262.201 170.645 262.201 169.76C262.201 168.843 262.366 168.053 262.697 167.392C263.038 166.731 263.502 166.224 264.089 165.872C264.686 165.52 265.369 165.344 266.137 165.344C266.894 165.344 267.561 165.52 268.137 165.872C268.713 166.224 269.161 166.731 269.481 167.392C269.811 168.053 269.977 168.843 269.977 169.76C269.977 169.856 269.977 169.947 269.977 170.032C269.977 170.117 269.971 170.224 269.961 170.352H263.513V168.976H268.585L268.057 169.76C268.057 168.747 267.886 168.021 267.545 167.584C267.203 167.147 266.734 166.928 266.137 166.928C265.529 166.928 265.038 167.152 264.665 167.6C264.302 168.037 264.121 168.757 264.121 169.76C264.121 170.699 264.302 171.392 264.665 171.84C265.038 172.277 265.55 172.496 266.201 172.496C266.627 172.496 266.995 172.4 267.305 172.208C267.614 172.016 267.854 171.701 268.025 171.264L269.785 171.856C269.529 172.581 269.081 173.152 268.441 173.568C267.811 173.973 267.049 174.176 266.153 174.176ZM274.531 174.176C273.539 174.176 272.745 173.979 272.147 173.584C271.55 173.189 271.145 172.603 270.931 171.824L272.675 171.28C272.835 171.781 273.075 172.144 273.395 172.368C273.726 172.592 274.147 172.704 274.659 172.704C275.118 172.704 275.47 172.624 275.715 172.464C275.971 172.293 276.099 172.064 276.099 171.776C276.099 171.467 275.982 171.232 275.747 171.072C275.513 170.901 275.209 170.763 274.835 170.656C274.473 170.539 274.083 170.421 273.667 170.304C273.251 170.187 272.857 170.037 272.483 169.856C272.121 169.664 271.822 169.408 271.587 169.088C271.363 168.768 271.251 168.347 271.251 167.824C271.251 167.12 271.529 166.533 272.083 166.064C272.649 165.584 273.454 165.344 274.499 165.344C275.395 165.344 276.121 165.536 276.675 165.92C277.23 166.304 277.625 166.859 277.859 167.584L276.163 168.144C276.003 167.675 275.779 167.339 275.491 167.136C275.203 166.923 274.83 166.816 274.371 166.816C273.934 166.816 273.603 166.896 273.379 167.056C273.166 167.205 273.059 167.397 273.059 167.632C273.059 167.899 273.177 168.107 273.411 168.256C273.646 168.395 273.95 168.517 274.323 168.624C274.697 168.72 275.091 168.832 275.507 168.96C275.923 169.077 276.318 169.237 276.691 169.44C277.065 169.643 277.369 169.92 277.603 170.272C277.838 170.613 277.955 171.061 277.955 171.616C277.955 172.352 277.657 172.965 277.059 173.456C276.462 173.936 275.619 174.176 274.531 174.176Z" fill="black"/>
<rect x="96" y="207" width="166" height="50" rx="25" fill="#0145FE"/>
<path d="M153.503 237.676C152.585 237.676 151.796 237.5 151.135 237.148C150.484 236.785 149.983 236.273 149.631 235.612C149.279 234.951 149.103 234.172 149.103 233.276V226.46H151.055V233.116C151.055 234.012 151.263 234.695 151.679 235.164C152.095 235.633 152.708 235.868 153.519 235.868C154.34 235.868 154.959 235.633 155.375 235.164C155.801 234.695 156.015 234.012 156.015 233.116V226.46H157.919V233.276C157.919 234.172 157.743 234.951 157.391 235.612C157.039 236.273 156.532 236.785 155.871 237.148C155.209 237.5 154.42 237.676 153.503 237.676ZM164.281 237.676C163.406 237.676 162.697 237.351 162.153 236.7C161.62 236.049 161.353 235.127 161.353 233.932V232.588C161.353 231.393 161.62 230.471 162.153 229.82C162.697 229.169 163.406 228.844 164.281 228.844C164.942 228.844 165.524 229.02 166.025 229.372C166.526 229.724 166.916 230.231 167.193 230.892C167.47 231.543 167.609 232.332 167.609 233.26C167.609 234.177 167.47 234.967 167.193 235.628C166.916 236.289 166.526 236.796 166.025 237.148C165.524 237.5 164.942 237.676 164.281 237.676ZM159.929 240.3V229.02H161.785V231.068L161.529 233.26L161.785 235.42V240.3H159.929ZM163.689 236.028C164.286 236.028 164.766 235.804 165.129 235.356C165.502 234.908 165.689 234.209 165.689 233.26C165.689 232.311 165.502 231.612 165.129 231.164C164.766 230.716 164.286 230.492 163.689 230.492C163.092 230.492 162.606 230.716 162.233 231.164C161.87 231.612 161.689 232.311 161.689 233.26C161.689 234.209 161.87 234.908 162.233 235.356C162.606 235.804 163.092 236.028 163.689 236.028ZM172.364 240.492C171.532 240.492 170.833 240.343 170.268 240.044C169.702 239.756 169.265 239.377 168.956 238.908L170.236 237.836C170.492 238.156 170.785 238.396 171.116 238.556C171.457 238.716 171.868 238.796 172.348 238.796C172.742 238.796 173.11 238.721 173.452 238.572C173.793 238.423 174.065 238.177 174.268 237.836C174.481 237.495 174.588 237.052 174.588 236.508V234.988L174.844 232.844L174.588 230.796V229.02H176.444V236.524C176.444 237.431 176.262 238.177 175.9 238.764C175.537 239.351 175.046 239.783 174.428 240.06C173.82 240.348 173.132 240.492 172.364 240.492ZM172.092 236.844C171.441 236.844 170.865 236.679 170.364 236.348C169.862 236.017 169.468 235.553 169.18 234.956C168.902 234.359 168.764 233.655 168.764 232.844C168.764 232.023 168.902 231.313 169.18 230.716C169.468 230.119 169.862 229.66 170.364 229.34C170.865 229.009 171.441 228.844 172.092 228.844C172.977 228.844 173.676 229.137 174.188 229.724C174.71 230.311 174.972 231.121 174.972 232.156V233.516C174.972 234.551 174.71 235.367 174.188 235.964C173.676 236.551 172.977 236.844 172.092 236.844ZM172.684 235.18C173.281 235.18 173.761 234.988 174.124 234.604C174.497 234.209 174.684 233.623 174.684 232.844C174.684 232.055 174.497 231.468 174.124 231.084C173.761 230.689 173.281 230.492 172.684 230.492C172.086 230.492 171.601 230.689 171.228 231.084C170.865 231.468 170.684 232.055 170.684 232.844C170.684 233.623 170.865 234.209 171.228 234.604C171.601 234.988 172.086 235.18 172.684 235.18ZM178.398 237.5V229.02H180.254V237.5H178.398ZM179.822 233.26C179.822 232.353 179.939 231.575 180.174 230.924C180.419 230.263 180.766 229.751 181.214 229.388C181.673 229.025 182.233 228.844 182.894 228.844V230.94H182.174C181.587 230.94 181.118 231.095 180.766 231.404C180.425 231.703 180.254 232.215 180.254 232.94L179.822 233.26ZM189.188 237.5C189.124 237.223 189.071 236.94 189.028 236.652C188.996 236.364 188.98 236.081 188.98 235.804V232.22C188.98 231.569 188.815 231.105 188.484 230.828C188.164 230.551 187.78 230.412 187.332 230.412C186.916 230.412 186.559 230.529 186.26 230.764C185.972 230.999 185.764 231.356 185.636 231.836L183.876 231.34C184.1 230.519 184.527 229.9 185.156 229.484C185.796 229.057 186.559 228.844 187.444 228.844C188.511 228.844 189.343 229.127 189.94 229.692C190.538 230.257 190.836 231.036 190.836 232.028V235.612C190.836 236.241 190.916 236.871 191.076 237.5H189.188ZM186.196 237.676C185.428 237.676 184.82 237.463 184.372 237.036C183.935 236.609 183.716 236.06 183.716 235.388C183.716 234.748 183.93 234.193 184.356 233.724C184.794 233.255 185.46 232.94 186.356 232.78L189.428 232.268V233.596L186.996 234.092C186.484 234.188 186.122 234.337 185.908 234.54C185.695 234.743 185.588 234.977 185.588 235.244C185.588 235.468 185.679 235.676 185.86 235.868C186.042 236.049 186.324 236.14 186.708 236.14C187.071 236.14 187.423 236.055 187.764 235.884C188.116 235.713 188.404 235.468 188.628 235.148C188.863 234.817 188.98 234.423 188.98 233.964H189.508C189.508 234.721 189.359 235.383 189.06 235.948C188.762 236.503 188.362 236.929 187.86 237.228C187.359 237.527 186.804 237.676 186.196 237.676ZM195.717 237.676C195.066 237.676 194.49 237.5 193.989 237.148C193.487 236.796 193.093 236.289 192.805 235.628C192.527 234.967 192.389 234.177 192.389 233.26C192.389 232.332 192.527 231.543 192.805 230.892C193.093 230.231 193.487 229.724 193.989 229.372C194.49 229.02 195.066 228.844 195.717 228.844C196.602 228.844 197.311 229.169 197.845 229.82C198.378 230.471 198.645 231.393 198.645 232.588V233.932C198.645 235.127 198.378 236.049 197.845 236.7C197.311 237.351 196.602 237.676 195.717 237.676ZM196.309 236.028C196.906 236.028 197.386 235.804 197.749 235.356C198.122 234.908 198.309 234.209 198.309 233.26C198.309 232.311 198.122 231.612 197.749 231.164C197.386 230.716 196.906 230.492 196.309 230.492C195.711 230.492 195.226 230.716 194.853 231.164C194.49 231.612 194.309 232.311 194.309 233.26C194.309 234.209 194.49 234.908 194.853 235.356C195.226 235.804 195.711 236.028 196.309 236.028ZM198.213 237.5V235.452L198.469 233.26L198.213 231.1V226.06H200.069V237.5H198.213ZM205.559 237.676C204.77 237.676 204.076 237.495 203.479 237.132C202.892 236.769 202.434 236.257 202.103 235.596C201.772 234.924 201.607 234.145 201.607 233.26C201.607 232.343 201.772 231.553 202.103 230.892C202.444 230.231 202.908 229.724 203.495 229.372C204.092 229.02 204.775 228.844 205.543 228.844C206.3 228.844 206.967 229.02 207.543 229.372C208.119 229.724 208.567 230.231 208.887 230.892C209.218 231.553 209.383 232.343 209.383 233.26C209.383 233.356 209.383 233.447 209.383 233.532C209.383 233.617 209.378 233.724 209.367 233.852H202.919V232.476H207.991L207.463 233.26C207.463 232.247 207.292 231.521 206.951 231.084C206.61 230.647 206.14 230.428 205.543 230.428C204.935 230.428 204.444 230.652 204.071 231.1C203.708 231.537 203.527 232.257 203.527 233.26C203.527 234.199 203.708 234.892 204.071 235.34C204.444 235.777 204.956 235.996 205.607 235.996C206.034 235.996 206.402 235.9 206.711 235.708C207.02 235.516 207.26 235.201 207.431 234.764L209.191 235.356C208.935 236.081 208.487 236.652 207.847 237.068C207.218 237.473 206.455 237.676 205.559 237.676Z" fill="white"/>
<defs>
<linearGradient id="paint0_linear_266_18253" x1="187.5" y1="0" x2="187.5" y2="544" gradientUnits="userSpaceOnUse">
<stop stop-color="white" stop-opacity="0.2"/>
<stop offset="0.283586" stop-color="white" stop-opacity="0.877999"/>
<stop offset="0.417824" stop-color="white" stop-opacity="0.975492"/>
<stop offset="1" stop-color="white"/>
</linearGradient>
</defs>
</svg>
