<svg width="166" height="50" viewBox="0 0 166 50" fill="none" xmlns="http://www.w3.org/2000/svg">
<rect x="0.5" y="0.5" width="165" height="49" rx="24.5" fill="white"/>
<rect x="0.5" y="0.5" width="165" height="49" rx="24.5" stroke="#334155"/>
<path d="M57.5025 30.676C56.5852 30.676 55.7958 30.5 55.1345 30.148C54.4838 29.7853 53.9825 29.2733 53.6305 28.612C53.2785 27.9507 53.1025 27.172 53.1025 26.276V19.46H55.0545V26.116C55.0545 27.012 55.2625 27.6947 55.6785 28.164C56.0945 28.6333 56.7078 28.868 57.5185 28.868C58.3398 28.868 58.9585 28.6333 59.3745 28.164C59.8012 27.6947 60.0145 27.012 60.0145 26.116V19.46H61.9185V26.276C61.9185 27.172 61.7425 27.9507 61.3905 28.612C61.0385 29.2733 60.5318 29.7853 59.8705 30.148C59.2092 30.5 58.4198 30.676 57.5025 30.676ZM68.2811 30.676C67.4065 30.676 66.6971 30.3507 66.1531 29.7C65.6198 29.0493 65.3531 28.1267 65.3531 26.932V25.588C65.3531 24.3933 65.6198 23.4707 66.1531 22.82C66.6971 22.1693 67.4065 21.844 68.2811 21.844C68.9425 21.844 69.5238 22.02 70.0251 22.372C70.5265 22.724 70.9158 23.2307 71.1931 23.892C71.4705 24.5427 71.6091 25.332 71.6091 26.26C71.6091 27.1773 71.4705 27.9667 71.1931 28.628C70.9158 29.2893 70.5265 29.796 70.0251 30.148C69.5238 30.5 68.9425 30.676 68.2811 30.676ZM63.9291 33.3V22.02H65.7851V24.068L65.5291 26.26L65.7851 28.42V33.3H63.9291ZM67.6891 29.028C68.2865 29.028 68.7665 28.804 69.1291 28.356C69.5025 27.908 69.6891 27.2093 69.6891 26.26C69.6891 25.3107 69.5025 24.612 69.1291 24.164C68.7665 23.716 68.2865 23.492 67.6891 23.492C67.0918 23.492 66.6065 23.716 66.2331 24.164C65.8705 24.612 65.6891 25.3107 65.6891 26.26C65.6891 27.2093 65.8705 27.908 66.2331 28.356C66.6065 28.804 67.0918 29.028 67.6891 29.028ZM76.3635 33.492C75.5315 33.492 74.8328 33.3427 74.2675 33.044C73.7022 32.756 73.2648 32.3773 72.9555 31.908L74.2355 30.836C74.4915 31.156 74.7848 31.396 75.1155 31.556C75.4568 31.716 75.8675 31.796 76.3475 31.796C76.7422 31.796 77.1102 31.7213 77.4515 31.572C77.7928 31.4227 78.0648 31.1773 78.2675 30.836C78.4808 30.4947 78.5875 30.052 78.5875 29.508V27.988L78.8435 25.844L78.5875 23.796V22.02H80.4435V29.524C80.4435 30.4307 80.2622 31.1773 79.8995 31.764C79.5368 32.3507 79.0462 32.7827 78.4275 33.06C77.8195 33.348 77.1315 33.492 76.3635 33.492ZM76.0915 29.844C75.4408 29.844 74.8648 29.6787 74.3635 29.348C73.8622 29.0173 73.4675 28.5533 73.1795 27.956C72.9022 27.3587 72.7635 26.6547 72.7635 25.844C72.7635 25.0227 72.9022 24.3133 73.1795 23.716C73.4675 23.1187 73.8622 22.66 74.3635 22.34C74.8648 22.0093 75.4408 21.844 76.0915 21.844C76.9768 21.844 77.6755 22.1373 78.1875 22.724C78.7102 23.3107 78.9715 24.1213 78.9715 25.156V26.516C78.9715 27.5507 78.7102 28.3667 78.1875 28.964C77.6755 29.5507 76.9768 29.844 76.0915 29.844ZM76.6835 28.18C77.2808 28.18 77.7608 27.988 78.1235 27.604C78.4968 27.2093 78.6835 26.6227 78.6835 25.844C78.6835 25.0547 78.4968 24.468 78.1235 24.084C77.7608 23.6893 77.2808 23.492 76.6835 23.492C76.0862 23.492 75.6008 23.6893 75.2275 24.084C74.8648 24.468 74.6835 25.0547 74.6835 25.844C74.6835 26.6227 74.8648 27.2093 75.2275 27.604C75.6008 27.988 76.0862 28.18 76.6835 28.18ZM82.3979 30.5V22.02H84.2539V30.5H82.3979ZM83.8219 26.26C83.8219 25.3533 83.9392 24.5747 84.1739 23.924C84.4192 23.2627 84.7659 22.7507 85.2139 22.388C85.6725 22.0253 86.2325 21.844 86.8939 21.844V23.94H86.1739C85.5872 23.94 85.1179 24.0947 84.7659 24.404C84.4245 24.7027 84.2539 25.2147 84.2539 25.94L83.8219 26.26ZM93.1883 30.5C93.1243 30.2227 93.0709 29.94 93.0283 29.652C92.9963 29.364 92.9803 29.0813 92.9803 28.804V25.22C92.9803 24.5693 92.8149 24.1053 92.4843 23.828C92.1643 23.5507 91.7803 23.412 91.3323 23.412C90.9163 23.412 90.5589 23.5293 90.2603 23.764C89.9723 23.9987 89.7643 24.356 89.6363 24.836L87.8763 24.34C88.1003 23.5187 88.5269 22.9 89.1562 22.484C89.7963 22.0573 90.5589 21.844 91.4443 21.844C92.5109 21.844 93.3429 22.1267 93.9403 22.692C94.5376 23.2573 94.8363 24.036 94.8363 25.028V28.612C94.8363 29.2413 94.9163 29.8707 95.0763 30.5H93.1883ZM90.1963 30.676C89.4283 30.676 88.8203 30.4627 88.3723 30.036C87.9349 29.6093 87.7163 29.06 87.7163 28.388C87.7163 27.748 87.9296 27.1933 88.3563 26.724C88.7936 26.2547 89.4603 25.94 90.3563 25.78L93.4283 25.268V26.596L90.9963 27.092C90.4843 27.188 90.1216 27.3373 89.9083 27.54C89.6949 27.7427 89.5883 27.9773 89.5883 28.244C89.5883 28.468 89.6789 28.676 89.8603 28.868C90.0416 29.0493 90.3243 29.14 90.7083 29.14C91.0709 29.14 91.4229 29.0547 91.7643 28.884C92.1163 28.7133 92.4043 28.468 92.6283 28.148C92.8629 27.8173 92.9803 27.4227 92.9803 26.964H93.5083C93.5083 27.7213 93.3589 28.3827 93.0603 28.948C92.7616 29.5027 92.3616 29.9293 91.8602 30.228C91.3589 30.5267 90.8043 30.676 90.1963 30.676ZM99.7165 30.676C99.0658 30.676 98.4898 30.5 97.9885 30.148C97.4872 29.796 97.0925 29.2893 96.8045 28.628C96.5272 27.9667 96.3885 27.1773 96.3885 26.26C96.3885 25.332 96.5272 24.5427 96.8045 23.892C97.0925 23.2307 97.4872 22.724 97.9885 22.372C98.4898 22.02 99.0658 21.844 99.7165 21.844C100.602 21.844 101.311 22.1693 101.845 22.82C102.378 23.4707 102.645 24.3933 102.645 25.588V26.932C102.645 28.1267 102.378 29.0493 101.845 29.7C101.311 30.3507 100.602 30.676 99.7165 30.676ZM100.309 29.028C100.906 29.028 101.386 28.804 101.749 28.356C102.122 27.908 102.309 27.2093 102.309 26.26C102.309 25.3107 102.122 24.612 101.749 24.164C101.386 23.716 100.906 23.492 100.309 23.492C99.7112 23.492 99.2258 23.716 98.8525 24.164C98.4898 24.612 98.3085 25.3107 98.3085 26.26C98.3085 27.2093 98.4898 27.908 98.8525 28.356C99.2258 28.804 99.7112 29.028 100.309 29.028ZM102.213 30.5V28.452L102.469 26.26L102.213 24.1V19.06H104.069V30.5H102.213ZM109.559 30.676C108.77 30.676 108.076 30.4947 107.479 30.132C106.892 29.7693 106.434 29.2573 106.103 28.596C105.772 27.924 105.607 27.1453 105.607 26.26C105.607 25.3427 105.772 24.5533 106.103 23.892C106.444 23.2307 106.908 22.724 107.495 22.372C108.092 22.02 108.775 21.844 109.543 21.844C110.3 21.844 110.967 22.02 111.543 22.372C112.119 22.724 112.567 23.2307 112.887 23.892C113.218 24.5533 113.383 25.3427 113.383 26.26C113.383 26.356 113.383 26.4467 113.383 26.532C113.383 26.6173 113.378 26.724 113.367 26.852H106.919V25.476H111.991L111.463 26.26C111.463 25.2467 111.292 24.5213 110.951 24.084C110.61 23.6467 110.14 23.428 109.543 23.428C108.935 23.428 108.444 23.652 108.071 24.1C107.708 24.5373 107.527 25.2573 107.527 26.26C107.527 27.1987 107.708 27.892 108.071 28.34C108.444 28.7773 108.956 28.996 109.607 28.996C110.034 28.996 110.402 28.9 110.711 28.708C111.02 28.516 111.26 28.2013 111.431 27.764L113.191 28.356C112.935 29.0813 112.487 29.652 111.847 30.068C111.218 30.4733 110.455 30.676 109.559 30.676Z" fill="#1E293B"/>
</svg>
