<svg width="23" height="17" viewBox="0 0 23 17" fill="none" xmlns="http://www.w3.org/2000/svg">
<circle cx="3.40426" cy="3.40426" r="3.40426" transform="matrix(-1 0 0 1 15.1172 1)" stroke="#94A3B8" stroke-width="1.5"/>
<path d="M5.75586 12.8594C5.75586 12.1272 6.21616 11.474 6.90572 11.2277V11.2277C10.0146 10.1174 13.412 10.1174 16.5209 11.2277V11.2277C17.2105 11.474 17.6708 12.1272 17.6708 12.8594V13.979C17.6708 14.9896 16.7757 15.7659 15.7753 15.6229L15.4417 15.5753C12.9687 15.222 10.458 15.222 7.98491 15.5753L7.65136 15.6229C6.65093 15.7659 5.75586 14.9896 5.75586 13.979V12.8594Z" stroke="#94A3B8" stroke-width="1.5"/>
<path d="M16.8174 7.90277C18.2947 7.90277 19.4922 6.70523 19.4922 5.22799C19.4922 3.75076 18.2947 2.55322 16.8174 2.55322" stroke="#94A3B8" stroke-width="1.5" stroke-linecap="round"/>
<path d="M19.7471 14.0051L20.0092 14.0425C20.7952 14.1548 21.4985 13.5448 21.4985 12.7508V11.8711C21.4985 11.2958 21.1368 10.7826 20.595 10.5891C20.0546 10.3961 19.503 10.2458 18.9453 10.1382" stroke="#94A3B8" stroke-width="1.5" stroke-linecap="round"/>
<path d="M6.18258 7.90277C4.70535 7.90277 3.50781 6.70523 3.50781 5.22799C3.50781 3.75076 4.70535 2.55322 6.18258 2.55322" stroke="#94A3B8" stroke-width="1.5" stroke-linecap="round"/>
<path d="M3.25289 14.0051L2.99082 14.0425C2.20476 14.1548 1.5015 13.5448 1.5015 12.7508V11.8711C1.5015 11.2958 1.86316 10.7826 2.40496 10.5891C2.94541 10.3961 3.49696 10.2458 4.05469 10.1382" stroke="#94A3B8" stroke-width="1.5" stroke-linecap="round"/>
</svg>
