<svg width="24" height="24" viewBox="0 0 24 24" fill="none" xmlns="http://www.w3.org/2000/svg">
<rect width="24" height="24" rx="12" fill="#F1F5F9"/>
<g clip-path="url(#clip0_385_10525)">
<path d="M11.9999 11.8625C10.6973 11.8625 9.55367 12.4295 8.69267 13.5023C8.39014 13.8792 8.45051 14.4298 8.8272 14.7325C9.20454 15.0353 9.75492 14.9745 10.0572 14.5978C10.5822 13.944 11.2356 13.6125 11.9999 13.6125C12.7643 13.6125 13.4177 13.944 13.9427 14.5978C14.1155 14.813 14.3692 14.925 14.6256 14.925C14.8177 14.925 15.0113 14.862 15.1727 14.7325C15.5496 14.43 15.6098 13.8792 15.3072 13.5023C14.4462 12.4295 13.3026 11.8625 11.9999 11.8625Z" fill="#28C8FF"/>
<path d="M12.0004 14.4875C11.3859 14.4875 10.7957 14.7496 10.3812 15.2066C10.1014 15.515 10.0778 15.9781 10.3247 16.3135L11.2958 17.6314C11.4607 17.8554 11.7223 17.9875 12.0004 17.9875C12.2784 17.9875 12.54 17.8554 12.705 17.6316L13.676 16.3137C13.923 15.9783 13.8993 15.5152 13.6196 15.2068C13.205 14.7496 12.6148 14.4875 12.0004 14.4875Z" fill="#008CD2"/>
<path d="M12.0004 9.23755C10.1416 9.23755 8.33192 9.98567 6.90457 11.3443C6.55436 11.6775 6.54101 12.2314 6.87395 12.5814C7.20689 12.9311 7.76076 12.9454 8.11098 12.612C9.21173 11.5644 10.5927 10.9875 12.0004 10.9875C13.408 10.9875 14.789 11.5644 15.8895 12.612C16.0588 12.7732 16.276 12.8533 16.4926 12.8533C16.7238 12.8533 16.9546 12.762 17.1265 12.5816C17.4595 12.2316 17.4461 11.6777 17.0959 11.3445C15.6688 9.98567 13.8591 9.23755 12.0004 9.23755Z" fill="#008CD2"/>
<path d="M18.7111 9.40795C16.7126 7.60524 14.3293 6.61255 12.0001 6.61255C9.67083 6.61255 7.28754 7.60524 5.28904 9.40795C4.93008 9.73149 4.90164 10.2849 5.22517 10.6437C5.54892 11.0026 6.10236 11.0311 6.46089 10.7073C7.43192 9.83167 9.44267 8.36255 12.0001 8.36255C14.5575 8.36255 16.5682 9.83167 17.539 10.7073C17.7064 10.8583 17.916 10.9326 18.1249 10.9326C18.364 10.9326 18.6022 10.8353 18.775 10.6437C19.0985 10.2849 19.0699 9.73149 18.7111 9.40795Z" fill="#28C8FF"/>
</g>
<defs>
<clipPath id="clip0_385_10525">
<rect width="14" height="14" fill="white" transform="translate(5 5.30005)"/>
</clipPath>
</defs>
</svg>
