<svg width="12" height="12" viewBox="0 0 12 12" fill="none" xmlns="http://www.w3.org/2000/svg">
<path d="M9.76996 5.62495L9.83123 5.54591C7.50513 3.74293 4.48978 3.74302 2.15879 5.54585L2.15879 5.54585L2.1584 5.54615C1.95456 5.7054 1.91785 6.00256 2.07526 6.21033L2.07525 6.21034L2.07616 6.21151C2.23541 6.41535 2.53258 6.45206 2.74035 6.29466L2.74035 6.29466L2.74106 6.29411C4.71996 4.76698 7.27458 4.76689 9.25355 6.29386C9.34178 6.36306 9.4436 6.39495 9.54496 6.39495C9.68698 6.39495 9.82911 6.33341 9.91557 6.20921C10.0775 6.00085 10.0396 5.70374 9.83035 5.54524L9.76996 5.62495ZM9.76996 5.62495C9.93496 5.74995 9.96497 5.98495 9.83497 6.14995H2.15497C2.02997 5.98495 2.05997 5.74995 2.21997 5.62495C4.51497 3.84995 7.47996 3.84995 9.76996 5.62495Z" fill="#16A34A" stroke="#16A34A" stroke-width="0.2"/>
<path d="M1.29016 4.55467L1.29016 4.55468L1.29097 4.55405C4.1498 2.34204 7.84434 2.34189 10.7083 4.55386C10.7966 4.62308 10.8984 4.65495 10.9998 4.65495C11.1374 4.65495 11.2833 4.59312 11.3743 4.4706C11.5372 4.26242 11.4999 3.96479 11.2909 3.8058C8.07491 1.32302 3.91965 1.32297 0.708598 3.80584L0.708597 3.80584L0.708203 3.80615C0.50436 3.9654 0.467663 4.26258 0.625064 4.47035L0.625055 4.47035L0.62597 4.47152C0.78522 4.67536 1.08239 4.71207 1.29016 4.55467Z" fill="#16A34A" stroke="#16A34A" stroke-width="0.2"/>
<path d="M3.68567 8.1196L3.68567 8.1196L3.68637 8.11906C5.09536 7.03185 6.90995 7.03191 8.31381 8.11877C8.40206 8.18799 8.50391 8.21989 8.60528 8.21989C8.74439 8.21989 8.88468 8.15695 8.97482 8.03553C9.13793 7.82711 9.10035 7.52903 8.89067 7.37018L8.83028 7.44989L8.89145 7.37078C7.13543 6.01293 4.86013 6.01293 3.10411 7.37078L3.10411 7.37078L3.10372 7.37109C2.89988 7.53034 2.86317 7.82752 3.02057 8.03529L3.02056 8.03529L3.02148 8.03647C3.18073 8.24031 3.4779 8.277 3.68567 8.1196Z" fill="#16A34A" stroke="#16A34A" stroke-width="0.2"/>
<path d="M4.98547 9.9497L4.98548 9.9497L4.98644 9.94895C5.60028 9.47205 6.39465 9.472 7.00853 9.9488C7.0968 10.0181 7.19868 10.05 7.30009 10.05C7.44513 10.05 7.58519 9.98132 7.66991 9.86525C7.83269 9.65684 7.79503 9.35904 7.58547 9.20028L7.52509 9.27999L7.5863 9.20092C6.62026 8.45301 5.3699 8.45301 4.40386 9.20092L4.40386 9.20092L4.40352 9.20119C4.19967 9.36044 4.16298 9.6576 4.32038 9.86537L4.32037 9.86538L4.32128 9.86655C4.48053 10.0704 4.7777 10.1071 4.98547 9.9497Z" fill="#16A34A" stroke="#16A34A" stroke-width="0.2"/>
</svg>
