<svg width="9" height="10" viewBox="0 0 9 10" fill="none" xmlns="http://www.w3.org/2000/svg">
<g clip-path="url(#clip0_279_12030)">
<path d="M0.375 0.974976L8.625 9.22498M6.27 4.74748C6.57716 4.89738 6.86439 5.08509 7.125 5.30623M1.875 5.30623C2.43078 4.84154 3.0997 4.53231 3.81375 4.40998M4.01625 2.49373C4.81966 2.42899 5.62787 2.52679 6.39264 2.78128C7.15742 3.03578 7.86308 3.44175 8.4675 3.97498M0.5325 3.97498C1.05269 3.51517 1.64914 3.14969 2.295 2.89498M3.19875 6.64123C3.57945 6.37076 4.03488 6.22545 4.50188 6.22545C4.96887 6.22545 5.4243 6.37076 5.805 6.64123M4.5 8.09998H4.50375" stroke="#64748B" stroke-width="0.75" stroke-linecap="round" stroke-linejoin="round"/>
</g>
<defs>
<clipPath id="clip0_279_12030">
<rect width="9" height="9" fill="white" transform="translate(0 0.599976)"/>
</clipPath>
</defs>
</svg>
